<svg width="24" height="24" viewBox="0 0 24 24" fill="none" xmlns="http://www.w3.org/2000/svg">
<path fill-rule="evenodd" clip-rule="evenodd" d="M9.84968 16.9995C10.0019 16.9995 10.1552 16.9524 10.2828 16.8554L16.0132 12.5058C16.0717 12.4614 16.1214 12.409 16.161 12.3508C16.2156 12.2709 16.2521 12.179 16.2651 12.0802C16.2686 12.0537 16.2704 12.0268 16.2704 11.9998C16.2704 11.9748 16.2688 11.95 16.2658 11.9255C16.2517 11.8085 16.2046 11.7009 16.1334 11.6112C16.0991 11.5679 16.0588 11.5283 16.0132 11.4937L10.2828 7.14408C9.98581 6.91866 9.55098 6.96259 9.31153 7.24197C9.07207 7.52145 9.11858 7.93074 9.4156 8.15616L13.6228 11.3496H2.69075C2.30928 11.3496 2 11.6407 2 11.9997C2 12.3587 2.30928 12.6498 2.69075 12.6498H13.6228L9.41554 15.8433C9.11858 16.0688 9.07201 16.4781 9.31147 16.7575C9.44801 16.9168 9.64798 16.9995 9.84968 16.9995ZM16.0132 16.8559C15.8855 16.9529 15.7323 17 15.58 17C15.3783 17 15.1784 16.9172 15.0419 16.7581C14.8024 16.4786 14.849 16.0693 15.1459 15.8439L20.2091 12.0002L15.1459 8.1567C14.8489 7.93123 14.8024 7.522 15.0419 7.24252C15.2814 6.96314 15.7161 6.91926 16.0132 7.14468L21.7429 11.4943C21.9055 11.6177 22 11.8038 22 12.0003C22 12.1968 21.9055 12.3829 21.7429 12.5063L16.0132 16.8559Z" fill="white"/>
</svg>
