<svg width="13" height="15" viewBox="0 0 13 15" fill="none" xmlns="http://www.w3.org/2000/svg">
<path d="M9.13356 4.07167C6.81772 2.74191 4.50761 1.41091 2.10005 0.112676C1.51536 -0.20177 0.311584 0.206987 0.810292 0.543273C2.59303 1.73851 4.45028 2.90943 6.31327 4.0806C7.9699 5.12321 11.1112 6.35419 9.86728 7.68394C8.8756 8.74591 6.70881 9.81086 5.26428 10.7798L0.214169 14.1654C-0.702994 14.7792 1.56695 15.35 2.47265 14.7373C4.50761 13.3638 6.53685 11.9904 8.57181 10.6172C10.045 9.62124 12.7506 8.36942 12.9857 7.14043C13.2149 5.95586 10.6411 4.94005 9.13356 4.07167Z" fill="#FE6338"/>
</svg>
