<svg width="25" height="24" viewBox="0 0 25 24" fill="none" xmlns="http://www.w3.org/2000/svg">
<path d="M22.4018 10.6153C22.0412 7.99522 20.6517 5.62536 18.5393 4.02707C16.4268 2.42878 13.7643 1.73298 11.1375 2.09273C8.51063 2.45249 6.13468 3.83833 4.53228 5.94539C2.92988 8.05245 2.23229 10.7081 2.59297 13.3282C2.88897 15.4966 3.88745 17.509 5.4363 19.0589C6.98516 20.6088 8.99948 21.6113 11.1724 21.9136C11.6179 21.9713 12.0666 22.0002 12.5157 22C14.3278 22.0033 16.106 21.5101 17.6563 20.5744C17.7358 20.5318 17.8058 20.4735 17.862 20.4031C17.9182 20.3326 17.9595 20.2516 17.9833 20.1648C18.0072 20.078 18.0131 19.9872 18.0007 19.8981C17.9884 19.8089 17.958 19.7232 17.9114 19.6461C17.8648 19.569 17.803 19.5021 17.7298 19.4496C17.6565 19.397 17.5733 19.3599 17.4853 19.3403C17.3972 19.3208 17.306 19.3193 17.2173 19.336C17.1287 19.3527 17.0443 19.3871 16.9694 19.4373C15.2129 20.4904 13.1392 20.8886 11.1163 20.5613C9.09339 20.2339 7.25224 19.2022 5.9197 17.6492C4.58717 16.0962 3.84948 14.1225 3.8376 12.0784C3.82573 10.0344 4.54043 8.05225 5.85483 6.48397C7.16923 4.91568 8.99828 3.86271 11.0172 3.512C13.0362 3.16129 15.1144 3.53554 16.883 4.56829C18.6515 5.60104 19.9959 7.22548 20.6776 9.1532C21.3592 11.0809 21.3339 13.1872 20.6061 15.0981C20.4873 15.4102 20.2626 15.6709 19.9711 15.8349C19.6795 15.999 19.3396 16.056 19.0104 15.996C18.6811 15.9361 18.3833 15.763 18.1687 15.5068C17.954 15.2506 17.8362 14.9275 17.8356 14.5936V7.37867C17.8356 7.2024 17.7654 7.03336 17.6404 6.90872C17.5155 6.78408 17.346 6.71406 17.1693 6.71406C16.9925 6.71406 16.8231 6.78408 16.6981 6.90872C16.5731 7.03336 16.5029 7.2024 16.5029 7.37867V8.52578C15.7819 7.70734 14.8261 7.12961 13.765 6.8708C12.704 6.61198 11.5888 6.68456 10.5704 7.07873C9.55203 7.47289 8.67966 8.16961 8.07134 9.07458C7.46303 9.97954 7.14814 11.0491 7.16929 12.1384C7.19045 13.2278 7.54663 14.2843 8.18962 15.1651C8.83262 16.0459 9.73139 16.7084 10.7643 17.0629C11.7972 17.4175 12.9144 17.4469 13.9646 17.1473C15.0149 16.8477 15.9475 16.2335 16.6362 15.3878C16.8015 15.9385 17.1358 16.4237 17.592 16.775C18.0482 17.1263 18.6033 17.326 19.1793 17.3461C19.7553 17.3662 20.3231 17.2057 20.8028 16.887C21.2825 16.5684 21.65 16.1078 21.8535 15.5699C22.4483 13.99 22.6368 12.2866 22.4018 10.6153ZM12.5051 16.0185C11.7144 16.0185 10.9414 15.7847 10.284 15.3465C9.62651 14.9083 9.11409 14.2856 8.8115 13.5569C8.50891 12.8283 8.42974 12.0265 8.58399 11.253C8.73825 10.4794 9.11902 9.76891 9.67813 9.21122C10.2372 8.65354 10.9496 8.27376 11.7251 8.1199C12.5006 7.96603 13.3045 8.045 14.035 8.34682C14.7655 8.64863 15.3899 9.15973 15.8292 9.8155C16.2685 10.4713 16.5029 11.2422 16.5029 12.0309C16.5019 13.0882 16.0803 14.1018 15.3308 14.8494C14.5813 15.597 13.565 16.0175 12.5051 16.0185Z" fill="white" stroke="white"/>
</svg>
