<svg width="24" height="24" viewBox="0 0 24 24" fill="none" xmlns="http://www.w3.org/2000/svg">
<path d="M23.3333 13H8.66667C8.29867 13 8 12.552 8 12C8 11.448 8.29867 11 8.66667 11H23.3333C23.7013 11 24 11.448 24 12C24 12.552 23.7013 13 23.3333 13Z" fill="white"/>
<path d="M23 5.3125H1C0.447998 5.3125 0 4.8645 0 4.3125C0 3.7605 0.447998 3.3125 1 3.3125H23C23.552 3.3125 24 3.7605 24 4.3125C24 4.8645 23.552 5.3125 23 5.3125Z" fill="white"/>
<path d="M23 20.6455H1C0.447998 20.6455 0 20.1975 0 19.6455C0 19.0935 0.447998 18.6455 1 18.6455H23C23.552 18.6455 24 19.0935 24 19.6455C24 20.1975 23.552 20.6455 23 20.6455Z" fill="white"/>
</svg>
