<svg width="24" height="24" viewBox="0 0 24 24" fill="none" xmlns="http://www.w3.org/2000/svg">
<path fill-rule="evenodd" clip-rule="evenodd" d="M19.2461 22H4.75385C3.23463 22 2 20.8111 2 19.3481V6.13331C2 4.67035 3.23463 3.48145 4.75385 3.48145H5.84614V2.74073C5.84614 2.33331 6.19228 2 6.61536 2C7.03844 2 7.38464 2.33331 7.38464 2.74073V3.48145H16.6154V2.74073C16.6154 2.33331 16.9615 2 17.3846 2C17.8077 2 18.1539 2.33331 18.1539 2.74073V3.48145H19.2461C20.7654 3.48145 22 4.67035 22 6.13331V19.3481C22 20.8111 20.7654 22 19.2461 22ZM4.75385 4.96297C4.08464 4.96297 3.5385 5.48889 3.5385 6.13331V19.3481C3.5385 19.9926 4.08464 20.5185 4.75385 20.5185H19.2461C19.9153 20.5185 20.4614 19.9926 20.4614 19.3481V6.13331C20.4614 5.48889 19.9153 4.96297 19.2461 4.96297H18.1538V5.7037C18.1538 6.11111 17.8077 6.44442 17.3846 6.44442C16.9615 6.44442 16.6154 6.11111 16.6154 5.7037V4.96297H7.38458V5.7037C7.38458 6.11111 7.03844 6.44442 6.61536 6.44442C6.19228 6.44442 5.84614 6.11111 5.84614 5.7037V4.96297H4.75385ZM8.53847 9.59258C8.53847 10.1039 8.10798 10.5185 7.57695 10.5185C7.04591 10.5185 6.61543 10.1039 6.61543 9.59258C6.61543 9.08121 7.04591 8.66667 7.57695 8.66667C8.10798 8.66667 8.53847 9.08121 8.53847 9.59258ZM11.8077 10.5185C12.3387 10.5185 12.7692 10.1039 12.7692 9.59258C12.7692 9.08121 12.3387 8.66667 11.8077 8.66667C11.2767 8.66667 10.8462 9.08121 10.8462 9.59258C10.8462 10.1039 11.2767 10.5185 11.8077 10.5185ZM17 9.59258C17 10.1039 16.5695 10.5185 16.0385 10.5185C15.5074 10.5185 15.0769 10.1039 15.0769 9.59258C15.0769 9.08121 15.5074 8.66667 16.0385 8.66667C16.5695 8.66667 17 9.08121 17 9.59258ZM7.57695 14.2222C8.10798 14.2222 8.53847 13.8076 8.53847 13.2963C8.53847 12.7849 8.10798 12.3704 7.57695 12.3704C7.04591 12.3704 6.61543 12.7849 6.61543 13.2963C6.61543 13.8076 7.04591 14.2222 7.57695 14.2222ZM12.7692 13.2963C12.7692 13.8076 12.3387 14.2222 11.8077 14.2222C11.2767 14.2222 10.8462 13.8076 10.8462 13.2963C10.8462 12.7849 11.2767 12.3704 11.8077 12.3704C12.3387 12.3704 12.7692 12.7849 12.7692 13.2963ZM16.0385 14.2222C16.5695 14.2222 17 13.8076 17 13.2963C17 12.7849 16.5695 12.3704 16.0385 12.3704C15.5074 12.3704 15.0769 12.7849 15.0769 13.2963C15.0769 13.8076 15.5074 14.2222 16.0385 14.2222ZM8.53847 17C8.53847 17.5113 8.10798 17.9259 7.57695 17.9259C7.04591 17.9259 6.61543 17.5113 6.61543 17C6.61543 16.4886 7.04591 16.0741 7.57695 16.0741C8.10798 16.0741 8.53847 16.4886 8.53847 17ZM11.8077 17.9259C12.3387 17.9259 12.7692 17.5113 12.7692 17C12.7692 16.4886 12.3387 16.0741 11.8077 16.0741C11.2767 16.0741 10.8462 16.4886 10.8462 17C10.8462 17.5113 11.2767 17.9259 11.8077 17.9259ZM17 17C17 17.5113 16.5695 17.9259 16.0385 17.9259C15.5074 17.9259 15.0769 17.5113 15.0769 17C15.0769 16.4886 15.5074 16.0741 16.0385 16.0741C16.5695 16.0741 17 16.4886 17 17Z" fill="white"/>
</svg>
