<svg width="26" height="26" viewBox="0 0 26 26" fill="none" xmlns="http://www.w3.org/2000/svg">
<path d="M1.04702 19.3424L5.49892 18.1112C6.78511 18.8678 8.23315 19.2966 9.72795 19.3669C10.6664 22.6941 13.7334 25.05 17.2422 25.05C18.6403 25.05 20.0003 24.6795 21.1967 23.9754L24.9528 25.0143L25.0378 25.0378L25.0143 24.9528L23.9754 21.1967C24.6795 20.0003 25.05 18.6403 25.05 17.2422C25.05 13.7336 22.6943 10.6668 19.3673 9.72814C19.1389 4.84911 15.0986 0.95 10.1641 0.95C5.08329 0.95 0.95 5.08329 0.95 10.1641C0.95 11.8127 1.38695 13.4182 2.2169 14.8292L0.985501 19.2809L0.961978 19.366L1.04702 19.3424ZM5.7549 16.4947L5.73612 16.4827L5.71463 16.4887L3.12232 17.2058L3.83945 14.6135L3.84539 14.592L3.83338 14.5732L3.66457 14.3092C2.87414 13.0725 2.45625 11.6392 2.45625 10.1641C2.45625 5.91397 5.91397 2.45625 10.1641 2.45625C14.4142 2.45625 17.8719 5.91397 17.8719 10.1641C17.8719 14.4142 14.4142 17.8719 10.1641 17.8719C8.68894 17.8719 7.25579 17.454 6.01894 16.6636C6.01894 16.6636 6.01893 16.6636 6.01893 16.6636L5.7549 16.4947ZM22.8777 22.8777L20.976 22.3515L20.9543 22.3455L20.9354 22.3578L20.6701 22.5305C19.6498 23.1933 18.4643 23.5438 17.2422 23.5438C14.5354 23.5438 12.1542 21.807 11.2879 19.3091C15.4718 18.7982 18.7982 15.4718 19.3093 11.2877C21.807 12.1542 23.5438 14.5354 23.5438 17.2422C23.5438 18.4643 23.1933 19.6498 22.5305 20.6701L22.3578 20.9354L22.3455 20.9543L22.3515 20.976L22.8777 22.8777Z" fill="white" stroke="white" stroke-width="0.1"/>
<path d="M9.46094 13.7031H10.8672V15.1094H9.46094V13.7031Z" fill="white"/>
<path d="M11.5703 8.03125C11.5703 8.4306 11.4077 8.79919 11.1125 9.06927L9.46094 10.581V12.2969H10.8672V11.2003L12.062 10.1068C12.6431 9.57483 12.9766 8.81842 12.9766 8.03125C12.9766 6.48035 11.715 5.21875 10.1641 5.21875C8.61316 5.21875 7.35156 6.48035 7.35156 8.03125H8.75781C8.75781 7.2558 9.38861 6.625 10.1641 6.625C10.9395 6.625 11.5703 7.2558 11.5703 8.03125Z" fill="white"/>
</svg>
