<svg width="273" height="241" viewBox="0 0 273 241" fill="none" xmlns="http://www.w3.org/2000/svg">
<path d="M229.555 50.1582C237.464 50.9272 254.007 48.3787 256.907 32.0332C259.807 15.6876 267.563 11.1618 271.078 10.9421" stroke="#F3603F" stroke-width="3" stroke-linecap="round"/>
<circle cx="159.318" cy="116.831" r="79.0761" fill="white" fill-opacity="0.1"/>
<g filter="url(#filter0_d_394_62470)">
<circle cx="159.317" cy="116.832" r="68.1416" stroke="#FE6338" stroke-width="2"/>
</g>
<path d="M194.407 99.4048C194.407 101.555 193.563 103.632 192.027 105.115L156.321 139.669C154.708 141.152 152.558 142.042 150.331 142.042C148.104 142.042 145.954 141.152 144.418 139.669L126.527 122.392C124.991 120.909 124.146 118.833 124.146 116.682C124.146 114.532 125.068 112.53 126.604 110.973C128.216 109.49 130.29 108.674 132.516 108.6C134.743 108.6 136.816 109.415 138.429 110.898L150.331 122.392L180.125 93.621C181.737 92.1379 183.811 91.3223 186.037 91.3223C188.264 91.3964 190.338 92.2121 191.95 93.7693C193.486 95.2523 194.407 97.2544 194.407 99.4048Z" fill="#FE6338"/>
<path d="M218.525 195.908C225.908 198.04 240.18 206.144 238.211 221.498" stroke="#F7B23B" stroke-width="3" stroke-linecap="round" stroke-linejoin="round"/>
<path d="M2 174.24C13.3283 178.506 37.7503 181.566 44.8122 159.675M44.8122 159.675C45.8421 153.643 44.8123 141.711 32.4542 142.241C30.1002 148.052 29.2762 159.675 44.8122 159.675ZM44.8122 159.675C49.9615 160.631 61.9372 159.719 68.6458 148.42" stroke="#6E89FA" stroke-width="3" stroke-linecap="round" stroke-linejoin="round"/>
<circle cx="181.771" cy="232.727" r="7.57962" fill="#637BFE"/>
<circle cx="253.425" cy="112.7" r="7.07962" stroke="#C05EFD"/>
<circle cx="133.107" cy="8.30033" r="8.30033" fill="#FE6338"/>
<circle cx="156.673" cy="22.3102" r="4.38348" fill="#F3603F"/>
<circle cx="60.0589" cy="86.6854" r="7.18199" stroke="#F7B23B"/>
<circle cx="77.7028" cy="207.816" r="7.94695" stroke="#FE6338"/>
<circle r="4.03543" transform="matrix(-1 0 0 1 158.203 224.035)" fill="#FE6338"/>
<defs>
<filter id="filter0_d_394_62470" x="86.1758" y="46.6899" width="146.283" height="146.283" filterUnits="userSpaceOnUse" color-interpolation-filters="sRGB">
<feFlood flood-opacity="0" result="BackgroundImageFix"/>
<feColorMatrix in="SourceAlpha" type="matrix" values="0 0 0 0 0 0 0 0 0 0 0 0 0 0 0 0 0 0 127 0" result="hardAlpha"/>
<feOffset dy="3"/>
<feGaussianBlur stdDeviation="2"/>
<feColorMatrix type="matrix" values="0 0 0 0 0 0 0 0 0 0 0 0 0 0 0 0 0 0 0.12 0"/>
<feBlend mode="normal" in2="BackgroundImageFix" result="effect1_dropShadow_394_62470"/>
<feBlend mode="normal" in="SourceGraphic" in2="effect1_dropShadow_394_62470" result="shape"/>
</filter>
</defs>
</svg>
