<svg width="19" height="18" viewBox="0 0 19 18" fill="none" xmlns="http://www.w3.org/2000/svg">
<path d="M15.25 0C17.3211 0 19 1.67893 19 3.75V14.25C19 16.3211 17.3211 18 15.25 18H9.25C7.17893 18 5.5 16.3211 5.5 14.25V13.5C5.5 13.0858 5.83579 12.75 6.25 12.75C6.66421 12.75 7 13.0858 7 13.5V14.25C7 15.4926 8.00736 16.5 9.25 16.5H15.25C16.4926 16.5 17.5 15.4926 17.5 14.25V3.75C17.5 2.50736 16.4926 1.5 15.25 1.5H9.25C8.00736 1.5 7 2.50736 7 3.75V4.5C7 4.91421 6.66421 5.25 6.25 5.25C5.83579 5.25 5.5 4.91421 5.5 4.5V3.75C5.5 1.67893 7.17893 0 9.25 0H15.25Z" fill="white"/>
<path d="M3.78033 6.21967C4.07323 6.51256 4.07323 6.98744 3.78033 7.28033L2.81066 8.25H11.5C11.9143 8.25 12.25 8.58579 12.25 9C12.25 9.41421 11.9143 9.75 11.5 9.75H2.81066L3.78033 10.7197C4.07323 11.0126 4.07323 11.4874 3.78033 11.7803C3.48744 12.0732 3.01256 12.0732 2.71967 11.7803L0.469671 9.53033C0.397192 9.45785 0.342649 9.37423 0.30604 9.28498C0.272192 9.20264 0.252571 9.11294 0.250238 9.01896C0.25008 9.01264 0.250004 9.00632 0.250004 9C0.250004 8.988 0.250288 8.97601 0.25086 8.96402C0.259439 8.78424 0.332378 8.60696 0.469671 8.46967L2.71967 6.21967C3.01256 5.92678 3.48744 5.92678 3.78033 6.21967Z" fill="white"/>
</svg>
