<svg width="157" height="16" viewBox="0 0 157 16" fill="none" xmlns="http://www.w3.org/2000/svg">
<path d="M123.191 0.222531V3.27121H116.804V6.56467H121.583V9.52434H116.804V15.8442H112.986V0.222531H123.191Z" fill="white"/>
<path d="M132.612 16C131.138 16 129.783 15.6588 128.548 14.9764C127.327 14.2939 126.352 13.3445 125.622 12.128C124.908 10.8966 124.55 9.51692 124.55 7.98887C124.55 6.46083 124.908 5.08855 125.622 3.87204C126.352 2.65554 127.327 1.70607 128.548 1.02364C129.783 0.341215 131.138 0 132.612 0C134.086 0 135.433 0.341215 136.654 1.02364C137.89 1.70607 138.857 2.65554 139.557 3.87204C140.272 5.08855 140.629 6.46083 140.629 7.98887C140.629 9.51692 140.272 10.8966 139.557 12.128C138.843 13.3445 137.875 14.2939 136.654 14.9764C135.433 15.6588 134.086 16 132.612 16ZM132.612 12.5285C133.863 12.5285 134.86 12.1131 135.605 11.2823C136.364 10.4516 136.743 9.35373 136.743 7.98887C136.743 6.60918 136.364 5.51136 135.605 4.69541C134.86 3.86463 133.863 3.44923 132.612 3.44923C131.347 3.44923 130.334 3.85721 129.575 4.67316C128.831 5.4891 128.458 6.59434 128.458 7.98887C128.458 9.36857 128.831 10.4738 129.575 11.3046C130.334 12.1205 131.347 12.5285 132.612 12.5285Z" fill="white"/>
<path d="M152.356 15.8442L149.163 11.0598L146.349 15.8442H142.017L147.041 7.89986L141.905 0.222531H146.349L149.498 4.94019L152.267 0.222531H156.599L151.619 8.10014L156.8 15.8442H152.356Z" fill="white"/>
<path d="M1.5632 0.178024V15.733H0V0.178024H1.5632Z" fill="#FE6338"/>
<path d="M20.3554 0.378302V15.733H18.7922V3.47149L13.2987 15.733H12.1598L6.66628 3.51599V15.733H5.10308V0.378302H6.75561L12.7181 13.6857L18.6806 0.378302H20.3554Z" fill="#FE6338"/>
<path d="M39.154 0.378302V15.733H37.5908V3.47149L32.0972 15.733H30.9583L25.4648 3.51599V15.733H23.9016V0.378302H25.5541L31.5166 13.6857L37.4791 0.378302H39.154Z" fill="#FE6338"/>
<path d="M44.2633 1.44645V7.25452H50.1812V8.5452H44.2633V14.4423H50.8511V15.733H42.7001V0.155771H50.8511V1.44645H44.2633Z" fill="#FE6338"/>
<path d="M62.2386 15.733L58.3752 9.23505H55.4945V15.733H53.9313V0.178024H58.6209C60.3627 0.178024 61.6803 0.593416 62.5735 1.4242C63.4817 2.25498 63.9357 3.34539 63.9357 4.69541C63.9357 5.8229 63.6082 6.7872 62.9532 7.58832C62.313 8.37459 61.3602 8.88642 60.0947 9.12378L64.1144 15.733H62.2386ZM55.4945 7.96662H58.6432C59.864 7.96662 60.7796 7.66991 61.39 7.0765C62.0152 6.48308 62.3279 5.68938 62.3279 4.69541C62.3279 3.67177 62.0301 2.88549 61.4346 2.33658C60.8391 1.77283 59.9012 1.49096 58.6209 1.49096H55.4945V7.96662Z" fill="#FE6338"/>
<path d="M71.7722 15.8887C70.7449 15.8887 69.8368 15.7107 69.0477 15.3547C68.2736 14.9986 67.6632 14.5016 67.2165 13.8637C66.7699 13.2258 66.5317 12.5137 66.5019 11.7274H68.1545C68.2289 12.484 68.5639 13.1516 69.1594 13.7302C69.7549 14.2939 70.6258 14.5758 71.7722 14.5758C72.8292 14.5758 73.6629 14.3088 74.2733 13.7747C74.8986 13.2258 75.2112 12.5359 75.2112 11.7051C75.2112 11.0376 75.04 10.5035 74.6976 10.1029C74.3552 9.68753 73.9309 9.3834 73.4247 9.19054C72.9185 8.98285 72.2188 8.76032 71.3255 8.52295C70.2834 8.24108 69.4571 7.96662 68.8467 7.69958C68.2363 7.43255 67.7153 7.01715 67.2835 6.45341C66.8518 5.88966 66.6359 5.12564 66.6359 4.16133C66.6359 3.36022 66.8444 2.64812 67.2612 2.02503C67.6781 1.38711 68.2661 0.890125 69.0254 0.534075C69.7847 0.178025 70.6556 0 71.6382 0C73.0823 0 74.2435 0.35605 75.1219 1.06815C76.0151 1.76541 76.5287 2.67038 76.6627 3.78303H74.9655C74.8613 3.14511 74.5115 2.58136 73.916 2.09179C73.3205 1.58739 72.5165 1.33519 71.5042 1.33519C70.5663 1.33519 69.7847 1.58739 69.1594 2.09179C68.5341 2.58136 68.2215 3.25637 68.2215 4.11683C68.2215 4.76959 68.3927 5.29625 68.7351 5.6968C69.0775 6.09736 69.5018 6.40148 70.008 6.60918C70.529 6.81688 71.2288 7.03941 72.1071 7.27677C73.1195 7.55865 73.9383 7.84052 74.5636 8.12239C75.1889 8.38943 75.7174 8.80482 76.1491 9.36857C76.5808 9.93231 76.7967 10.6889 76.7967 11.6384C76.7967 12.3653 76.6032 13.0552 76.2161 13.7079C75.829 14.3607 75.2559 14.8873 74.4966 15.2879C73.7373 15.6885 72.8292 15.8887 71.7722 15.8887Z" fill="#FE6338"/>
<path d="M81.3806 0.178024V15.733H79.8174V0.178024H81.3806Z" fill="#FE6338"/>
<path d="M97.2921 0.178024L91.3743 15.733H89.5877L83.6699 0.178024H85.3671L90.481 14.0417L95.6396 0.178024H97.2921Z" fill="#FE6338"/>
<path d="M101.204 1.44645V7.25452H107.122V8.5452H101.204V14.4423H107.792V15.733H99.6409V0.155771H107.792V1.44645H101.204Z" fill="#FE6338"/>
</svg>
