<svg width="89" height="7" viewBox="0 0 89 7" fill="none" xmlns="http://www.w3.org/2000/svg">
<path d="M13.4556 3.4204C13.4266 3.40709 13.4023 3.39573 13.3783 3.38454C13.4256 3.37131 13.4709 3.35399 13.5211 3.34689C13.5387 3.3445 13.5681 3.36721 13.5924 3.37838C13.5462 3.39272 13.5 3.40668 13.4556 3.4204ZM12.7064 3.41934C12.6781 3.43429 12.6548 3.44702 12.6312 3.45958C12.6069 3.43634 12.5742 3.41447 12.5623 3.38955C12.5582 3.38081 12.6048 3.36515 12.6283 3.35241C12.6545 3.37503 12.6809 3.39764 12.7064 3.41934ZM29.1824 3.16161C29.1542 3.17656 29.1309 3.1891 29.1075 3.20184C29.0831 3.1786 29.0505 3.15673 29.0385 3.13182C29.0345 3.12307 29.0811 3.10722 29.1044 3.09467C29.1307 3.11729 29.1569 3.13972 29.1824 3.16161ZM28.5438 3.28705C28.5157 3.30219 28.4923 3.31473 28.4689 3.32728C28.4442 3.30424 28.4119 3.28218 28.3999 3.25726C28.3959 3.24852 28.4425 3.23266 28.4659 3.22011C28.4921 3.24273 28.5183 3.26517 28.5438 3.28705ZM4.69881 4.13119C4.744 4.14233 4.79093 4.1538 4.83771 4.16527C4.8141 4.17801 4.786 4.20238 4.7683 4.20082C4.71774 4.19662 4.67159 4.18193 4.62382 4.17142C4.64725 4.15888 4.67056 4.14633 4.69881 4.13119ZM28.5681 4.14382C28.5399 4.15915 28.5166 4.1717 28.4932 4.18406C28.4685 4.16121 28.4362 4.13914 28.4242 4.11422C28.4198 4.10549 28.4664 4.08963 28.4901 4.07708C28.5164 4.09969 28.5426 4.12213 28.5681 4.14382ZM77.1989 3.2554C77.2271 3.24027 77.2505 3.22772 77.2738 3.21517C77.2982 3.23822 77.3308 3.26009 77.3428 3.285C77.3468 3.29375 77.3002 3.30961 77.2769 3.32215C77.2506 3.29953 77.224 3.27711 77.1989 3.2554ZM74.9983 3.31835C74.9741 3.34148 74.9489 3.36558 74.924 3.38967C74.8999 3.37849 74.8525 3.36515 74.856 3.35638C74.8666 3.33082 74.8979 3.30692 74.9209 3.2825C74.9449 3.29369 74.9689 3.30506 74.9983 3.31835ZM74.3563 3.33683C74.3325 3.35994 74.3072 3.38405 74.2823 3.40795C74.2583 3.39677 74.2108 3.38361 74.2144 3.37465C74.2249 3.34909 74.2562 3.32538 74.2792 3.30097C74.3033 3.31215 74.3273 3.32334 74.3563 3.33683ZM73.501 3.36125C73.4768 3.38438 73.4516 3.40848 73.4267 3.43257C73.4026 3.42139 73.3552 3.40805 73.3587 3.39928C73.3693 3.37371 73.4006 3.34982 73.4236 3.3254C73.4476 3.33659 73.4716 3.34777 73.501 3.36125ZM76.4525 3.36133C76.4815 3.37482 76.5056 3.386 76.5296 3.39719C76.4826 3.41042 76.4371 3.42775 76.3873 3.43484C76.3696 3.43723 76.34 3.41452 76.316 3.40334C76.3619 3.3892 76.4081 3.37486 76.4525 3.36133ZM58.3515 4.02529C58.3282 4.03783 58.2999 4.06221 58.2822 4.06083C58.2316 4.05663 58.1853 4.04195 58.1375 4.03144C58.1609 4.0189 58.1892 3.99452 58.2069 3.99589C58.2575 4.00009 58.3034 4.01479 58.3515 4.02529ZM73.469 3.84454C73.4239 3.83358 73.3773 3.82211 73.3303 3.81045C73.3536 3.79791 73.3819 3.77353 73.3996 3.77509C73.4502 3.7791 73.4965 3.79379 73.5443 3.80429C73.5209 3.81684 73.4976 3.82958 73.469 3.84454ZM24.2537 2.93248C24.2525 2.95513 24.2513 2.97779 24.25 3.00044C24.1551 3.0094 24.0602 3.02118 23.9647 3.02581C23.9414 3.02686 23.891 3.00173 23.8952 2.9935C23.9092 2.96784 23.9403 2.92548 23.9697 2.92388C24.0632 2.91836 24.1588 2.92843 24.2537 2.93248ZM19.4165 3.33029C18.568 3.40636 18.568 3.40636 18.543 3.31076C18.6384 3.30123 18.7357 3.28259 18.8299 3.28403C18.9963 3.28622 19.1753 3.24016 19.4165 3.33029ZM74.0791 3.84319C73.8982 3.74359 73.902 3.63793 74.0396 3.54009C74.1664 3.57923 74.2948 3.6189 74.4232 3.65856C74.2708 3.74041 74.1755 3.79159 74.0791 3.84319ZM75.8773 3.04575C75.881 3.17401 75.89 3.29119 75.8817 3.40829C75.8807 3.42548 75.8003 3.44324 75.756 3.46092C75.6648 3.39135 75.4572 3.3715 75.4547 3.27092C75.4912 3.16487 75.6207 3.10083 75.8773 3.04575ZM76.9636 3.91947C76.809 4.02891 76.5845 3.99616 76.4105 3.96875C76.1973 3.93511 76.0155 3.85834 75.8134 3.80629C75.7588 3.79241 75.6803 3.80051 75.5978 3.79817C75.4719 3.84307 75.3867 3.94203 75.1407 3.91179C75.1106 3.88382 75.0665 3.84324 74.9784 3.76227C75.1216 3.7163 75.2708 3.66847 75.4203 3.62044C75.4363 3.62751 75.5137 3.66072 75.5911 3.69412C76.0168 3.68187 76.4396 3.66914 76.862 3.65925C76.8872 3.65871 76.9127 3.68116 76.9524 3.69981C76.8951 3.73671 76.8363 3.77422 76.7702 3.81684C76.8306 3.84903 76.8963 3.8837 76.9636 3.91947ZM22.7917 3.16795C22.7888 3.07925 22.7862 2.98979 22.7836 2.90052C22.5628 2.78831 22.4163 2.87565 22.2604 2.96458C21.9151 2.97452 21.5612 2.9847 21.1945 2.99506C21.0998 2.96235 20.9926 2.9251 20.8489 2.87533C20.7322 2.92694 20.6325 2.97109 20.5326 3.01524C20.4811 2.99128 20.4299 2.96749 20.3788 2.9437C20.315 2.93612 20.2509 2.92156 20.187 2.92265C19.9405 2.92653 19.6935 2.93553 19.481 2.94164C19.3736 2.99054 19.296 3.02595 19.1849 3.07646C19.0722 3.04652 18.9573 3.01628 18.7786 2.96921C18.6459 2.97303 18.4364 2.97906 18.1908 2.98612C18.1406 3.00925 18.063 3.04503 17.9787 3.08402C17.8391 3.11368 17.7325 3.08639 17.6171 3.03807C17.5504 3.01002 17.4231 3.02103 17.3352 3.00132C17.2159 2.97497 17.1656 2.88782 16.9329 2.91054C16.8677 2.93692 16.7621 2.97954 16.6169 3.03839C16.5179 3.01504 16.4003 2.98751 16.1933 2.93899C15.9151 2.94699 15.5334 2.95779 15.1658 2.96837C15.1021 3.00262 15.0525 3.02931 14.9656 3.07592C14.5504 3.08786 14.0972 3.10072 13.6821 3.11266C13.5952 3.15946 13.5456 3.18596 13.4884 3.21682C13.2844 3.22269 13.0726 3.22878 12.8358 3.23541C12.772 3.17221 12.7004 3.10152 12.6243 3.02586C12.4965 3.09777 12.3763 3.16551 12.2381 3.24337C11.8682 3.25383 11.4868 3.26481 11.1123 3.27558C11.0289 3.24386 10.9487 3.21337 10.8711 3.18375C10.6754 3.2284 10.4979 3.28874 10.3083 3.30626C10.1234 3.32346 9.96088 3.33416 9.8719 3.43493C9.78022 3.39629 9.70458 3.36454 9.62572 3.33156C7.27913 3.39871 4.92672 3.46621 2.57776 3.53343C2.50208 3.57067 2.42799 3.60711 2.35421 3.64354C2.29847 3.61762 2.24749 3.59364 2.1639 3.55496C2.1017 3.5805 2.03455 3.60806 1.91004 3.65933C1.66098 3.6665 1.34982 3.67527 1.07274 3.68324C1.02016 3.71623 0.978494 3.73986 0.98117 3.74129C1.07978 3.79067 1.18263 3.83804 1.28484 3.88562C1.45382 3.88584 1.62262 3.88607 1.89963 3.8864C1.66744 4.00241 1.41318 4.00652 1.29058 4.09958C1.23946 4.0758 1.18818 4.05201 1.11203 4.0165C0.968919 4.02062 0.801287 4.02544 0.602815 4.03116C0.525794 4.1657 0.537837 4.29767 0.606979 4.43612C0.863087 4.3639 1.08425 4.27837 1.40035 4.35353C1.40452 4.49837 1.40885 4.65413 1.41359 4.81874C1.5406 4.83205 1.63672 4.84191 1.72715 4.85137C1.81556 4.80679 1.89152 4.7688 1.96774 4.73041C2.10863 4.72636 2.25102 4.72226 2.38661 4.71836C2.46624 4.75169 2.54156 4.78308 2.61669 4.81428C2.67274 4.78439 2.72226 4.75752 2.79351 4.71946C2.88854 4.74651 2.98965 4.77546 3.13699 4.8174C3.22991 4.78532 3.34082 4.74688 3.47055 4.70167C3.52306 4.7226 3.59743 4.75212 3.68177 4.7857C3.81003 4.78201 3.95122 4.77795 4.09828 4.77371C4.16872 4.73908 4.24455 4.70165 4.31778 4.66561C4.39621 4.69898 4.47467 4.73216 4.58556 4.77911C4.69395 4.74866 4.8112 4.7155 5.03011 4.65378C5.19116 4.64915 5.46971 4.64113 5.80851 4.63138C5.84073 4.64308 5.92156 4.67224 6.0605 4.72215C6.37929 4.71297 6.76115 4.70199 7.10492 4.69228C7.1942 4.73382 7.24547 4.7576 7.30614 4.78583C7.37822 4.7519 7.45106 4.71776 7.52463 4.68322C7.59738 4.71299 7.67388 4.74452 7.72534 4.76566C7.93979 4.70162 8.1442 4.6407 8.39306 4.56662C8.42915 4.57934 8.49944 4.60446 8.59748 4.63934C8.77508 4.63423 8.98446 4.6282 9.12915 4.62404C9.35845 4.6459 9.41622 4.77902 9.7623 4.67953C9.94992 4.60796 9.69986 4.52789 9.54318 4.45417C9.82085 4.36343 10.0704 4.40017 10.3524 4.38489C10.3882 4.4798 10.4248 4.57714 10.4606 4.67206C10.5331 4.68053 10.597 4.68793 10.662 4.69548C10.8917 4.6655 10.9427 4.5351 11.1847 4.48855C11.2186 4.50134 11.2917 4.5292 11.3741 4.56057C11.4415 4.52809 11.5148 4.49281 11.5706 4.46613C11.8373 4.53047 12.1003 4.59377 12.3748 4.65995C12.4682 4.62164 12.5481 4.58899 12.6655 4.54075C13.5018 4.51687 14.3826 4.49153 15.249 4.46678C15.3145 4.49732 15.3656 4.52111 15.4551 4.56264C15.9415 4.54883 16.4669 4.53371 16.9524 4.51974C17.0417 4.56128 17.0928 4.58507 17.1516 4.61259C18.7102 4.56793 20.2763 4.52305 21.8428 4.47816C21.9248 4.51294 22.0033 4.5463 22.0772 4.57792C22.2866 4.60695 22.3935 4.52885 22.5068 4.46283C22.5682 4.49141 22.6193 4.51519 22.6971 4.55141C23.194 4.53711 23.7187 4.5222 24.2369 4.50728C24.3172 4.47142 24.3949 4.4362 24.5064 4.38625C24.6198 4.41691 24.7336 4.44794 24.8891 4.48984C25.9302 4.46007 27.0247 4.42857 28.0951 4.39796C28.1685 4.35852 28.2182 4.33183 28.2738 4.30177C28.3492 4.33315 28.4243 4.36473 28.5039 4.39788C29.5664 4.36749 30.6357 4.33672 31.7016 4.30624C31.7816 4.34088 31.8594 4.37465 31.9303 4.4054C32.1624 4.44076 32.2313 4.32304 32.3539 4.29387C32.5224 4.28903 32.6616 4.28502 32.7891 4.28135C32.8524 4.31082 32.9032 4.33462 32.9741 4.36763C33.6617 4.34785 34.3695 4.32767 35.1259 4.3059C35.166 4.28835 35.2444 4.25367 35.3385 4.21233C35.4032 4.23742 35.477 4.26602 35.5642 4.2997C37.2563 4.25138 38.9654 4.20239 40.6748 4.15339C40.756 4.18838 40.8341 4.22175 40.9145 4.25638C40.9605 4.23055 41.0086 4.20372 41.0534 4.17868C41.1216 4.16504 41.1831 4.14423 41.2459 4.14186C41.5651 4.12947 41.8841 4.12198 42.1808 4.11344C42.2741 4.14997 42.348 4.17894 42.4211 4.20738C42.4826 4.1745 42.5323 4.14781 42.5597 4.13289C42.7886 4.16023 43.0031 4.18553 43.2029 4.20938C43.3121 4.15779 43.3894 4.12126 43.4777 4.07932C43.6037 4.07589 43.7448 4.07183 43.8986 4.0674C43.9661 4.09675 44.0442 4.13051 44.1243 4.16515C44.9762 4.14082 45.8314 4.11621 46.6867 4.09179C46.7378 4.11557 46.7889 4.13936 46.8866 4.18481C47.2905 4.19882 47.7477 4.15362 48.1899 4.16182C48.2702 4.19287 48.344 4.22166 48.4168 4.24991C48.479 4.21627 48.5287 4.18958 48.5984 4.15232C48.6676 4.17766 48.7395 4.20424 48.8255 4.2357C48.8905 4.20574 48.963 4.17237 49.0462 4.13397C49.7431 4.11392 50.4543 4.09364 51.1765 4.07286C51.2455 4.10273 51.3232 4.13612 51.3983 4.16845C51.4711 4.13299 51.5446 4.09732 51.6177 4.06167C51.6753 4.08847 51.7264 4.11245 51.7814 4.13801C51.9776 4.15517 52.1795 4.18762 52.356 4.09188C52.5268 3.99912 52.7401 4.00712 52.9312 4.04328C53.1451 4.08369 53.3397 4.14802 53.5851 4.21315C53.6723 4.21064 53.8137 4.20657 53.9747 4.20213C54.0363 4.1325 54.1034 4.05724 54.1672 3.98528C54.2519 3.98285 54.3226 3.98081 54.3918 3.97901C54.5211 4.03938 54.6489 4.09884 54.7767 4.15831C55.0554 4.22569 55.2712 4.12505 55.5053 4.07439C55.5565 4.09837 55.6076 4.12215 55.6683 4.15038C55.7403 4.11645 55.8131 4.08212 55.8944 4.04397C56.4522 4.02792 57.0213 4.01173 57.6215 3.99446C57.6611 4.04817 57.7057 4.10834 57.7519 4.17053C57.9793 4.23712 58.2312 4.15994 58.4811 4.19686C58.5312 4.11983 58.5726 4.05643 58.6152 3.99112C58.8465 3.93188 59.0899 3.95239 59.3503 3.95243C59.3945 4.00978 59.4411 4.07046 59.5017 4.14977C59.7981 4.14124 60.1087 4.1323 60.381 4.12446C60.4703 4.16619 60.5214 4.18998 60.6111 4.23151C61.4536 4.20726 62.3352 4.18208 63.1777 4.15803C63.267 4.19957 63.3181 4.22335 63.378 4.25122C63.4504 4.2171 63.5236 4.18238 63.6041 4.14444C63.8065 4.13862 64.0194 4.13249 64.2356 4.12627C64.3107 4.15841 64.3892 4.19178 64.4708 4.22675C64.7517 4.21867 65.0361 4.21067 65.317 4.20259C65.3712 4.2278 65.4227 4.25176 65.5105 4.29259C65.5704 4.26824 65.6366 4.24146 65.7393 4.19967C66.294 4.18371 66.8894 4.16677 67.4747 4.14993C67.5365 4.17868 67.5876 4.20247 67.6547 4.23371C67.7242 4.20268 67.7956 4.17085 67.8837 4.13174C68.1455 4.12421 68.4283 4.11607 68.7307 4.10756C68.7939 4.1342 68.8724 4.16719 68.9563 4.20267C69.2327 4.19471 69.5174 4.18652 69.804 4.17827C69.8768 4.14281 69.9517 4.10616 70.0263 4.06933C70.079 4.09383 70.1297 4.11744 70.1809 4.14142C70.2093 4.14964 70.238 4.16597 70.2659 4.16517C71.1569 4.14103 72.0483 4.1152 72.9393 4.09012C72.972 4.08918 73.0053 4.09463 73.0377 4.09709C73.0893 4.12106 73.14 4.14486 73.2125 4.17858C73.3596 4.17435 73.5273 4.16953 73.6826 4.16506C73.7445 4.1318 73.7942 4.10511 73.8587 4.07045C73.9303 4.09799 74.0037 4.12584 74.0924 4.15986C74.285 4.15432 74.4967 4.14822 74.7258 4.14163C74.7885 4.11061 74.8649 4.07297 74.9459 4.03314C75.2234 4.02515 75.5081 4.01695 75.7944 4.00872C75.8706 4.04177 75.9487 4.07534 76.0307 4.11068C76.3835 4.10053 76.7381 4.09032 77.089 4.08022C77.1447 4.10633 77.1959 4.13011 77.2741 4.16651C77.4862 4.1604 77.7254 4.15352 77.9947 4.14596C78.0153 4.10276 78.0384 4.05404 78.0678 3.99136C77.9321 3.97152 77.8096 3.95393 77.6547 3.93143C77.6373 3.89159 77.616 3.8432 77.587 3.77787C77.4899 3.76389 77.3651 3.74599 77.2302 3.72669C77.2244 3.63091 77.4132 3.59777 77.4952 3.53076C77.5659 3.52872 77.637 3.52667 77.7209 3.52426C77.7872 3.59134 77.8558 3.661 77.9391 3.74493C78.0717 3.58994 78.19 3.451 78.3087 3.31187C78.5 3.28846 78.6917 3.26504 78.8976 3.2397C78.7269 3.10098 78.3864 3.26289 78.2507 3.12542C78.2777 3.11088 78.3019 3.08682 78.3275 3.08589C78.6821 3.07324 79.0368 3.06379 79.4177 3.05282C79.479 3.11402 79.5503 3.18548 79.6201 3.25491C79.7367 3.25174 79.8435 3.24867 79.9507 3.24558C79.9491 3.19228 79.9476 3.13917 79.946 3.0838C80.0435 3.03255 80.1433 2.98011 80.2534 2.92227C80.3238 2.95022 80.3981 2.97956 80.4826 3.01332C80.6797 3.00764 80.8907 3.00157 81.1145 2.99532C81.1809 2.96212 81.2563 2.92433 81.3349 2.88474C81.9672 2.86674 82.6043 2.8484 83.2309 2.83037C83.3644 2.79977 83.3966 2.70214 83.5749 2.71303C83.5489 2.68305 83.5228 2.65346 83.4928 2.6185C82.6165 2.64372 81.7364 2.66886 80.8773 2.69339C80.8069 2.73123 80.7572 2.75792 80.6975 2.79018C80.2834 2.8019 79.8592 2.81411 79.4338 2.82635C79.3525 2.86545 79.2757 2.90234 79.1984 2.93925C79.1042 2.81642 78.9715 2.70601 78.7335 2.63727C78.5112 2.60352 78.4477 2.72636 78.2868 2.75814C77.9738 2.84499 77.7949 2.66805 77.5017 2.67196C77.4348 2.70198 77.3572 2.7372 77.2773 2.77305C77.1774 2.74237 77.0711 2.70999 76.9245 2.6652C76.7421 2.74962 76.5679 2.83022 76.332 2.93918C76.2152 2.85696 76.0945 2.77203 75.9581 2.67605C75.7811 2.73769 75.6704 2.77612 75.5407 2.82132C75.4882 2.80022 75.4139 2.77069 75.3298 2.73711C74.2048 2.76929 73.0663 2.80186 71.9267 2.83466C71.8475 2.80018 71.7697 2.76661 71.6919 2.73284C71.6437 2.75873 71.5944 2.78541 71.5374 2.81608C71.3144 2.87848 71.069 2.85123 70.829 2.85757C70.7775 2.83361 70.7264 2.80982 70.6443 2.77147C70.5822 2.79701 70.5156 2.82456 70.4345 2.85818C70.2103 2.88782 69.9664 2.92726 69.7713 2.78132C68.2725 2.82426 66.7512 2.86785 65.2663 2.9104C65.1785 2.86975 65.1274 2.84597 65.0687 2.81844C64.0107 2.8487 62.9444 2.87919 61.8766 2.90992C61.7955 2.87569 61.717 2.84289 61.632 2.80725C61.072 2.82318 60.5033 2.83955 59.9372 2.85565C59.8561 2.82104 59.7776 2.78749 59.6983 2.75339C58.3465 2.7921 56.9937 2.83084 55.6419 2.86974C55.5897 2.84542 55.5386 2.82163 55.4497 2.78027C55.1074 2.79012 54.7253 2.80093 54.3804 2.81085C54.2915 2.76949 54.2404 2.7457 54.1644 2.71037C53.3092 2.73498 52.4291 2.76013 51.549 2.78526C51.4989 2.81196 51.4496 2.83864 51.3784 2.87669C51.31 2.85189 51.2388 2.82585 51.1133 2.77989C50.4329 2.79947 49.6946 2.82053 48.9947 2.84067C48.9061 2.79948 48.855 2.7757 48.7966 2.74835C47.8804 2.77471 46.9563 2.80112 46.0315 2.82773C45.9503 2.79331 45.8718 2.76032 45.788 2.72485C45.4405 2.73485 45.0851 2.74508 44.727 2.75519C44.6542 2.79084 44.5793 2.82768 44.5043 2.86433C44.4524 2.84038 44.4013 2.81659 44.3505 2.79279C44.3221 2.78437 44.2937 2.76785 44.2655 2.76847C43.6272 2.78533 42.989 2.80408 42.362 2.82193C42.1811 2.68538 41.9356 2.72166 41.694 2.74935C41.6443 2.77604 41.5947 2.80273 41.5283 2.83838C41.4575 2.81157 41.3848 2.78426 41.2943 2.75011C40.5353 2.77195 39.7549 2.79422 38.9726 2.81674C38.8899 2.78255 38.811 2.74994 38.7242 2.71399C38.3804 2.72388 38.0257 2.7339 37.665 2.74428C37.6194 2.76689 37.5682 2.79193 37.5069 2.82234C37.2926 2.89655 37.0407 2.85461 36.8018 2.87279C36.7507 2.849 36.6996 2.82522 36.6065 2.78172C36.4104 2.78246 36.1707 2.78351 35.9403 2.7843C35.8554 2.75055 35.7762 2.7189 35.6635 2.67407C35.5534 2.70816 35.4393 2.74368 35.29 2.79019C35.2505 2.7755 35.1785 2.74891 35.0857 2.71445C34.7577 2.72389 34.4046 2.73405 34.0251 2.74497C33.9686 2.77204 33.8914 2.80858 33.8097 2.84749C33.7377 2.81715 33.6619 2.78502 33.5837 2.75183C33.0892 2.76587 32.5908 2.78021 32.0925 2.79437C32.0413 2.77058 31.9902 2.74679 31.9315 2.71945C31.7057 2.66997 31.4618 2.71129 31.2305 2.71833C31.1481 2.75708 31.0708 2.79342 31.0129 2.82072C30.7682 2.87187 30.7065 2.7432 30.4795 2.72787C30.3777 2.76077 30.2371 2.80629 30.0517 2.86629C29.9598 2.83783 29.8493 2.8035 29.7289 2.76606C29.671 2.7945 29.5971 2.83074 29.521 2.86836C29.4191 2.8713 29.3123 2.87437 29.2051 2.87746C29.2254 2.98167 29.0787 2.98608 28.8569 2.99699C28.7629 2.93542 28.6375 2.85364 28.5428 2.79209C28.2543 2.8002 28.0433 2.80628 27.8308 2.81239C27.7515 2.77848 27.6741 2.74508 27.5922 2.71012C27.2454 2.71991 26.8919 2.73008 26.5327 2.74042C26.4615 2.77658 26.3861 2.81456 26.3101 2.85313C26.1702 2.85716 26.0288 2.86123 25.8907 2.8652C25.8135 2.90418 25.7386 2.94215 25.667 2.97833C25.3573 3.00628 25.261 2.86711 25.0421 2.79311C24.6216 2.80503 24.1706 2.818 23.7381 2.83045C23.6253 2.88723 23.5236 2.93841 23.4301 2.9854C23.4314 3.02777 23.4324 3.06299 23.4335 3.10273C23.5732 3.13132 23.7152 3.16022 23.8625 3.1901C23.714 3.2873 23.5213 3.23781 23.3372 3.26233C23.2679 3.19496 23.1963 3.12539 23.1289 3.05947C23.0136 3.09672 22.9025 3.13253 22.7917 3.16795C22.7693 3.19856 22.7468 3.2288 22.7214 3.26346C22.4649 3.28366 22.2043 3.31944 21.8721 3.24512C22.2093 3.15153 22.5109 3.19224 22.7917 3.16795Z" fill="#FE6338"/>
<path d="M87.135 3.60197C87.137 3.6729 87.1386 3.72917 87.1404 3.78962C87.162 3.80637 87.1855 3.84074 87.2102 3.84123C87.5328 3.84812 87.8556 3.85021 88.1597 3.85314C88.363 3.73197 88.5511 3.62382 88.5239 3.3772C88.6318 3.34055 88.7445 3.30286 88.8768 3.25802C88.8797 3.18875 88.8831 3.11197 88.8863 3.04508C88.7073 2.97266 88.5454 2.90722 88.3937 2.84599C88.2448 2.91677 88.0846 2.99327 87.9018 3.0803C88.046 3.13426 88.1754 3.18265 88.3059 3.23131C88.3077 3.29326 88.3093 3.34893 88.3115 3.42494C87.9565 3.63015 87.495 3.40381 87.135 3.60197Z" fill="#FE6338"/>
<path d="M84.8556 2.94742C85.1095 2.95066 85.1551 2.74371 85.3405 2.65857C85.3369 2.53423 85.3333 2.40813 85.3284 2.23637C85.2558 2.17729 85.1457 2.088 85.0607 2.01873C84.9996 1.98252 84.9677 1.94759 84.9363 1.94779C84.6056 1.95344 84.2745 1.96437 83.9954 1.9724C83.8248 2.05535 83.6921 2.11998 83.5595 2.18497C83.5902 2.24033 83.6165 2.34223 83.6528 2.34399C84.0197 2.36332 84.3879 2.36643 84.749 2.37397C84.9192 2.55609 84.8189 2.76005 84.8556 2.94742Z" fill="#FE6338"/>
</svg>
