<svg width="88" height="12" viewBox="0 0 88 12" fill="none" xmlns="http://www.w3.org/2000/svg">
<path opacity="0.5" d="M16.036 9.10873C16.0637 9.13766 16.0866 9.16124 16.1099 9.18483C16.1328 9.13765 16.1635 9.09182 16.1747 9.04153C16.1786 9.02372 16.1328 8.99524 16.1099 8.97121C16.0848 9.01749 16.0602 9.06422 16.036 9.10873ZM87.1198 8.25469C87.096 8.20974 87.071 8.16301 87.0463 8.11672C87.0234 8.14075 86.9776 8.16924 86.9815 8.18704C86.9923 8.23733 87.0234 8.28317 87.0467 8.33034C87.0692 8.30675 87.0926 8.28317 87.1198 8.25469ZM38.1699 6.11847C38.1457 6.07352 38.1207 6.02724 38.096 5.98051C38.0731 6.00454 38.0273 6.03302 38.0312 6.05083C38.042 6.10112 38.0731 6.14651 38.096 6.19457C38.1189 6.17054 38.1418 6.14651 38.1699 6.11847ZM37.8886 3.8443C37.8657 3.86789 37.8199 3.89726 37.8238 3.91462C37.8346 3.96491 37.8657 4.0103 37.8886 4.05792C37.9115 4.03433 37.9569 4.0054 37.9534 3.98805C37.9426 3.93731 37.9115 3.89192 37.8886 3.8443ZM81.1051 3.06592C81.0775 3.03743 81.0541 3.0134 81.0312 2.98982C81.0083 3.03744 80.9772 3.08283 80.9664 3.13356C80.9625 3.15092 81.0083 3.17985 81.0312 3.20344C81.0559 3.15671 81.0809 3.11087 81.1051 3.06592ZM57.7708 1.09793C57.7427 1.12686 57.7198 1.15045 57.6969 1.17403C57.7427 1.19762 57.7876 1.22966 57.836 1.24079C57.8533 1.24524 57.881 1.19762 57.9043 1.17403C57.8594 1.14867 57.814 1.12286 57.7708 1.09793ZM17.5618 0.854049C17.5389 0.877192 17.4931 0.906556 17.497 0.923913C17.5078 0.974203 17.5389 1.02005 17.5618 1.06723C17.5847 1.04319 17.6301 1.01471 17.6266 0.997352C17.6158 0.947062 17.5847 0.901224 17.5618 0.854049ZM16.5982 0.288834C16.5705 0.260351 16.5476 0.236765 16.5247 0.212732C16.5014 0.260352 16.4707 0.305746 16.4595 0.356035C16.456 0.373837 16.5014 0.402769 16.5247 0.426802C16.5494 0.380072 16.5744 0.333783 16.5982 0.288834ZM15.9664 8.35971C15.9228 8.36239 15.8791 8.36461 15.8351 8.36684C15.823 8.46119 15.8057 8.55598 15.8022 8.65078C15.8014 8.67436 15.8528 8.72376 15.8683 8.71931C15.9172 8.70463 15.9975 8.67258 15.9993 8.64321C16.0045 8.54975 15.9798 8.45451 15.9664 8.35971ZM17.7822 2.41349C17.8811 1.91103 17.8786 1.91103 17.7368 1.74102C17.624 1.92927 17.6335 2.11798 17.7822 2.41349ZM58.0335 3.24705C58.1476 2.38011 58.1398 2.38011 57.9687 2.16871C57.8386 2.32181 57.9108 2.50515 57.9108 2.66982C57.9108 2.83404 57.8386 3.01696 58.0335 3.24705ZM38.4305 2.83583C38.3847 2.67028 38.3998 2.50516 38.2188 2.6498C38.2754 2.6992 38.332 2.74904 38.4072 2.60752C38.4072 3.30935 38.4072 3.84251 38.4072 4.37256C38.3389 4.44911 38.2723 4.52432 38.2093 4.59464C38.2806 4.67741 38.3467 4.7553 38.4288 4.85054C38.4288 5.19144 38.427 5.54392 38.4318 5.89595C38.4322 5.92132 38.4776 5.94624 38.5018 5.97161C38.5264 5.95247 38.5718 5.93378 38.5722 5.91464C38.5887 4.92442 38.6033 3.93464 38.6098 2.94531C38.6103 2.88924 38.5454 2.83272 38.4305 2.83583ZM81.526 3.35787C81.5723 3.52342 81.5567 3.68853 81.7378 3.54389C81.6816 3.49405 81.625 3.44465 81.5736 3.47669C81.5273 3.31114 81.5424 3.14603 81.3614 3.29067C81.418 3.34051 81.4746 3.38991 81.526 3.35787ZM85.9055 9.61207C85.7327 9.64456 85.6994 9.44874 85.5525 9.39222C85.4406 9.39222 85.304 9.39222 85.1735 9.39222C85.0456 9.26004 84.9229 9.13454 84.801 9.00859C84.6304 8.89377 84.4225 9.03129 84.2302 8.87062C83.9861 8.66768 83.6175 8.61161 83.4005 8.39043C83.1771 8.16256 82.8444 8.15099 82.6621 7.8804C82.4879 7.62139 82.121 7.64053 81.9361 7.3557C81.7857 7.12383 81.5878 6.87772 81.3532 6.75845C80.6553 6.40464 80.2556 5.72639 79.6848 5.24797C79.6848 5.16564 79.6848 5.09532 79.6848 5.025C79.5175 4.92309 79.3179 4.85366 79.1952 4.71303C79.0487 4.54569 78.8184 4.54569 78.6969 4.40906C78.5474 4.24083 78.2847 4.33741 78.1689 4.08062C77.8854 4.08062 77.5842 4.08062 77.3194 4.08062C77.2342 3.9925 77.1854 3.94221 77.1132 3.86833C76.007 3.86833 74.8766 3.86833 73.7483 3.86833C73.6978 3.9204 73.6489 3.97114 73.5634 4.05837C73.1615 4.05837 72.7216 4.05837 72.3189 4.05837C72.2342 4.14604 72.1854 4.19632 72.1003 4.28444C71.8345 4.28444 71.5324 4.28444 71.2706 4.28444C71.185 4.37212 71.1362 4.42241 71.0813 4.47893C70.8817 4.47893 70.6764 4.47893 70.4707 4.47893C70.3929 4.55325 70.3186 4.6249 70.2417 4.69878C69.9695 4.69878 69.6929 4.69878 69.4151 4.69878C69.3675 4.74863 69.3191 4.79936 69.2366 4.88659C68.9704 4.88659 68.6692 4.88659 68.4039 4.88659C68.3188 4.97426 68.2695 5.02455 68.1961 5.10066C68.0206 5.10066 67.8201 5.10066 67.6192 5.10066C67.5297 5.17053 67.4515 5.23195 67.315 5.33831C67.0786 5.33831 66.7766 5.33831 66.5134 5.33831C66.4283 5.42599 66.379 5.47627 66.2939 5.56439C65.9603 5.56439 65.5891 5.56439 65.2572 5.56439C65.1717 5.65206 65.1228 5.70236 65.0671 5.75977C64.7309 5.75977 64.3874 5.75977 64.0434 5.75977C63.9652 5.83409 63.8909 5.90485 63.8122 5.97917C63.3343 5.97917 62.8512 5.97917 62.3607 5.97917C62.3175 6.02857 62.2713 6.08064 62.2544 6.09933C62.1948 6.15051 62.1689 6.19146 62.1434 6.19146C61.5916 6.19547 61.0402 6.19457 60.497 6.19457C60.4396 6.25287 60.3912 6.30361 60.3091 6.38817C60.2494 6.34233 60.1837 6.2916 60.0839 6.21505C59.5757 6.21505 59.0287 6.21505 58.5119 6.21505C58.2591 6.05839 58.0525 5.87014 57.8131 5.79804C57.5603 5.7215 57.3218 5.604 57.12 5.46604C56.904 5.31784 56.7177 5.12692 56.4641 5.02589C56.2152 4.9262 56.2929 4.58663 56.06 4.41173C56.06 4.13046 56.06 3.81982 56.06 3.54657C55.9745 3.45889 55.9256 3.40905 55.8405 3.32137C55.8405 2.97913 55.8405 2.59684 55.8405 2.28308C55.7009 2.12197 55.6102 2.0165 55.5316 1.92571C55.3708 1.92571 55.2334 1.92571 55.1003 1.92571C55.048 1.98 54.9988 2.0303 54.9136 2.11797C54.6505 2.11797 54.3489 2.11797 54.084 2.11797C53.9988 2.20564 53.95 2.25593 53.8804 2.32758C53.6307 2.32758 53.3597 2.32758 53.1251 2.32758C52.7535 2.54922 52.4475 2.82782 52.0094 2.7753C51.9381 2.84117 51.8633 2.91193 51.7821 2.98759C51.5842 2.98759 51.3776 2.98759 51.2601 2.98759C50.9282 3.15537 50.6702 3.38724 50.4097 3.39036C50.1137 3.39392 49.9585 3.66049 49.6664 3.64892C49.4629 3.64046 49.2503 3.79757 49.0468 3.89192C48.959 3.93242 48.8692 4.06371 48.8052 4.04724C48.5343 3.97915 48.3727 4.28267 48.1652 4.25552C47.8632 4.21635 47.6981 4.56082 47.4216 4.48027C47.1476 4.40016 47.0677 4.77711 46.7777 4.71392C46.5206 4.65829 46.3361 4.96091 46.0816 5.02322C46.0219 5.03746 45.9519 5.13448 45.9195 5.11935C45.6045 4.97248 45.4503 5.36546 45.1733 5.34365C45.0791 5.33653 44.9434 5.34365 44.8924 5.40284C44.7308 5.5911 44.4322 5.52923 44.309 5.76733C44.0619 5.73128 43.8389 5.77 43.6695 5.98051C43.3121 5.92265 43.039 6.14429 42.7698 6.31385C42.6009 6.42021 42.4423 6.36503 42.2889 6.41443C42.1696 6.4527 42.0707 6.55462 41.9579 6.62048C41.8455 6.68546 41.728 6.7402 41.5487 6.83233C41.4903 6.83233 41.3529 6.83233 41.2185 6.83233C41.1407 6.9062 41.0656 6.97741 40.9873 7.05173C40.7842 7.05173 40.5777 7.05173 40.3806 7.05173C40.2985 7.12783 40.2238 7.19815 40.1642 7.25334C40.0082 7.25334 39.8725 7.25334 39.7575 7.25334C39.6711 7.17946 39.6011 7.12116 39.5333 7.06375C39.4685 7.1305 39.4196 7.18079 39.3557 7.24666C39.1677 7.24666 38.9646 7.24666 38.774 7.24666C38.4862 7.09356 38.2023 6.94225 37.8519 6.75533C37.7318 6.51501 37.5706 6.19324 37.3761 5.80427C37.3761 5.24752 37.3761 4.60888 37.3761 3.95601C37.4358 3.89014 37.5053 3.81315 37.5771 3.73348C37.5771 3.59596 37.5771 3.45355 37.5771 3.3147C37.5062 3.23637 37.4366 3.15938 37.3645 3.08016C37.3645 2.93908 37.3645 2.79844 37.3645 2.6636C37.3342 2.63289 37.31 2.58571 37.2854 2.58571C36.9427 2.58082 36.6001 2.58215 36.276 2.58215C36.0115 2.721 35.7656 2.90926 35.4925 2.97201C35.2903 3.01874 35.133 3.1171 34.9546 3.18786C34.5017 3.36677 34.1067 3.66049 33.6586 3.82961C33.4802 3.89725 33.354 4.00229 33.2684 4.13269C33.1522 4.30892 32.9651 4.24528 32.8264 4.34364C32.6185 4.49184 32.3705 4.57996 32.1428 4.69967C31.9431 4.80559 31.7132 4.88436 31.5598 5.04057C31.3861 5.2177 31.1601 5.2809 30.9873 5.42153C30.8028 5.57196 30.5167 5.52923 30.4005 5.78424C30.3728 5.84433 30.3115 5.92043 30.2561 5.93022C30.0548 5.96582 29.9135 6.15408 29.7372 6.18034C29.4528 6.2235 29.3811 6.57286 29.1806 6.59156C28.9516 6.61247 28.8626 6.84345 28.6495 6.83767C28.4464 6.83188 28.3967 7.05529 28.2546 7.14163C28.1167 7.2253 27.9434 7.26535 27.8337 7.37528C27.5671 7.64275 27.2616 7.81721 26.9029 7.9031C26.7599 8.16434 26.3956 8.08112 26.2521 8.34903C26.1627 8.51593 25.9488 8.49367 25.8364 8.58847C25.6277 8.76471 25.3723 8.82434 25.155 8.96854C24.9398 9.11095 24.7004 9.21776 24.4679 9.32012C24.2337 9.42337 24.0345 9.61652 23.7644 9.63209C23.6071 9.98412 23.1439 9.66414 22.9836 10.0095C22.6893 10.0322 22.4854 10.3829 22.1487 10.2534C21.9824 10.4723 21.7197 10.4087 21.52 10.4933C21.3403 10.5689 21.1907 10.71 20.9738 10.6815C20.941 10.6771 20.8844 10.6735 20.8766 10.6895C20.7707 10.9031 20.4937 10.8337 20.3788 10.9939C20.2059 11.2351 19.8953 10.9721 19.7375 11.2151C19.5962 11.4327 19.343 11.2351 19.1779 11.3673C19.1239 11.4105 19.0794 11.4666 19.0224 11.5258C18.8258 11.5258 18.6209 11.5258 18.4157 11.5258C18.3366 11.6001 18.2614 11.67 18.1806 11.7456C17.4987 11.7456 16.8091 11.7456 16.1159 11.7456C16.0438 11.6771 15.9686 11.6059 15.8908 11.532C15.7564 11.532 15.619 11.532 15.4833 11.532C15.3425 11.2618 14.9829 11.3388 14.8317 11.078C14.696 10.844 14.4164 10.7394 14.3352 10.4336C14.2686 10.1839 14.1006 9.96321 13.9437 9.66459C13.9437 9.53419 13.9437 9.32413 13.9437 9.11273C13.8728 9.02951 13.8063 8.95118 13.7307 8.86217C13.7307 8.5226 13.7307 8.16835 13.7307 7.80119C13.7907 7.73488 13.8603 7.65788 13.932 7.57867C13.932 7.47631 13.932 7.36905 13.932 7.26223C13.9908 7.23687 14.1019 7.20972 14.101 7.18747C14.082 6.79005 14.3002 6.48074 14.4843 6.17544C14.626 5.94001 14.4087 5.57463 14.7617 5.43756C14.7085 5.14783 15.1087 4.98806 14.9691 4.67297C15.0724 4.4678 15.1752 4.26264 15.2802 4.05881C15.3109 4.00007 15.3917 3.92575 15.377 3.89237C15.2366 3.56837 15.619 3.40727 15.5922 3.12377C15.5853 3.05346 15.5914 2.9818 15.5914 2.9106C15.5261 2.74148 15.1968 2.64758 15.4712 2.36586C15.5369 2.41927 15.6052 2.47534 15.6795 2.53631C15.8524 2.48735 15.7962 2.34761 15.7815 2.22478C15.7564 2.19852 15.7318 2.15179 15.7072 2.15179C15.2945 2.1469 14.8818 2.14823 14.4558 2.14823C14.2501 2.34227 13.9675 2.43662 13.7043 2.55278C13.5276 2.63066 13.407 2.78865 13.1853 2.82114C12.9809 2.85052 12.7705 3.02275 12.6171 3.18608C12.4676 3.34585 12.2541 3.36232 12.1171 3.48915C11.9395 3.65382 11.6487 3.60398 11.5342 3.85632C11.4357 4.07439 11.1717 4.00941 11.036 4.15939C10.8748 4.33786 10.6989 4.46425 10.4656 4.54925C10.2612 4.62402 10.1838 4.95691 9.88741 4.9124C9.71629 5.08864 9.55641 5.27868 9.3706 5.43578C9.24917 5.53769 9.08324 5.58131 8.94928 5.66987C8.81057 5.76155 8.68957 5.88082 8.55389 5.97828C8.50333 6.01433 8.41951 6.00632 8.37586 6.04682C8.10536 6.29872 7.85646 6.55728 7.51552 6.73931C7.07562 6.97474 6.9071 7.59424 6.34751 7.70372C6.007 8.05664 5.66605 8.41001 5.34628 8.74157C4.91848 8.76871 4.78151 9.14878 4.53175 9.36819C4.29667 9.57513 4.09315 9.81991 3.93931 9.98057C3.43547 10.1354 3.26953 10.609 2.92038 10.7785C2.53795 10.9646 2.29467 11.2845 2.07732 11.463C1.71174 11.6406 1.45074 11.7536 1.19838 11.9121C1.01733 12.0264 0.724787 12.0767 0.596881 11.7599C0.428355 11.8235 0.354896 12.046 0.144887 11.9597C-0.0608007 11.7995 -0.0154347 11.5378 0.0843845 11.4043C0.245132 11.1871 0.29008 10.9103 0.503114 10.7193C0.866525 10.3927 1.18024 10.0073 1.54106 9.67704C1.68582 9.54442 1.66248 9.36685 1.75236 9.21821C1.91614 9.19863 2.07948 9.17904 2.23806 9.16035C2.38974 9.00681 2.27955 8.81811 2.31671 8.653C2.4632 8.39843 2.74925 8.3526 2.95753 8.19371C3.14767 8.04818 3.30064 7.85058 3.4549 7.69215C3.5491 7.68369 3.61566 7.67791 3.70986 7.66901C3.73276 7.58356 3.75868 7.48832 3.79455 7.35525C3.90258 7.30229 4.04431 7.23331 4.18302 7.16566C4.18302 7.08556 4.18302 7.01435 4.18302 6.94314C4.38137 6.83589 4.56977 6.68813 4.78108 6.6325C5.00664 6.57287 5.15097 6.43356 5.2119 6.24576C5.3411 5.847 5.62587 5.68144 5.96637 5.50253C6.18719 5.38638 6.46245 5.31428 6.62665 5.07262C6.78221 4.84343 7.04364 4.75174 7.25883 4.60132C7.47446 4.45 7.66158 4.25596 7.91523 4.16072C7.92646 4.15671 7.91652 4.09353 7.91652 4.05792C8.06041 4.06371 8.12955 3.99205 8.12393 3.8443C8.24968 3.82427 8.39012 3.89503 8.5271 3.76107C8.47352 3.69075 8.4221 3.62267 8.35642 3.53589C8.48346 3.373 8.75482 3.41216 8.85724 3.20344C9.13163 3.34096 9.19688 2.84295 9.49418 2.99916C9.53393 2.87499 9.56116 2.7477 9.6169 2.63644C9.63851 2.59372 9.7258 2.58616 9.7837 2.56257C9.80618 2.62176 9.81956 2.72412 9.8537 2.73213C9.97772 2.76106 9.99846 2.66671 9.99111 2.56257C10.0486 2.53943 10.148 2.52519 10.1553 2.49048C10.1838 2.36275 10.0918 2.34138 9.99111 2.34895C10.0149 2.28842 10.0231 2.19763 10.0663 2.17315C10.2046 2.09661 10.3558 2.04409 10.5473 1.96354C10.6341 1.99247 10.7045 2.21855 10.9565 2.1153C10.9833 2.02673 11.02 1.90569 11.0567 1.78597C11.316 1.66136 11.5748 1.53719 11.8492 1.40501C11.7866 1.32891 11.7274 1.25681 11.6669 1.18338C11.8198 1.08725 11.9732 0.91457 12.1353 0.904779C12.4417 0.886087 12.6802 0.704958 12.9611 0.640871C13.0561 0.619064 13.165 0.632407 13.2489 0.589238C13.4489 0.485988 13.6378 0.359601 13.8746 0.216296C14.1632 0.216296 14.5055 0.216296 14.8503 0.216296C14.9246 0.145089 14.9989 0.0743227 15.0758 0C15.6199 0 16.1687 0 16.7114 0C16.8372 0.052516 16.8713 0.24433 17.0433 0.212732C17.166 0.43125 17.166 0.431252 17.4404 0.337347C17.3635 0.109485 17.1764 0.251897 17.0433 0.212732C17.0675 0.151762 17.0882 0.0409498 17.1167 0.0391703C17.2784 0.0258188 17.4547 0.000899315 17.6011 0.0534143C17.774 0.11483 17.9218 0.25145 18.0799 0.35559C18.032 0.702724 18.4472 0.748129 18.5064 1.09882C18.4598 1.1687 18.3867 1.27817 18.3038 1.40278C18.4952 1.60127 18.7026 1.81579 18.9087 2.02941C18.8348 2.10595 18.7415 2.15847 18.7441 2.20653C18.7666 2.65781 18.3232 3.01251 18.5177 3.47224C18.3461 3.63468 18.3306 3.86521 18.2126 4.00629C18.0791 4.16473 18.1171 4.32672 18.0726 4.48649C17.9753 4.83452 17.7351 5.12113 17.6331 5.47316C17.6068 5.56484 17.4503 5.6623 17.4689 5.71438C17.5951 6.06685 17.1725 6.25332 17.2386 6.59289C17.2589 6.69659 17.1383 6.82877 17.0476 7.02236C17.0476 7.07399 17.0476 7.21506 17.0476 7.35169C16.9754 7.43313 16.9076 7.51013 16.8415 7.58401C16.9102 7.66144 16.9789 7.73843 17.0372 7.80386C17.1206 8.04062 16.8851 8.10648 16.8359 8.26492C16.8359 8.37173 16.8272 8.47943 16.8376 8.58536C16.8544 8.7567 17.013 8.84793 17.0653 9.02372C17.1288 9.23734 17.357 9.39845 17.5394 9.61207C17.7947 9.61207 18.0661 9.61652 18.3375 9.61029C18.5056 9.60717 18.6732 9.58849 18.8413 9.57602C18.983 9.24135 19.3741 9.53597 19.5508 9.27562C19.6762 9.09137 19.8754 9.24046 20.0949 9.13142C20.1096 9.11718 20.1843 9.04597 20.2617 8.9721C20.3952 8.9721 20.5331 8.9721 20.6679 8.9721C20.7444 8.89822 20.8191 8.82657 20.8965 8.75225C21.033 8.75225 21.1696 8.75225 21.3009 8.75225C21.3554 8.69617 21.4025 8.60405 21.4535 8.60182C21.883 8.58358 22.2429 8.23288 22.6561 8.32856C22.8613 8.23199 23.0804 8.19149 23.1997 8.05709C23.3751 7.85949 23.6136 7.98499 23.7549 7.88574C23.9213 7.76914 24.1434 7.74867 24.2631 7.60626C24.4372 7.39931 24.6498 7.52793 24.8469 7.4496C25.0288 7.26224 25.2241 7.06108 25.4212 6.85814C25.8092 6.90042 26.1303 6.6908 26.3965 6.46739C26.6311 6.26979 26.9332 6.20526 27.1397 5.98051C27.3955 6.017 27.4647 5.75799 27.631 5.65518C27.8229 5.5368 28.0204 5.39572 28.2321 5.35344C28.4352 5.31339 28.5242 5.03257 28.7645 5.12335C28.8868 4.99785 28.9978 4.85677 29.1348 4.75085C29.2337 4.67519 29.3954 4.67475 29.4788 4.58886C29.6283 4.43532 29.7981 4.50786 29.9692 4.4816C30.2112 4.3966 30.2803 4.00941 30.6165 4.05792C30.7695 3.80692 31.1147 3.87055 31.2742 3.63068C31.8053 3.48248 32.2348 3.10508 32.7564 2.93463C32.902 2.6093 33.2719 2.90481 33.4784 2.64491C33.6055 2.48558 33.8643 2.39345 34.0774 2.35918C34.5289 2.28797 34.882 2.07436 35.1715 1.71788C35.378 1.71788 35.5828 1.71788 35.7877 1.71788C35.8676 1.64355 35.9428 1.57413 36.0249 1.49803C36.1528 1.49803 36.2902 1.49803 36.4311 1.49803C36.5015 1.56345 36.5759 1.63332 36.6463 1.69919C36.7189 1.63377 36.7906 1.56923 36.8559 1.5096C36.9423 1.58481 37.0188 1.65157 37.1272 1.74592C37.2357 1.68094 37.3459 1.61463 37.463 1.54431C37.6082 1.61107 37.8329 1.64266 37.9331 1.77484C38.1712 2.08949 38.5956 2.11975 38.8168 2.45309C38.8168 3.51096 38.8168 4.57729 38.8168 5.6583C39.0415 5.77357 39.2684 5.89061 39.4939 6.00677C39.5899 5.92265 39.6659 5.8559 39.7511 5.78158C39.8172 5.8421 39.8893 5.90708 39.9701 5.98096C40.0829 5.8559 40.1992 5.72683 40.3357 5.57552C40.5557 5.56305 40.7881 5.54882 41.0172 5.53547C41.1425 5.4064 41.2643 5.2809 41.4004 5.14026C41.521 5.14026 41.6554 5.14026 41.7539 5.14026C42.0387 5.03212 42.1044 4.63914 42.4475 4.69878C42.6004 4.44733 42.8463 4.47537 43.0745 4.4767C43.151 4.40906 43.2223 4.34542 43.2866 4.28845C43.3683 4.35654 43.4374 4.41395 43.5126 4.47626C43.5692 4.32761 43.6159 4.20522 43.6704 4.06103C43.752 4.13135 43.8225 4.19187 43.9569 4.30714C44.1323 4.0686 44.3159 3.81937 44.4823 3.59329C44.866 3.77932 45.0492 3.38902 45.3003 3.4304C45.6045 3.48069 45.7385 3.14157 46.0483 3.18474C46.2855 3.21767 46.4878 2.86475 46.7941 2.99248C46.9406 2.84917 47.0884 2.70454 47.2241 2.57102C47.3991 2.52563 47.5642 2.61643 47.7258 2.4798C48.1812 2.09528 48.8471 2.15491 49.2849 1.72055C49.5722 1.78909 49.7896 1.61373 50.0229 1.49446C50.2567 1.37519 50.4779 1.26437 50.7601 1.24612C50.9593 1.23366 51.1464 1.02138 51.3798 0.872292C51.5375 0.872292 51.7397 0.872292 51.9061 0.872292C52.1666 0.721867 52.3918 0.591918 52.6688 0.431702C52.8101 0.431702 53.0162 0.431702 53.2215 0.431702C53.2988 0.35738 53.3736 0.285719 53.4501 0.211842C53.654 0.211842 53.8614 0.211842 54.0632 0.211842C54.141 0.137964 54.2158 0.0667629 54.2793 0.00579166C55.1906 0.00579166 56.0873 0.00579166 56.9774 0.00579166C57.1058 0.138414 57.2285 0.263921 57.3261 0.365391C57.5495 0.298189 57.7565 0.235435 57.9285 0.183809C58.4898 0.531834 58.6229 1.13175 58.9397 1.64934C58.9397 1.73968 58.9397 1.88121 58.9397 2.02407C58.8735 2.09839 58.807 2.17316 58.7236 2.26706C58.8558 2.31557 58.9764 2.35874 59.1333 2.41526C59.1333 2.71121 59.1333 3.02186 59.1333 3.23682C59.3532 3.49227 59.5122 3.67785 59.6617 3.85231C59.9638 3.85231 60.2378 3.85231 60.4944 3.85231C60.5843 3.93197 60.6608 3.99917 60.7688 4.09485C60.8769 4.0321 60.9883 3.96713 61.2048 3.84118C61.732 3.84118 62.3797 3.84118 62.9895 3.84118C63.0746 3.75306 63.1234 3.70277 63.1826 3.64136C63.4454 3.64136 63.7189 3.64136 63.9929 3.64136C64.0732 3.56792 64.1488 3.49894 64.2335 3.42151C64.635 3.42151 65.0481 3.42151 65.4595 3.42151C65.5377 3.34674 65.6124 3.27553 65.6893 3.2021C65.8246 3.2021 65.9629 3.2021 66.0925 3.2021C66.1699 3.13134 66.2416 3.06458 66.3081 3.0036C66.3868 3.07036 66.4568 3.13089 66.5255 3.18964C66.589 3.12422 66.6378 3.07392 66.7027 3.00717C66.8893 3.00717 67.0916 3.00717 67.2955 3.00717C67.3798 2.93418 67.4567 2.86832 67.5509 2.78687C67.802 2.78687 68.0759 2.78687 68.3499 2.78687C68.4298 2.713 68.5055 2.64357 68.5893 2.56658C68.8533 2.56658 69.1286 2.56658 69.4008 2.56658C69.479 2.49181 69.5542 2.4206 69.6311 2.34716C69.8355 2.34716 70.0425 2.34716 70.2478 2.34716C70.2983 2.29465 70.3471 2.24481 70.4327 2.15625C70.6963 2.15625 70.9975 2.15625 71.2624 2.15625C71.3475 2.06857 71.3968 2.01828 71.4819 1.93061C71.7459 1.93061 72.0471 1.93061 72.3115 1.93061C72.3967 1.84204 72.4455 1.79175 72.5311 1.70408C73.0716 1.70408 73.6502 1.70408 74.1904 1.70408C74.2755 1.6164 74.3243 1.56567 74.3836 1.50514C75.0615 1.50514 75.7499 1.50514 76.4616 1.50514C76.5186 1.55766 76.5943 1.62664 76.6712 1.69696C76.7408 1.63332 76.8138 1.56567 76.8868 1.49847C76.9356 1.54876 76.9845 1.59905 77.0696 1.68672C77.3989 1.74547 77.7748 1.67693 78.1434 1.72499C78.1922 1.77484 78.2415 1.82513 78.3128 1.89857C78.6283 1.89857 78.9679 1.89857 79.2816 1.89857C79.419 1.99025 79.521 2.08415 79.6394 2.12865C79.731 2.16292 79.8537 2.10863 79.9458 2.142C80.0646 2.18606 80.1597 2.29866 80.2789 2.34227C80.371 2.3761 80.4837 2.34895 80.6039 2.34895C80.743 2.48602 80.8899 2.63111 81.0377 2.77619C81.3294 2.61865 81.3644 3.20654 81.6358 2.97156C82.2079 3.56125 82.7455 4.11489 83.2834 4.66852C83.6252 5.02055 83.9675 5.37303 84.3097 5.72506C84.7941 5.81228 84.9605 6.32141 85.3313 6.54127C85.5629 6.67878 85.756 6.88395 85.9803 6.98542C86.2063 7.08733 86.3727 7.22619 86.5451 7.38462C86.6911 7.51858 86.9214 7.48743 87.0511 7.68325C87.1643 7.85415 87.3337 7.98543 87.4162 8.07044C87.5904 8.13096 87.6811 8.16212 87.7684 8.19282C87.7684 8.28628 87.7684 8.3566 87.7684 8.43092C87.7049 8.50302 87.6375 8.57957 87.513 8.72065C87.6759 8.82924 87.8414 8.93916 88 9.04419C87.8431 9.25292 87.6928 9.15724 87.5649 9.18483C87.5701 9.03707 87.5009 8.96587 87.3696 9.00103C87.335 8.86529 87.3505 8.70017 87.1695 8.84481C87.2257 8.89421 87.2818 8.94406 87.3696 9.00103C87.3523 9.11941 87.4214 9.19017 87.5649 9.18483C87.6271 9.29653 87.6898 9.40824 87.7537 9.52351C87.4897 9.7754 87.2555 9.53641 87.0087 9.43761C86.9612 9.48612 86.9141 9.53463 86.8653 9.58537C86.6786 9.59471 86.4863 9.69396 86.3143 9.50838C86.2564 9.44518 86.1462 9.40468 86.0602 9.40601C85.96 9.40779 85.8822 9.48345 85.9055 9.61207Z" fill="url(#paint0_radial_242_1164)"/>
<defs>
<radialGradient id="paint0_radial_242_1164" cx="0" cy="0" r="1" gradientUnits="userSpaceOnUse" gradientTransform="translate(47 14.5) rotate(-88.6678) scale(21.5058 157.709)">
<stop stop-color="#FE732C"/>
<stop offset="1" stop-color="white" stop-opacity="0"/>
<stop offset="1" stop-color="white"/>
</radialGradient>
</defs>
</svg>
