<svg width="26" height="26" viewBox="0 0 26 26" fill="none" xmlns="http://www.w3.org/2000/svg">
<path fill-rule="evenodd" clip-rule="evenodd" d="M23.8 13C23.8 18.9648 18.9647 23.8 13 23.8C7.03533 23.8 2.19997 18.9647 2.19997 13C2.19997 7.03533 7.03533 2.19997 13 2.19997C18.9648 2.19997 23.8 7.03533 23.8 13ZM25 13C25 19.6273 19.6273 25 13 25C6.37253 25 1 19.6273 1 13C1 6.37253 6.37253 1 13 1C19.6273 1 25 6.37253 25 13ZM10.7755 9.32119L17.1006 13L10.7755 16.6789V9.32119ZM18.3784 13.699C18.9501 13.3665 18.9501 12.6337 18.3784 12.3011L10.8969 7.94962C10.2571 7.57745 9.4 7.97761 9.4 8.64851V17.3516C9.4 18.0225 10.2571 18.4228 10.8969 18.0506L18.3784 13.699Z" fill="#1E1D18"/>
<path d="M17.1006 13L17.2263 13.2161L17.5978 13L17.2263 12.7839L17.1006 13ZM10.7755 9.32119L10.9012 9.10508L10.5255 8.88657V9.32119H10.7755ZM10.7755 16.6789H10.5255V17.1136L10.9012 16.895L10.7755 16.6789ZM18.3784 12.3011L18.5041 12.085H18.5041L18.3784 12.3011ZM18.3784 13.699L18.2527 13.4829L18.2527 13.4829L18.3784 13.699ZM10.8969 7.94962L10.7712 8.16572L10.7712 8.16573L10.8969 7.94962ZM10.8969 18.0506L10.7712 17.8345L10.7712 17.8345L10.8969 18.0506ZM13 24.05C19.1027 24.05 24.05 19.1029 24.05 13H23.55C23.55 18.8267 18.8266 23.55 13 23.55V24.05ZM1.94997 13C1.94997 19.1027 6.89726 24.05 13 24.05V23.55C7.1734 23.55 2.44997 18.8266 2.44997 13H1.94997ZM13 1.94997C6.89726 1.94997 1.94997 6.89726 1.94997 13H2.44997C2.44997 7.1734 7.1734 2.44997 13 2.44997V1.94997ZM24.05 13C24.05 6.89726 19.1029 1.94997 13 1.94997V2.44997C18.8267 2.44997 23.55 7.1734 23.55 13H24.05ZM13 25.25C19.7654 25.25 25.25 19.7654 25.25 13H24.75C24.75 19.4893 19.4893 24.75 13 24.75V25.25ZM0.75 13C0.75 19.7654 6.23446 25.25 13 25.25V24.75C6.51061 24.75 1.25 19.4893 1.25 13H0.75ZM13 0.75C6.23446 0.75 0.75 6.23446 0.75 13H1.25C1.25 6.5106 6.5106 1.25 13 1.25V0.75ZM25.25 13C25.25 6.23446 19.7654 0.75 13 0.75V1.25C19.4893 1.25 24.75 6.51061 24.75 13H25.25ZM17.2263 12.7839L10.9012 9.10508L10.6499 9.53729L16.9749 13.2161L17.2263 12.7839ZM10.9012 16.895L17.2263 13.2161L16.9749 12.7839L10.6498 16.4628L10.9012 16.895ZM10.5255 9.32119V16.6789H11.0255V9.32119H10.5255ZM18.2527 12.5172C18.4659 12.6412 18.5572 12.8276 18.5572 13.0001C18.5572 13.1725 18.4659 13.3589 18.2527 13.4829L18.5041 13.9151C18.8627 13.7066 19.0572 13.3603 19.0572 13.0001C19.0572 12.6399 18.8627 12.2936 18.5041 12.085L18.2527 12.5172ZM10.7712 8.16573L18.2527 12.5172L18.5041 12.085L11.0226 7.73352L10.7712 8.16573ZM9.65 8.64851C9.65 8.43093 9.78753 8.24031 10.0143 8.13444C10.2411 8.02853 10.5283 8.02444 10.7712 8.16572L11.0226 7.73352C10.6257 7.50263 10.1644 7.51253 9.80276 7.68139C9.44102 7.85028 9.15 8.19519 9.15 8.64851H9.65ZM9.65 17.3516V8.64851H9.15V17.3516H9.65ZM10.7712 17.8345C10.5283 17.9758 10.2411 17.9717 10.0143 17.8658C9.78754 17.7599 9.65 17.5692 9.65 17.3516H9.15C9.15 17.8049 9.441 18.1499 9.80274 18.3188C10.1644 18.4877 10.6256 18.4976 11.0226 18.2667L10.7712 17.8345ZM18.2527 13.4829L10.7712 17.8345L11.0226 18.2667L18.5041 13.9151L18.2527 13.4829Z" fill="#1E1D18"/>
</svg>
