<svg width="469" height="440" viewBox="0 0 469 440" fill="none" xmlns="http://www.w3.org/2000/svg">
<g opacity="0.9">
<path fill-rule="evenodd" clip-rule="evenodd" d="M405.208 48.2031H63.792C59.926 48.2031 56.792 51.3371 56.792 55.2031V384.797C56.792 388.663 59.926 391.797 63.792 391.797H166.504V392.797H63.792C59.3737 392.797 55.792 389.215 55.792 384.797V55.2031C55.792 50.7848 59.3737 47.2031 63.792 47.2031H405.208C409.626 47.2031 413.208 50.7848 413.208 55.2031V94.4062H412.208V55.2031C412.208 51.3371 409.074 48.2031 405.208 48.2031ZM372.236 392.797H405.208C409.626 392.797 413.208 389.215 413.208 384.797V345.594H412.208V384.797C412.208 388.663 409.074 391.797 405.208 391.797H372.236V392.797Z" fill="#1E1D18"/>
<rect x="54.9202" y="413.027" width="0.871747" height="26.9732" rx="0.435873" fill="#1E1D18"/>
<rect x="54.9202" width="0.871747" height="26.9732" rx="0.435873" fill="#1E1D18"/>
<rect x="412.336" y="413.027" width="0.871747" height="26.9732" rx="0.435873" fill="#1E1D18"/>
<rect x="412.336" width="0.871747" height="26.9732" rx="0.435873" fill="#1E1D18"/>
<rect x="412.336" y="286.59" width="0.871747" height="26.9732" rx="0.435873" fill="#1E1D18"/>
<rect x="412.336" y="206.513" width="0.871747" height="26.9732" rx="0.435873" fill="#1E1D18"/>
<rect x="412.336" y="126.436" width="0.871747" height="26.9732" rx="0.435873" fill="#1E1D18"/>
<rect y="47.2032" width="34.8699" height="0.843851" rx="0.421926" fill="#1E1D18"/>
<rect y="391.953" width="34.8699" height="0.843851" rx="0.421926" fill="#1E1D18"/>
<rect x="434.13" y="47.2031" width="34.8699" height="0.843851" rx="0.421926" fill="#1E1D18"/>
<rect x="434.13" y="391.953" width="34.8699" height="0.843851" rx="0.421926" fill="#1E1D18"/>
<rect x="294.651" y="391.953" width="34.8699" height="0.843851" rx="0.421926" fill="#1E1D18"/>
<rect x="210.963" y="391.953" width="34.8699" height="0.843851" rx="0.421926" fill="#1E1D18"/>
<g opacity="0.6" clip-path="url(#clip0_6:2228)">
<path d="M235.059 200.708C230.148 200.708 226.167 204.557 226.167 209.306C226.167 214.054 230.148 217.904 235.059 217.904C239.97 217.904 243.952 214.055 243.952 209.306C243.952 204.557 239.971 200.708 235.059 200.708ZM235.059 213.809C232.487 213.809 230.401 211.793 230.401 209.306C230.401 206.818 232.487 204.802 235.059 204.802C237.632 204.802 239.717 206.818 239.717 209.306C239.717 211.793 237.632 213.809 235.059 213.809Z" fill="#1E1D18"/>
<path d="M270.523 181.055L212.723 174.708C210.48 174.4 208.207 175.033 206.477 176.449C204.748 177.745 203.639 179.667 203.407 181.771L202.349 190.165H199.067C194.409 190.165 190.915 194.157 190.915 198.66V240.525C190.798 244.82 194.304 248.394 198.746 248.507C198.853 248.51 198.96 248.51 199.067 248.509H257.184C261.842 248.509 266.076 245.029 266.076 240.525V238.887C267.52 238.618 268.89 238.06 270.099 237.25C271.814 235.853 272.912 233.876 273.169 231.722L278.039 190.165C278.535 185.65 275.185 181.59 270.523 181.055ZM261.842 240.525C261.842 242.777 259.513 244.415 257.184 244.415H199.067C196.963 244.474 195.207 242.874 195.146 240.84C195.142 240.735 195.144 240.63 195.15 240.525V232.951L211.558 221.282C213.529 219.818 216.306 219.948 218.122 221.589L229.661 231.415C231.413 232.838 233.619 233.633 235.906 233.667C237.695 233.688 239.455 233.228 240.988 232.336L261.842 220.667V240.525H261.842ZM261.842 215.857L238.764 228.856C236.783 229.991 234.274 229.786 232.519 228.344L220.874 218.416C217.537 215.643 212.659 215.473 209.123 218.006L195.15 227.833V198.66C195.15 196.409 196.738 194.259 199.067 194.259H257.184C259.672 194.359 261.682 196.258 261.842 198.66V215.857ZM273.808 189.612C273.807 189.626 273.806 189.639 273.804 189.653L268.829 231.21C268.837 232.288 268.329 233.309 267.452 233.974C267.029 234.384 266.076 234.588 266.076 234.793V198.66C265.909 193.997 262.008 190.27 257.184 190.165H206.583L207.536 182.181C207.742 181.147 208.301 180.21 209.124 179.519C210.052 178.899 211.175 178.609 212.3 178.7L269.994 185.149C272.321 185.363 274.029 187.361 273.808 189.612Z" fill="#1E1D18"/>
</g>
</g>
<defs>
<clipPath id="clip0_6:2228">
<rect width="87.1747" height="84.2912" fill="white" transform="translate(190.913 169.425)"/>
</clipPath>
</defs>
</svg>
