<svg width="24" height="24" viewBox="0 0 24 24" fill="none" xmlns="http://www.w3.org/2000/svg">
<path d="M7.92098 22C16.2208 22 20.7618 15.0741 20.7618 9.0699C20.7618 8.8752 20.7575 8.67616 20.7489 8.48146C21.6322 7.83819 22.3945 7.04141 23 6.12857C22.1773 6.49714 21.3038 6.73785 20.4094 6.84248C21.3512 6.27405 22.0563 5.38106 22.3941 4.32906C21.5082 4.85777 20.5393 5.23073 19.529 5.43196C18.8483 4.70363 17.9482 4.22139 16.968 4.0598C15.9879 3.89821 14.9821 4.06626 14.1063 4.53798C13.2304 5.00969 12.5333 5.7588 12.1227 6.66948C11.7121 7.58016 11.6108 8.60169 11.8346 9.57613C10.0406 9.48548 8.28561 9.01622 6.68332 8.19877C5.08102 7.38131 3.66722 6.23392 2.53355 4.83097C1.95737 5.83129 1.78105 7.01501 2.04044 8.14153C2.29984 9.26805 2.97547 10.2529 3.93004 10.8958C3.21341 10.8729 2.51248 10.6786 1.88516 10.329V10.3852C1.88451 11.435 2.24492 12.4526 2.90512 13.265C3.56531 14.0775 4.48455 14.6346 5.50656 14.8418C4.84272 15.0247 4.14598 15.0513 3.47027 14.9197C3.75867 15.8225 4.31978 16.6121 5.07529 17.1783C5.8308 17.7446 6.74303 18.0592 7.68465 18.0782C6.08606 19.3427 4.11133 20.0285 2.07852 20.0253C1.71801 20.0247 1.35787 20.0025 1 19.9586C3.06512 21.2927 5.4674 22.0013 7.92098 22Z" fill="white"/>
</svg>
