<svg width="24" height="24" viewBox="0 0 24 24" fill="none" xmlns="http://www.w3.org/2000/svg">
<path fill-rule="evenodd" clip-rule="evenodd" d="M22.0006 10.1397C22.0006 8.72666 20.8555 7.58154 19.4425 7.58154H10.1402C8.72715 7.58154 7.58203 8.72666 7.58203 10.1397V19.442C7.58203 20.855 8.72715 22.0001 10.1402 22.0001H19.4425C20.8555 22.0001 22.0006 20.855 22.0006 19.442V10.1397ZM20.6053 10.1397V19.442C20.6053 20.0839 20.0844 20.6048 19.4425 20.6048H10.1402C9.49831 20.6048 8.97738 20.0839 8.97738 19.442V10.1397C8.97738 9.49782 9.49831 8.97689 10.1402 8.97689H19.4425C20.0844 8.97689 20.6053 9.49782 20.6053 10.1397Z" fill="#F2F2F2"/>
<path fill-rule="evenodd" clip-rule="evenodd" d="M6.65116 13.6847L3.98233 16.3535C4.16744 16.3963 4.36 16.4186 4.55814 16.4186H6.65116V13.6847ZM6.94233 8.74233L2 13.6847V13.8605C2 14.5526 2.27442 15.1805 2.72093 15.6409L6.65116 11.7107V10.1395C6.65116 9.64279 6.75535 9.1693 6.94233 8.74233ZM11.7107 2L2 11.7107V9.03349L9.03349 2H11.7107ZM7.05954 2H4.55814C3.14512 2 2 3.14512 2 4.55814V7.05954L7.05954 2ZM8.74233 6.94233C9.1693 6.75535 9.64279 6.65116 10.1395 6.65116H11.7107L15.6409 2.72093C15.1805 2.27442 14.5526 2 13.8605 2H13.6847L8.74233 6.94233ZM13.6847 6.65116H16.4186V4.55814C16.4186 4.36 16.3963 4.16744 16.3535 3.98233L13.6847 6.65116Z" fill="#F2F2F2"/>
</svg>
