<svg width="24" height="24" viewBox="0 0 24 24" fill="none" xmlns="http://www.w3.org/2000/svg">
<circle cx="12" cy="7" r="4.29688" stroke="white" stroke-width="1.40625"/>
<path d="M3.72747 21.2969C4.05325 16.6474 7.60916 13.7031 12 13.7031C16.3908 13.7031 19.9467 16.6474 20.2725 21.2969H20.2534H20.23H20.2066H20.1834H20.1602H20.1372H20.1142H20.0913H20.0685H20.0458H20.0232H20.0006H19.9782H19.9558H19.9335H19.9113H19.8892H19.8672H19.8452H19.8234H19.8016H19.7799H19.7583H19.7367H19.7153H19.6939H19.6726H19.6514H19.6302H19.6092H19.5882H19.5673H19.5464H19.5257H19.505H19.4844H19.4639H19.4434H19.4231H19.4028H19.3825H19.3624H19.3423H19.3223H19.3024H19.2825H19.2627H19.243H19.2234H19.2038H19.1843H19.1648H19.1455H19.1262H19.1069H19.0878H19.0687H19.0496H19.0307H19.0118H18.9929H18.9742H18.9555H18.9368H18.9183H18.8997H18.8813H18.8629H18.8446H18.8263H18.8081H18.79H18.7719H18.7539H18.7359H18.718H18.7002H18.6824H18.6647H18.647H18.6294H18.6118H18.5943H18.5769H18.5595H18.5422H18.5249H18.5077H18.4905H18.4734H18.4563H18.4393H18.4224H18.4055H18.3886H18.3718H18.355H18.3383H18.3217H18.3051H18.2885H18.272H18.2556H18.2391H18.2228H18.2065H18.1902H18.174H18.1578H18.1416H18.1256H18.1095H18.0935H18.0775H18.0616H18.0457H18.0299H18.0141H17.9984H17.9827H17.967H17.9514H17.9358H17.9202H17.9047H17.8892H17.8738H17.8584H17.843H17.8277H17.8124H17.7972H17.7819H17.7668H17.7516H17.7365H17.7214H17.7064H17.6914H17.6764H17.6614H17.6465H17.6316H17.6168H17.6019H17.5871H17.5724H17.5576H17.5429H17.5282H17.5136H17.4989H17.4843H17.4698H17.4552H17.4407H17.4262H17.4117H17.3973H17.3828H17.3684H17.3541H17.3397H17.3254H17.3111H17.2968H17.2825H17.2683H17.254H17.2398H17.2256H17.2115H17.1973H17.1832H17.1691H17.155H17.1409H17.1268H17.1128H17.0987H17.0847H17.0707H17.0567H17.0427H17.0288H17.0148H17.0009H16.987H16.973H16.9591H16.9452H16.9314H16.9175H16.9036H16.8898H16.8759H16.8621H16.8483H16.8344H16.8206H16.8068H16.793H16.7792H16.7654H16.7517H16.7379H16.7241H16.7103H16.6966H16.6828H16.669H16.6553H16.6415H16.6278H16.614H16.6002H16.5865H16.5727H16.559H16.5452H16.5315H16.5177H16.5039H16.4902H16.4764H16.4626H16.4488H16.435H16.4212H16.4075H16.3937H16.3798H16.366H16.3522H16.3384H16.3245H16.3107H16.2968H16.283H16.2691H16.2552H16.2413H16.2274H16.2135H16.1996H16.1856H16.1717H16.1577H16.1437H16.1297H16.1157H16.1017H16.0877H16.0736H16.0595H16.0454H16.0313H16.0172H16.0031H15.9889H15.9747H15.9606H15.9463H15.9321H15.9179H15.9036H15.8893H15.875H15.8606H15.8463H15.8319H15.8175H15.803H15.7886H15.7741H15.7596H15.7451H15.7305H15.7159H15.7013H15.6867H15.672H15.6573H15.6426H15.6279H15.6131H15.5983H15.5835H15.5686H15.5537H15.5388H15.5238H15.5088H15.4938H15.4787H15.4636H15.4485H15.4334H15.4182H15.4029H15.3877H15.3724H15.357H15.3417H15.3263H15.3108H15.2953H15.2798H15.2642H15.2486H15.233H15.2173H15.2016H15.1858H15.17H15.1542H15.1383H15.1224H15.1064H15.0904H15.0743H15.0582H15.0421H15.0259H15.0096H14.9934H14.977H14.9607H14.9442H14.9278H14.9112H14.8947H14.8781H14.8614H14.8447H14.8279H14.8111H14.7942H14.7773H14.7603H14.7433H14.7262H14.7091H14.6919H14.6747H14.6574H14.64H14.6226H14.6052H14.5877H14.5701H14.5525H14.5348H14.5171H14.4993H14.4814H14.4635H14.4455H14.4275H14.4094H14.3912H14.373H14.3547H14.3364H14.318H14.2995H14.281H14.2624H14.2437H14.225H14.2062H14.1874H14.1685H14.1495H14.1304H14.1113H14.0921H14.0729H14.0536H14.0342H14.0147H13.9952H13.9756H13.9559H13.9362H13.9164H13.8965H13.8766H13.8565H13.8364H13.8163H13.796H13.7757H13.7553H13.7348H13.7143H13.6937H13.673H13.6522H13.6314H13.6104H13.5894H13.5684H13.5472H13.526H13.5046H13.4832H13.4618H13.4402H13.4186H13.3968H13.375H13.3531H13.3312H13.3091H13.287H13.2647H13.2424H13.2201H13.1976H13.175H13.1524H13.1296H13.1068H13.0839H13.0609H13.0378H13.0146H12.9914H12.968H12.9446H12.921H12.8974H12.8737H12.8499H12.826H12.802H12.7779H12.7537H12.7294H12.7051H12.6806H12.656H12.6314H12.6066H12.5818H12.5569H12.5318H12.5067H12.4814H12.4561H12.4307H12.4051H12.3795H12.3538H12.3279H12.302H12.276H12.2498H12.2236H12.1972H12.1708H12.1443H12.1176H12.0908H12.064H12.037H12.0099H11.9828H11.9555H11.9281H11.9006H11.873H11.8453H11.8174H11.7895H11.7615H11.7333H11.705H11.6767H11.6482H11.6196H11.5909H11.5618H11.5328H11.5039H11.4752H11.4465H11.4179H11.3894H11.361H11.3326H11.3044H11.2763H11.2483H11.2203H11.1925H11.1647H11.137H11.1095H11.082H11.0546H11.0273H11.0001H10.973H10.946H10.919H10.8922H10.8654H10.8388H10.8122H10.7857H10.7593H10.733H10.7067H10.6806H10.6546H10.6286H10.6027H10.5769H10.5512H10.5256H10.5001H10.4746H10.4492H10.424H10.3988H10.3737H10.3486H10.3237H10.2988H10.274H10.2493H10.2247H10.2002H10.1757H10.1514H10.1271H10.1029H10.0788H10.0547H10.0307H10.0069H9.98305H9.95932H9.93568H9.91211H9.88862H9.8652H9.84187H9.81861H9.79543H9.77232H9.7493H9.72635H9.70347H9.68067H9.65795H9.6353H9.61273H9.59023H9.56781H9.54546H9.52318H9.50098H9.47885H9.45679H9.43481H9.4129H9.39106H9.3693H9.3476H9.32598H9.30442H9.28294H9.26153H9.24019H9.21892H9.19771H9.17658H9.15552H9.13452H9.1136H9.09274H9.07195H9.05122H9.03057H9.00998H8.98946H8.969H8.94861H8.92829H8.90803H8.88784H8.86771H8.84765H8.82766H8.80772H8.78785H8.76805H8.7483H8.72863H8.70901H8.68946H8.66996H8.65053H8.63117H8.61186H8.59261H8.57343H8.55431H8.53524H8.51624H8.49729H8.47841H8.45958H8.44082H8.42211H8.40346H8.38487H8.36633H8.34786H8.32944H8.31108H8.29277H8.27452H8.25633H8.23819H8.22011H8.20208H8.18411H8.16619H8.14833H8.13052H8.11276H8.09506H8.07741H8.05982H8.04227H8.02478H8.00735H7.98996H7.97262H7.95534H7.93811H7.92092H7.90379H7.88671H7.86968H7.8527H7.83576H7.81888H7.80204H7.78526H7.76852H7.75183H7.73518H7.71859H7.70204H7.68553H7.66908H7.65267H7.6363H7.61999H7.60371H7.58748H7.5713H7.55516H7.53907H7.52302H7.50701H7.49104H7.47512H7.45925H7.44341H7.42762H7.41186H7.39615H7.38049H7.36486H7.34927H7.33372H7.31822H7.30275H7.28733H7.27194H7.25659H7.24128H7.22601H7.21078H7.19558H7.18043H7.16531H7.15023H7.13518H7.12017H7.1052H7.09026H7.07536H7.06049H7.04566H7.03087H7.01611H7.00138H6.98669H6.97203H6.9574H6.94281H6.92825H6.91372H6.89923H6.88477H6.87034H6.85594H6.84157H6.82723H6.81292H6.79865H6.7844H6.77018H6.756H6.74184H6.72771H6.71361H6.69954H6.68549H6.67148H6.65749H6.64353H6.62959H6.61568H6.6018H6.58795H6.57412H6.56031H6.54653H6.53278H6.51905H6.50535H6.49167H6.47801H6.46438H6.45077H6.43718H6.42361H6.41007H6.39655H6.38305H6.36958H6.35612H6.34269H6.32927H6.31588H6.30251H6.28916H6.27582H6.26251H6.24921H6.23594H6.22268H6.20944H6.19622H6.18301H6.16983H6.15666H6.1435H6.13037H6.11725H6.10414H6.09105H6.07798H6.06492H6.05188H6.03885H6.02583H6.01283H5.99985H5.98687H5.97391H5.96096H5.94803H5.93511H5.92219H5.90929H5.89641H5.88353H5.87066H5.85781H5.84496H5.83213H5.8193H5.80648H5.79368H5.78088H5.76809H5.75531H5.74253H5.72977H5.71701H5.70426H5.69151H5.67878H5.66605H5.65332H5.6406H5.62789H5.61518H5.60247H5.58977H5.57708H5.56439H5.5517H5.53902H5.52634H5.51366H5.50098H5.48831H5.47564H5.46297H5.4503H5.43764H5.42497H5.41231H5.39964H5.38698H5.37432H5.36165H5.34899H5.33632H5.32365H5.31098H5.29831H5.28564H5.27296H5.26028H5.2476H5.23492H5.22223H5.20954H5.19684H5.18414H5.17143H5.15872H5.14601H5.13329H5.12056H5.10782H5.09508H5.08234H5.06958H5.05682H5.04406H5.03128H5.0185H5.0057H4.9929H4.98009H4.96727H4.95444H4.9416H4.92876H4.9159H4.90303H4.89015H4.87725H4.86435H4.85144H4.83851H4.82557H4.81262H4.79965H4.78667H4.77368H4.76068H4.74766H4.73462H4.72157H4.70851H4.69543H4.68234H4.66923H4.6561H4.64296H4.6298H4.61663H4.60343H4.59022H4.577H4.56375H4.55049H4.5372H4.5239H4.51058H4.49724H4.48388H4.4705H4.4571H4.44368H4.43024H4.41678H4.4033H4.38979H4.37626H4.36271H4.34914H4.33555H4.32193H4.30829H4.29462H4.28093H4.26722H4.25348H4.23972H4.22593H4.21212H4.19828H4.18442H4.17053H4.15661H4.14267H4.1287H4.1147H4.10067H4.08662H4.07254H4.05843H4.04429H4.03012H4.01593H4.0017H3.98744H3.97316H3.95884H3.94449H3.93011H3.9157H3.90126H3.88679H3.87228H3.85775H3.84318H3.82857H3.81394H3.79926H3.78456H3.76982H3.75505H3.74024H3.72747Z" stroke="white" stroke-width="1.40625"/>
</svg>
