<svg width="18" height="18" viewBox="0 0 18 18" fill="none" xmlns="http://www.w3.org/2000/svg">
<path d="M12.9575 9.24697L13.2231 8.97304C13.6714 8.5165 13.6797 7.97695 13.2148 7.4955L12.9492 7.23818C14.3105 6.02627 15.7134 5.97646 16.6431 5.02187C17.9712 3.66884 17.5479 1.80947 16.6182 0.871481C15.6719 -0.0665069 13.8125 -0.481546 12.4595 0.838278C11.5049 1.77627 11.4634 3.1625 10.2349 4.53213L9.98584 4.2665C9.50439 3.80996 8.96484 3.80996 8.5166 4.2582L8.23438 4.51552C7.69482 5.05508 7.78613 5.52822 8.25928 5.99306L8.62451 6.3583L2.90527 12.0692C0.149414 14.8251 1.50244 14.3852 0 16.5019L0.813477 17.3651C2.86377 15.8793 2.56494 17.3485 5.37061 14.5678L11.123 8.84853L11.4883 9.22207C11.9531 9.69521 12.4263 9.78652 12.9575 9.24697ZM2.73096 14.7919C2.44043 14.4931 2.51514 14.1942 2.81396 13.8871L9.47119 7.20498L10.3013 8.03506L3.61914 14.7089C3.34521 14.9828 2.99658 15.0741 2.73096 14.7919Z" fill="white"/>
</svg>