<svg width="24" height="24" viewBox="0 0 24 24" fill="none" xmlns="http://www.w3.org/2000/svg">
<g clip-path="url(#clip0_898_41834)">
<path d="M21.1406 14.8594C21.1406 19.8994 17.04 24 12 24C6.92391 24 2.85938 19.8586 2.85938 14.8594C2.85938 10.7489 5.03156 6.35812 7.25484 3.84656C7.68281 3.36328 8.48438 3.66656 8.48438 4.3125C8.48672 5.17219 8.76188 6.42188 9.1875 6.42188C9.73313 6.42188 10.2722 4.78078 10.6289 3.69469C10.9566 2.69672 11.3377 1.45547 12 0.696094C12.3684 0.27375 12.8241 0 13.4062 0C13.7944 0 14.1094 0.315 14.1094 0.703125C14.1094 4.53984 21.1406 8.98031 21.1406 14.8594Z" fill="#FED843"/>
<path d="M21.1406 14.8594C21.1406 19.8994 17.04 24 12 24V0.696094C12.3684 0.27375 12.8241 0 13.4062 0C13.7944 0 14.1094 0.315 14.1094 0.703125C14.1094 4.53984 21.1406 8.98031 21.1406 14.8594Z" fill="#FABE2C"/>
<path d="M12 8.53125C8.51062 8.53125 5.67188 11.37 5.67188 14.8594C5.67188 18.3488 8.51062 21.1875 12 21.1875C15.4894 21.1875 18.3281 18.3488 18.3281 14.8594C18.3281 11.37 15.4894 8.53125 12 8.53125Z" fill="#FF641A"/>
<path d="M18.3281 14.8594C18.3281 18.3488 15.4894 21.1875 12 21.1875V8.53125C15.4894 8.53125 18.3281 11.37 18.3281 14.8594Z" fill="#F03800"/>
<path d="M12 19.7812C14.7183 19.7812 16.9219 17.5777 16.9219 14.8594C16.9219 12.1411 14.7183 9.9375 12 9.9375C9.28172 9.9375 7.07812 12.1411 7.07812 14.8594C7.07812 17.5777 9.28172 19.7812 12 19.7812Z" fill="#F0F7FF"/>
<path d="M16.9219 14.8594C16.9219 17.5734 14.7141 19.7812 12 19.7812V9.9375C14.7141 9.9375 16.9219 12.1453 16.9219 14.8594Z" fill="#DFE7F4"/>
<path d="M15.5156 14.8594C15.5156 15.2475 15.2006 15.5625 14.8125 15.5625H12C11.6119 15.5625 11.2969 15.2475 11.2969 14.8594V12.0469C11.2969 11.6587 11.6119 11.3438 12 11.3438C12.3881 11.3438 12.7031 11.6587 12.7031 12.0469V14.1562H14.8125C15.2006 14.1562 15.5156 14.4713 15.5156 14.8594Z" fill="#474F54"/>
<path d="M15.5156 14.8594C15.5156 15.2475 15.2006 15.5625 14.8125 15.5625H12V11.3438C12.3881 11.3438 12.7031 11.6587 12.7031 12.0469V14.1562H14.8125C15.2006 14.1562 15.5156 14.4713 15.5156 14.8594Z" fill="#32393F"/>
</g>
<defs>
<clipPath id="clip0_898_41834">
<rect width="24" height="24" fill="white"/>
</clipPath>
</defs>
</svg>
