<svg width="24" height="24" viewBox="0 0 24 24" fill="none" xmlns="http://www.w3.org/2000/svg">
<circle cx="12" cy="12" r="12" fill="#BFCBDA"/>
<path d="M16.2478 10.7573L10.7478 7.65434C10.5681 7.55169 10.3645 7.49845 10.1577 7.50003C9.95079 7.50162 9.74803 7.55796 9.57 7.66334C9.39656 7.76254 9.25246 7.90587 9.15235 8.07879C9.05224 8.2517 8.99967 8.44804 9 8.64784V14.8538C8.99967 15.0536 9.05224 15.25 9.15235 15.4229C9.25246 15.5958 9.39656 15.7391 9.57 15.8383C9.74805 15.9437 9.9508 16 10.1577 16.0016C10.3645 16.0031 10.5681 15.9499 10.7478 15.8473L16.2478 12.7443C16.4251 12.6461 16.573 12.5021 16.6759 12.3274C16.7789 12.1527 16.8332 11.9536 16.8332 11.7508C16.8332 11.5481 16.7789 11.349 16.6759 11.1743C16.573 10.9996 16.4251 10.8556 16.2478 10.7573Z" fill="#22262F"/>
</svg>
