<svg width="32" height="32" viewBox="0 0 32 32" fill="none" xmlns="http://www.w3.org/2000/svg">
<circle cx="16" cy="16" r="16" fill="#444954"/>
<path d="M17.8645 13.1169L16.5833 14.3981V7.6207C16.5833 7.45609 16.5179 7.29821 16.4015 7.18181C16.2851 7.06541 16.1273 7.00001 15.9627 7.00001C15.798 7.00001 15.6402 7.06541 15.5238 7.18181C15.4074 7.29821 15.342 7.45609 15.342 7.6207V14.3981L14.0608 13.1169C14.0032 13.059 13.9348 13.0131 13.8594 12.9817C13.784 12.9503 13.7032 12.934 13.6215 12.9339C13.5399 12.9338 13.459 12.9498 13.3836 12.981C13.3081 13.0122 13.2395 13.058 13.1818 13.1157C13.1241 13.1735 13.0783 13.242 13.0471 13.3175C13.0159 13.3929 12.9999 13.4738 13 13.5555C13.0001 13.6371 13.0163 13.718 13.0477 13.7933C13.0791 13.8687 13.1251 13.9371 13.183 13.9947L15.5237 16.3355C15.5814 16.3931 15.6498 16.4389 15.7251 16.4701C15.8004 16.5012 15.8811 16.5173 15.9627 16.5173C16.0442 16.5173 16.1249 16.5012 16.2002 16.4701C16.2755 16.4389 16.3439 16.3931 16.4016 16.3355L18.7423 13.9947C18.8002 13.9371 18.8462 13.8687 18.8776 13.7933C18.909 13.718 18.9252 13.6371 18.9253 13.5555C18.9254 13.4738 18.9094 13.3929 18.8782 13.3175C18.847 13.242 18.8012 13.1735 18.7435 13.1157C18.6858 13.058 18.6172 13.0122 18.5417 12.981C18.4663 12.9498 18.3854 12.9338 18.3038 12.9339C18.2221 12.934 18.1413 12.9503 18.0659 12.9817C17.9905 13.0131 17.9221 13.059 17.8645 13.1169Z" fill="white"/>
<path d="M21.3793 14C21.2147 14 21.0568 14.0654 20.9404 14.1818C20.824 14.2982 20.7586 14.4561 20.7586 14.6207V19.3793H11.2414V14.6207C11.2414 14.4561 11.176 14.2982 11.0596 14.1818C10.9432 14.0654 10.7853 14 10.6207 14C10.4561 14 10.2982 14.0654 10.1818 14.1818C10.0654 14.2982 10 14.4561 10 14.6207V19.5862C10 19.8606 10.109 20.1237 10.303 20.3177C10.497 20.5117 10.7601 20.6207 11.0345 20.6207H20.9655C21.2399 20.6207 21.503 20.5117 21.697 20.3177C21.891 20.1237 22 19.8606 22 19.5862V14.6207C22 14.4561 21.9346 14.2982 21.8182 14.1818C21.7018 14.0654 21.5439 14 21.3793 14Z" fill="white"/>
</svg>
