<svg width="40" height="40" viewBox="0 0 40 40" fill="none" xmlns="http://www.w3.org/2000/svg">
<circle cx="20" cy="20" r="20" fill="#FE6338"/>
<g clip-path="url(#clip0_803_67867)">
<path fill-rule="evenodd" clip-rule="evenodd" d="M22.7808 14.2929C22.537 14.4804 22.4 14.7348 22.4 15V25C22.4 25.2652 22.537 25.5196 22.7808 25.7071C23.0246 25.8946 23.3552 26 23.7 26C24.0448 26 24.3754 25.8946 24.6192 25.7071C24.863 25.5196 25 25.2652 25 25V15C25 14.7348 24.863 14.4804 24.6192 14.2929C24.3754 14.1054 24.0448 14 23.7 14C23.3552 14 23.0246 14.1054 22.7808 14.2929Z" fill="white"/>
<path fill-rule="evenodd" clip-rule="evenodd" d="M14.3808 14.2929C14.137 14.4804 14 14.7348 14 15V25C14 25.2652 14.137 25.5196 14.3808 25.7071C14.6246 25.8946 14.9552 26 15.3 26C15.6448 26 15.9754 25.8946 16.2192 25.7071C16.463 25.5196 16.6 25.2652 16.6 25V15C16.6 14.7348 16.463 14.4804 16.2192 14.2929C15.9754 14.1054 15.6448 14 15.3 14C14.9552 14 14.6246 14.1054 14.3808 14.2929Z" fill="white"/>
</g>
<defs>
<clipPath id="clip0_803_67867">
<rect width="20" height="20" fill="white" transform="translate(10 10)"/>
</clipPath>
</defs>
</svg>
