<svg width="40" height="40" viewBox="0 0 40 40" fill="none" xmlns="http://www.w3.org/2000/svg">
<circle cx="20" cy="20" r="20" fill="#FE6338"/>
<path d="M27.0796 17.9289L17.9129 12.7572C17.6136 12.5862 17.2742 12.4974 16.9294 12.5001C16.5847 12.5027 16.2467 12.5966 15.95 12.7722C15.6609 12.9376 15.4208 13.1765 15.2539 13.4646C15.0871 13.7528 14.9995 14.0801 15 14.4131V24.7564C14.9995 25.0894 15.0871 25.4166 15.2539 25.7048C15.4208 25.993 15.6609 26.2319 15.95 26.3972C16.2467 26.5728 16.5847 26.6666 16.9294 26.6693C17.2742 26.6719 17.6135 26.5832 17.9129 26.4122L27.0796 21.2406C27.3752 21.0768 27.6216 20.8369 27.7932 20.5457C27.9648 20.2545 28.0553 19.9227 28.0553 19.5847C28.0553 19.2468 27.9648 18.915 27.7932 18.6238C27.6216 18.3326 27.3752 18.0927 27.0796 17.9289V17.9289Z" fill="white"/>
</svg>
