<svg width="101" height="100" viewBox="0 0 101 100" fill="none" xmlns="http://www.w3.org/2000/svg">
<g clip-path="url(#clip0_1244_106208)">
<path d="M8.79063 75.6148H92.208C96.1178 68.6809 98.3514 60.6756 98.3514 52.1478C98.3514 25.7199 76.9273 4.2959 50.4994 4.2959C24.0715 4.2959 2.64746 25.7199 2.64746 52.1478C2.64727 60.6758 4.88066 68.6809 8.79063 75.6148Z" fill="#26272C"/>
<path d="M46.3566 67.3474C46.3566 67.3474 49.2568 68.6196 50.4992 70.4446C51.7416 68.6196 54.6418 67.3474 54.6418 67.3474L66.3195 61.4079C65.34 61.1056 64.3436 60.8353 63.325 60.6001C61.3422 58.6173 60.8395 54.8581 60.749 52.228C59.7143 53.4333 58.6283 54.4415 57.5906 55.2472C55.5688 56.8173 53.0738 57.67 50.5043 57.67C47.9348 57.67 45.4398 56.8173 43.4182 55.2472C42.3805 54.4413 41.2945 53.4331 40.2596 52.228C40.1691 54.8581 39.6664 58.6173 37.6836 60.6001C36.6627 60.8356 35.6643 61.1067 34.6826 61.4099L46.3566 67.3474Z" fill="#FFAA7B"/>
<path d="M50.0191 57.6594C47.6221 57.5592 45.3123 56.7178 43.4182 55.2469C42.3805 54.441 41.2943 53.4328 40.2596 52.2275C40.1809 54.5152 39.7891 57.6561 38.3838 59.7402C40.3824 63.7742 42.9721 67.1494 45.5912 65.384C48.8211 63.2068 49.7791 59.9709 50.0191 57.6594Z" fill="#FC9460"/>
<path d="M46.7676 66.7281L41.5863 64.0928C39.3816 64.7633 36.3711 66.5139 36.2648 71.0834C34.776 71.3412 27.2793 72.9902 27.2793 79.9943V93.9947C34.1557 97.8195 42.0723 100 50.4994 100C50.6666 100 50.8326 99.9953 50.9994 99.9937C50.9994 89.3303 50.9994 72.5686 50.9994 70.96C50.9994 68.5836 46.7676 66.7281 46.7676 66.7281Z" fill="#383C44"/>
<path d="M27.5719 94.1553C27.5719 90.4853 27.5719 84.7166 27.5719 79.9941C27.5719 72.4271 36.5545 71.3344 36.5545 71.3344C36.5545 66.5303 39.7805 64.8604 41.9537 64.2797L35.7092 61.1035C22.3387 65.4635 15.9527 67.207 12.623 69.5838C16.0895 71.9496 21.541 76.8641 21.541 84.383V90.2434C23.4441 91.6924 25.4604 93.0002 27.5719 94.1553Z" fill="#626A73"/>
<path d="M65.29 61.1035L54.2318 66.7279C54.2318 66.7279 50 68.5834 50 70.9598V99.9935C50.1668 99.9953 50.3328 99.9998 50.5 99.9998C52.7445 99.9998 54.9523 99.8428 57.1146 99.5438L57.1133 99.5428L70.7426 95.516V95.5164C73.843 94.0664 76.7631 92.2953 79.458 90.2432C79.458 88.2051 79.458 86.2172 79.458 84.383C79.458 76.8641 84.9098 71.9498 88.376 69.5838C85.0465 67.207 78.6607 65.4635 65.29 61.1035Z" fill="#E7ECF1"/>
<path d="M61.8705 56.0789C61.6457 55.9548 61.3662 56.0845 61.315 56.3361C60.9809 57.9728 59.5309 63.1289 54.1463 66.189C53.616 66.4904 53.4891 67.1978 53.89 67.6574L59.3311 73.8892C60.4607 75.1904 62.5406 74.9562 63.3561 73.4382C64.7346 70.8718 66.6551 66.9656 68.0766 62.766C68.3311 62.014 68.1502 61.1826 67.6137 60.5974C65.9588 58.7921 64.0197 57.2652 61.8705 56.0789Z" fill="#626A73"/>
<path d="M46.8566 66.1895C45.5611 65.4531 44.4953 64.5949 43.616 63.6943C42.3059 63.8055 36.6074 64.6461 36.2812 70.7811C36.7666 71.7689 37.2314 72.6656 37.6469 73.4389C38.4623 74.9568 40.5422 75.191 41.6719 73.8898L47.1127 67.658C47.5139 67.1982 47.3867 66.4906 46.8566 66.1895Z" fill="white"/>
<path d="M39.6876 56.3367C39.6363 56.0851 39.3568 55.9552 39.1322 56.0794C36.983 57.2658 35.0439 58.7927 33.389 60.598C32.8527 61.1831 32.6716 62.0146 32.9261 62.7665C34.0007 65.9413 35.3601 68.9472 36.5552 71.3345C36.5554 64.0923 43.89 63.9701 43.89 63.9701L43.8902 63.9695C40.8982 61.0658 39.9496 57.6199 39.6876 56.3367Z" fill="#383C44"/>
<path d="M79.0674 90.5395C84.4221 86.5484 88.9113 81.4627 92.2086 75.615C91.8402 74.5193 91.4414 73.5139 91.0084 72.6309C90.3846 71.3586 89.5187 70.3609 88.1834 69.4492C84.7309 71.7609 79.0674 76.7205 79.0674 84.383V90.5395Z" fill="#626A73"/>
<path d="M12.8162 69.4492C11.4809 70.3611 10.6148 71.3586 9.99121 72.6309C9.5584 73.5139 9.15957 74.5193 8.79102 75.615C12.0883 81.4627 16.5775 86.5486 21.9322 90.5395C21.9322 88.3977 21.9322 86.3062 21.9322 84.383C21.9324 76.7205 16.2688 71.7609 12.8162 69.4492Z" fill="#383C44"/>
<path d="M68.3984 82.1533H59.3164C58.0273 82.1533 56.9727 83.208 56.9727 84.4971V98.7549C56.9727 99.0314 57.0236 99.2961 57.1129 99.543C61.9213 98.8781 66.501 97.4994 70.7422 95.5162V84.4971C70.7422 83.208 69.6875 82.1533 68.3984 82.1533Z" fill="#626A73"/>
<path d="M83.2121 17.2275C78.6691 20.5857 73.0165 26.2471 75.4128 33.3402C79.1238 44.3254 62.3269 51.2529 81.0769 59.2148C88.5738 62.3984 92.9298 65.7199 95.4607 68.5607C97.3302 63.4414 98.3519 57.9143 98.3519 52.1479C98.3517 38.3723 92.5285 25.9584 83.2121 17.2275Z" fill="#626A73"/>
<path d="M17.7873 17.2275C22.3303 20.5857 27.9828 26.2471 25.5865 33.3402C21.8756 44.3254 38.6725 51.2529 19.9225 59.2148C12.4256 62.3984 8.06934 65.7199 5.53867 68.5607C3.66914 63.4414 2.64746 57.9143 2.64746 52.1479C2.64766 38.3723 8.4709 25.9584 17.7873 17.2275Z" fill="#626A73"/>
<path d="M32.7015 30.757H68.4966C68.5601 28.1779 68.9902 21.3513 71.6857 16.4885C72.0605 15.8121 72.1275 15.0086 71.8665 14.2806C70.8884 11.5537 67.9669 5.17869 61.5954 3.4783C61.256 3.38767 61.1663 2.94861 61.4425 2.73162L62.3974 1.98142C62.8302 1.64119 62.664 0.950172 62.1234 0.84607C57.4224 -0.0605706 41.8101 -2.2301 36.9605 7.74197C36.671 8.33709 36.1255 8.7656 35.4849 8.93142C34.0738 9.29666 31.5357 10.3974 29.8814 13.6961C29.5577 14.3412 29.5027 15.0894 29.7345 15.7728C30.5384 18.1422 32.4972 24.5043 32.7015 30.757Z" fill="#626A73"/>
<path d="M48.7181 14.9944C43.0009 6.28174 53.0013 0.00341797 53.0013 0.00341797C46.9365 0.0819336 39.9304 1.63506 36.9605 7.74189C36.671 8.33701 36.1255 8.76553 35.4849 8.93135C34.0738 9.29658 31.5357 10.3974 29.8814 13.696C29.5577 14.3411 29.5027 15.0894 29.7345 15.7728C30.5384 18.1421 32.4972 24.5042 32.7015 30.7569H41.0335C46.307 26.4853 52.1154 20.1718 48.7181 14.9944Z" fill="#383C44"/>
<path d="M69.8857 29.714C69.0844 28.9796 67.2928 29.3519 66.6025 29.8015C66.7537 30.7431 66.7623 31.7064 66.6316 32.6575L65.8172 38.5896C65.8172 39.0677 65.8021 39.5368 65.7744 39.9978C67.7605 40.5968 68.9424 38.8138 69.1086 37.5902C69.1801 37.0634 69.2971 36.5443 69.4594 36.0376C69.9877 34.388 71.8936 31.554 69.8857 29.714Z" fill="#FFAA7B"/>
<path d="M31.1141 29.714C31.9155 28.9796 33.7071 29.3519 34.3973 29.8015C34.2462 30.7431 34.2376 31.7064 34.3682 32.6575L35.1827 38.5896C35.1827 39.0677 35.1977 39.5368 35.2255 39.9978C33.2393 40.5968 32.0575 38.8138 31.8913 37.5902C31.8198 37.0634 31.7028 36.5443 31.5405 36.0376C31.0122 34.388 29.1063 31.554 31.1141 29.714Z" fill="#FC9460"/>
<path d="M66.3074 27.9689C66.124 27.4906 65.893 27.0062 65.6018 26.5494C65.1086 25.7756 64.8916 24.8603 64.9578 23.9478C65.1479 21.3232 65.0459 16.1898 61.6004 14.6394C58.6733 13.3222 55.0824 14.0849 52.7926 14.8463C51.3604 15.3226 49.8131 15.3388 48.3723 14.8976C45.7633 16.9 45.702 21.4084 45.8783 23.809C45.9457 24.7265 45.7199 25.6443 45.224 26.4224C44.9383 26.8709 44.7096 27.3455 44.5268 27.8152C43.9336 29.339 43.7606 30.9918 43.9828 32.6101L44.8082 38.622C44.8082 47.265 49.4219 53.1396 53.3463 56.1873C53.9256 56.6371 54.5453 57.024 55.1924 57.3543C56.0405 56.9783 56.8449 56.5006 57.5856 55.9254C61.4588 52.9177 66.0121 47.1197 66.0121 38.5896L66.8266 32.6576C67.044 31.0761 66.8793 29.4611 66.3074 27.9689Z" fill="#FFC7AB"/>
<path d="M53.3742 55.9251C49.5009 52.9174 44.9476 47.1194 44.9476 38.5893L44.133 32.6559C43.9136 31.0589 44.0843 29.4276 44.6697 27.9237C44.8502 27.46 45.0758 26.9917 45.358 26.5491C45.8474 25.7811 46.0703 24.8755 46.0039 23.9698C45.8242 21.5253 45.8941 16.8665 48.7176 14.9942C48.5459 14.9508 48.3754 14.902 48.2064 14.8458C45.9164 14.0844 42.3258 13.3217 39.3986 14.6389C35.9431 16.1936 35.8506 21.352 36.0429 23.9698C36.1095 24.8755 35.8865 25.7811 35.397 26.5491C35.115 26.9917 34.8892 27.46 34.7088 27.9237C34.1234 29.4276 33.9527 31.0589 34.172 32.6559L34.9867 38.5893C34.9867 47.1194 39.5402 52.9173 43.4133 55.9251C45.4349 57.495 47.9299 58.3477 50.4994 58.3477C52.2347 58.3477 53.9353 57.9573 55.4799 57.2214C54.7375 56.8674 54.0306 56.4348 53.3742 55.9251Z" fill="#FFAA7B"/>
</g>
<defs>
<clipPath id="clip0_1244_106208">
<rect width="100" height="100" fill="white" transform="translate(0.5)"/>
</clipPath>
</defs>
</svg>
