<svg width="24" height="24" viewBox="0 0 24 24" fill="none" xmlns="http://www.w3.org/2000/svg">
<path d="M23.0325 5.46751L18.5325 0.967513C18.4624 0.898001 18.3793 0.843008 18.2879 0.805684C18.1966 0.768361 18.0987 0.749442 18 0.750013H3C2.40326 0.750013 1.83097 0.987065 1.40901 1.40902C0.987053 1.83098 0.75 2.40328 0.75 3.00001V21C0.75 21.5968 0.987053 22.169 1.40901 22.591C1.83097 23.013 2.40326 23.25 3 23.25H21C21.5967 23.25 22.169 23.013 22.591 22.591C23.0129 22.169 23.25 21.5968 23.25 21V6.00001C23.2506 5.90131 23.2317 5.80346 23.1943 5.71208C23.157 5.6207 23.102 5.53759 23.0325 5.46751ZM15 2.25001V6.75001H9V2.25001H15ZM6 21.75V16.5C6 16.3011 6.07902 16.1103 6.21967 15.9697C6.36032 15.829 6.55109 15.75 6.75 15.75H17.25C17.4489 15.75 17.6397 15.829 17.7803 15.9697C17.921 16.1103 18 16.3011 18 16.5V21.75H6ZM21.75 21C21.75 21.1989 21.671 21.3897 21.5303 21.5303C21.3897 21.671 21.1989 21.75 21 21.75H19.5V16.5C19.5 15.9033 19.2629 15.331 18.841 14.909C18.419 14.4871 17.8467 14.25 17.25 14.25H6.75C6.15326 14.25 5.58097 14.4871 5.15901 14.909C4.73705 15.331 4.5 15.9033 4.5 16.5V21.75H3C2.80109 21.75 2.61032 21.671 2.46967 21.5303C2.32902 21.3897 2.25 21.1989 2.25 21V3.00001C2.25 2.8011 2.32902 2.61033 2.46967 2.46968C2.61032 2.32903 2.80109 2.25001 3 2.25001H7.5V6.75001C7.5 7.14784 7.65804 7.52937 7.93934 7.81067C8.22064 8.09198 8.60218 8.25001 9 8.25001H15C15.3978 8.25001 15.7794 8.09198 16.0607 7.81067C16.342 7.52937 16.5 7.14784 16.5 6.75001V2.25001H17.6925L21.75 6.30751V21Z" fill="white"/>
</svg>
