<svg width="40" height="40" viewBox="0 0 40 40" fill="none" xmlns="http://www.w3.org/2000/svg">
<path d="M11.1973 12.4469H2.13295C1.50729 12.4469 1 11.9396 1 11.3139V2.24965C1 1.62398 1.50729 1.1167 2.13295 1.1167H11.1973C11.823 1.1167 12.3302 1.62398 12.3302 2.24965V11.314C12.3303 11.9397 11.823 12.4469 11.1973 12.4469Z" fill="#8AD8ED"/>
<path d="M11.1972 1.1167H6.66504V12.447H11.1972C11.8229 12.447 12.3302 11.9397 12.3302 11.3141V2.24965C12.3302 1.62391 11.8229 1.1167 11.1972 1.1167Z" fill="#27B5D1"/>
<path d="M24.5321 12.4469H15.4679C14.8422 12.4469 14.335 11.9396 14.335 11.314V2.24965C14.335 1.62391 14.8422 1.1167 15.4679 1.1167H24.5322C25.158 1.1167 25.6652 1.62398 25.6652 2.24965V11.314C25.6651 11.9397 25.1579 12.4469 24.5321 12.4469Z" fill="#B3D662"/>
<path d="M24.5321 1.1167H20V12.447H24.5322C25.1579 12.447 25.6651 11.9397 25.6651 11.3141V2.24965C25.6651 1.62391 25.1579 1.1167 24.5321 1.1167Z" fill="#5DAD2F"/>
<path d="M37.8672 12.4469H28.8029C28.1771 12.4469 27.6699 11.9396 27.6699 11.314V2.24965C27.6699 1.62391 28.1772 1.1167 28.8029 1.1167H37.8672C38.4929 1.1167 39.0002 1.62398 39.0002 2.24965V11.314C39.0002 11.9397 38.4929 12.4469 37.8672 12.4469Z" fill="#FF4C67"/>
<path d="M37.8671 1.1167H33.335V12.447H37.8671C38.4929 12.447 39.0001 11.9397 39.0001 11.3141V2.24965C39.0001 1.62391 38.4928 1.1167 37.8671 1.1167Z" fill="#D91E3B"/>
<path d="M11.1973 25.6651H2.13295C1.50729 25.6651 1 25.1579 1 24.5322V15.4679C1 14.8422 1.50729 14.335 2.13295 14.335H11.1973C11.823 14.335 12.3302 14.8422 12.3302 15.4679V24.5322C12.3303 25.158 11.823 25.6651 11.1973 25.6651Z" fill="#FFEB99"/>
<path d="M11.1972 14.335H6.66504V25.6652H11.1972C11.8229 25.6652 12.3302 25.1579 12.3302 24.5322V15.4679C12.3302 14.8421 11.8229 14.335 11.1972 14.335Z" fill="#FFD059"/>
<path d="M24.5321 25.6651H15.4679C14.8422 25.6651 14.335 25.1578 14.335 24.5322V15.4679C14.335 14.8422 14.8422 14.335 15.4679 14.335H24.5322C25.158 14.335 25.6652 14.8422 25.6652 15.4679V24.5322C25.6651 25.158 25.1579 25.6651 24.5321 25.6651Z" fill="#FF82A8"/>
<path d="M24.5321 14.335H20V25.6652H24.5322C25.1579 25.6652 25.6651 25.1579 25.6651 24.5322V15.4679C25.6651 14.8421 25.1579 14.335 24.5321 14.335Z" fill="#FF4C67"/>
<path d="M37.8672 25.6651H28.8029C28.1771 25.6651 27.6699 25.1578 27.6699 24.5322V15.4679C27.6699 14.8422 28.1772 14.335 28.8029 14.335H37.8672C38.4929 14.335 39.0002 14.8422 39.0002 15.4679V24.5322C39.0002 25.158 38.4929 25.6651 37.8672 25.6651Z" fill="#FFD059"/>
<path d="M37.8671 14.335H33.335V25.6652H37.8671C38.4929 25.6652 39.0001 25.1579 39.0001 24.5322V15.4679C39.0001 14.8421 38.4928 14.335 37.8671 14.335Z" fill="#FE872B"/>
<path d="M11.1973 38.8831H2.13295C1.50729 38.8831 1 38.3759 1 37.7502V28.6859C1 28.0602 1.50729 27.553 2.13295 27.553H11.1973C11.823 27.553 12.3302 28.0603 12.3302 28.6859V37.7503C12.3303 38.3759 11.823 38.8831 11.1973 38.8831Z" fill="#E9EAF2"/>
<path d="M11.1972 27.553H6.66504V38.8833H11.1972C11.8229 38.8833 12.3302 38.376 12.3302 37.7503V28.686C12.3302 28.0602 11.8229 27.553 11.1972 27.553Z" fill="#CFD4E6"/>
<path d="M24.5321 38.8831H15.4679C14.8422 38.8831 14.335 38.3759 14.335 37.7502V28.6859C14.335 28.0602 14.8422 27.553 15.4679 27.553H24.5322C25.158 27.553 25.6652 28.0603 25.6652 28.6859V37.7503C25.6651 38.3759 25.1579 38.8831 24.5321 38.8831Z" fill="#B6BEDE"/>
<path d="M24.5321 27.553H20V38.8833H24.5322C25.1579 38.8833 25.6651 38.376 25.6651 37.7503V28.686C25.6651 28.0602 25.1579 27.553 24.5321 27.553Z" fill="#8F95B5"/>
<path d="M37.8672 38.8831H28.8029C28.1771 38.8831 27.6699 38.3759 27.6699 37.7502V28.6859C27.6699 28.0602 28.1772 27.553 28.8029 27.553H37.8672C38.4929 27.553 39.0002 28.0603 39.0002 28.6859V37.7503C39.0002 38.3759 38.4929 38.8831 37.8672 38.8831Z" fill="#485A80"/>
<path d="M37.8671 27.553H33.335V38.8833H37.8671C38.4929 38.8833 39.0001 38.376 39.0001 37.7503V28.686C39.0001 28.0602 38.4928 27.553 37.8671 27.553Z" fill="#283959"/>
</svg>
