<svg width="32" height="32" viewBox="0 0 32 32" fill="none" xmlns="http://www.w3.org/2000/svg">
<circle cx="16" cy="16" r="16" fill="#444954"/>
<path d="M19.5156 17.6813C18.8184 17.6813 18.1958 18.006 17.7908 18.5115L14.6262 16.8943C14.6702 16.7205 14.6937 16.5387 14.6937 16.3516C14.6937 16.089 14.6476 15.8369 14.5631 15.603L17.8901 13.604C18.2939 14.0429 18.8731 14.3187 19.5156 14.3187C20.734 14.3187 21.725 13.3277 21.725 12.1094C21.725 10.891 20.734 9.9 19.5156 9.9C18.2973 9.9 17.3063 10.891 17.3063 12.1094C17.3063 12.3611 17.3487 12.6032 17.4266 12.8289L14.0889 14.8343C13.6861 14.4086 13.1158 14.1422 12.4844 14.1422C11.266 14.1422 10.275 15.1332 10.275 16.3516C10.275 17.5699 11.266 18.5609 12.4844 18.5609C13.1931 18.5609 13.8247 18.2255 14.2291 17.7056L17.3818 19.3168C17.3325 19.4999 17.3063 19.6923 17.3063 19.8906C17.3063 21.109 18.2973 22.1 19.5156 22.1C20.734 22.1 21.725 21.109 21.725 19.8906C21.725 18.6723 20.734 17.6813 19.5156 17.6813ZM19.5156 10.8031C20.2358 10.8031 20.8219 11.3892 20.8219 12.1094C20.8219 12.8296 20.2358 13.4156 19.5156 13.4156C18.7954 13.4156 18.2094 12.8296 18.2094 12.1094C18.2094 11.3892 18.7954 10.8031 19.5156 10.8031ZM12.4844 17.6578C11.7642 17.6578 11.1781 17.0717 11.1781 16.3516C11.1781 15.6314 11.7642 15.0453 12.4844 15.0453C13.2046 15.0453 13.7906 15.6314 13.7906 16.3516C13.7906 17.0717 13.2046 17.6578 12.4844 17.6578ZM19.5156 21.1969C18.7954 21.1969 18.2094 20.6108 18.2094 19.8906C18.2094 19.1704 18.7954 18.5844 19.5156 18.5844C20.2358 18.5844 20.8219 19.1704 20.8219 19.8906C20.8219 20.6108 20.2358 21.1969 19.5156 21.1969Z" fill="white" stroke="white" stroke-width="0.2"/>
</svg>
