<svg width="53" height="70" viewBox="0 0 53 70" fill="none" xmlns="http://www.w3.org/2000/svg">
<path d="M15.1779 21.0753L12.9371 17.1941L10.6936 17.0273L9.8667 18.967L12.1092 22.8509C13.72 23.1465 14.9167 22.5219 15.1779 21.0753Z" fill="#B9C1CB"/>
<path d="M37.8218 21.0753L40.0626 17.1941L42.3062 17.0273L43.133 18.967L40.8906 22.8509C39.2797 23.1465 38.083 22.5219 37.8218 21.0753Z" fill="#B9C1CB"/>
<path d="M28.3213 15.0225C31.1337 14.2168 33.0978 11.6082 33.0978 8.67918C33.0978 5.04109 30.1379 2.08141 26.4998 2.08141C22.8618 2.08141 19.9019 5.04123 19.9019 8.67918C19.9019 11.6082 21.866 14.2168 24.6783 15.0225L24.9637 17.2223C20.8108 16.4798 17.8208 12.8233 17.8208 8.67904C17.8207 3.89348 21.7141 0 26.4998 0C31.2855 0 35.179 3.89348 35.179 8.67904C35.179 12.8172 32.1977 16.4691 28.0545 17.219L28.3213 15.0225Z" fill="#DAE4EA"/>
<path d="M26.4998 19.0304C27.2096 19.0304 27.9126 19.0636 28.6079 19.1287V10.4651H24.3916V19.1287C25.087 19.0636 25.79 19.0304 26.4998 19.0304Z" fill="#B9C1CB"/>
<path d="M26.4998 69.9998C40.7318 69.9998 52.2691 58.4625 52.2691 44.2305C52.2691 29.9985 40.7318 18.4612 26.4998 18.4612C12.2678 18.4612 0.730469 29.9985 0.730469 44.2305C0.730469 58.4625 12.2678 69.9998 26.4998 69.9998Z" fill="#DAE4EA"/>
<path d="M29.6228 6.31055H23.3765C23.0666 6.31055 22.8154 6.5617 22.8154 6.87164V10.4862C22.8154 10.7962 23.0666 11.0473 23.3765 11.0473H29.6228C29.9327 11.0473 30.1839 10.7962 30.1839 10.4862V6.87164C30.1839 6.56184 29.9326 6.31055 29.6228 6.31055Z" fill="#DAE4EA"/>
<path d="M13.2566 17.0096L9.54726 19.1512C9.40767 19.2317 9.22925 19.184 9.14872 19.0444L6.37702 14.2438C6.2965 14.1042 6.34421 13.9258 6.4838 13.8452L10.1931 11.7037C10.3327 11.6232 10.5111 11.6709 10.5917 11.8105L13.3634 16.6111C13.444 16.7505 13.3962 16.9289 13.2566 17.0096Z" fill="#DAE4EA"/>
<path d="M39.7431 17.0096L43.4525 19.1512C43.592 19.2317 43.7705 19.184 43.851 19.0444L46.6227 14.2438C46.7032 14.1042 46.6555 13.9258 46.5159 13.8452L42.8066 11.7037C42.667 11.6232 42.4886 11.6709 42.4081 11.8105L39.6364 16.6111C39.5557 16.7505 39.6035 16.9289 39.7431 17.0096Z" fill="#DAE4EA"/>
<path d="M26.4999 65.3226C38.1722 65.3226 47.6346 55.8603 47.6346 44.1879C47.6346 32.5155 38.1722 23.0532 26.4999 23.0532C14.8275 23.0532 5.36523 32.5155 5.36523 44.1879C5.36523 55.8603 14.8275 65.3226 26.4999 65.3226Z" fill="#26272C"/>
<path d="M33.0568 24.0903C38.5077 27.9127 42.0711 34.2433 42.0711 41.4063C42.0711 53.0787 32.6088 62.541 20.9364 62.541C18.6475 62.541 16.4436 62.177 14.3794 61.504C17.8109 63.9104 21.9904 65.3225 26.4998 65.3225C38.1721 65.3225 47.6344 55.8602 47.6344 44.1879C47.6344 34.8046 41.5193 26.8495 33.0568 24.0903Z" fill="#E7ECF1"/>
<path d="M26.5 26.6798C26.5 26.5976 26.5674 26.5303 26.6496 26.531C36.3174 26.6117 44.1575 34.5014 44.1575 44.188C44.1575 53.8745 36.3174 61.7643 26.6496 61.8449C26.5674 61.8456 26.5 61.7783 26.5 61.6962V26.6798Z" fill="#FE6338"/>
<path d="M40.5381 33.4885C41.5268 35.9339 42.0713 38.6066 42.0713 41.4063C42.0713 51.1407 35.4902 59.3378 26.5347 61.7915C26.5621 61.8243 26.6036 61.8452 26.6495 61.8448C36.3173 61.7641 44.1574 53.8744 44.1574 44.1879C44.1576 40.169 42.8079 36.4594 40.5381 33.4885Z" fill="#FF592C"/>
</svg>
