<svg width="40" height="40" viewBox="0 0 40 40" fill="none" xmlns="http://www.w3.org/2000/svg">
<path d="M8.05828 28.7701C8.05828 29.0071 8.05828 29.1849 8.11754 29.4812C8.14717 29.6293 8.20643 29.8071 8.29532 29.9553C8.38421 30.133 8.50273 30.2516 8.62125 30.3404C8.85828 30.5182 9.06569 30.6367 9.21384 30.696C9.36199 30.7849 9.51013 30.8441 9.65828 30.933C10.2212 31.259 10.6953 31.5553 11.1101 31.8219C11.9101 32.3849 12.4138 32.7997 12.7694 33.096C12.8287 33.1256 12.8583 33.1553 12.9175 33.2145C13.0064 33.4516 13.0953 33.659 13.2138 33.896C14.2212 36.059 15.999 38.3108 18.3101 38.9034C19.4953 39.1997 20.7101 39.1404 21.8064 38.8442C23.8509 38.3108 25.4212 36.859 26.399 34.9923C26.8138 34.1923 27.0805 33.3627 27.2583 32.5627C27.2583 32.5627 27.2879 32.5627 27.2879 32.533C27.7027 32.296 28.2953 31.9108 29.1546 31.4367C29.362 31.3182 29.6287 31.1997 29.8953 31.1108C30.162 30.9923 30.4879 30.8738 30.8731 30.6664C31.0509 30.5479 31.2583 30.4293 31.4361 30.2219C31.6138 30.0145 31.762 29.7775 31.8509 29.5108C32.0287 29.0071 32.0287 28.4738 32.0287 27.9997C31.999 26.9923 31.9101 25.6886 31.8212 24.3256C31.7916 23.9701 31.762 23.6441 31.762 23.2886L31.7324 22.7553C31.7324 22.5775 31.7027 22.3404 31.5842 22.0738C31.4657 21.8071 31.3175 21.659 31.199 21.5108C31.0805 21.3923 30.962 21.2441 30.8435 21.1256C30.6064 20.8886 30.3694 20.6219 30.1324 20.3849C29.0953 19.3182 28.1768 18.3701 27.525 17.7479C27.3472 17.1256 27.0805 16.5627 26.7842 16.0886C26.0731 14.9627 25.2138 14.2812 24.5027 13.8367C23.7916 13.3923 23.1694 13.1849 22.6953 13.0367C22.2212 12.9182 21.8953 12.859 21.6879 12.859C21.2435 12.859 21.1842 12.9182 21.1842 13.0071C21.1842 13.096 21.1842 13.1849 21.599 13.3034C21.8064 13.3923 22.0731 13.4812 22.4879 13.659C22.7249 13.7775 23.0212 13.896 23.3472 14.0738C23.3175 14.2516 23.2583 14.5478 23.2287 14.9627C23.0509 17.6293 23.3472 19.8219 23.0212 21.333C22.4879 23.7923 19.9398 24.859 18.4287 22.9923C18.1916 22.696 18.0138 22.3701 17.8657 21.9849C17.2731 20.3849 17.2731 18.133 16.9768 15.3182C16.9175 14.6367 16.8287 14.1034 16.7694 13.8071C17.362 13.5404 17.9249 13.333 18.4287 13.2145C18.6953 13.1256 18.962 13.1256 19.199 13.0664C19.4361 13.0367 19.6731 13.0071 19.8509 13.0071C20.0583 13.0071 20.2361 12.9775 20.3842 12.9775H20.7694C20.9768 12.9775 21.0953 12.9775 21.0953 12.9478C21.0953 12.9182 20.9768 12.8886 20.7694 12.859C20.6509 12.8293 20.5324 12.7997 20.3842 12.7997C20.2361 12.7997 20.0287 12.7701 19.8212 12.7701C19.7027 12.7701 19.5546 12.7701 19.4361 12.7701C19.4361 12.6812 19.4064 12.5923 19.4361 12.4441C19.4657 11.4664 20.2657 10.4293 21.9249 10.0738C22.7546 9.896 23.7324 9.92563 24.7694 9.95526C25.8064 9.98489 26.962 10.0441 28.1472 9.71822C30.6361 8.94785 31.3768 6.9034 30.3694 5.24414C29.5101 3.79229 27.7324 3.28859 26.0731 3.64414C24.2657 4.11822 22.6361 5.98489 20.1472 4.74044C18.962 4.14785 18.4287 2.78489 18.7249 1.65896C18.7546 1.57007 18.7546 1.48118 18.7842 1.42192C18.8138 1.36266 18.8138 1.3034 18.8138 1.24414C18.8731 1.06637 18.8138 0.977478 18.7546 0.947848C18.6953 0.888589 18.6361 0.858959 18.4287 0.977478C18.3694 1.00711 18.3398 1.06637 18.2805 1.12563C18.2212 1.18488 18.162 1.27377 18.1027 1.39229C17.9842 1.5997 17.8361 1.92563 17.7768 2.34044C17.6287 3.55526 18.2509 4.94785 19.6138 5.71822C21.9546 6.99229 23.8212 5.98489 25.4805 5.21452C25.7472 5.06637 26.0435 4.97748 26.3398 4.91822C27.4657 4.65155 28.7694 4.94785 29.3916 5.92563C30.1916 7.17007 29.3027 8.32563 27.8509 8.85896C26.9027 9.18489 25.8361 9.18489 24.799 9.21452C23.762 9.21452 22.7249 9.27378 21.7768 9.54044C19.8212 10.1034 19.0212 11.5256 19.199 12.5923C19.2287 12.7108 19.2583 12.8293 19.2879 12.8886C19.2583 12.8886 19.199 12.8886 19.1694 12.8886C18.9324 12.9182 18.6361 12.9182 18.3398 12.9775C17.7472 13.0664 17.0953 13.2738 16.4138 13.5404C15.7324 13.8367 14.9916 14.2516 14.3398 14.8441C13.6879 15.4367 13.0657 16.2071 12.6805 17.1553C12.5324 17.5108 12.4138 17.896 12.2953 18.3108C11.7027 18.8145 10.6064 19.9404 9.33236 21.2441C9.12495 21.4812 8.88791 21.7182 8.65088 21.9849C8.41384 22.2516 8.1768 22.6367 8.05828 23.0219C7.99902 23.4367 7.99902 23.8219 7.99902 24.1775V25.1849C7.99902 26.5478 8.02865 27.7923 8.05828 28.7701ZM29.4805 20.9478C29.6879 21.2145 29.8953 21.4812 30.1324 21.7479C30.2509 21.8664 30.3398 22.0145 30.4583 22.133C30.5472 22.2516 30.6361 22.3701 30.6361 22.4293C30.6657 22.4886 30.6657 22.6367 30.6657 22.7849V23.3182C30.6657 23.6738 30.6657 24.0293 30.6953 24.3553C30.7249 25.7182 30.7546 27.0219 30.8138 28.0293C30.8435 28.4738 30.8138 28.8293 30.7249 29.096C30.6361 29.3627 30.5175 29.4812 30.2509 29.6293C30.0138 29.7775 29.7175 29.896 29.4212 30.0145C29.125 30.1627 28.8583 30.2812 28.6212 30.4293C28.1472 30.7256 27.762 30.9627 27.4657 31.1997C27.4953 30.9923 27.525 30.7849 27.5546 30.5775C27.762 28.3849 28.0583 20.9775 27.7324 18.696C28.2064 19.3775 28.799 20.1182 29.4805 20.9478ZM14.7842 15.259C15.3472 14.696 15.999 14.2812 16.6212 13.9849C16.5324 14.696 16.2064 20.0886 16.9472 22.3701C17.0953 22.8145 17.3027 23.2886 17.6287 23.7034C19.5546 26.3108 23.4361 25.2738 24.2361 21.6293C24.5916 19.9404 24.2064 15.6145 24.1175 14.9627C24.0879 14.8145 24.0879 14.6664 24.0583 14.5478C24.6509 14.9923 25.3916 15.6145 25.9546 16.5923C26.2509 17.0664 26.4583 17.659 26.6064 18.3108C27.0212 20.3256 26.6064 28.5034 26.399 30.4886C26.2509 31.7923 25.9842 33.1553 25.3324 34.4293C24.5324 35.9997 23.2583 37.2145 21.5101 37.7182C20.5916 37.9849 19.5842 38.0145 18.6064 37.8071C15.7027 37.096 13.7472 33.2441 13.0657 30.2516C12.562 28.0293 12.5027 25.6886 12.5916 23.496C12.6212 22.3997 12.6805 21.3034 12.7694 20.2664C12.8583 19.2293 13.0361 18.2516 13.362 17.3923C13.6583 16.5627 14.1916 15.8219 14.7842 15.259ZM9.09532 23.2886C9.15458 23.0219 9.2731 22.8145 9.45088 22.5478C9.62865 22.3108 9.83606 22.0441 10.0435 21.8071C10.9027 20.7108 11.6731 19.733 12.1768 19.0219C12.1175 19.4071 12.0583 19.7923 11.999 20.1775C11.8805 21.2441 11.7916 22.3108 11.7324 23.4367C11.6138 25.6886 11.6138 28.059 12.0879 30.4293C12.1472 30.7553 12.2361 31.0812 12.3249 31.3775C12.1768 31.2293 11.999 31.0812 11.7916 30.933C11.3768 30.6071 10.8731 30.2516 10.2509 29.896C9.95458 29.7182 9.53976 29.5404 9.39162 29.3923C9.33236 29.333 9.33236 29.3627 9.30273 29.2441C9.2731 29.1553 9.2731 28.8886 9.2731 28.6812C9.21384 27.0219 9.12495 25.2441 9.03606 24.1182C9.03606 23.8516 9.03606 23.5553 9.09532 23.2886Z" fill="white"/>
<path d="M20.3547 15.9702C20.2658 15.9109 20.1176 15.8516 19.9695 15.8516C19.8213 15.822 19.6436 15.8813 19.4954 15.9405C19.3473 16.0294 19.1991 16.1776 19.1102 16.2961C18.6954 16.9183 18.5473 18.1331 18.5769 18.9331C18.6065 19.5553 18.6954 20.1479 18.8139 20.7109C18.8436 20.8591 18.8732 21.0368 19.0213 21.2442C19.0806 21.3628 19.1695 21.4516 19.2584 21.5405C19.3473 21.6294 19.4362 21.6591 19.525 21.7183C19.7325 21.8072 19.9695 21.8665 20.2065 21.8368C20.4436 21.8072 20.6213 21.7183 20.7991 21.5998C21.7473 20.8591 22.2806 18.7553 21.5695 17.3331C21.4213 17.0368 21.2732 16.9183 21.1843 16.8887C21.0954 16.859 21.0065 16.8887 20.9473 16.9183C20.7991 16.9776 20.7102 17.0961 20.7695 17.5998C20.8584 18.7257 20.6806 20.2072 20.1176 20.622C20.088 20.622 20.088 20.5924 20.0584 20.5924C20.0287 20.5924 20.0287 20.5035 19.9991 20.4146C19.851 19.9109 19.7325 19.3776 19.6436 18.8442C19.5547 18.222 19.5547 17.5405 19.7028 16.9183C19.7325 16.7998 19.7621 16.7109 19.7917 16.6516C19.8213 16.5627 19.851 16.5331 19.8806 16.4739C19.9102 16.4442 19.9695 16.4146 20.0287 16.385H20.1769C20.2362 16.4146 20.2954 16.4146 20.3547 16.4739C20.4732 16.5331 20.5621 16.622 20.651 16.6813C20.8287 16.8294 20.9176 16.9183 20.9769 16.8887C21.0362 16.859 21.0065 16.7109 20.9176 16.5035C20.8584 16.385 20.7695 16.2664 20.651 16.1183C20.5324 16.0887 20.4732 16.0294 20.3547 15.9702Z" fill="white"/>
</svg>
