<svg width="40" height="40" viewBox="0 0 40 40" fill="none" xmlns="http://www.w3.org/2000/svg">
<path d="M38.2817 26.3406C38.3706 25.9851 38.4891 25.4814 38.6372 24.8295C39.5557 19.8814 38.8743 12.3851 38.1632 10.6073C38.015 10.2221 37.778 9.80731 37.452 9.48139C37.1557 9.15546 36.8002 8.8888 36.4446 8.65176C34.2224 7.19991 31.378 7.25917 28.5632 7.14065C24.415 7.02213 13.2743 7.02213 11.2891 7.14065C8.71131 7.25917 6.28168 7.61472 4.14835 8.97768C3.11131 9.71842 2.13353 10.6666 1.74835 11.8814C1.65946 12.1184 1.6002 12.3555 1.54094 12.5925C1.00761 14.6666 1.24464 16.0295 1.00761 22.9332C0.889088 25.0962 0.977977 27.4369 1.77798 29.4221C2.01501 30.0443 2.37057 30.6666 2.87427 31.1406C3.37798 31.6444 4.0002 31.9703 4.62242 32.1481C5.24464 32.3258 5.86686 32.3851 6.42983 32.4443C11.3483 32.7703 17.7483 32.9777 22.9039 32.9481C25.3335 32.9184 32.2965 32.9481 34.2817 32.1777C34.6669 32.0295 34.9928 31.8518 35.2891 31.6444C35.8817 31.2592 36.3261 30.8147 36.6817 30.3999C37.0372 29.9851 37.2743 29.5999 37.452 29.2443C37.8372 28.5332 37.9854 28.0295 38.0743 27.674C38.2224 26.9629 38.1632 26.874 38.0743 26.874C37.9854 26.8443 37.9261 26.9036 37.6298 27.5258C37.4817 27.8518 37.2743 28.2962 36.8595 28.9184C36.5632 29.3629 36.178 29.8962 35.5854 30.3703C34.4594 28.5629 27.2891 22.4888 25.6891 21.1258C25.6298 21.0962 25.6002 21.0666 25.5706 21.0073C25.6891 20.9184 25.778 20.8295 25.8965 20.7406C28.978 18.2814 31.0817 16.1777 32.652 14.5777C33.7483 13.4518 35.9113 11.0814 36.652 9.6888C36.7409 9.77768 36.8595 9.83694 36.9187 9.92583C37.1557 10.1925 37.3632 10.4888 37.5113 10.8147C38.1335 12.2666 39.052 19.2592 38.3706 24.7406C38.1928 26.074 38.0446 26.8147 38.0743 26.8147C38.1039 26.8443 38.1632 26.6962 38.2817 26.3406ZM2.16316 22.9925C2.37057 16.0888 2.13353 14.7851 2.60761 12.8888C2.66687 12.6814 2.69649 12.474 2.78538 12.2962C3.08168 11.4369 3.61501 10.8147 4.32612 10.2518C4.59279 10.6073 5.24464 11.3184 6.13353 12.2962C8.41501 14.6962 11.4669 17.511 14.7558 20.1777C15.0224 20.3851 15.2891 20.5925 15.5558 20.8295C14.1632 21.7184 4.8002 29.2443 3.64464 30.2518C3.34835 29.9258 3.11131 29.4814 2.9039 29.0073C2.16316 27.1703 2.1039 24.9184 2.16316 22.9925ZM25.3632 21.4518C27.2891 23.9999 33.4817 29.8073 34.9632 30.8443C34.9039 30.874 34.8743 30.9036 34.815 30.9332C34.2817 31.2592 33.6595 31.4666 32.8891 31.6147C32.1187 31.7332 31.2298 31.7629 30.1928 31.7925C28.178 31.8518 25.7483 31.8814 22.8743 31.8814C17.1558 31.8518 10.2224 31.5555 6.48909 31.3184C5.54094 31.2592 4.59279 31.0814 3.94094 30.5777C7.79279 28.4443 14.2224 23.5555 16.178 21.4518C16.2076 21.4221 16.2076 21.4221 16.2076 21.3925C16.2965 21.4518 16.3854 21.5406 16.4743 21.5999C17.0669 22.0444 17.6298 22.5184 18.3113 22.9332C18.9632 23.3481 19.7928 23.674 20.652 23.6444C21.5113 23.6147 22.252 23.3184 22.8743 22.9629C23.4965 22.6073 24.0298 22.2221 24.5039 21.8666C24.7409 21.6888 24.978 21.511 25.215 21.3332C25.2743 21.3332 25.3335 21.3925 25.3632 21.4518ZM20.652 22.4592C20.0891 22.4888 19.4965 22.2814 18.9039 21.9258C18.3113 21.5999 17.7483 21.1258 17.1261 20.711C13.3039 17.8962 9.95575 15.0814 6.42983 11.9406C5.45205 11.0814 4.77057 10.4295 4.41501 10.1629C4.5039 10.074 4.62242 10.0147 4.74094 9.92583C6.72612 8.62213 8.94835 8.35546 11.3187 8.20731C12.652 8.11842 23.4372 7.94065 28.5039 7.99991C31.1113 8.05917 33.8965 7.94065 36.0002 9.27398C36.0595 9.30361 36.0891 9.33324 36.1483 9.3925C34.1928 11.3481 24.0002 22.3406 20.652 22.4592Z" fill="white"/>
</svg>
