<svg width="40" height="40" viewBox="0 0 40 40" fill="none" xmlns="http://www.w3.org/2000/svg">
<path d="M34.8704 12.0174C34.9015 11.9602 37.3267 9.95441 34.9995 8.32318C33.4596 7.28077 30.918 7.33879 30.9753 7.34076C30.997 7.2434 31.0215 7.13317 31.0097 7.19065C31.5106 4.5698 29.3866 2.34475 24.6849 4.10331C24.2512 3.26516 23.9444 2.62443 23.0442 1.96074C22.0864 1.23389 20.7004 1.03021 19.5586 1.4892C18.1246 2.01738 17.3029 3.3026 17.2456 3.35722C13.9882 1.00068 10.5081 1.54997 10.3195 5.63456C8.32396 5.33989 5.73716 5.46855 4.95949 7.33936C4.37097 8.81479 5.5733 10.3295 5.59168 10.3871C5.58944 10.3834 5.59188 10.3868 5.59188 10.3868L5.59921 10.3946C5.54161 10.4223 1.08944 11.6626 1.88653 14.1789C2.18156 15.211 3.1599 15.7302 4.00797 16.2079C2.98956 17.1174 1.76054 18.4146 2.05233 19.7861C2.12662 20.1817 2.36783 20.5492 2.65564 20.7891C3.21572 21.265 3.87905 21.3726 3.93682 21.3935C2.4416 25.7958 7.58734 24.5243 7.64462 24.5316C6.84913 27.9976 9.03186 29.3701 11.8487 27.6002L11.9478 27.535C11.9783 27.5932 12.2139 30.1925 13.8724 30.5333C15.2868 30.8685 16.7362 29.0327 16.6841 29.0916L16.7862 28.9646C16.8144 29.0221 16.9444 29.2878 16.9162 29.2303C18.2561 31.8821 20.3181 32.0029 21.6519 28.8338C21.7061 28.891 22.0503 29.2543 21.9961 29.1971C22.9943 30.1663 24.3118 30.8746 25.2646 29.8606C25.9976 29.0832 26.2285 27.5286 26.1766 27.1131C26.2199 27.1597 26.3395 27.2565 26.5396 27.3924C29.3928 29.2629 31.1155 27.9102 30.5896 24.9066C32.0803 25.2798 34.1147 25.5503 34.639 24.1064C34.9444 23.2437 34.5113 22.1208 34.0474 21.4228C36.0201 21.3557 38.0946 20.9079 37.4748 19.0238C37.0808 17.9228 35.8332 17.0509 35.7788 16.9937C36.7537 16.7269 38.1628 16.0121 38.2081 14.9674C38.2902 13.466 36.2423 12.5684 34.8704 12.0174ZM34.0449 16.7107C34.9527 17.3333 37.4369 18.9672 36.7691 19.9499C36.2058 20.8636 33.7472 20.7662 32.8503 20.7889C33.4402 21.6115 34.4106 22.933 34.0924 23.9102C33.6153 25.2654 30.9098 24.4867 29.9928 24.2693C31.3135 30.4114 26.3327 27.0395 26.1671 27.0846C26.1665 27.0841 26.1662 27.0804 26.1657 27.0804C26.1649 27.0804 26.1639 27.0841 26.163 27.0841C26.1623 27.0846 26.1588 27.0832 26.1584 27.0838C26.1581 27.0843 26.1607 27.0869 26.1607 27.0874C26.0653 27.1533 25.4596 32.1538 22.3069 28.891C22.2559 28.8336 21.8838 28.4145 21.9347 28.4719C21.8016 28.3117 21.6665 28.1494 21.5295 27.9845C21.3787 28.3098 21.214 28.6934 21.0425 29.0143C19.8583 31.2029 18.6626 31.1597 17.5822 29.1644C17.3848 28.8141 17.2001 28.3462 16.9584 27.7757C16.2982 28.5587 16.0544 28.8185 16.0642 28.8076C15.56 29.3194 14.7282 30.0345 14.0298 29.8505C12.7898 29.5745 12.6664 27.2229 12.5791 26.2439C12.0641 26.5686 11.5265 26.9135 11.2737 27.0425C8.9443 28.2625 8.01611 27.2852 8.40431 25.0444C8.50006 24.6132 8.33259 25.1718 8.83582 23.3692C5.90302 24.0739 3.77274 24.2671 4.89127 21.4672L5.26292 20.699C3.92009 20.4818 2.59556 20.2638 3.02576 18.9504C3.45718 17.6581 4.9828 16.6697 5.92726 15.9783C4.62587 15.4405 2.16937 14.5534 2.91638 13.1474C3.62276 11.8061 5.94219 11.3356 7.36156 11.0121C7.19374 10.687 4.61548 8.32618 6.4597 7.05197C7.83134 6.13778 9.98222 6.60274 11.4196 6.88987C11.346 5.91821 11.3336 5.57802 11.3367 5.63652C11.2397 3.08054 13.6275 1.84224 16.8768 4.34829L17.1984 4.59969C17.2563 4.645 17.4973 4.83362 17.4394 4.7883C17.4663 4.81035 17.4951 4.84299 17.5101 4.79416C17.8327 4.35096 18.5197 2.94203 19.9152 2.43004C20.7665 2.09327 21.7319 2.23138 22.4585 2.76821C23.5697 3.58416 23.9979 5.06677 23.9751 5.00956L24.1104 5.36699C24.1241 5.3907 24.1274 5.44009 24.1497 5.4426C24.8145 5.12044 25.4216 4.82321 26.1143 4.64042C28.4289 4.01001 30.5109 4.71697 30.08 7.02296C30.0245 7.31499 29.8048 8.02628 29.7179 8.30421C29.7765 8.30325 31.2986 8.27839 31.2042 8.27993C32.3264 8.34843 34.5613 8.5478 35.0369 9.68981C35.484 10.7894 33.2871 12.1332 33.0913 12.3695C34.3258 12.7487 36.7588 13.4188 37.3224 14.5891C37.8198 15.7312 35.2104 16.362 34.0449 16.7107Z" fill="white"/>
<path d="M11.4062 31.7407C11.219 31.7388 11.2335 32.8516 10.1356 33.5722C9.60009 33.9377 8.76862 34.1116 7.99469 33.8005C6.12605 33.097 6.12415 30.3931 7.99399 29.6827C9.18381 29.1996 10.5731 29.7966 11.1286 31.1386C11.2803 31.5047 11.3276 31.7416 11.4062 31.7407C11.5787 31.7464 11.7452 30.3471 10.5683 29.339C9.93205 28.7751 8.8051 28.4126 7.67249 28.8024C4.88229 29.7343 4.87925 33.7549 7.6757 34.6816C9.4827 35.2964 11.3437 34.0717 11.5125 32.4391C11.5585 31.9804 11.4657 31.7391 11.4062 31.7407Z" fill="white"/>
<path d="M6.49349 36.2447C6.41669 36.2442 6.3641 36.4278 6.23498 36.7026C5.76314 37.7078 4.7424 38.1086 3.87561 37.7478C2.52715 37.2201 2.52309 35.2757 3.8754 34.7425C4.72735 34.3845 5.75701 34.7733 6.23443 35.7871C6.36417 36.0614 6.41676 36.245 6.49349 36.2447C6.67356 36.2488 6.81425 35.1271 5.88956 34.3137C5.38363 33.8533 4.47452 33.5505 3.5539 33.8622C1.27807 34.5658 1.28405 37.9382 3.55662 38.629C5.02597 39.1207 6.52805 38.1024 6.61815 36.7983C6.64242 36.4314 6.55488 36.2431 6.49349 36.2447Z" fill="white"/>
<path d="M4.0861 9.47513C4.21152 9.38668 3.92664 8.87998 3.83136 8.03065C3.52926 5.704 5.1559 3.79053 7.5153 3.73378C8.36931 3.69806 8.91339 3.9023 8.98175 3.76475C9.12549 3.55098 7.67836 2.57614 5.77667 3.15035C3.5546 3.81382 2.4703 6.1815 3.12991 8.18607C3.45252 9.16877 3.99689 9.55744 4.0861 9.47513Z" fill="white"/>
<path d="M36.4411 23.7049C36.3014 23.761 36.338 24.1226 36.2488 24.6268C35.7924 27.475 32.8753 26.8495 32.7563 27.0852C32.5395 27.4533 34.5643 28.4123 36.0953 27.0263C37.6032 25.6245 36.8211 23.5231 36.4411 23.7049Z" fill="white"/>
<path d="M16.8832 32.4324C16.398 32.1542 16.1145 31.8902 15.9916 31.9687C15.8781 32.0331 15.9552 32.4751 16.4289 32.989C17.6924 34.3876 20.1627 34.29 21.3091 32.7809C21.7374 32.2284 21.7766 31.7814 21.6581 31.727C21.4031 31.5938 19.5607 34.0096 16.8832 32.4324Z" fill="white"/>
<path opacity="0.05" d="M8.22615 23.9595C8.19183 24.068 8.16323 24.1765 8.14049 24.2795C7.92899 24.2337 7.72335 24.1765 7.51758 24.1252C7.74609 24.0794 7.98033 24.0223 8.22615 23.9595Z" fill="white"/>
</svg>
