<svg width="40" height="40" viewBox="0 0 40 40" fill="none" xmlns="http://www.w3.org/2000/svg">
<path d="M33.1262 7.55594C32.6225 6.40039 31.4669 5.57076 30.1336 5.42261C21.6595 5.39298 17.2447 5.39298 11.141 5.42261C10.7855 5.42261 10.4892 5.42261 10.0743 5.45224C9.27435 5.54113 8.47435 5.89669 7.91138 6.48928C7.31879 7.08187 6.93361 7.85224 6.84472 8.68187C6.78546 9.24483 6.90398 20.03 6.90398 21.7782C6.93361 22.6078 7.2299 23.4078 7.76324 24.0004C8.29657 24.6226 9.00768 25.0374 9.77805 25.1856C9.98546 25.2152 10.1632 25.2448 10.3706 25.2448C11.0521 25.2744 23.941 25.067 23.9706 25.067C25.778 25.0374 27.2299 25.0078 28.2373 24.9485C29.2447 24.9189 29.8077 24.8596 29.8077 24.83C29.8077 24.8004 29.2447 24.7411 28.2373 24.7115C27.2299 24.6819 25.778 24.6226 23.9706 24.593C3.73361 24.267 12.741 24.593 10.4003 24.4152C10.2521 24.4152 10.104 24.3856 9.95583 24.3559C9.36324 24.2374 8.8299 23.9115 8.44472 23.4374C8.05953 22.9633 7.8225 22.3707 7.8225 21.7782C7.91138 8.35594 7.88175 9.12631 7.94101 8.83002C8.00027 8.23743 8.29657 7.70409 8.71138 7.31891C9.1262 6.90409 9.65953 6.66706 10.2225 6.6078C10.4595 6.57817 10.8447 6.6078 11.1706 6.6078C11.2299 6.6078 21.6595 6.63743 30.0447 6.63743C30.9632 6.72632 31.7336 7.31891 32.0892 8.05965C32.2077 8.29668 32.2966 8.56335 32.3262 8.83002C32.3262 8.85965 32.5336 21.9263 32.4151 22.3707C32.178 23.467 31.4077 24.1485 30.341 24.5337C30.104 24.6226 29.9558 24.6522 29.8966 24.6819C29.8373 24.7115 29.8077 24.7707 29.8077 24.8004C29.8077 24.83 29.8077 24.8893 29.8966 24.9189C29.9855 24.9485 30.1336 25.0078 30.4299 24.9782C31.704 24.8893 32.8595 23.9411 33.2447 22.5485C33.4818 21.7189 33.5114 8.97817 33.4818 8.65224C33.4225 8.32631 33.304 7.94113 33.1262 7.55594Z" fill="white"/>
<path d="M0.948575 25.5112C0.948575 25.7482 0.948575 26.0741 1.00783 26.3408C1.09672 26.9334 1.30413 27.4963 1.65969 28C2.01524 28.5038 2.45969 28.8889 2.99302 29.1852C4.38561 29.9556 4.94858 29.6593 17.1264 29.6C17.0671 29.7186 17.0078 29.8371 16.9486 29.926C16.1782 31.4075 15.4078 32.8889 14.7264 34.1926C13.393 36.8 12.4745 38.7556 12.593 38.8149C12.7115 38.8741 13.8671 37.0667 15.3782 34.5482C16.1189 33.3038 16.9782 31.8519 17.8078 30.4C17.956 30.1334 18.1338 29.8371 18.2819 29.5704H20.8597C25.2449 38.8741 25.6004 38.963 25.8967 38.8149C26.193 38.6667 26.3412 38.3704 22.193 29.5704C32.8301 29.5112 31.2597 29.5112 34.8152 29.5112H35.2004C37.5412 29.5112 39.0819 27.763 39.0819 25.8075C39.0523 21.6593 38.9634 11.526 38.8449 7.37783C38.8152 6.63709 38.8152 6.0445 38.7856 5.65931C38.756 5.27412 38.756 5.06672 38.7264 5.06672C38.6967 5.06672 38.6967 5.27412 38.6671 5.65931C38.6375 6.0445 38.6375 6.63709 38.6078 7.37783C38.4893 11.6149 38.4004 21.5112 38.3708 25.7778C38.3412 27.3778 37.2449 28.6815 34.8449 28.6815C2.81524 28.5038 4.50413 28.7408 3.52635 28.2075C3.14117 28 2.81524 27.7038 2.5782 27.3482C2.34117 26.9926 2.19302 26.6075 2.13376 26.1926C2.0745 25.7186 2.13376 24.8297 2.13376 5.89635C2.13376 5.71857 2.13376 5.57042 2.13376 5.39264C2.13376 3.40746 3.31895 2.40005 4.91895 2.34079H5.36339C12.6226 2.34079 27.2597 2.31116 34.5189 2.16301C36.1486 2.13338 37.6004 2.31116 38.3708 4.29635C38.4893 4.6519 38.5486 4.85931 38.5782 4.9482C38.6375 5.06672 38.6671 5.06672 38.6967 5.06672C38.7264 5.06672 38.7856 5.06672 38.8152 4.9482C38.8449 4.82968 38.8745 4.59264 38.8152 4.17783C38.5486 2.63709 37.2449 1.36301 35.0523 1.30375C34.8745 1.30375 34.6967 1.30375 34.5189 1.30375C27.2893 1.15561 12.6523 1.12598 5.36339 1.12598C5.21524 1.12598 5.06709 1.12598 4.91895 1.12598C2.66709 1.18524 0.948575 2.69635 0.918945 5.39264V5.89635C0.918945 12.4741 0.948575 20.1482 0.948575 25.5112Z" fill="white"/>
<path d="M27.6161 21.0074C27.705 20.9185 27.8235 20.6815 27.9716 20.0889C28.3864 18.2815 28.6235 15.6444 28.3272 13.2741C28.2679 13.0074 28.2383 12.6518 27.942 12.2667C27.7938 12.0889 27.5568 11.9111 27.3494 11.8222C27.142 11.7333 26.9642 11.7037 26.7864 11.6741C26.4309 11.6148 26.105 11.6148 25.7198 11.6444C25.542 11.6741 25.3346 11.6741 25.1272 11.7629C24.9198 11.8222 24.6827 11.9111 24.4753 12.0889C24.2679 12.2667 24.179 12.4741 24.0901 12.6518C24.0309 12.8296 24.0013 13.0074 23.9716 13.1555C23.942 13.4815 23.942 13.7778 23.942 14.0444C23.9124 15.6148 23.942 17.1852 24.0901 18.7852C24.179 19.6148 24.2679 20.3259 24.3568 20.8592C23.7938 20.8592 23.142 20.8592 22.4309 20.8592C22.4605 20.7704 22.4605 20.6518 22.4901 20.5333C22.579 19.9111 22.6679 18.9926 22.7568 17.6C22.8457 16.237 22.9642 14.4 23.0531 11.9704C23.0531 11.6444 23.0827 11.2889 23.0827 10.9037V10.7555C23.0827 10.6963 23.0827 10.637 23.0827 10.5778C23.0827 10.4592 23.0531 10.2518 22.9642 10.0741C22.8753 9.89628 22.7568 9.74813 22.579 9.62961C22.4309 9.5111 22.1938 9.45184 22.0753 9.42221C21.9272 9.39258 21.779 9.39258 21.6605 9.39258C21.542 9.39258 21.4531 9.39258 21.3346 9.39258C20.6235 9.39258 19.9124 9.45184 19.2309 9.62961C18.9938 9.68887 18.7568 9.77776 18.4901 9.89628C18.3716 9.95554 18.2235 10.0444 18.0753 10.1629C17.9272 10.2815 17.8087 10.4592 17.7494 10.6074C17.6013 10.9333 17.6013 11.2296 17.5716 11.4963C17.5716 11.9111 17.8975 19.3481 17.9272 19.3778C17.9568 20.0592 18.0161 20.5926 18.0457 20.9185C17.4827 20.9481 16.9198 20.9481 16.3568 20.9778C16.3864 20.8592 16.4161 20.7407 16.4161 20.5926C16.5642 19.3481 16.4753 17.4518 16.3568 16.1185C16.3272 15.9407 16.3272 15.7629 16.2975 15.5852L16.2679 15.437C16.2679 15.4074 16.2679 15.3481 16.2383 15.2296C16.2087 15.0518 16.1198 14.8741 16.0013 14.6963C15.8827 14.5185 15.6753 14.4 15.4679 14.3407C15.3494 14.3111 15.2309 14.2815 15.142 14.2815C15.0531 14.2815 14.9938 14.2815 14.905 14.2815C14.6679 14.2815 14.4013 14.2815 14.1346 14.2815C13.6013 14.3111 13.0383 14.3407 12.4457 14.3704C12.1494 14.4 11.8235 14.4296 11.5272 14.4592C11.2309 14.4889 10.9642 14.5185 10.7864 14.6667C10.6975 14.7259 10.6087 14.8444 10.579 14.9629C10.5198 15.0815 10.5494 15.2 10.5494 15.3185L10.579 15.7037C10.579 15.7333 11.2013 21.3037 11.4087 21.3037C11.7642 21.3037 11.5568 15.6444 11.5568 15.5852C11.5568 15.4963 11.6161 15.5259 11.6457 15.5259C11.942 15.5259 12.2087 15.4963 12.505 15.4963C13.0975 15.4963 13.6309 15.4667 14.1642 15.4667H14.905H15.0235C15.0235 15.5259 15.0531 15.6148 15.0531 15.6741C15.3198 18.0444 15.379 19.7037 15.4975 20.5629C15.5272 20.7407 15.5568 20.8592 15.5864 20.9778C13.0679 21.0963 10.9642 21.2444 10.9642 21.4222C10.9642 21.7481 18.5494 22.0148 22.0753 22.0148C28.505 22.0148 28.6531 21.7481 28.6531 21.4222C28.6827 21.2741 28.6531 21.1259 27.6161 21.0074ZM24.742 18.7555C24.7716 16.8592 24.9198 13.8963 25.0383 13.3333C25.0679 13.1259 25.1568 12.9185 25.1864 12.9481C25.2753 12.8889 25.542 12.8 25.779 12.8C26.0457 12.8 26.342 12.8 26.579 12.8592C26.6975 12.8889 26.8161 12.9185 26.8753 12.9481C26.9346 12.9778 26.9346 12.9778 26.9642 13.0074C27.0235 13.0667 27.0827 13.2741 27.1124 13.4815C27.4679 16.1185 27.142 18.3704 27.1124 20C27.1124 20.6222 27.142 20.8592 27.2309 20.9778C26.6383 20.9185 25.8383 20.8889 24.7124 20.8889C24.7124 20.3259 24.7124 19.6148 24.742 18.7555ZM18.3716 19.4074C18.7568 14.2815 18.4013 11.5852 18.6975 11.0815C18.7272 11.0222 18.7568 10.9926 18.7864 10.9926C18.8161 10.9629 18.8753 10.9333 18.9346 10.9037C19.0827 10.8444 19.2901 10.7852 19.4975 10.7259C20.0901 10.5778 20.7124 10.5778 21.305 10.5778C21.5124 10.5778 21.7198 10.5778 21.8087 10.6074C21.8679 10.637 21.8383 10.6074 21.8679 10.637C21.8679 10.6074 21.8975 10.7259 21.8679 10.9333C21.8679 11.2889 21.8383 11.6444 21.8383 11.9704C21.7494 14.3704 21.6605 16.1778 21.6309 17.5704C21.6013 18.9333 21.6013 19.8815 21.6309 20.5037C21.6309 20.6518 21.6309 20.7704 21.6605 20.8889C20.6827 20.8889 19.4975 20.9185 18.2827 20.9481C18.2531 20.6222 18.3124 20.0889 18.3716 19.4074Z" fill="white"/>
</svg>
