<svg width="40" height="40" viewBox="0 0 40 40" fill="none" xmlns="http://www.w3.org/2000/svg">
<path d="M1.48177 29.6002C1.54103 29.9261 1.57066 30.2224 1.62992 30.5779C2.01511 32.6224 2.96325 34.5187 4.85955 35.3779C6.99288 36.2965 15.704 37.3928 21.8966 37.3039C30.5484 37.1557 36.2966 35.3483 37.6892 34.6372C38.0744 34.4298 38.3707 34.1928 38.5781 33.9557C38.7855 33.7187 38.904 33.4817 38.9633 33.3039C39.1114 32.9187 39.1114 32.7113 39.0818 32.5928C39.0818 32.4742 39.0225 32.4446 38.9929 32.4446C38.9633 32.4446 38.904 32.4446 38.8447 32.5335C38.7855 32.6224 38.6966 32.8002 38.5188 33.0965C36.9484 35.5557 24.8003 36.2076 21.867 36.2076C15.6151 36.2372 7.05214 35.0817 5.33362 34.3113C3.82251 33.6002 3.1114 32.0002 2.81511 30.3705C2.75585 30.0742 2.72622 29.7779 2.66696 29.452C2.25214 26.4298 1.86696 23.4668 1.92622 20.2965C4.35585 21.6594 7.17066 22.7261 9.89659 23.4668C12.3855 24.1483 15.2003 24.652 17.8966 24.8594C18.104 25.4224 18.2521 25.4224 18.4003 25.3928C18.5781 25.3631 18.6966 25.2742 18.6373 24.3854C18.6373 23.9409 18.5484 23.3187 18.7855 22.5187C18.9929 21.8668 19.1707 21.6298 20.4744 21.4817C21.9262 21.3335 22.7558 22.4298 23.0225 23.7928C23.0818 24.0891 23.1114 24.3854 23.141 24.7113C23.1707 25.3631 23.0818 25.9854 21.867 26.4891C20.8299 26.9335 19.6447 26.8742 19.1114 26.4298C18.8447 26.2224 18.6966 25.9261 18.6077 25.7187C18.5188 25.5113 18.4596 25.3928 18.4003 25.3928C18.3707 25.3928 18.341 25.5409 18.3707 25.7779C18.4003 26.015 18.4596 26.4002 18.7855 26.7854C19.1114 27.1705 19.6447 27.4076 20.2373 27.4965C20.8299 27.5854 21.5114 27.5557 22.1633 27.3187C23.3781 26.9039 24.1484 26.1335 24.1781 24.8891C24.5633 24.8594 24.9188 24.8298 25.2744 24.8002C29.0373 24.415 36.0299 23.0224 38.6966 20.3261C38.8151 24.9779 39.0521 29.8076 39.0225 31.8817C39.0225 32.2372 38.9929 32.4446 39.0225 32.4446C39.0225 32.4446 39.1114 32.2668 39.141 31.8817C39.3484 30.2817 39.3188 26.2817 39.2595 15.6446C39.2299 12.415 37.0077 10.6965 33.8966 10.2224C32.1484 9.95573 30.5188 10.1631 28.4447 10.252C28.7114 9.18536 28.9484 7.61499 28.8596 6.45943C28.7114 3.31869 25.9855 3.2298 24.267 2.99276C22.2225 2.69647 18.667 2.48906 16.4151 3.14091C14.104 3.79276 12.741 5.36313 12.4447 6.81499C12.267 7.64462 12.3558 8.35573 12.4447 8.94832C12.5929 9.65943 12.741 10.1928 12.8892 10.4891C11.0521 10.4298 9.18548 10.2817 7.28918 10.4298C3.46696 10.6668 1.83733 12.3261 1.24474 15.4076C0.326217 20.3261 0.770662 24.7113 1.48177 29.6002ZM12.8892 8.88906C12.8596 8.3261 12.8892 7.64462 13.067 6.96313C13.5114 5.45202 15.0818 4.44462 16.6521 4.08906C18.7262 3.58536 22.2225 3.91128 24.0595 4.17795C24.6818 4.26684 25.2447 4.3261 25.7188 4.41499C26.6077 4.59276 27.5558 4.94832 27.704 6.57795C27.8818 7.88165 27.6151 9.30387 27.7336 10.252C23.7336 10.4002 20.2373 10.4298 16.2373 10.4594C15.2299 10.4594 14.2225 10.4891 13.2447 10.4594C13.1855 10.4594 13.0966 10.4594 13.0373 10.4594C13.0373 10.1631 12.9484 9.60017 12.8892 8.88906ZM2.37066 15.6446C2.40029 15.4372 2.45955 15.2002 2.51881 14.9928C3.08177 12.5631 4.85955 11.7039 7.34844 11.4965C9.24474 11.3483 11.2299 11.4965 13.2447 11.5261C14.2521 11.5557 15.2596 11.4965 16.267 11.4965C31.7929 11.2298 33.5114 10.2817 36.2373 11.7631C38.0744 12.7409 38.5188 14.015 38.5781 15.6446C38.6077 17.0372 38.6373 18.4002 38.667 19.6742C38.6373 19.6742 38.6373 19.6742 38.6077 19.7039C37.8966 19.9705 33.9855 22.6372 25.1262 23.5557C24.8003 23.5854 24.4447 23.615 24.0892 23.6446V23.615C24.0003 22.9039 23.7633 22.1928 23.3484 21.6298C22.6966 20.7113 21.6595 20.1483 20.3262 20.2965C18.8744 20.5039 18.0744 20.8298 17.7188 22.2224C17.5707 22.7854 17.5707 23.2594 17.6299 23.6446V23.7335C15.1114 23.5854 12.4744 23.2002 10.104 22.6668C6.37066 21.8372 3.28918 20.5631 1.95585 20.0594C1.98548 18.252 2.104 17.1557 2.37066 15.6446Z" fill="white"/>
</svg>
