<svg width="40" height="40" viewBox="0 0 40 40" fill="none" xmlns="http://www.w3.org/2000/svg">
<path d="M38.6669 26.3109C38.578 26.1035 38.4891 26.1035 38.4002 26.1035C38.3113 26.1035 38.2521 26.1331 38.1928 26.3701C37.9558 27.8813 38.6373 31.7331 38.1632 32.7998C38.0743 32.9776 37.9854 33.0961 37.8373 33.2146C36.8891 33.9553 31.7632 34.2813 30.6669 33.8072C30.4891 33.7183 30.3113 33.6294 30.1928 33.4813C30.0743 33.3331 29.9854 33.185 29.8965 32.9479C29.5706 32.059 28.9484 27.6442 29.8965 26.4887C30.1928 26.1035 30.6669 25.7776 31.1113 25.5405C32.0595 25.0664 33.0965 24.859 34.0743 24.7998C35.0224 24.7405 35.9113 24.7998 36.6224 24.9183C36.978 24.9776 37.3039 25.0368 37.5706 25.1257C37.8373 25.2146 37.9854 25.3331 38.1039 25.5109C38.1928 25.659 38.2521 25.8368 38.3113 25.9257C38.341 26.0146 38.3706 26.0739 38.4002 26.0739C38.4299 26.0739 38.4298 26.0146 38.4298 25.8961C38.4298 25.7776 38.4298 25.5998 38.341 25.3924C38.2521 25.185 38.0447 24.9479 37.7484 24.7998C37.4521 24.6516 37.1261 24.5627 36.741 24.4442C36.1484 24.2961 35.4373 24.1776 34.6669 24.1479C34.6965 24.059 34.6965 23.9701 34.7261 23.8516C34.7854 23.4368 34.7558 22.785 34.2817 22.1331C33.8373 21.4813 33.0669 20.9776 32.1484 20.5924C31.6743 20.4146 31.141 20.2961 30.6373 20.2368C30.1039 20.1776 29.6002 20.1479 29.0373 20.0887C26.6373 19.9109 23.4373 19.822 19.7632 19.9109C19.7039 19.4961 19.615 19.0813 19.5261 18.6961C19.4076 18.1627 19.2891 17.6887 19.1706 17.3331C19.2595 17.3331 19.3484 17.3035 19.4373 17.3035C20.2669 17.2146 20.9484 17.1553 21.5113 17.0664C22.0447 17.0072 22.4595 16.9479 22.7854 16.8887C23.1113 16.8294 23.3187 16.7701 23.4669 16.7109C23.7632 16.5924 23.7632 16.5331 23.7632 16.4442C23.7632 16.3553 23.7336 16.2961 23.4076 16.2368C23.2595 16.2072 23.0521 16.2072 22.7261 16.2072C22.4002 16.2072 21.9854 16.2072 21.4521 16.2072C14.7558 16.4442 13.2447 17.4813 12.6224 13.0664C12.5336 12.385 12.2373 9.06644 12.2669 8.38496C12.2669 7.79237 12.3558 7.17015 12.5928 6.66644C12.9187 6.04422 13.3039 5.83681 13.8965 5.65904C15.6447 5.1257 20.0891 5.09607 20.7706 5.1257C22.4002 5.18496 23.4373 5.62941 24.3558 7.022C25.6891 9.00718 25.8965 11.9109 25.4817 14.2813C25.3928 14.7553 25.3039 15.1998 25.1558 15.5257C25.0076 15.8516 24.8002 16.059 24.5632 16.1776C24.3261 16.2961 24.1187 16.3553 23.9706 16.385C23.8224 16.4146 23.7632 16.4442 23.7632 16.4739C23.7632 16.5035 23.8521 16.5035 24.0002 16.5035C24.1484 16.5035 24.3854 16.4739 24.6521 16.385C24.8002 16.3257 24.9484 16.2664 25.0965 16.1183C25.2447 15.9998 25.3632 15.822 25.4817 15.6442C25.6891 15.259 25.8076 14.8146 25.9558 14.3405C26.578 11.822 26.4298 8.74052 25.0669 6.5183C24.0298 4.82941 22.7558 4.17756 20.8002 4.05904C20.2669 4.02941 15.6447 3.88126 13.541 4.47385C13.4521 4.50348 13.3336 4.53311 13.2447 4.56274C13.1261 4.94793 10.0743 4.08867 11.4076 13.1553C11.7336 15.259 12.2965 16.8887 14.341 17.3924C15.4965 17.6887 17.0373 17.5109 18.7261 17.3331C18.6965 17.6887 18.6965 18.1924 18.6965 18.7257C18.6965 19.1109 18.6965 19.4961 18.7261 19.8813C15.6447 19.9998 12.2965 20.2664 9.24466 20.5627C7.378 20.7405 5.71874 21.422 5.36318 23.259C5.30392 23.4961 5.33355 23.6739 5.33355 23.7924C5.36318 23.9109 5.39281 23.9701 5.42244 23.9998C5.09652 23.9998 4.74096 24.0294 4.41503 24.059C3.76318 24.1183 3.11133 24.2072 2.45948 24.4442C2.16318 24.5331 1.778 24.7405 1.4817 25.0072C1.1854 25.2739 1.00763 25.5998 0.859479 25.8961C0.118738 27.8516 0.829849 32.8887 1.12615 33.8664C1.24466 34.222 1.39281 34.5479 1.60022 34.8738C1.83726 35.1998 2.16318 35.4368 2.45948 35.6146C3.11133 35.9405 3.73355 35.9405 4.23726 35.9405C5.03726 35.9109 9.15578 35.4368 9.86689 35.0813C10.1039 34.9627 10.1039 34.9035 10.0743 34.8146C10.0743 34.7257 10.015 34.6664 9.778 34.6072C8.05948 34.3701 4.02985 35.1405 2.96318 34.5776C2.7854 34.4887 2.63726 34.3701 2.51874 34.1924C2.40022 34.0146 2.2817 33.7776 2.19281 33.5109C1.89652 32.3553 1.4817 27.7331 1.9854 26.4887C2.07429 26.2813 2.19281 26.1035 2.31133 25.985C2.45948 25.8664 2.60763 25.7776 2.87429 25.659C3.378 25.4813 3.94096 25.3627 4.53355 25.3035C5.12615 25.2442 5.74837 25.2146 6.40022 25.185C7.64466 25.1257 8.88911 24.9776 9.71874 25.6887C11.4076 27.1109 11.6743 30.5776 11.2891 32.9183C11.2298 33.3035 11.1706 33.659 11.0521 33.9257C10.9632 34.1924 10.815 34.3998 10.6373 34.4887C10.4595 34.6072 10.3113 34.6664 10.1928 34.6961C10.0743 34.7257 10.015 34.7553 10.0447 34.785C10.0447 34.8146 10.1039 34.8146 10.2224 34.8146C10.341 34.8146 10.5187 34.785 10.7558 34.6961C10.9928 34.6072 11.2298 34.3701 11.378 34.0442C11.5261 33.7479 11.6447 33.3924 11.7336 32.9776C12.3854 30.3701 12.178 26.7257 10.3113 24.9776C10.0447 24.7405 9.71874 24.5035 9.36318 24.385C8.44466 23.9998 7.40763 24.0887 6.34096 24.0887C6.13355 24.0887 5.89652 24.0887 5.68911 24.0887C5.71874 24.059 5.74837 24.0294 5.80763 23.9405C6.66689 22.5183 6.81503 21.8664 9.33355 21.7479C16.3558 21.2738 16.6521 21.2738 18.7558 21.1553C18.7854 21.4516 18.7854 21.7479 18.815 21.985C18.9039 23.1998 19.0224 23.9405 19.141 24.3553C18.6669 24.4146 18.2817 24.4739 17.9261 24.5035C17.0669 24.622 16.6224 24.7405 16.3854 24.8294C16.1484 24.9183 16.1484 25.0072 16.178 25.0961C16.2076 25.185 16.2076 25.2442 16.4447 25.3035C16.6817 25.3331 17.1261 25.3627 18.015 25.3627C18.4595 25.3627 18.9928 25.3331 19.6447 25.3035C19.9706 25.2739 20.3261 25.2738 20.741 25.2442C21.1558 25.2442 21.6002 25.185 22.0447 25.185C22.4891 25.185 22.9632 25.185 23.4076 25.3331C23.615 25.3924 23.8224 25.4813 23.9706 25.5998C24.0595 25.659 24.1187 25.7479 24.178 25.8072C25.0373 27.0813 25.3336 31.9701 24.8595 32.9479C24.7706 33.1257 24.6521 33.3035 24.5039 33.422C23.5558 34.1924 18.015 34.459 16.8891 33.7776C16.4447 33.5109 16.0595 33.0961 15.7632 32.622C14.7558 31.0516 14.6076 28.7405 14.9039 26.8738C14.9632 26.4887 15.0521 26.1627 15.141 25.8961C15.2595 25.6294 15.4076 25.4516 15.5854 25.3627C15.941 25.185 16.2076 25.1257 16.2076 25.0961C16.2076 25.0664 16.1484 25.0664 16.0298 25.0664C15.9113 25.0664 15.7336 25.0664 15.4965 25.1553C15.2595 25.2146 14.9928 25.4516 14.8447 25.7479C14.6669 26.0442 14.578 26.3998 14.4595 26.785C13.9558 28.7701 14.015 31.2294 15.0521 33.0664C15.378 33.6294 15.7928 34.1924 16.415 34.5776C18.0743 35.6442 23.9706 35.3479 25.2447 34.3405C25.541 34.1035 25.778 33.7776 25.9261 33.4813C26.6965 31.8813 26.1632 27.022 25.4224 25.5998C25.3336 25.422 25.215 25.2738 25.1261 25.0961C25.0076 24.9479 24.8595 24.7998 24.6817 24.6813C24.3558 24.4442 24.0299 24.2961 23.7039 24.2072C23.0521 24.0294 22.4891 24.059 21.9854 24.059C21.4817 24.0887 21.0373 24.1479 20.6521 24.1776C20.4447 24.2072 20.2669 24.2072 20.0595 24.2368C20.0891 23.7924 20.0891 23.0516 20.0002 21.8664C19.9706 21.6294 19.941 21.3627 19.9113 21.0961C22.8447 20.9479 26.0447 20.8887 28.978 20.9479C30.0743 20.9776 31.0817 20.9479 31.9113 21.2146C32.741 21.4813 33.4817 21.8961 33.8965 22.3998C34.3113 22.9035 34.4299 23.4368 34.4595 23.822V24.1183C34.3113 24.1183 34.1632 24.1183 34.015 24.1183C33.0076 24.1183 31.8521 24.2664 30.7261 24.7701C30.1632 25.0368 29.6002 25.3627 29.1558 25.8961C28.9187 26.1627 28.741 26.4887 28.6224 26.8146C28.2076 27.9701 28.2669 31.7627 28.7706 33.3331C28.8595 33.6294 29.0373 33.985 29.2743 34.2516C29.5113 34.5183 29.8373 34.7257 30.1336 34.8738C31.7039 35.5553 37.1558 35.1998 38.5187 34.1035C38.815 33.8664 39.0224 33.5405 39.1706 33.2442C39.941 31.5257 38.815 26.5776 38.6669 26.3109Z" fill="white"/>
</svg>
