<svg width="40" height="40" viewBox="0 0 40 40" fill="none" xmlns="http://www.w3.org/2000/svg">
<path d="M24.7611 33.8669C25.1431 32.8841 25.2932 31.809 25.3805 30.7426C25.4727 29.678 25.5232 28.5972 25.8032 27.5722C26.0509 26.5325 26.6348 25.6401 27.3845 24.7345C28.1173 23.8299 29.0043 22.9277 29.6486 21.7357C30.2772 20.5381 30.5788 19.1563 30.5341 17.7833C30.4447 15.0354 29.3125 12.2954 27.3498 10.1629C26.8579 9.62896 26.2969 9.16322 25.7041 8.74668C25.3897 8.56751 25.0869 8.35154 24.7636 8.20844L23.7998 7.76955C22.484 7.267 21.1065 7.0052 19.7487 6.97046C18.3898 6.92501 17.0508 7.13497 15.8115 7.54607C14.5763 7.9596 13.4056 8.5247 12.4217 9.30238C11.441 10.0741 10.5767 10.9597 9.94403 11.9663C9.31809 12.972 8.8439 14.0299 8.58116 15.1135C8.01251 17.2952 8.46811 19.4814 9.29443 21.1359C10.1149 22.8186 11.1957 24.1042 12.1507 25.1811C13.1286 26.1924 13.5566 27.3179 13.8313 28.2721C14.0965 29.2271 14.2017 30.0031 14.2892 30.525C14.3716 31.0489 14.4234 31.3256 14.4625 31.3229C14.4958 31.3207 14.5155 31.0778 14.5104 30.6354C15.0377 31.0459 17.0168 31.8228 19.5442 31.8794C21.832 31.9466 23.7047 31.4007 24.4454 31.0129C24.4146 31.411 24.3759 31.8013 24.3158 32.1752C24.0279 32.0563 23.3665 32.1754 22.6123 32.3066C21.708 32.4768 20.926 32.6154 20.8832 32.9209C20.834 33.2143 21.709 33.588 22.8082 33.3867C23.4326 33.2747 23.9168 33.0148 24.1979 32.7637C24.1348 33.0392 24.0625 33.3087 23.9693 33.5658C23.9254 33.6821 23.8715 33.7886 23.8221 33.8995C23.5117 34.0406 23.1346 34.2569 22.7601 34.4376C22.3884 34.6059 22.0363 34.6938 21.7629 34.7403C21.4902 34.7923 21.2626 34.7987 21.1783 34.9296C21.0966 35.0474 21.2186 35.3219 21.6194 35.5032C21.8408 35.6063 22.1392 35.648 22.4591 35.6243C21.0827 36.5464 19.3763 36.5425 18.0854 36.196C17.4279 36.0172 16.8318 35.755 16.3653 35.4256C15.8915 35.0977 15.5611 34.6765 15.3234 34.2631C14.8578 33.4195 14.7483 32.6287 14.6432 32.1177C14.551 31.5977 14.5025 31.3199 14.4625 31.3229C14.427 31.3256 14.4013 31.6061 14.4233 32.1427C14.4621 32.6721 14.4929 33.4915 14.9442 34.4601C15.1758 34.9347 15.5292 35.4418 16.0494 35.8429C16.3976 36.1154 16.813 36.3302 17.2547 36.5203C17.2301 36.7171 17.2508 36.9812 17.3777 37.2987C17.6408 37.9726 18.4903 38.7966 19.7149 38.7979C20.9103 38.7726 21.7473 38.0129 22.0795 37.4186C22.285 37.0614 22.3477 36.7705 22.3451 36.571C22.5349 36.4811 22.7231 36.3826 22.9047 36.2613C23.7564 35.7432 24.3827 34.828 24.7611 33.8669ZM17.417 30.6448C17.5162 29.7853 17.6022 28.5554 17.6228 27.3436C17.6474 26.4625 17.6164 25.4528 17.4816 24.3552C17.4264 23.8068 17.3683 23.2323 17.3081 22.6338C17.2938 22.4702 17.2968 22.2972 17.3052 22.1194C17.879 21.8468 18.1808 21.6572 18.5222 21.4705C18.6972 21.3751 18.9303 21.2343 19.1059 21.1023C19.8421 20.5558 20.3882 19.9691 21.0012 19.754C21.5916 19.5276 22.3456 19.6141 22.7941 19.9539C22.8938 20.0262 22.974 20.1167 23.0467 20.2119C22.8225 20.1204 22.5854 20.0842 22.3894 20.1003C21.9291 20.0656 21.4173 20.3281 21.1349 20.697C20.8359 21.0581 20.6738 21.5986 20.8152 22.1124C20.9505 22.5998 21.2975 23.0445 21.8545 23.2229C22.2089 23.3241 22.5376 23.2708 22.8247 23.1615C22.7244 23.5343 22.6108 23.9001 22.4842 24.2477C22.3032 24.7445 22.0806 25.2421 21.9402 25.7432C21.5722 26.9939 21.5114 28.2219 21.6921 29.4678C21.7772 30.0141 21.8746 30.4367 21.9631 30.7454C20.4135 30.8292 19.0368 30.8071 17.417 30.6448ZM16.4006 21.3267C15.7232 21.6012 15.0092 21.6679 14.4073 21.4816C14.2685 21.4358 14.154 21.3753 14.0691 21.3034C13.9712 21.2102 13.8788 21.1156 13.8197 21.0014C13.4245 20.295 13.911 19.217 14.6736 18.9099C15.1825 18.6886 15.6759 18.8244 16.0267 19.2351C16.3856 19.6464 16.5015 20.1933 16.4911 20.7954C16.4902 20.9582 16.4821 21.1252 16.4724 21.2946C16.4485 21.3043 16.4245 21.3173 16.4006 21.3267ZM22.1396 22.2523C21.9922 22.218 21.8224 22.042 21.7696 21.8516C21.7141 21.6769 21.7608 21.4685 21.8915 21.2963C22.0307 21.1267 22.1854 21.0253 22.3986 21.039C22.6713 21.0177 22.801 21.0951 22.8976 21.1997C22.9926 21.2968 23.0373 21.5184 23.0444 21.7526C22.7766 22.0878 22.3345 22.3359 22.1396 22.2523ZM22.2082 30.7312C22.1817 30.413 22.1437 29.9792 22.1176 29.429C22.0729 28.2414 22.19 27.1278 22.6044 25.9584C22.7558 25.5103 22.9858 25.0594 23.2065 24.5321C23.4915 23.8457 23.754 23.1085 23.8762 22.3718C24.0116 22.1979 24.1284 22.0056 24.2112 21.7943C24.6032 20.8771 24.271 19.7 23.4405 19.0943C22.608 18.4877 21.5666 18.4009 20.6261 18.7285C19.6787 19.0836 19.0768 19.7801 18.4617 20.2134C18.1956 20.4087 18.0702 20.4625 17.4444 20.8177C17.4292 20.8262 17.4145 20.8331 17.3995 20.8414C17.3999 20.833 17.4008 20.8251 17.4012 20.8166C17.4399 20.1392 17.3182 19.2729 16.7672 18.616C16.5003 18.2892 16.1229 18.0034 15.6633 17.8783C15.2028 17.7487 14.7117 17.8039 14.2901 17.9739C13.4304 18.3183 12.8168 19.1298 12.6598 20.0573C12.58 20.5233 12.6367 21.0527 12.8876 21.5128C13.0087 21.7449 13.184 21.9417 13.3725 22.1151C13.5857 22.2995 13.8291 22.4208 14.0648 22.501C14.8603 22.7605 15.6962 22.6895 16.4496 22.4542C16.4543 22.5417 16.4547 22.6283 16.465 22.7166C16.5497 23.3104 16.6309 23.8804 16.7084 24.4243C16.8917 25.5062 16.9755 26.4856 17.0093 27.3538C17.0403 28.2238 17.0671 28.9732 17.0891 29.5858C17.1004 29.9924 17.1126 30.333 17.1266 30.6153C15.816 30.4739 14.8464 30.3062 14.5036 30.3666C14.4555 29.0506 14.2503 27.7331 13.7286 26.5248C13.482 25.9415 13.0872 25.33 12.617 24.7818C11.718 23.6836 10.7189 22.4 9.99756 20.8072C9.27208 19.2321 8.91827 17.2925 9.46402 15.3353C9.7198 14.3585 10.1724 13.3974 10.751 12.4961C11.3369 11.5917 12.1328 10.802 13.0292 10.1109C13.9288 9.41412 15.0021 8.91288 16.1302 8.54479C17.2622 8.17896 18.4852 7.99566 19.7221 8.04562C22.1685 8.13877 24.8075 8.96622 26.5501 10.9148C28.3192 12.8276 29.3726 15.3661 29.4589 17.8096C29.5063 19.0334 29.2447 20.2224 28.7228 21.2439C27.9299 22.7585 26.4532 24.0018 25.5442 25.6136C25.2316 26.1543 25.012 26.7507 24.8693 27.3278C24.5784 28.4719 24.5472 29.5803 24.477 30.6089C24.0617 30.5858 23.2518 30.6686 22.2082 30.7312ZM21.4722 36.9352C21.0718 37.2948 20.4256 37.6912 19.7027 37.7003C19.0032 37.7083 18.3699 37.2877 18.0489 36.909C18.0151 36.8711 17.9932 36.8358 17.9641 36.7984C19.1819 37.1627 20.3664 37.1946 21.5417 36.8706C21.517 36.8927 21.4981 36.9126 21.4722 36.9352Z" fill="white"/>
<path d="M5.70572 25.7824C4.87189 26.3759 4.26623 26.9962 4.41516 27.2629C4.56108 27.5258 5.45276 27.3091 6.34086 26.6779C7.23029 26.0485 7.72946 25.2782 7.52927 25.0536C7.32682 24.825 6.54162 25.1918 5.70572 25.7824Z" fill="white"/>
<path d="M4.57915 18.1633C5.59497 18.2716 6.45641 18.1161 6.50317 17.8166C6.54993 17.517 5.7407 17.1833 4.69559 17.0718C3.65067 16.9602 2.78923 17.1157 2.77176 17.4184C2.7543 17.721 3.56334 18.0549 4.57915 18.1633Z" fill="white"/>
<path d="M5.29916 11.3124C5.89467 11.7323 6.49338 11.9626 6.70391 11.7415C6.91255 11.5246 6.60118 10.8885 5.93392 10.417C5.26798 9.9437 4.56542 9.86013 4.42926 10.1285C4.29029 10.4002 4.70571 10.8895 5.29916 11.3124Z" fill="white"/>
<path d="M12.6102 6.3046C12.8579 6.13013 12.6185 5.36315 12.0752 4.59167C11.5319 3.82018 10.8905 3.33622 10.6426 3.51068C10.3949 3.68515 10.6344 4.45213 11.1777 5.22361C11.721 5.9951 12.3623 6.47906 12.6102 6.3046Z" fill="white"/>
<path d="M17.5488 1.20166C17.2456 1.20166 17 1.22175 17 1.24636C17 1.27115 17.2456 1.29105 17.5488 1.29105C17.8519 1.29105 18.0977 1.27115 18.0977 1.24636C18.0977 1.22175 17.8519 1.20166 17.5488 1.20166Z" fill="white"/>
<path d="M19.758 3.18152C19.7879 2.18054 19.6716 1.33826 19.3696 1.29055C19.0729 1.24267 18.6938 2.06899 18.6609 3.14659C18.6252 4.22419 18.9512 5.07304 19.2502 5.04394C19.5546 5.01558 19.7242 4.18249 19.758 3.18152Z" fill="white"/>
<path d="M28.1639 5.56435C29.0269 4.67042 29.474 3.73423 29.2404 3.54437C29.004 3.35131 28.2015 3.94513 27.3733 4.80282C26.5472 5.66238 25.984 6.48664 26.1857 6.71557C26.3843 6.94187 27.3027 6.45997 28.1639 5.56435Z" fill="white"/>
<path d="M31.2982 12.0747C31.4225 12.3511 32.5606 12.1091 33.8404 11.534C35.1201 10.9592 36.0568 10.2688 35.9325 9.99238C35.8084 9.71575 34.6701 9.95782 33.3904 10.5329C32.1108 11.1079 31.174 11.7981 31.2982 12.0747Z" fill="white"/>
<path d="M33.2186 19.3533C33.1499 19.6442 34.028 20.0955 35.2018 20.1283C36.3752 20.165 37.2787 19.7664 37.227 19.472C37.1774 19.1689 36.289 19.0658 35.2341 19.031C34.1792 19.0034 33.2862 19.0535 33.2186 19.3533Z" fill="white"/>
<path d="M32.1384 26.1985C31.9365 26.4218 32.3538 27.1276 33.136 27.6908C33.9169 28.2559 34.7179 28.43 34.8664 28.168C35.0176 27.903 34.5058 27.3278 33.7785 26.8008C33.0494 26.2765 32.3426 25.9717 32.1384 26.1985Z" fill="white"/>
<path d="M26.982 15.926C27.4561 16.8975 27.6484 17.5717 27.8104 17.5473C27.947 17.5324 28.0309 16.7921 27.7071 15.649C27.3937 14.5182 26.5912 12.997 25.1711 11.8158C23.7509 10.6347 22.1092 10.1226 20.9401 10.0204C19.7572 9.91016 19.0445 10.1274 19.0548 10.2645C19.0604 10.4283 19.7583 10.4946 20.7998 10.7838C21.8378 11.0657 23.2298 11.6297 24.4691 12.6597C25.7076 13.6906 26.5157 14.9569 26.982 15.926Z" fill="white"/>
</svg>
