<svg width="40" height="40" viewBox="0 0 40 40" fill="none" xmlns="http://www.w3.org/2000/svg">
<path d="M37.0572 26.5659C36.5289 26.2641 35.9251 26.0376 35.3968 26.0376C34.8685 26.0376 34.4156 26.0376 33.9628 26.0376C35.3968 23.3207 36.0006 20.1509 35.7741 17.0565C35.5477 13.6603 34.1892 10.3395 32.0006 7.69802C29.8119 5.05651 26.793 3.01878 23.4722 2.03764C22.0383 1.58481 20.6043 1.43387 19.0949 1.3584C18.8685 1.3584 18.6421 1.3584 18.4156 1.3584C16.6798 1.3584 14.8685 1.66029 13.2081 2.18859C9.88734 3.24519 6.94395 5.3584 4.83074 8.07538C2.71753 10.7924 1.43451 14.1886 1.2081 17.6603C0.981683 21.132 1.88734 24.6037 3.62319 27.4716C5.28357 30.1131 7.62319 32.3773 10.4156 33.7358C10.1892 34.1886 10.1138 34.7169 10.1138 35.1697C10.1138 36.3773 10.793 37.5848 11.7741 38.1886C12.3024 38.4905 12.9062 38.7169 13.4345 38.7169C14.4156 38.7169 16.4534 38.7169 20.5289 38.6414C24.3024 38.5659 28.076 38.415 31.8496 38.1886H31.9251C32.0006 38.1131 32.0006 38.0376 32.0006 37.9622C31.3968 37.2075 31.0194 36.3018 30.9439 35.2452C30.8685 36.1509 31.0949 37.0565 31.5477 37.8112C27.8496 37.5848 24.227 37.5093 20.5289 37.3584L14.8685 37.2829H13.51C13.1326 37.2829 12.8307 37.132 12.5289 36.981C11.9251 36.6037 11.5477 35.9244 11.5477 35.2452C11.5477 34.5659 11.9251 33.8867 12.5289 33.5093C12.8307 33.3584 13.1326 33.2075 13.51 33.2075H14.8685L20.5289 33.132C21.7364 33.132 22.9439 33.0565 24.076 33.0565C25.4345 33.132 26.793 33.132 28.076 33.2075L31.2458 33.2829C30.9439 33.9622 30.793 34.6414 30.8685 35.3961C30.9439 34.6414 31.1704 33.9622 31.5477 33.2829C32.9062 33.2829 34.3402 33.3584 35.1704 33.2829C35.7741 33.2829 36.3779 33.0565 36.8307 32.7546C37.8873 32.1509 38.4911 30.9433 38.4911 29.7358C38.793 28.3773 38.1138 27.1697 37.0572 26.5659ZM33.8119 26.1131L28.227 26.1886C27.4722 26.1886 26.793 26.2641 26.0383 26.2641C26.5666 24.4527 26.8685 22.5659 27.0949 20.6792C29.8119 20.6037 32.4534 20.3773 35.1704 20.1509C35.0949 22.1131 34.6421 24.1509 33.8119 26.1131ZM35.0194 17.2075C35.1704 18.1886 35.1704 19.0942 35.1704 20.0754C32.5289 19.7735 29.8873 19.6225 27.2458 19.5471C27.2458 19.3961 27.2458 19.2452 27.2458 19.0942C27.3213 16.4527 27.1704 13.8112 26.5666 11.1697C26.5666 11.0942 26.4911 10.9433 26.4911 10.8678C28.5289 10.7924 30.4911 10.6414 32.5289 10.415C33.8119 12.4527 34.7175 14.7924 35.0194 17.2075ZM19.3213 11.0942C21.2836 11.0942 23.2458 11.0188 25.2081 10.9433C25.2836 11.0942 25.2836 11.3207 25.359 11.4716C26.0383 13.9622 26.3402 16.5282 26.4156 19.0942V19.5471C24.0006 19.4716 21.5855 19.3961 19.1704 19.3961C19.2458 17.7358 19.2458 16.1509 19.3213 14.4905C19.3968 13.2829 19.3968 12.2263 19.3213 11.0942ZM23.0949 3.39613C26.1892 4.22632 28.9817 6.03764 31.0949 8.45274C31.5477 8.98104 32.0006 9.58481 32.3779 10.1886C30.3402 9.96217 28.227 9.81123 26.1892 9.73576C25.9628 8.90557 25.6609 8.15085 25.359 7.32066C24.8307 6.11312 24.1515 4.90557 23.2458 3.77349C23.0949 3.62255 22.9439 3.47161 22.793 3.32066C22.9439 3.39613 23.0194 3.39613 23.0949 3.39613ZM19.3213 2.86783C20.3779 3.09425 21.359 3.84896 22.1138 4.75462C23.3213 6.11312 24.1515 7.84896 24.8307 9.73576C22.9439 9.66028 21.1326 9.66028 19.2458 9.58481C19.2458 9.13198 19.2458 8.67915 19.1704 8.22632C19.0949 6.415 18.9439 4.60368 18.7175 2.79236C18.9439 2.86783 19.1704 2.86783 19.3213 2.86783ZM19.2458 20.8301C21.6609 20.8301 24.1515 20.7546 26.5666 20.6792C26.5666 22.5659 26.3402 24.3773 26.0383 26.2641C23.6232 26.3395 21.1326 26.415 18.7175 26.5659C18.9439 24.6037 19.0949 22.7169 19.2458 20.8301ZM16.3024 3.69802C16.9817 3.16972 17.7364 2.86783 18.5666 2.86783C18.3402 4.67915 18.1892 6.49047 18.1138 8.30179C18.1138 8.75462 18.1138 9.20745 18.0383 9.58481C16.227 9.58481 14.4156 9.66028 12.5289 9.73576C12.9062 8.60368 13.359 7.47161 13.9628 6.49047C14.5666 5.3584 15.3213 4.37727 16.3024 3.69802ZM17.9628 19.3207C15.6232 19.3207 13.2836 19.3961 10.9439 19.4716C10.9439 18.7924 10.9439 18.0376 11.0194 17.3584C11.1704 15.1697 11.5477 13.0565 12.1515 10.9433C14.1138 11.0188 16.0006 11.0942 17.9628 11.0942C17.9628 12.2263 17.8873 13.3584 17.8873 14.4905C17.8873 16.0754 17.9628 17.7358 17.9628 19.3207ZM5.96282 8.98104C7.92508 6.49047 10.6421 4.60368 13.6609 3.62255C13.8873 3.54708 14.1138 3.47161 14.3402 3.47161C12.8307 5.05651 11.7741 7.32066 11.0949 9.43387C11.0949 9.58481 11.0194 9.66028 11.0194 9.81123C9.05716 9.81123 7.01942 9.96217 5.05716 10.1886C5.35904 9.81123 5.66093 9.3584 5.96282 8.98104ZM2.41565 17.7358C2.64206 15.1697 3.54772 12.6037 4.90621 10.415C6.86848 10.6414 8.75527 10.7924 10.7175 10.8678C10.1892 12.981 9.88734 15.0942 9.88734 17.2829V19.5471C7.39678 19.6225 4.90621 19.7735 2.41565 20.0754C2.34017 19.2452 2.34017 18.4905 2.41565 17.7358ZM10.4911 33.5848C7.84961 31.9999 5.66093 29.7358 4.30244 27.0188C3.17036 24.9056 2.49112 22.4905 2.34017 20.0754C4.83074 20.3773 7.39678 20.5282 9.88734 20.6037C10.0383 22.1131 10.1892 23.6225 10.5666 25.132C11.0949 27.3961 11.9251 29.6603 13.1326 31.6226C12.076 31.849 11.0949 32.5282 10.4911 33.5848ZM36.3024 31.3207C36.0005 31.4716 35.6987 31.6226 35.3213 31.6226H33.9628L28.3024 31.698C26.9439 31.698 25.5855 31.7735 24.3024 31.849C23.0949 31.7735 21.8873 31.7735 20.7553 31.7735L17.51 31.698C17.8119 31.0188 17.9628 30.3395 17.8873 29.5848C18.8685 29.8867 19.8496 30.0376 20.9062 30.1886C23.0194 30.415 24.9817 30.415 26.9439 30.1886C27.9251 30.1131 28.9817 29.8867 29.9628 29.5848C28.9817 29.2829 27.9251 29.132 26.9439 28.981C24.9817 28.7546 23.0194 28.7546 20.9062 28.981C19.9251 29.0565 18.9439 29.2829 17.8873 29.5848C17.8873 29.5093 17.8873 29.4339 17.8873 29.2829C17.8873 30.1131 17.5855 30.9433 17.2081 31.6226C16.3779 31.6226 14.4156 31.5471 13.5855 31.6226C13.51 31.6226 13.4345 31.6226 13.359 31.6226C12.3024 29.5093 11.6987 27.2452 11.3968 24.981C11.1704 23.5471 11.0949 22.1131 11.0194 20.6792C13.359 20.7546 15.7741 20.8301 18.1138 20.8301C18.1892 22.7169 18.3402 24.6037 18.6421 26.5659C18.1138 26.5659 17.51 26.6414 16.9817 26.6414H16.9062C16.8307 26.7169 16.8307 26.7924 16.9062 26.8678C17.4345 27.5471 17.8119 28.3773 17.9628 29.2829C17.9628 28.4527 17.7364 27.698 17.359 26.9433C21.0572 27.1697 24.7553 27.3207 28.3779 27.3961L34.0383 27.4716H35.3968C35.7741 27.4716 36.076 27.6225 36.3779 27.7735C36.9817 28.1509 37.359 28.8301 37.359 29.5093C37.2836 30.2641 36.9062 30.9433 36.3024 31.3207Z" fill="white"/>
<path d="M22.0384 34.5663C21.0573 34.6418 20.0007 34.8682 19.0195 35.1701C20.0007 35.472 21.0573 35.6229 22.0384 35.7738C24.0007 36.0003 25.9629 36.0003 28.0761 35.7738C29.0573 35.6984 30.1139 35.472 31.095 35.1701C30.1139 34.8682 29.0573 34.7172 28.0761 34.5663C25.9629 34.3399 24.0007 34.3399 22.0384 34.5663Z" fill="white"/>
</svg>
