<svg width="40" height="40" viewBox="0 0 40 40" fill="none" xmlns="http://www.w3.org/2000/svg">
<path d="M38.8446 24.6523C38.578 24.0597 38.4891 24.03 38.4298 24.0597C38.3409 24.0893 38.2817 24.1486 38.4002 24.7708C38.4002 24.8597 38.4298 24.9189 38.4594 25.0374C38.9335 28.9189 38.3705 30.9634 37.2446 32.8893C35.5854 35.6152 33.0668 36.6523 30.578 36.3263C29.9261 36.2374 29.2743 36.0597 28.6224 35.7634C25.9261 34.6078 25.9261 32.7412 21.7483 32.4152C20.8002 32.3263 19.7928 32.2671 18.7261 32.3856C18.1928 32.4449 17.6594 32.5337 17.1261 32.7115C14.1631 33.6597 12.0002 35.8523 9.215 36.4152C9.06685 36.4449 8.88907 36.4449 8.74092 36.4745C4.59277 36.9486 1.7187 32.1189 1.65944 27.5856C1.65944 23.2893 4.05944 20.1486 9.15574 19.6745C10.1039 19.5856 30.015 19.2893 30.0446 19.2893C32.9483 19.3486 35.9113 19.9708 37.5113 22.43C37.6891 22.6671 37.8076 22.9041 37.9261 23.1115C38.0446 23.3189 38.1335 23.4967 38.1928 23.6152C38.3409 23.9115 38.4002 24.0597 38.4298 24.03C38.4594 24.03 38.4002 23.8523 38.3113 23.556C38.252 23.4078 38.1928 23.2004 38.1039 22.993C37.9854 22.7856 37.8965 22.5189 37.7187 22.2819C36.2372 19.6449 33.0965 18.8152 30.0743 18.6967C29.0965 18.6671 28.3557 18.6671 22.8446 18.6671C22.8743 18.4597 22.9039 18.2226 22.8446 17.8375C22.6372 16.83 22.1039 16.5634 21.215 16.356C20.9187 16.2671 20.5631 16.2374 20.178 16.2078C20.8891 15.2004 20.3854 2.31152 19.9409 2.31152C19.4668 2.31152 18.9928 15.1708 19.6743 16.2078C19.6446 16.2078 19.615 16.2078 19.5854 16.2078C18.3409 16.2671 17.3631 16.5337 17.2446 17.63C17.215 17.8967 17.2446 18.1337 17.2743 18.3115C17.3039 18.43 17.3335 18.5486 17.3631 18.6374C11.1409 18.6374 10.7261 18.5486 9.12611 18.6967C3.46685 19.1412 0.622403 22.756 0.592773 27.5856C0.592773 33.0967 4.23722 38.1634 8.85944 37.6597C12.8594 37.2152 15.378 33.8671 18.8743 33.5708C19.7928 33.4819 20.7409 33.5115 21.6594 33.6004C25.4817 33.8671 25.1854 35.556 28.178 36.8004C31.8224 38.3412 35.8817 37.2152 38.1039 33.3634C39.6743 30.5189 39.7928 26.993 38.8446 24.6523ZM17.6891 18.3412C17.7187 18.193 17.778 17.9856 17.8668 17.7782C17.9854 17.4819 18.015 17.3634 18.7557 17.3041H19.5261C20.0298 17.3337 20.5039 17.4226 20.8594 17.5115C21.6298 17.6893 21.6298 17.6893 21.8668 18.6671C20.5039 18.6671 19.0817 18.6671 17.6298 18.6671C17.6594 18.5782 17.6594 18.4597 17.6891 18.3412Z" fill="white"/>
<path d="M11.941 25.9856C11.6447 25.9856 11.4373 25.9856 11.2298 25.9856C10.8447 25.9856 10.6076 25.9856 10.4891 25.9264C10.341 25.8671 10.2521 25.8079 10.1928 25.7486C10.0447 25.6301 9.9854 25.6005 9.89651 25.6301C9.83725 25.6597 9.71873 25.6893 9.77799 25.956C9.80762 26.0745 9.86688 26.3116 10.1335 26.519C10.4002 26.7264 10.7854 26.8153 11.2002 26.8745C11.4076 26.9042 11.6447 26.9042 11.8521 26.9338C12.3261 26.9931 12.5039 27.1116 12.6817 27.7634C12.7706 28.0597 12.8002 28.4153 12.7706 28.7708C12.741 28.9486 12.7113 29.1264 12.6521 29.2745C12.5928 29.4523 12.5039 29.4819 12.3261 29.5708C12.2965 29.5708 12.2669 29.6005 12.2076 29.6005C12.1187 29.6005 12.0298 29.6301 11.9113 29.6301C11.6743 29.6301 11.3484 29.5708 10.8743 29.719C10.7558 29.7486 10.6372 29.8079 10.5484 29.8671C10.4595 29.9264 10.3706 29.9856 10.2817 30.0745C10.1039 30.2227 9.95577 30.4301 9.86688 30.6671C9.6891 31.1116 9.6891 31.5264 9.6891 31.8819C9.65947 32.919 9.62984 33.5412 8.44466 33.3338C6.69651 33.0375 7.2891 31.1412 7.2891 30.8153C7.2891 30.7264 7.2891 30.6079 7.25947 30.4893C7.22984 30.3708 7.17058 30.2523 7.11132 30.1338C6.99281 29.956 6.84466 29.8079 6.63725 29.719C6.42984 29.6301 6.25206 29.6005 6.10392 29.6005C5.80762 29.6005 5.57058 29.6301 5.36318 29.6301C5.06688 29.6597 4.74095 29.5412 4.50392 29.3338C4.23725 29.1264 4.05947 28.8301 4.05947 28.5042C4.02984 28.2079 4.14836 27.8819 4.3854 27.6449C4.50392 27.5264 4.62243 27.4671 4.77058 27.4375C4.91873 27.3782 5.12614 27.3782 5.36318 27.3486C6.42984 27.2301 6.96318 26.6968 7.08169 25.8375C7.11132 25.6005 7.11132 25.3634 7.11132 25.156C7.08169 24.7412 7.11132 24.4153 7.20021 24.1486C7.43725 23.6153 8.11873 23.3782 8.62244 23.4375C8.8891 23.4671 9.12614 23.5856 9.27429 23.7338C9.45206 23.8819 9.54095 24.0893 9.60021 24.2968C9.71873 24.7116 9.74836 25.0968 9.83725 25.3338C9.89651 25.5708 9.9854 25.719 10.015 25.6893C10.0447 25.6893 10.0447 25.5412 10.0447 25.3042C10.0447 25.0671 10.0743 24.7116 9.9854 24.2079C9.95577 23.9708 9.83725 23.6745 9.62984 23.4375C9.39281 23.1708 9.09651 23.0227 8.74095 22.9338C8.3854 22.8449 7.97058 22.8745 7.5854 23.0227C7.20021 23.1708 6.81503 23.4375 6.57799 23.8523C6.22243 24.2079 6.22243 24.6819 6.22243 25.0968C6.1928 25.9856 6.07429 26.3412 5.1854 26.3708C4.97799 26.3708 4.74095 26.4005 4.44466 26.4597C4.14836 26.519 3.85206 26.6671 3.64466 26.8745C3.20021 27.2597 2.93355 27.8523 2.96317 28.4745C2.9928 29.0968 3.2891 29.6597 3.73355 30.0449C4.14836 30.4301 4.74095 30.6671 5.36318 30.6671C5.62984 30.6671 5.83725 30.6375 5.9854 30.6375C6.04466 30.6375 6.10392 30.6671 6.10392 30.6671V30.6968C6.10392 30.6671 6.13355 30.8153 6.07429 31.0523C5.89651 32.0005 5.92614 32.8301 6.69651 33.6301C7.11132 34.0745 7.67429 34.3412 8.20762 34.4301C10.2521 34.7856 10.8447 33.6005 10.8743 31.8227C10.8743 31.4968 10.9039 31.2301 10.9632 31.0819C10.9928 31.0227 11.0224 30.9634 11.0817 30.9042C11.1113 30.8745 11.141 30.8449 11.1706 30.8449C11.2002 30.8153 11.2002 30.8153 11.2595 30.8153C11.378 30.7856 11.6447 30.7856 11.941 30.7856C13.1854 30.756 13.8076 30.1042 13.8965 28.8893C13.9558 27.5264 13.4521 26.0449 11.941 25.9856Z" fill="white"/>
<path d="M28.7105 27.7042C28.6216 27.7042 28.592 28.0894 28.2957 28.5635C27.4068 30.1042 25.4808 29.8079 25.0957 28.2672C24.6808 26.7561 26.1031 25.3635 27.4364 26.1931C27.8809 26.4894 28.0883 26.8746 28.2068 27.1116C28.3253 27.3487 28.3846 27.5264 28.4734 27.5857C28.5623 27.7042 28.6216 27.7042 28.7105 27.7042C28.7994 27.7042 28.8586 27.7042 28.9475 27.5857C29.0068 27.4968 29.0957 27.2894 29.0364 26.9042C29.0068 26.7264 28.9475 26.4598 28.7994 26.1931C28.6512 25.9264 28.4438 25.6005 28.0883 25.3042C26.5771 24.119 24.3845 25.0376 23.9697 26.9338C23.8512 27.4672 23.8512 28.0301 24.0586 28.5931C24.2364 29.1561 24.6216 29.6598 25.0957 30.0153C26.4883 30.9635 28.2957 30.282 28.7401 28.7412C28.9179 28.0894 28.7994 27.7042 28.7105 27.7042Z" fill="white"/>
<path d="M29.5997 25.4525C30.5775 26.134 31.8516 25.9858 32.6516 25.1858C32.9775 24.8599 33.1553 24.4747 33.2442 24.1488C33.4219 23.4969 33.2738 23.0821 33.2145 23.1117C33.1257 23.1117 33.096 23.4969 32.7997 23.971C32.6516 24.208 32.4738 24.4747 32.1775 24.6525C31.5553 25.0969 30.7849 25.0969 30.1627 24.6228C28.9182 23.5562 29.5701 21.4228 31.0516 21.3636C31.4071 21.3636 31.6738 21.4525 31.9108 21.6006C32.3553 21.8969 32.5627 22.2821 32.6812 22.5191C32.7997 22.7562 32.859 22.934 32.9479 22.9932C33.0368 23.0821 33.096 23.0821 33.1849 23.0821C33.2738 23.0821 33.3331 23.0821 33.422 22.9636C33.4812 22.8747 33.5701 22.6673 33.5108 22.2821C33.4812 22.1043 33.422 21.8377 33.2738 21.571C33.1257 21.3043 32.9182 20.9784 32.5627 20.6821C32.2071 20.4154 31.6738 20.1488 31.0219 20.1488C29.2145 20.1191 27.8516 22.0747 28.5034 23.971C28.7405 24.5932 29.096 25.0969 29.5997 25.4525Z" fill="white"/>
<path d="M33.5412 25.4226C33.2153 25.7485 33.0375 26.1337 32.9487 26.4596C32.7709 27.1115 32.919 27.5263 32.9783 27.4967C33.0672 27.4967 33.0968 27.1115 33.3931 26.6374C34.282 25.0967 36.2079 25.3633 36.5931 26.9337C36.682 27.2893 36.682 27.6744 36.5931 27.9707C36.2375 29.3337 34.4894 29.9263 33.482 28.0596C33.3635 27.8226 33.3042 27.6448 33.2153 27.5856C33.1264 27.4967 33.0672 27.4967 32.9783 27.4967C32.8894 27.4967 32.8301 27.4967 32.7412 27.6152C32.682 27.7041 32.5931 27.9115 32.6524 28.2967C32.682 28.4744 32.7412 28.7411 32.8894 29.0078C33.0375 29.2744 33.2449 29.6004 33.6005 29.8967C35.1412 31.0819 37.3042 30.1633 37.719 28.267C37.8376 27.7337 37.8375 27.1707 37.6301 26.6078C37.0079 24.7115 34.8153 24.1189 33.5412 25.4226Z" fill="white"/>
<path d="M32.3851 29.7486C31.8814 29.3931 31.2592 29.2449 30.6962 29.3338C30.1332 29.3931 29.6592 29.6893 29.3332 30.0153C29.0073 30.3412 28.8295 30.7264 28.7406 31.0523C28.5629 31.7042 28.711 32.119 28.7703 32.0893C28.8592 32.0893 28.8888 31.7042 29.1851 31.2301C29.3332 30.9931 29.511 30.7264 29.8073 30.5486C30.074 30.3412 30.4295 30.2227 30.7851 30.2227C31.1406 30.2227 31.5258 30.3412 31.7925 30.5782C33.8073 32.2968 30.8444 35.6153 29.274 32.6819C29.1555 32.4449 29.0962 32.2671 29.0073 32.2079C28.9184 32.119 28.8592 32.119 28.7703 32.119C28.6814 32.119 28.6221 32.119 28.5332 32.2375C28.474 32.3264 28.3851 32.5338 28.4443 32.919C28.474 33.0968 28.5332 33.3634 28.6814 33.6301C30.7555 37.719 36.0888 32.3264 32.3851 29.7486Z" fill="white"/>
</svg>
