<svg width="40" height="40" viewBox="0 0 40 40" fill="none" xmlns="http://www.w3.org/2000/svg">
<path d="M1.58398 32.0002C1.58398 32.2266 1.58398 32.5285 1.65946 32.7549C1.88587 33.8115 2.48964 34.7172 3.31983 35.321C3.92361 35.7738 4.67832 36.0002 5.50851 36.0002H6.18776L8.90474 35.9247C14.867 35.6983 16.6029 35.6983 19.6972 35.5474C16.6029 35.3964 14.7161 35.321 8.90474 35.17L6.18776 35.0945H5.50851C5.2821 35.0945 5.13115 35.0191 4.90474 35.0191C4.52738 34.9436 4.15002 34.7927 3.84814 34.5662C3.24436 34.1134 2.79153 33.4342 2.71606 32.6794C2.71606 32.5285 2.71606 32.3021 2.71606 32.0757C2.71606 32.0002 2.71606 30.5662 2.71606 30.7172H3.47078C3.54625 30.7927 3.69719 30.7927 3.77266 30.7927C19.8481 30.7927 16.9047 30.8681 35.3953 30.7172H35.5463H36.4519C36.4519 30.8681 36.4519 32.1511 36.4519 32.0757C36.4519 32.3021 36.4519 32.453 36.3764 32.604C36.2255 33.3587 35.8481 34.0379 35.2444 34.4908C34.9425 34.7172 34.5651 34.8681 34.1878 34.9436C34.0368 35.0191 33.8104 35.0191 33.584 35.0191H32.9047L30.1878 35.0945L24.8293 35.2455C23.018 35.321 21.2066 35.3964 19.4708 35.4719C21.2821 35.5474 23.0934 35.6228 24.8293 35.6983L30.1878 35.8493L32.9047 35.9247H33.584C34.4142 35.9247 35.1689 35.6983 35.7727 35.2455C36.6029 34.6417 37.2821 33.7361 37.433 32.6794C37.5085 32.453 37.5085 32.1511 37.5085 31.9247C37.5085 31.6228 37.584 29.8115 37.5085 29.887C37.5085 29.5851 37.2066 29.2832 36.9047 29.2832H35.9236C35.9236 27.7738 35.9236 26.3398 35.8481 24.8304C36.6029 25.1323 37.2821 25.3587 38.1123 25.4342C37.5085 24.7549 36.8293 24.1511 36.15 23.6228C36.0746 23.5474 35.9236 23.4719 35.8481 23.3964C35.7727 19.3964 35.7727 15.4719 35.6972 11.4719L35.6217 9.20775V8.07567V7.4719C35.6217 7.24549 35.6217 7.01907 35.5463 6.86813C35.3953 6.03794 34.867 5.28322 34.1878 4.75492C33.5085 4.22662 32.6029 4.0002 31.8481 4.07567C28.7538 4.15115 25.7349 4.22662 22.6406 4.30209C25.7349 4.37756 28.7538 4.45303 31.8481 4.5285C33.2821 4.45303 34.6406 5.50964 34.7915 6.86813C34.7915 7.01907 34.7915 7.17001 34.867 7.39643V8.0002V9.13228L34.7915 11.3964C34.7161 15.0945 34.7161 18.7927 34.6406 22.4908C34.4142 22.3398 34.2632 22.2644 34.0368 22.1134C33.3576 21.7361 32.6029 21.3587 31.8481 21.0568V19.9247C31.7727 17.887 31.6972 15.8493 31.6217 13.7361C31.5463 15.7738 31.4708 17.8115 31.3953 19.9247V20.9059C30.9425 20.8304 30.1878 20.604 29.433 20.5285C30.0368 21.2078 30.7161 21.8115 31.3953 22.2644L31.5463 22.4153L31.4708 25.887C27.5463 25.8115 23.6217 25.7361 19.6972 25.6606C15.9236 25.6606 12.0746 25.5851 8.30097 25.5851V17.2077V8.83039C12.15 8.83039 15.9236 8.75492 19.7727 8.67945L25.8104 8.5285C27.7727 8.45303 29.7349 8.37756 31.6972 8.37756C31.7727 10.2644 31.8481 12.1511 31.9236 13.9625C31.9991 12.0002 32.0746 10.0379 32.15 8.15115C32.15 8.0002 32.0746 7.92473 31.9236 7.92473C29.8859 7.84926 27.8481 7.77379 25.8859 7.77379L19.8481 7.62284C15.6217 7.4719 11.6217 7.4719 7.54625 7.39643C7.16889 7.39643 6.867 7.69832 6.867 8.07567L6.79153 17.2077V26.2644C6.79153 26.6417 7.09342 27.0191 7.54625 27.0191C11.6217 27.0191 15.6217 26.9436 19.6972 26.9436C23.7727 26.8681 27.7727 26.7927 31.8481 26.7172C32.0746 26.7172 32.2255 26.5662 32.2255 26.3398L32.15 22.8681C32.6029 23.17 33.0557 23.4719 33.584 23.7738C34.0368 24.0002 34.4896 24.2266 34.9425 24.453C34.9425 26.1134 34.9425 27.7738 34.867 29.3587C24.6783 29.2832 14.1123 29.2832 4.60285 29.2832C4.52738 22.2644 4.45191 15.321 4.37644 8.37756V7.69832C4.37644 7.4719 4.37644 7.32096 4.37644 7.09454C4.45191 6.71718 4.60285 6.33983 4.82927 6.03794C5.2821 5.43416 5.96134 4.98133 6.79153 4.90586L12.15 4.75492C15.7727 4.67945 19.3198 4.60398 22.9425 4.45303C19.3198 4.30209 15.7727 4.22662 12.15 4.15115C10.3387 4.07567 8.60285 4.07567 6.71606 4.07567C5.65946 4.15115 4.67832 4.67945 4.07455 5.50964C3.77266 5.887 3.54625 6.4153 3.47078 6.9436C3.39531 7.17001 3.39531 7.4719 3.39531 7.69832V8.37756C3.31983 15.3964 3.24436 22.3398 3.16889 29.3587C3.09342 29.3587 2.11229 29.3587 2.18776 29.3587C1.88587 29.3587 1.58398 29.6606 1.58398 29.9625V31.321V32.0002Z" fill="white"/>
<path d="M18.1891 32.1513C17.6608 32.3022 17.208 32.4531 16.6797 32.755C17.208 33.0569 17.6608 33.2079 18.1891 33.3588C19.0948 33.5852 20.1514 33.5852 21.1325 33.3588C21.6608 33.2079 22.1136 33.0569 22.6419 32.755C22.1136 32.4531 21.6608 32.3022 21.1325 32.1513C20.1514 31.9248 19.1703 31.9248 18.1891 32.1513Z" fill="white"/>
<path d="M30.3398 15.6228C29.9624 13.8869 28.8304 12.3775 27.2455 11.3964C25.736 10.4152 23.7738 10.1888 21.9624 10.6417C20.1511 11.0945 18.6417 12.3775 17.736 13.9624C16.8304 15.5473 16.6039 17.5851 17.1322 19.3209C17.6605 21.0567 18.9436 22.6417 20.5285 23.3964C22.1134 24.2266 24.0756 24.3775 25.736 23.7737C27.3964 23.2454 28.7549 21.9624 29.4341 20.453C28.453 21.8115 27.0945 22.7926 25.5096 23.0945C24.0002 23.4718 22.4153 23.17 21.1322 22.3398C19.8492 21.585 18.8681 20.302 18.5662 18.8681C18.1888 17.4341 18.3398 15.9247 19.0945 14.6417C19.7738 13.3586 20.9813 12.3775 22.4153 12.0002C23.8492 11.5473 25.3587 11.6983 26.7172 12.3775C28.0756 13.0568 29.1322 14.2643 29.6605 15.7737C30.1888 17.2077 30.1134 18.9435 29.4341 20.453C30.4153 19.17 30.7171 17.2832 30.3398 15.6228Z" fill="white"/>
</svg>
