<svg width="40" height="40" viewBox="0 0 40 40" fill="none" xmlns="http://www.w3.org/2000/svg">
<path d="M6.26432 20.1508C4.22659 21.8112 1.73602 24.6037 2.64168 27.0187C3.9247 30.3395 10.2643 29.8867 13.736 29.2829C14.3398 31.9244 15.3964 35.4716 17.3587 37.4338C18.0379 38.1131 18.9436 38.7169 20.0002 38.7169C23.5473 38.6414 25.2832 32.6791 25.887 29.2074C29.4341 29.8867 36.0756 30.415 37.3587 27.0187C38.3398 24.6037 35.7738 21.8112 33.736 20.1508C35.7738 18.3395 38.4153 15.3961 37.3587 12.9055C35.9247 9.58478 29.5096 10.3395 25.9624 11.1697C25.3587 7.62252 23.6228 1.28289 20.0756 1.28289C16.453 1.20742 14.4907 7.54705 13.736 11.0942C10.3398 10.3395 4.15112 9.73573 2.71715 12.9055C1.58508 15.4716 4.22659 18.415 6.26432 20.1508ZM14.6417 25.4338C15.6228 25.8867 16.6794 26.415 17.736 26.7923C16.8304 27.0942 15.8492 27.3206 14.9436 27.547C14.7926 26.8678 14.7172 26.1886 14.6417 25.4338ZM20.0002 37.5093C17.5096 37.5093 15.9247 32.4527 15.3964 29.8867C15.3209 29.5848 15.2455 29.2829 15.2455 28.981C16.9058 28.6037 18.4907 28.1508 20.0756 27.6225C21.8115 28.2263 23.5473 28.6791 25.2832 29.0565C24.5285 31.8489 22.6417 37.6603 20.0002 37.5093ZM25.5096 27.6225C24.453 27.3961 23.3209 27.0942 22.2643 26.7923C23.4719 26.3395 24.7549 25.7357 25.9624 25.132C25.8115 25.9621 25.6606 26.7923 25.5096 27.6225ZM36.2266 26.5659C35.17 29.132 28.7549 28.3018 26.1134 27.698C26.2643 26.7923 26.3398 25.8112 26.4153 24.9055C29.4341 23.3961 31.4719 21.9621 33.0568 20.6791C34.4907 22.0376 37.0568 24.8301 36.2266 26.5659ZM36.2266 13.4338C36.9813 15.3206 34.1889 18.0376 32.604 19.3206C30.7172 17.9621 28.453 16.6791 26.4153 15.698C26.3398 14.415 26.1889 13.132 26.0379 11.8489C28.7549 11.3961 35.3209 10.7923 36.2266 13.4338ZM20.0002 2.49044C22.7172 2.41497 24.6794 8.67912 25.2832 11.3961C23.4719 11.8489 21.736 12.3772 20.0002 13.0565C18.4153 12.4527 16.7549 11.9244 15.0945 11.4716C15.6228 8.67912 17.2832 2.49044 20.0002 2.49044ZM14.4907 15.6225C15.4719 15.0942 16.5285 14.5659 17.5096 14.1131C16.453 14.4904 15.4719 14.8678 14.4907 15.3206C14.5662 14.1886 14.7172 13.132 14.9436 12.0753C16.5285 12.3772 18.0379 12.7546 19.6228 13.2074C18.9436 13.5093 18.1889 13.8112 17.5096 14.1131C18.3398 13.8112 19.0945 13.5848 19.9247 13.2829C20.7549 13.5093 21.5096 13.8112 22.3398 14.1131C21.6606 13.8112 20.9813 13.5093 20.2266 13.2074C21.887 12.6791 23.6228 12.3018 25.3587 11.9999C25.5851 13.2074 25.8115 14.415 25.9624 15.6225C24.7549 15.0942 23.5473 14.5659 22.3398 14.1131C23.5473 14.7169 24.8304 15.3206 26.0379 15.9999C26.1889 17.3584 26.3398 18.7169 26.3398 20.0753C26.4153 18.7923 26.4153 17.4338 26.3398 16.1508C28.7549 17.5093 30.4153 18.6414 31.9247 19.8489C30.2643 21.132 28.3021 22.3395 26.4153 23.3206C26.4153 22.264 26.4153 21.132 26.4153 20.0753C26.3398 21.2074 26.2643 22.3395 26.1889 23.4716C24.0756 24.5282 22.1889 25.3584 20.0002 26.1131C17.9624 25.3584 16.453 24.7546 14.4907 23.7735C14.2643 20.981 14.2643 18.4904 14.4907 15.6225ZM3.77376 26.5659C2.94357 24.7546 5.50961 22.0376 6.94357 20.6791C8.453 21.8867 10.2643 23.1697 13.0568 24.6036C13.1322 25.6603 13.2832 26.7169 13.5096 27.7735C10.8681 28.3772 4.83036 29.0565 3.77376 26.5659ZM12.9058 22.9433C11.17 22.0376 9.50961 20.981 8.00017 19.8489C9.35866 18.7169 10.8681 17.6603 12.9058 16.4527C12.7549 18.9433 12.8304 20.8301 12.9058 22.9433ZM3.77376 13.4338C4.67942 10.8678 10.8681 11.3961 13.5851 11.7735C13.3587 13.132 13.1322 14.5659 13.0568 15.9999C11.17 16.9055 9.13225 18.1131 7.47187 19.3206C5.81149 17.9621 3.01904 15.3206 3.77376 13.4338Z" fill="white"/>
<path d="M20.0001 23.6981C22.3397 23.6981 24.0755 21.7358 23.9246 19.6226C23.8491 17.5094 21.8869 15.9245 20.0001 16.3019C21.8114 16.6792 22.868 18.1132 22.7171 19.6226C22.6416 21.0566 21.3586 22.2641 20.0001 22.1887C18.6416 22.2641 17.3586 21.0566 17.2831 19.6226C17.1322 18.1887 18.2642 16.6038 20.0001 16.3019C18.1133 15.9245 16.151 17.5094 16.0755 19.6226C15.9246 21.6604 17.6605 23.6981 20.0001 23.6981Z" fill="white"/>
</svg>
