<svg width="40" height="40" viewBox="0 0 40 40" fill="none" xmlns="http://www.w3.org/2000/svg">
<path d="M34.6154 3.76949C34.3846 3.38488 34.2308 3.07719 34 2.76949C33.7692 2.4618 33.3846 2.15411 33.0769 2.00026C32.3846 1.84642 31.8462 1.92334 31.3846 1.92334C30.8462 1.92334 30.5385 1.92334 30.3077 2.00026C30.1538 1.84642 29.9231 1.69257 29.7692 1.69257C29.2308 1.53872 28.8462 1.53872 28.4615 1.53872C26.3846 1.38488 24.1538 1.38488 21.9231 1.53872C21.6154 1.53872 21.2308 1.61565 20.9231 1.61565C20.6154 1.61565 20.0769 1.76949 19.8462 2.07719C19.5385 2.38488 19.3846 2.61565 19.2308 2.92334C18.4615 4.15411 15.9231 8.23103 15.3077 9.53872C14.6923 9.30796 14 9.07719 13.3077 8.92334C11.6154 8.61565 9.76923 8.61565 7.92308 9.30796C7 9.61565 6.15385 10.0772 5.30769 10.6156C4.46154 11.1541 3.69231 11.9233 3.07692 12.7695C1.76923 14.3849 1 16.5387 1 18.7695C1 21.0003 1.76923 23.1541 3.07692 24.8464C3.69231 25.6926 4.46154 26.3849 5.30769 27.0003C6.15385 27.6157 7 28.0003 7.92308 28.308C9.76923 28.9233 11.6154 29.0003 13.3077 28.6926C13.3846 28.6926 13.5385 28.6157 13.6154 28.6157C14.4615 29.308 13.8462 28.7695 14.9231 29.6926C15.1538 29.9233 15.4615 30.0772 15.6923 30.231C16.2308 30.5387 16.6923 30.7695 16.9231 31.1541C17.0769 31.308 17.0769 31.4618 17.0769 31.6926C17.0769 31.8464 17 32.0003 16.9231 32.231C16.7692 32.5387 16.6154 32.8464 16.4615 33.0772C16.2308 33.5387 16.1538 33.7695 16.1538 33.7695C16.1538 33.7695 16.3077 33.5387 16.6154 33.1541C16.7692 32.9233 16.9231 32.6926 17.1538 32.3849C17.2308 32.231 17.3846 32.0003 17.3846 31.7695C17.3846 31.5387 17.3077 31.231 17.2308 31.0003C16.9231 30.5387 16.4615 30.231 15.9231 29.9233C15.4615 29.6157 15 29.1541 14.5385 28.6926C14 28.231 13.4615 27.7695 12.9231 27.231C12.7692 27.0772 12.6154 27.0003 12.4615 26.8464C12.3077 26.6926 12.1538 26.5387 12.1538 26.5387C12.1538 26.4618 12.1538 26.3849 12.2308 26.3849C12.3077 26.308 12.4615 26.231 12.6154 26.1541C12.9231 26.0772 13.3846 26.0772 13.8462 26.0003H15.1538C16.0769 26.0772 17.0769 26.308 18.2308 25.9233C18.5385 25.8464 18.7692 25.6926 19.0769 25.4618C19.3077 25.231 19.5385 25.0003 19.6154 24.7695C19.9231 24.231 20.0769 23.7695 20.3077 23.231C20.6923 22.1541 20.8462 21.0003 21.2308 20.0772C21.4615 19.6157 21.6923 19.4618 22 19.5387C22.1538 19.6156 22.3846 19.6926 22.5385 19.8464L22.7692 20.0772C22.7692 20.1541 22.8462 20.1541 22.8462 20.231L22.9231 20.3849C23.3846 21.3849 23.5385 22.6157 23.9231 23.8464C24 24.1541 24.0769 24.4618 24.3077 24.8464C24.4615 25.231 24.8462 25.5387 25.1538 25.6926C25.8462 26.0772 26.6154 26.1541 27.2308 26.1541H29.2308C29.8462 26.1541 30.5385 26.0772 31.1538 26.0772C31.4615 26.0772 31.7692 26.0772 32 26.1541C32.2308 26.231 32.5385 26.3849 32.5385 26.4618C32.5385 26.5387 32.4615 26.6157 32.3846 26.6926C32.2308 26.8464 32 27.0772 31.7692 27.231C30.8462 28.0003 29.6154 28.308 28.4615 29.0772C28.3077 29.231 28.0769 29.3849 27.9231 29.5387C27.6923 29.308 27.3077 29.231 26.9231 29.231C26.3077 29.231 25.7692 29.4618 25.7692 29.7695C25.7692 30.0772 26.3077 30.3849 26.9231 30.308C27.0769 30.308 27.1538 30.308 27.3077 30.231C27.2308 30.3849 27.1538 30.4618 27.1538 30.6157C27.0769 30.8464 27.0769 31.0772 27 31.3849C26.7692 31.308 26.5385 31.308 26.3077 31.3849C25.6923 31.4618 25.2308 31.7695 25.2308 32.0772C25.2308 32.3849 25.7692 32.5387 26.3846 32.4618C26.6154 32.4618 26.8462 32.3849 27 32.308C27 32.4618 27.0769 32.6157 27.0769 32.7695C27.1538 32.9233 27.2308 33.1541 27.2308 33.308C27.1538 33.308 27.0769 33.231 27 33.308C26.7692 33.3849 26.5385 33.5387 26.4615 33.8464C26.3846 34.1541 26.6923 34.4618 27.1538 34.3849C27.3077 34.3849 27.4615 34.231 27.5385 34.1541C27.6154 34.308 27.6923 34.4618 27.7692 34.5387C28.0769 35.0772 28.3077 35.5387 28.5385 36.0003C28.7692 36.4618 28.8462 37.0003 28.7692 37.308C28.7692 37.3849 28.6923 37.4618 28.6923 37.5387C28.6923 37.5387 28.6923 37.6157 28.6154 37.6157C28.4615 37.6926 28.3077 37.6926 28.0769 37.6157C27.1538 37.4618 26.3077 36.8464 25.5385 36.231C24.7692 35.6157 24 34.9233 23.1538 34.3849C22.9231 34.231 22.7692 34.1541 22.4615 34.0003C22.2308 33.9233 21.9231 33.8464 21.5385 33.9233C21.2308 34.0003 21 34.231 20.7692 34.3849C19.9231 35.1541 20.7692 34.3849 18.4615 36.4618C17.8462 37.0003 17.3846 37.5387 16.8462 37.7695C16.3077 38.0003 15.6923 38.0003 15.3846 37.6926C15.0769 37.3849 15.0769 36.8464 15.1538 36.3849C15.7692 34.6157 16.1538 33.5387 16.0769 33.5387C16.0769 33.5387 15.9231 33.7695 15.6923 34.231C15.4615 34.6926 15.0769 35.308 14.7692 36.308C14.6923 36.5387 14.6154 36.8464 14.6154 37.1541C14.6154 37.4618 14.7692 37.8464 15 38.0772C15.5385 38.6157 16.3846 38.6926 17.0769 38.3849C17.7692 38.0772 18.3846 37.5387 18.9231 37.0772L20.7692 35.4618C21.0769 35.231 21.4615 34.8464 21.6923 34.7695C21.8462 34.6926 22.3077 34.9233 22.6923 35.1541C23.4615 35.6157 24.1538 36.308 24.9231 37.0003C25.6923 37.6926 26.6154 38.3849 27.8462 38.6157C28.1538 38.6926 28.5385 38.6926 28.9231 38.5387C29.1538 38.4618 29.3077 38.308 29.4615 38.0772C29.5385 37.9233 29.6923 37.7695 29.6923 37.5387C29.8462 36.7695 29.6923 36.1541 29.4615 35.5387C29.2308 35.0003 28.9231 34.4618 28.6923 33.9233C28.3846 33.4618 28.2308 32.9233 28.0769 32.3849C27.9231 31.8464 27.9231 31.308 28.0769 30.9233C28.2308 30.4618 28.5385 30.0772 29 29.7695C29.9231 29.1541 31.1538 28.7695 32.3077 27.9233C32.6154 27.6926 32.8462 27.4618 33.0769 27.1541C33.2308 27.0003 33.3077 26.7695 33.3846 26.5387C33.4615 26.308 33.4615 25.9233 33.2308 25.6156C32.8462 25.0772 32.4615 25.0003 32.0769 24.8464C31.6923 24.6926 31.3077 24.6926 30.9231 24.6926C30.2308 24.6926 29.6154 24.6926 28.9231 24.7695C28.3077 24.7695 27.6154 24.8464 27 24.8464C26.3846 24.8464 25.8462 24.7695 25.3846 24.5387C25.0769 24.3849 24.9231 24.0772 24.7692 23.6926C25.5385 23.8464 27.1538 23.9233 29.3846 23.7695C30.2308 23.6926 31 23.6157 32 23.4618C32.5385 23.3849 33.0769 23.0772 33.4615 22.6926C33.9231 22.308 34.2308 21.8464 34.4615 21.308C36 18.308 37.3077 15.6926 38.3846 13.6156C38.5385 13.308 38.6923 13.0003 38.6923 12.6156C38.7692 12.1541 38.6154 11.7695 38.4615 11.5387C37.4615 9.23103 36.2308 6.84642 34.6154 3.76949ZM36.6154 15.3849C36.3077 15.231 35.9231 15.0772 35.4615 14.9233C34.9231 14.7695 34.4615 14.6926 34.1538 14.6926C34.2308 14.5387 34.7692 13.5387 35 13.1541C35.0769 13.0772 35.1538 12.9233 35.1538 12.7695C35.7692 13.1541 36.9231 13.308 37.6923 13.231C37.3846 13.7695 37 14.6926 36.6154 15.3849ZM34.3077 17.1541C33.9231 17.0003 33.4615 16.8464 33.1538 16.8464C33.0769 16.8464 33.0769 16.8464 33 16.8464C33.3077 16.308 33.3077 16.3849 33.7692 15.3849C33.7692 15.3849 33.7692 15.3849 33.8462 15.4618C34.1538 15.6926 34.6154 15.9233 35.1538 16.0772C35.5385 16.231 35.9231 16.308 36.2308 16.308C36 16.8464 35.6923 17.3849 35.4615 17.9233C35.1538 17.6156 34.7692 17.308 34.3077 17.1541ZM37.9231 12.5387C37.3077 12.1541 36.2308 12.0003 35.4615 12.0772C35.4615 12.0003 35.5385 11.9233 35.5385 11.8464C35.5385 11.4618 35.4615 11.1541 35.3077 10.9233C36 11.1541 36.8462 11.1541 37.2308 11.0003C37.3846 11.3849 37.6154 11.6926 37.7692 12.0772C37.8462 12.308 37.9231 12.4618 37.9231 12.5387ZM36.8462 10.1541C36.6154 10.0772 36.3846 10.0003 36.1538 10.0003C35.6154 9.92334 35.1538 9.92334 34.8462 10.0003C34.3846 9.07719 34.3846 9.15411 34.0769 8.53872C34.2308 8.53872 34.3846 8.61565 34.5385 8.61565C35.1538 8.61565 35.6923 8.53872 36 8.30796C36.1538 8.61565 36.2308 8.84642 36.3846 9.15411C36.4615 9.4618 36.6923 9.84642 36.8462 10.1541ZM35.0769 6.61565C35.2308 7.00026 35.3846 7.30796 35.6154 7.69257C35.0769 7.53872 34.0769 7.4618 33.4615 7.53873C33.3846 7.38488 33.3077 7.23103 33.2308 7.07719C33.1538 6.92334 33.0769 6.84642 33 6.69257C33.2308 6.76949 33.6154 6.84642 33.9231 6.76949C34.3846 6.76949 34.6923 6.69257 35 6.61565H35.0769ZM34.6923 5.76949C34.4615 5.69257 34.1538 5.69257 33.9231 5.69257C33.5385 5.69257 33.1538 5.76949 32.9231 5.76949C32.8462 5.76949 32.6923 5.84642 32.6154 5.84642C32.3846 5.4618 32.1538 5.00026 31.9231 4.61565C32.0769 4.69257 32.3077 4.69257 32.5385 4.69257C33.2308 4.76949 33.8462 4.69257 34.1538 4.53872C34.3077 5.00026 34.4615 5.38488 34.6923 5.76949ZM32.8462 2.61565C33.3077 2.76949 33.4615 3.30796 33.7692 3.92334C33.0769 3.69257 32 3.61565 31.3846 3.69257C31.2308 3.38488 31 3.00026 30.8462 2.69257C30.7692 2.53872 30.6154 2.38488 30.5385 2.23103C30.7692 2.30796 31 2.30796 31.3846 2.38488C31.7692 2.4618 32.3846 2.4618 32.8462 2.61565ZM20.3077 19.3849C19.8462 20.5387 19.6923 21.6156 19.3846 22.6156C19.0769 23.6156 18.6923 24.5387 17.9231 24.7695C17.1538 25.0772 16.1538 24.9233 15.1538 24.8464C14.6923 24.8464 14.1538 24.8464 13.6923 24.8464C13.2308 24.9233 12.7692 24.9233 12.3077 25.0772C12.0769 25.1541 11.8462 25.231 11.6154 25.5387C11.3846 25.7695 11.3077 26.1541 11.4615 26.4618C11.6154 26.7695 11.8462 26.9233 12 27.0003C12.3077 27.231 12.3846 27.308 12.6154 27.5387C11.2308 27.6926 9.69231 27.6157 8.15385 27.0772C7.30769 26.7695 6.53846 26.3849 5.84615 25.8464C5.07692 25.308 4.46154 24.6926 3.84615 23.9233C2.69231 22.4618 2.07692 20.5387 2 18.5387C2 16.5387 2.69231 14.6156 3.84615 13.1541C4.38462 12.3849 5.07692 11.7695 5.84615 11.231C6.53846 10.6926 7.38462 10.308 8.15385 10.0003C9.76923 9.38488 11.4615 9.30796 13 9.53872C14.5385 9.76949 15.8462 10.3849 16.9231 11.1541C19.0769 12.6926 20.1538 14.7695 20.5385 16.1541C20.8462 17.231 20.9231 17.9233 21 18.308C21 18.308 20.9231 18.308 20.9231 18.3849C20.6923 18.7695 20.4615 19.1541 20.3077 19.3849ZM22.2308 18.308C21.9231 18.231 21.5385 18.231 21.2308 18.3849C21.2308 18.308 21.2308 18.1541 21.2308 18.0003C21.2308 17.7695 21.2308 17.5387 21.2308 17.231C21.2308 16.9233 21.1538 16.5387 21.0769 16.231C20.7692 14.6926 19.7692 12.4618 17.4615 10.6926C16.9231 10.231 16.1538 9.84642 15.3846 9.4618C16.3846 8.30796 19 4.4618 19.8462 3.23103C20 3.00026 20.1538 2.76949 20.3077 2.61565C20.4615 2.4618 20.6154 2.4618 20.9231 2.38488H21.8462C24.0769 2.30796 26.2308 2.38488 28.3077 2.53872C28.6923 2.53872 29.0769 2.61565 29.3077 2.69257C29.5385 2.76949 29.6923 2.92334 29.8462 3.23103C32 7.23103 32.3846 8.00026 34 10.9233C34.2308 11.308 34.3846 11.6156 34.3846 11.7695C34.3846 11.9233 34.2308 12.308 34 12.6156C32.3846 15.6926 32.5385 15.3849 30.4615 19.3849C30.1538 20.0003 29.9231 20.4618 29.4615 20.6926C29.0769 20.9233 28.4615 21.0003 27.9231 21.0003C26.5385 21.0772 25.3077 21.1541 24.3077 21.231C24.1538 20.6926 24 20.231 23.7692 19.6926C23.6154 19.1541 23.0769 18.5387 22.2308 18.308ZM24.9231 23.3849C24.7692 22.9233 24.6923 22.3849 24.5385 21.9233H25.5385C25.5385 22.1541 25.6154 22.5387 25.8462 22.9233C25.9231 23.1541 26.0769 23.308 26.2308 23.4618C25.6923 23.4618 25.3077 23.5387 25.0769 23.5387C24.9231 23.4618 24.9231 23.3849 24.9231 23.3849ZM27 23.308C27 22.9233 26.8462 22.308 26.3846 21.8464H28C28 22.0772 28.0769 22.4618 28.3846 22.8464C28.4615 22.9233 28.5385 23.0772 28.6154 23.1541C28 23.231 27.4615 23.308 27 23.308ZM29.6154 23.0772C29.5385 22.6926 29.3077 22.1541 28.9231 21.8464C29.2308 21.7695 29.6154 21.6926 30 21.5387C30.0769 21.4618 30.1538 21.4618 30.2308 21.3849C30.4615 21.6926 30.8462 22.0003 31.3077 22.3849C31.5385 22.5387 31.7692 22.6926 32 22.7695C31.1538 22.8464 30.3846 23.0003 29.6154 23.0772ZM32.9231 22.231C32.4615 21.6156 31.4615 21.0003 30.7692 20.8464C31.0769 20.4618 31.3077 20.0772 31.6154 19.4618C32.1538 20.0772 33.3077 20.6926 34.0769 20.6926C34 20.7695 34 20.8464 33.9231 20.9233C33.6154 21.5387 33.3077 21.9233 32.9231 22.231ZM34.3077 20.0772C33.8462 19.5387 32.6154 18.9233 31.9231 18.8464C32.2308 18.3849 32.4615 17.8464 32.7692 17.308C32.7692 17.3849 32.8462 17.3849 32.9231 17.4618C33.4615 17.9233 34.4615 18.3849 35.2308 18.4618C34.8462 19.0003 34.5385 19.5387 34.3077 20.0772Z" fill="white"/>
<path d="M6.69336 12.8463C6.07797 13.154 5.30874 13.6924 4.61644 14.6155C3.92413 15.5386 3.69336 16.5386 3.69336 17.2309C3.69336 18.0001 4.00105 18.3847 4.07797 18.3078C4.23182 18.3078 4.30874 17.8463 4.46259 17.3078C4.61644 16.6924 4.92413 16.0001 5.46259 15.2309C6.53951 13.7693 8.00105 12.9232 7.77028 12.6155C7.77028 12.4617 7.38567 12.5386 6.69336 12.8463Z" fill="white"/>
</svg>
