<svg width="40" height="40" viewBox="0 0 40 40" fill="none" xmlns="http://www.w3.org/2000/svg">
<path d="M33.0868 32.5441C32.3212 32.5629 31.5429 32.499 30.7675 32.5535C26.4965 32.8033 23.3034 32.7492 23.2891 32.9914C23.2799 33.1379 24.6465 33.3757 26.8797 33.5019C27.9958 33.5642 29.328 33.5947 30.8069 33.5642C31.5005 33.5391 32.2635 33.6228 33.0972 33.6194C33.5146 33.6161 33.9432 33.6074 34.4167 33.5139C34.8775 33.4166 35.5031 33.1969 35.8144 32.5467C36.0824 31.8845 35.917 31.4038 35.898 31.0214C35.861 30.688 35.866 30.6102 35.8597 29.8593C35.8319 27.8563 35.813 25.9494 35.71 23.6499C35.4962 18.8581 35.1484 18.8493 34.9339 23.6499C34.8375 25.8089 34.7977 28.2644 34.7795 30.4644C34.7769 30.6751 34.7892 30.9249 34.8118 31.1341C34.8616 31.56 34.8997 31.9536 34.8178 32.0866C34.7051 32.4258 33.8371 32.543 33.0868 32.5441Z" fill="white"/>
<path d="M7.05304 13.5251C7.0583 13.8305 7.04609 14.1595 7.20591 14.5423C7.27671 14.7256 7.41024 14.9367 7.61945 15.0816C7.82359 15.2375 8.07862 15.2935 8.31056 15.3108C8.7686 15.3164 9.15115 15.177 9.51642 15.0204C10.2432 14.694 10.8981 14.2354 11.546 13.7257C12.2046 13.2202 12.8957 12.6891 13.6124 12.1388C13.9617 11.8597 14.2779 11.6092 14.6689 11.2824C14.8565 11.1153 15.0505 10.9369 15.2333 10.6864C15.4083 10.4554 15.6072 10.0302 15.4868 9.57795C15.366 9.13775 15.092 8.90563 14.8701 8.73248C14.6113 8.53566 14.4836 8.46805 14.2819 8.32044C13.0316 7.42757 12.0298 6.6997 11.059 6.06721C10.3467 5.62062 9.72113 5.19093 8.91358 4.89947C8.42117 4.71956 7.84011 4.85402 7.49944 5.22474C7.16178 5.59208 7.07933 5.99848 7.03051 6.33614C6.95201 7.02237 7.0352 7.59403 7.07764 8.07555C7.11652 8.5627 7.15014 8.98225 7.17755 9.32555C7.31312 10.723 7.46828 10.7907 7.6048 9.32442C7.63485 8.97436 7.67185 8.56533 7.691 8.05489C7.70321 7.55722 7.68743 7.00283 7.79617 6.46347C7.89627 5.89894 8.22022 5.57555 8.62324 5.76222C9.1765 5.99209 9.84188 6.45671 10.4922 6.90518C11.2882 7.46268 11.745 7.8157 13.6514 9.21212C14.0511 9.48781 14.4496 9.76087 14.4222 9.84576C14.4306 9.8589 14.4353 9.916 14.3378 10.0538C14.2467 10.1808 14.1035 10.3235 13.9487 10.4617C12.5945 11.5858 13.3498 10.9686 10.9433 12.9137C10.326 13.4373 9.71568 13.8966 9.12636 14.1978C8.83602 14.347 8.54099 14.4529 8.31938 14.4634C8.10566 14.4608 8.02022 14.4071 7.91148 14.2189C7.71316 13.8301 7.74866 13.2175 7.70471 12.7323C7.69338 12.5481 7.57122 10.3981 7.39334 10.399C7.31747 10.399 7.2461 10.7818 7.18169 11.4732C7.11098 12.2349 7.081 12.9375 7.05304 13.5251Z" fill="white"/>
<path d="M38.6047 5.68832C38.4198 4.02472 37.2198 2.73416 35.9387 2.37627C35.394 2.22791 34.9837 2.2572 34.7185 2.32387C34.382 2.20763 34.0732 2.17119 33.8518 2.17025C33.4477 2.18171 33.2539 2.22791 33.2497 2.2619C33.2454 2.3034 33.4608 2.33214 33.833 2.39073C34.1962 2.4604 34.7529 2.60295 35.2382 3.08935C35.7309 3.56092 36.0927 4.36545 36.1997 5.36042C36.3 6.35238 36.2701 7.5821 36.346 8.89483C36.3967 10.2121 36.4621 11.6487 36.3682 13.1654C36.3413 13.5436 36.3111 13.9279 36.2575 14.3129C36.2204 14.7009 36.1296 14.9375 35.9263 15.2012C35.5229 15.6981 34.7863 16.0192 34.0272 16.0647C30.6196 15.9775 26.6904 16.0981 22.728 16.0947C21.7804 16.0714 20.8956 15.8596 20.3242 15.3127C19.7471 14.7764 19.5114 13.9144 19.4539 13.0366C19.3534 11.1481 19.1929 9.32038 19.289 7.63168C19.342 6.79184 19.4492 5.96739 19.6691 5.23722C19.8887 4.52846 20.2898 3.89971 20.8156 3.48955C21.3336 3.07226 21.9915 2.91563 22.6861 2.8268C23.3872 2.73797 24.0727 2.67506 24.7241 2.6268C27.3365 2.44331 29.4749 2.46397 30.9516 2.42435C32.4294 2.39486 33.2488 2.33777 33.2497 2.2619C33.2509 2.18622 32.4367 2.09889 30.9616 1.9971C29.4862 1.90564 27.3464 1.76536 24.6817 1.85174C24.0148 1.87616 23.3198 1.91578 22.5881 1.98546C21.8636 2.05344 20.9873 2.21533 20.2648 2.76502C19.5495 3.29668 19.0385 4.07849 18.7508 4.94012C18.4762 5.79086 18.3525 6.66601 18.2798 7.56557C18.1509 9.36696 18.2954 11.2044 18.3808 13.1087C18.4152 13.6725 18.5175 14.2933 18.7572 14.8793C18.7746 15.1452 18.8458 15.5223 19.0364 15.9899C19.2344 16.4624 19.5732 17.0142 20.1198 17.5194C20.6545 18.0317 21.4679 18.4497 22.3765 18.6203C23.2886 18.8021 24.2721 18.8092 25.2898 18.8306C26.3199 18.8385 27.4204 18.8471 28.5786 18.8558C30.9069 18.8869 33.4172 18.8227 36.1573 18.6717C36.5332 18.6353 36.9699 18.4802 37.2822 18.3033C38.1829 17.82 38.8039 17.0305 38.9376 16.0151L38.9882 15.5216C39.1042 14.2355 39.0916 12.9968 39.036 11.8313C38.9125 9.48677 38.6849 7.46867 38.6047 5.68832ZM37.0168 15.1974C37.057 15.0919 37.0886 14.9874 37.1145 14.8823C37.1915 14.9435 37.2756 15.0017 37.3731 15.0483C37.5667 15.1411 37.7603 15.1749 37.9327 15.1711C37.9252 15.2545 37.9261 15.3353 37.9175 15.419L37.8771 15.7788C37.675 15.4593 37.336 15.2386 37.0168 15.1974ZM37.6283 4.79138C37.7353 5.08886 37.8127 5.40775 37.8306 5.74879C37.7297 5.68381 37.6193 5.62334 37.4816 5.58766C37.2412 5.52568 37.0223 5.53846 36.8465 5.59329C36.8092 5.30289 36.8221 5.23089 36.663 4.67007C36.7607 4.71176 36.8626 4.74857 36.9674 4.77598C37.1954 4.82481 37.4302 4.84021 37.6283 4.79138ZM37.8388 6.68366C37.8424 6.9109 37.8448 7.13701 37.8518 7.37477C37.504 7.29401 37.1947 7.362 37.0155 7.49872C36.9939 7.17833 36.9702 6.86545 36.9462 6.56084C37.0296 6.59577 37.1175 6.62544 37.2057 6.65023C37.4232 6.70169 37.6463 6.72047 37.8388 6.68366ZM37.9171 9.10178C37.9083 9.09953 37.901 9.09615 37.8922 9.09389C37.6026 9.02478 37.3374 9.05032 37.1415 9.12845C37.1344 9.03643 37.1278 8.9399 37.1209 8.849C37.0985 8.61726 37.0825 8.39603 37.0655 8.1733C37.2048 8.29274 37.3975 8.38739 37.6101 8.44335C37.7045 8.46664 37.7992 8.48016 37.8912 8.48692C37.8997 8.68712 37.9081 8.89633 37.9171 9.10178ZM37.2029 9.98895C37.3319 10.0599 37.476 10.1223 37.6375 10.1617C37.7483 10.1873 37.8589 10.2038 37.965 10.2098C37.9731 10.4036 37.9789 10.6064 37.9866 10.8036C37.7578 10.6953 37.5007 10.6378 37.2418 10.6538C37.2298 10.4295 37.2174 10.2064 37.2029 9.98895ZM37.2809 11.6983C37.3372 11.722 37.3896 11.7498 37.4501 11.7693C37.652 11.8328 37.8484 11.8568 38.0246 11.8519C38.0247 11.8572 38.0249 11.8621 38.0251 11.867C38.0289 12.0273 38.0238 12.1952 38.0261 12.3575C37.7481 12.2655 37.4891 12.2471 37.2882 12.2925C37.2876 12.0919 37.2854 11.8944 37.2809 11.6983ZM37.9953 14.1532C37.9457 14.1213 37.9029 14.0849 37.8471 14.0582C37.6309 13.9545 37.4106 13.9155 37.2253 13.932C37.2433 13.6909 37.2666 13.4471 37.2773 13.2116C37.278 13.1906 37.2773 13.171 37.278 13.15C37.4056 13.2462 37.5507 13.3359 37.7241 13.405C37.827 13.4456 37.9282 13.4711 38.0279 13.4941C38.0234 13.7115 38.005 13.9331 37.9953 14.1532ZM35.2823 2.61027C35.4382 2.64708 35.6083 2.69816 35.7956 2.77873C36.179 2.94455 36.6044 3.2379 36.9787 3.6751C36.716 3.66421 36.4998 3.74233 36.3559 3.85276C36.1323 3.40542 35.8498 3.03094 35.5234 2.77103C35.4432 2.70436 35.3629 2.66323 35.2823 2.61027ZM35.5022 17.2989C35.5888 17.421 35.6936 17.516 35.8025 17.5937C35.3662 17.6163 34.9317 17.6373 34.4979 17.658C34.5119 17.4705 34.4657 17.2497 34.3636 17.0296C34.6815 16.9834 34.9929 16.9026 35.2934 16.7847C35.3157 16.953 35.3876 17.134 35.5022 17.2989ZM30.2429 17.0987C30.5893 17.0934 30.9432 17.0867 31.2857 17.0829C31.3077 17.1641 31.3268 17.2452 31.3646 17.3286C31.4493 17.5152 31.5629 17.6583 31.6827 17.7722C31.2384 17.7872 30.7935 17.8022 30.3612 17.8131C30.3762 17.544 30.3402 17.34 30.2429 17.0987ZM32.4283 17.078C32.6987 17.0765 32.9688 17.0754 33.237 17.0754C33.2582 17.2054 33.2967 17.3406 33.3658 17.4777C33.4094 17.5641 33.4649 17.6317 33.5188 17.7015C33.1528 17.7173 32.7872 17.7331 32.426 17.7466C32.5023 17.5738 32.5019 17.3331 32.4283 17.078ZM26.8356 17.7857C26.8408 17.8206 26.8527 17.8503 26.8593 17.8841C26.3897 17.895 25.9368 17.9055 25.4921 17.916C25.4904 17.7815 25.4735 17.6373 25.4361 17.4882C25.4077 17.374 25.3685 17.2707 25.3249 17.1734C25.8397 17.1674 26.343 17.1607 26.8478 17.1524C26.8121 17.3387 26.802 17.5536 26.8356 17.7857ZM19.6913 16.204C20.2539 16.6915 20.9362 16.9526 21.6213 17.0807C21.5864 17.2347 21.5762 17.4112 21.6185 17.605C21.6217 17.62 21.6292 17.6309 21.6328 17.6456C20.7355 17.3304 20.099 16.7516 19.6913 16.204ZM22.6803 17.8721C22.7175 17.7199 22.7299 17.5494 22.691 17.371C22.6766 17.3049 22.6484 17.2482 22.6245 17.1885C22.6461 17.1892 22.6687 17.1911 22.6901 17.1918C23.2424 17.1922 23.7733 17.1847 24.3136 17.1806C24.3074 17.3571 24.3204 17.549 24.3709 17.7537C24.3872 17.8187 24.4126 17.8743 24.4332 17.9355C23.8024 17.9438 23.2165 17.9348 22.6803 17.8721ZM28.5694 17.8446C28.3545 17.8495 28.1521 17.8544 27.9412 17.8593C27.9355 17.6079 27.8822 17.3654 27.7763 17.1374C28.2706 17.1287 28.763 17.1224 29.2486 17.1141C29.2229 17.264 29.2212 17.4337 29.2595 17.6152C29.2764 17.6959 29.3102 17.7601 29.3377 17.8311C29.0822 17.8353 28.8186 17.8424 28.5694 17.8446ZM36.58 17.4195C36.6283 17.2084 36.5858 16.9316 36.401 16.6686C36.3066 16.5338 36.1941 16.4399 36.0786 16.3659C36.262 16.2326 36.4283 16.0741 36.5822 15.8983C36.8002 16.3352 37.2355 16.5981 37.5812 16.6146C37.5254 16.6991 37.4672 16.7824 37.3966 16.8587C37.1808 17.0867 36.8901 17.2846 36.58 17.4195Z" fill="white"/>
<path d="M28.5206 10.292C26.1312 10.5301 24.5075 12.1602 23.9796 13.5564C23.7127 14.2625 23.7067 14.8909 23.788 15.2924C23.8645 15.6992 24.0087 15.89 24.0705 15.8738C24.2461 15.8456 24.0756 14.9769 24.6848 13.8805C24.9887 13.3434 25.4766 12.768 26.156 12.3037C26.8201 11.8459 27.7121 11.4477 28.5843 11.3876C29.4716 11.3332 30.3237 11.6517 30.9718 12.1343C31.6291 12.6113 32.1149 13.2052 32.4458 13.7475C33.1114 14.8458 33.1989 15.6977 33.3722 15.6864C33.4964 15.701 33.7078 14.7639 33.1371 13.3945C32.8513 12.724 32.3592 11.9691 31.5895 11.3335C30.8396 10.6962 29.7216 10.2165 28.5206 10.292Z" fill="white"/>
<path d="M30.4485 5.29997C30.3946 5.36007 30.5158 5.53547 30.6367 5.8506C30.696 6.00835 30.7528 6.20216 30.7815 6.43316C30.8023 6.54809 30.7939 6.67429 30.786 6.80275C30.7676 6.92858 30.8076 7.07243 30.7503 7.19638C30.6547 7.72785 30.2224 8.18459 29.5225 8.3814C28.8329 8.54291 27.901 8.47493 27.2933 7.9934C27.0116 7.75302 26.7866 7.47545 26.7699 7.12126C26.7105 6.95975 26.7821 6.76369 26.7684 6.58866C26.7881 6.42302 26.8431 6.27841 26.9196 6.13681C27.243 5.56777 27.9279 5.23912 28.4794 5.13245C29.6684 4.9101 30.3541 5.42129 30.4485 5.29997C30.4962 5.25001 30.3999 5.03254 30.062 4.79216C29.7259 4.55628 29.1446 4.3373 28.3977 4.36059C27.6649 4.40266 26.7057 4.67497 26.0594 5.60458C25.9092 5.83595 25.7886 6.11352 25.7372 6.4001C25.7231 6.6803 25.6348 6.95599 25.7037 7.26136C25.7293 7.87847 26.1351 8.47755 26.6191 8.85954C27.6418 9.62502 28.8453 9.63178 29.8156 9.34932C30.2936 9.15777 30.7575 8.91926 31.0493 8.51361C31.3695 8.14327 31.4951 7.67903 31.521 7.28915C31.5327 6.50903 31.2863 5.93549 30.9995 5.62486C30.7212 5.31199 30.4915 5.24663 30.4485 5.29997Z" fill="white"/>
<path d="M2.91267 20.5295C2.18795 21.1575 1.69253 22.0244 1.42154 22.966C1.16876 23.881 1.02734 24.8395 0.969125 25.8134C0.843486 27.7707 0.998234 29.7711 1.08781 31.8505C1.12594 32.4409 1.22472 33.0843 1.45421 33.698C1.46173 33.9876 1.52839 34.4316 1.75244 35.004C1.95902 35.5205 2.31753 36.1237 2.89727 36.6859C3.46236 37.2554 4.3392 37.729 5.32854 37.9198C6.32125 38.1234 7.3934 38.1267 8.50443 38.1485C9.62823 38.1553 10.8292 38.1628 12.0929 38.1703C13.3578 38.1613 14.6825 38.2045 16.0619 38.1365C18.2349 38.0595 18.6374 38.0439 19.2181 38.0223C19.5796 38.0114 19.9676 38.0036 20.3898 37.9205C20.5916 37.883 20.8416 37.8041 21.0225 37.7166C21.5851 37.4678 22.1056 37.0866 22.4956 36.568C22.7468 36.224 22.9367 35.8303 23.0304 35.4232C23.1298 34.9935 23.1307 34.6622 23.1709 34.3099C23.277 32.9104 23.262 31.5639 23.2004 30.294C23.0654 27.7418 22.8329 25.5317 22.7497 23.5921C22.5582 21.7744 21.2868 20.3498 19.9343 19.9402C19.34 19.7633 18.8911 19.7922 18.6023 19.8632C18.246 19.7332 17.9189 19.6956 17.6813 19.6923C17.2407 19.7002 17.0291 19.7479 17.0246 19.7813C17.0201 19.8234 17.2548 19.8508 17.661 19.9127C18.058 19.9871 18.6656 20.1505 19.1871 20.6974C19.7161 21.2289 20.0994 22.1183 20.2157 23.2109C20.3265 24.2994 20.2944 25.6354 20.3759 27.0694C20.4503 28.9823 20.5371 31.0616 20.3124 32.9964C20.2651 33.4565 20.217 33.7578 20.0196 34.0658C19.6493 34.6615 18.847 35.0731 18.034 35.1629C14.3535 35.102 10.0423 35.2147 5.72442 35.2196C4.68833 35.1944 3.71721 34.9525 3.09859 34.3242C2.46965 33.7093 2.22551 32.7429 2.16091 31.7791C2.05687 29.7197 1.88484 27.7222 1.97893 25.8713C2.02024 24.9439 2.14006 24.0526 2.35209 23.2233C2.56261 22.43 2.96507 21.7085 3.51495 21.2119C4.05901 20.7038 4.75368 20.4904 5.50545 20.3834C6.25946 20.2775 7.01649 20.2087 7.72374 20.1513C10.5736 19.942 12.907 19.9736 14.5178 19.9372C16.1299 19.912 17.0236 19.8572 17.0246 19.7813C17.0257 19.7054 16.1376 19.6164 14.5279 19.5097C12.9185 19.4155 10.5836 19.2637 7.67755 19.3764C6.94738 19.4109 6.19824 19.4541 5.39164 19.5439C4.59555 19.6269 3.63608 19.8793 2.91267 20.5295ZM10.1723 37.0266C10.1809 37.0863 10.1924 37.1438 10.2042 37.2009C9.67161 37.2125 9.15591 37.2238 8.65261 37.2351C8.65109 36.917 8.57563 36.5822 8.43232 36.2837C9.02145 36.2765 9.59987 36.2694 10.1794 36.2626C10.1372 36.4782 10.1327 36.7442 10.1723 37.0266ZM11.2797 37.1769C11.2792 37.0788 11.2741 36.9778 11.2591 36.8726C11.2258 36.636 11.1579 36.4257 11.0728 36.2518C11.6422 36.245 12.2084 36.2382 12.7671 36.2315C12.7341 36.4069 12.7313 36.612 12.776 36.8309C12.7991 36.9459 12.8349 37.0492 12.8755 37.1461C12.3323 37.1546 12.8039 37.1428 11.2797 37.1769ZM13.8847 37.1295C13.9037 36.805 13.8554 36.5226 13.73 36.2198C14.1332 36.2153 14.5432 36.2101 14.94 36.2056C14.965 36.3017 14.9896 36.3986 15.0333 36.4985C15.1434 36.7494 15.2927 36.9474 15.4472 37.0807C14.9206 37.1025 14.3967 37.1228 13.8847 37.1295ZM17.1819 36.66C17.2454 36.7907 17.3219 36.9038 17.4035 37.0014C16.9707 37.0206 16.5363 37.0394 16.1124 37.0582C16.2131 36.8565 16.1982 36.5286 16.0809 36.1917C16.4033 36.1879 16.7213 36.1841 17.039 36.1804C17.0608 36.3336 17.101 36.4944 17.1819 36.66ZM19.1871 36.9267C18.9026 36.938 18.6209 36.95 18.3394 36.9613C18.3598 36.7389 18.3048 36.4602 18.1688 36.1793C18.1666 36.1748 18.1634 36.171 18.1611 36.1665C18.5302 36.115 18.8883 36.0035 19.2335 35.8623C19.2827 36.2384 19.5626 36.6686 19.9039 36.8786C19.6784 36.9042 19.4404 36.9192 19.1871 36.9267ZM21.7506 22.5626C21.8704 22.9003 21.956 23.2642 21.9759 23.6534C21.9757 23.6766 21.9769 23.7037 21.9767 23.727C21.6336 23.4933 21.2085 23.4387 20.8732 23.5426C20.8367 23.2383 20.8279 22.9912 20.6534 22.3853C20.7716 22.4357 20.8968 22.48 21.0273 22.5157C21.2818 22.5735 21.5391 22.6039 21.7506 22.5626ZM22.1573 33.0847C22.0918 33.0389 22.0304 32.9908 21.9538 32.9528C21.7119 32.833 21.4662 32.7827 21.2642 32.7962C21.2901 32.4668 21.3136 32.1378 21.3239 31.817C21.467 31.9263 21.6439 32.0277 21.8426 32.1096C21.9641 32.1592 22.0837 32.1938 22.2002 32.2219C22.1949 32.5055 22.1701 32.7974 22.1573 33.0847ZM21.3244 30.1971C21.3975 30.2294 21.4674 30.2639 21.5468 30.2906C21.7746 30.3646 21.9958 30.3988 22.1898 30.3984C22.1955 30.6181 22.191 30.8476 22.1936 31.0711C21.8685 30.9498 21.5592 30.922 21.3314 30.9693C21.3314 30.7086 21.3305 30.4506 21.3244 30.1971ZM22.1532 29.3602C22.0719 29.3182 21.9859 29.2791 21.891 29.2479C21.676 29.1766 21.47 29.1533 21.2888 29.1623C21.2743 28.8701 21.2574 28.5831 21.2392 28.3007C21.5156 28.4551 21.8028 28.5373 22.1235 28.5621C22.1344 28.8227 22.1431 29.0943 22.1532 29.3602ZM22.0097 27.4368C21.6884 27.3572 21.3941 27.3831 21.1823 27.4664C21.1718 27.32 21.1614 27.1682 21.1509 27.0247C21.1273 26.7678 21.1102 26.5218 21.0923 26.2747C21.289 26.4517 21.6326 26.6124 22.0428 26.6503C22.0535 26.9124 22.0648 27.1878 22.0766 27.4582C22.0537 27.4518 22.0334 27.4428 22.0097 27.4368ZM22.0039 25.5336C22.0022 25.5329 22.0007 25.5321 21.9988 25.5317C21.5969 25.4247 21.2411 25.5028 21.0482 25.6549C21.0225 25.2542 20.9956 24.8654 20.9667 24.4876C21.0681 24.5296 21.1744 24.5676 21.2839 24.5995C21.5299 24.6607 21.778 24.6938 21.9857 24.6622C21.9902 24.9465 21.9947 25.2343 22.0039 25.5336ZM21.1597 33.7379C21.4495 33.9762 21.8021 34.0957 22.1059 34.0909C22.1023 34.1345 22.1031 34.1766 22.0993 34.2201C22.0777 34.4842 22.0507 34.7144 22.0139 34.9315C21.9402 34.7952 21.8456 34.6585 21.7062 34.5341C21.4856 34.3366 21.2411 34.2246 21.0309 34.1938C21.0888 34.0432 21.1284 33.8896 21.1597 33.7379ZM19.1371 20.1306C19.9388 20.2956 20.6217 20.7715 21.1316 21.4257C20.8039 21.384 20.5299 21.4647 20.3578 21.5928C20.1238 21.0989 19.8275 20.682 19.4804 20.3868C19.367 20.2861 19.2521 20.2046 19.1371 20.1306ZM20.5999 34.8635C20.6793 35.0295 20.8055 35.2004 20.9742 35.3522C21.227 35.5768 21.5102 35.7075 21.7421 35.7154C21.7029 35.7819 21.6707 35.8506 21.6206 35.9145C21.4491 36.1387 21.2326 36.3378 20.9774 36.4985C20.8508 36.58 20.7158 36.6529 20.5734 36.7152C20.5727 36.7156 20.5719 36.7156 20.5712 36.716C20.6429 36.4899 20.599 36.1582 20.3836 35.8405C20.2628 35.6617 20.1161 35.543 19.9689 35.4566C20.2036 35.2902 20.4134 35.0923 20.5999 34.8635ZM7.4535 36.2953C7.44542 36.5019 7.46289 36.7348 7.52261 36.9845C7.54533 37.0781 7.57275 37.1671 7.60205 37.2531C6.89198 37.2621 6.23298 37.2512 5.6324 37.1735C5.67259 37.0011 5.68348 36.8028 5.63935 36.5935C5.61775 36.491 5.58132 36.3982 5.54225 36.3092C5.58996 36.3115 5.63878 36.3156 5.68573 36.3167C6.28256 36.3096 6.86475 36.3025 7.4535 36.2953ZM4.56738 36.1995C4.5255 36.3764 4.51611 36.5883 4.56513 36.8204C4.57489 36.8662 4.59405 36.9023 4.60682 36.9455C3.44039 36.5413 2.68525 35.7101 2.25894 35.0187C2.28204 35.0434 2.30082 35.0701 2.32486 35.0945C2.94572 35.7259 3.75627 36.0474 4.56738 36.1995Z" fill="white"/>
<path d="M11.9396 28.7687C9.33589 29.0448 7.61226 30.8792 7.07064 32.3944C6.7927 33.1625 6.78819 33.8401 6.87138 34.2761C6.94989 34.7167 7.09712 34.9278 7.15853 34.9124C7.33863 34.8865 7.14276 33.9351 7.7824 32.7039C8.09885 32.1006 8.61849 31.4463 9.35411 30.9171C10.0698 30.3924 11.0453 29.9349 12.006 29.8643C12.9839 29.8008 13.9186 30.1772 14.6187 30.7286C15.3305 31.2736 15.8477 31.944 16.1964 32.5514C16.896 33.7815 16.9792 34.7156 17.1542 34.7039C17.277 34.7182 17.4915 33.7048 16.8941 32.2114C16.5936 31.4794 16.0766 30.6501 15.2554 29.9424C14.4576 29.2344 13.2495 28.6823 11.9396 28.7687Z" fill="white"/>
<path d="M14.0126 23.1582C13.9574 23.2175 14.0907 23.4061 14.2252 23.7524C14.2913 23.9263 14.3553 24.1404 14.3893 24.3958C14.4132 24.5231 14.409 24.6624 14.4 24.8059C14.3846 24.9471 14.4173 25.1042 14.3705 25.248C14.283 25.8535 13.8154 26.3932 13.0531 26.6276C12.3027 26.8293 11.2731 26.7538 10.6046 26.2065C10.2919 25.9339 10.0444 25.6086 10.0224 25.2044L9.99046 25.0613L10.0029 24.907L10.0186 24.6016C10.0352 24.407 10.0951 24.2418 10.1756 24.078C10.5231 23.4278 11.2656 23.0496 11.8724 22.9321C13.1776 22.6838 13.9198 23.2829 14.0126 23.1582C14.0607 23.1101 13.9559 22.8757 13.59 22.615C13.2261 22.3604 12.5932 22.1204 11.7813 22.1613C10.9862 22.2154 9.95177 22.5557 9.29785 23.5755C9.1478 23.8282 9.02779 24.1291 8.98441 24.4299C8.96976 24.5787 8.95493 24.7285 8.9399 24.8799L8.92188 25.109L8.95662 25.3483C8.98685 26 9.40208 26.6422 9.91665 27.0622C10.4431 27.5031 11.0711 27.6857 11.6604 27.7634C12.2563 27.8569 12.8392 27.7473 13.3686 27.5884C13.6246 27.4648 13.8877 27.3863 14.1003 27.2026C14.2096 27.12 14.3198 27.043 14.419 26.9559C14.5054 26.8522 14.5904 26.75 14.6742 26.6494C14.8586 26.4623 14.9208 26.202 15.0248 25.9894C15.1112 25.7675 15.108 25.5353 15.1428 25.3273C15.1709 25.1165 15.1103 24.9261 15.0956 24.7439C15.0738 24.5618 15.044 24.395 14.9844 24.2455C14.8785 23.9435 14.7332 23.7039 14.5912 23.5319C14.3003 23.1871 14.0562 23.1056 14.0126 23.1582Z" fill="white"/>
</svg>
