<svg width="40" height="40" viewBox="0 0 40 40" fill="none" xmlns="http://www.w3.org/2000/svg">
<path d="M12.2333 23.0769C12.0026 23.923 11.9256 24.8461 11.8487 25.6153C11.7718 25.9999 11.7718 26.4615 11.8487 26.923C11.8487 27.3846 12.0026 27.8461 12.3872 28.2307C13.0795 28.923 13.9256 28.9999 14.6179 29.0769C15.3102 29.1538 16.0795 28.9999 16.6179 28.6923C17.2333 28.3846 17.6179 27.7692 17.7718 27.3076C17.9256 26.7692 18.0025 26.3076 18.0795 25.923C18.3872 24.3076 18.9256 23.5384 18.7718 23.4615C18.7718 23.4615 18.6179 23.6153 18.3872 23.9999C18.1564 24.3846 17.9256 24.9999 17.6179 25.7692C17.3872 26.5384 17.3102 27.6923 16.3102 28.1538C15.8487 28.3846 15.2333 28.4615 14.6179 28.3846C14.0026 28.3076 13.3102 28.1538 12.9256 27.7692C12.541 27.3846 12.6179 26.6153 12.6949 25.8461C12.7718 24.9999 12.9256 24.2307 13.1564 23.3846C13.541 21.6923 14.0795 19.923 14.8487 18.0769C15.541 16.2307 16.3872 14.3846 17.541 12.6923C18.1564 11.8461 18.8487 11 19.6179 10.5384C20.4641 9.99996 21.3872 10.0769 22.1564 10.7692C23.0025 11.3846 23.541 12.3077 23.9256 13.2307C24.3872 14.2307 24.7718 15.2307 25.1564 16.2307C25.9256 18.2307 26.541 20.1538 27.0795 22.0769C27.3102 22.9999 27.6179 23.9999 27.8487 24.8461C28.0795 25.6923 28.1564 26.6153 28.0025 27.3076C27.9256 27.6153 27.6949 27.8461 27.4641 27.923C27.3102 27.923 27.1564 27.9999 27.0025 27.9999H26.7718C26.6949 27.9999 26.6179 27.9999 26.541 27.923C26.0025 27.7692 25.6179 27.0769 25.3872 26.4615C25.1564 25.7692 24.9256 25.0769 24.6179 24.4615C24.1564 23.3846 23.3872 22.0769 22.2333 21.6923C21.6949 21.4615 21.1564 21.5384 20.6949 21.6923C19.8487 22 19.3872 22.5384 19.1564 22.923C18.9256 23.3076 18.8487 23.5384 18.8487 23.5384C18.8487 23.5384 19.0025 23.3846 19.3102 23.0769C19.6179 22.7692 20.0795 22.3076 20.8487 22.1538C21.2333 22.0769 21.6179 22.0769 22.0795 22.2307C23.0025 22.6153 23.6179 23.8461 24.0025 24.8461C24.2333 25.4615 24.3872 26.0769 24.6949 26.8461C24.8487 27.2307 25.0025 27.6153 25.2333 27.923C25.4641 28.3076 25.8487 28.6923 26.3102 28.8461C26.4641 28.923 26.541 28.923 26.6949 28.923H27.0795C27.3102 28.923 27.541 28.8461 27.8487 28.8461C28.3872 28.6923 28.8487 28.1538 29.0025 27.6923C29.3102 26.6923 29.0795 25.6923 28.9256 24.7692C28.6948 23.8461 28.4641 22.923 28.2333 21.923C27.6949 20 27.0795 18 26.3102 16C25.9256 15 25.541 14 25.0795 12.923C24.6179 11.923 24.0025 10.7692 22.9256 9.99996C22.4641 9.61534 21.7718 9.30765 21.0795 9.23073C20.3872 9.15381 19.6949 9.38458 19.1564 9.69227C18.0795 10.3846 17.3102 11.3077 16.6949 12.1538C15.3872 13.8461 14.541 15.7692 13.8487 17.6153C13.1564 19.4615 12.6179 21.3076 12.2333 23.0769Z" fill="white"/>
<path d="M19.6172 18.6151C20.6941 19.0767 21.6941 18.769 22.3864 18.3074C23.0787 17.8459 23.3095 17.2305 23.3864 16.769C23.4633 16.3074 23.3095 16.0767 23.3095 16.1536C23.2326 16.1536 23.1556 16.3844 23.0018 16.692C22.848 16.9997 22.5403 17.3844 22.0018 17.692C21.4633 17.9228 20.771 18.0767 20.0787 17.692C19.4633 17.3844 19.0018 16.5382 19.0787 15.692C19.1557 14.8459 19.6941 14.1536 20.3864 13.9228C21.0018 13.692 21.6941 13.9997 22.1556 14.3844C23.0787 15.2305 23.1556 16.1536 23.3095 16.0767C23.3864 16.0767 23.4633 15.8459 23.4633 15.4613C23.3864 14.4613 22.6941 13.4613 21.6941 13.0767C21.2326 12.8459 20.6941 12.769 20.0787 12.9228C19.5403 13.0767 19.0787 13.3844 18.6941 13.8459C18.3095 14.3074 18.0787 14.9228 18.0018 15.5382C17.848 16.9228 18.5403 18.1536 19.6172 18.6151Z" fill="white"/>
<path d="M24.7707 34.6919H21.6169C21.1553 34.6919 20.8477 34.9996 20.8477 35.4611C20.8477 35.9227 21.1553 36.2303 21.6169 36.2303H24.7707C25.2323 36.2303 25.54 35.9227 25.54 35.4611C25.54 34.9996 25.1553 34.6919 24.7707 34.6919Z" fill="white"/>
<path d="M27.1562 35.4611C27.1562 35.9227 27.4639 36.2303 27.9255 36.2303H31.0793C31.5409 36.2303 31.8486 35.9227 31.8486 35.4611C31.8486 34.9996 31.5409 34.6919 31.0793 34.6919H27.9255C27.4639 34.6919 27.1562 35.0765 27.1562 35.4611Z" fill="white"/>
<path d="M8.92353 36.2303H12.0774C12.5389 36.2303 12.8466 35.9227 12.8466 35.4611C12.8466 34.9996 12.5389 34.6919 12.0774 34.6919H8.92353C8.46199 34.6919 8.1543 34.9996 8.1543 35.4611C8.1543 35.9227 8.46199 36.2303 8.92353 36.2303Z" fill="white"/>
<path d="M18.386 34.6919H15.2321C14.7706 34.6919 14.4629 34.9996 14.4629 35.4611C14.4629 35.9227 14.7706 36.2303 15.2321 36.2303H18.386C18.8475 36.2303 19.1552 35.9227 19.1552 35.4611C19.1552 34.9996 18.8475 34.6919 18.386 34.6919Z" fill="white"/>
<path d="M5.00135 14.9225C5.00135 14.461 4.69366 14.1533 4.23212 14.1533C3.77058 14.1533 3.46289 14.461 3.46289 14.9225V18.0764C3.46289 18.5379 3.77058 18.8456 4.23212 18.8456C4.69366 18.8456 5.00135 18.5379 5.00135 18.0764V14.9225Z" fill="white"/>
<path d="M4.23212 26.8457C3.77058 26.8457 3.46289 27.1534 3.46289 27.6149V30.7688C3.46289 31.2303 3.77058 31.538 4.23212 31.538C4.69366 31.538 5.00135 31.2303 5.00135 30.7688V27.6149C5.00135 27.1534 4.61674 26.8457 4.23212 26.8457Z" fill="white"/>
<path d="M5.00135 21.3073C5.00135 20.8458 4.69366 20.5381 4.23212 20.5381C3.77058 20.5381 3.46289 20.8458 3.46289 21.3073V24.4612C3.46289 24.9227 3.77058 25.2304 4.23212 25.2304C4.69366 25.2304 5.00135 24.9227 5.00135 24.4612V21.3073Z" fill="white"/>
<path d="M21.6169 4.69227H24.7707C25.2323 4.69227 25.54 4.38458 25.54 3.92304C25.54 3.4615 25.2323 3.15381 24.7707 3.15381H21.6169C21.1553 3.15381 20.8477 3.4615 20.8477 3.92304C20.8477 4.38458 21.1553 4.69227 21.6169 4.69227Z" fill="white"/>
<path d="M12.0774 3.15381H8.92353C8.46199 3.15381 8.1543 3.4615 8.1543 3.92304C8.1543 4.38458 8.46199 4.69227 8.92353 4.69227H12.0774C12.5389 4.69227 12.8466 4.38458 12.8466 3.92304C12.8466 3.4615 12.5389 3.15381 12.0774 3.15381Z" fill="white"/>
<path d="M18.386 4.69227C18.8475 4.69227 19.1552 4.38458 19.1552 3.92304C19.1552 3.4615 18.8475 3.15381 18.386 3.15381H15.2321C14.7706 3.15381 14.4629 3.4615 14.4629 3.92304C14.4629 4.38458 14.7706 4.69227 15.2321 4.69227H18.386Z" fill="white"/>
<path d="M31.0793 3.15381H27.9255C27.4639 3.15381 27.1562 3.4615 27.1562 3.92304C27.1562 4.38458 27.4639 4.69227 27.9255 4.69227H31.0793C31.5409 4.69227 31.8486 4.38458 31.8486 3.92304C31.8486 3.4615 31.5409 3.15381 31.0793 3.15381Z" fill="white"/>
<path d="M35.7692 18.8456C36.2308 18.8456 36.5385 18.5379 36.5385 18.0764V14.9225C36.5385 14.461 36.2308 14.1533 35.7692 14.1533C35.3077 14.1533 35 14.461 35 14.9225V18.0764C35 18.5379 35.3846 18.8456 35.7692 18.8456Z" fill="white"/>
<path d="M35 24.4612C35 24.9227 35.3077 25.2304 35.7692 25.2304C36.2308 25.2304 36.5385 24.9227 36.5385 24.4612V21.3073C36.5385 20.8458 36.2308 20.5381 35.7692 20.5381C35.3077 20.5381 35 20.8458 35 21.3073V24.4612Z" fill="white"/>
<path d="M35 30.7688C35 31.2303 35.3077 31.538 35.7692 31.538C36.2308 31.538 36.5385 31.2303 36.5385 30.7688V27.6149C36.5385 27.1534 36.2308 26.8457 35.7692 26.8457C35.3077 26.8457 35 27.1534 35 27.6149V30.7688Z" fill="white"/>
<path d="M1.46326 36.6149C1.54019 36.7687 1.54019 36.9995 1.61711 37.1534C1.69403 37.3072 1.84788 37.6149 2.00172 37.7687C2.61711 38.4611 3.38634 38.6918 4.07865 38.8457C4.77096 38.9995 5.46326 38.9995 6.15557 38.8457C6.46326 38.7688 6.84788 38.6918 7.07865 38.538C7.23249 38.4611 7.38634 38.3841 7.54019 38.2303C7.69403 38.1534 7.84788 37.9226 7.9248 37.6918C8.00172 37.3072 8.07865 37.1534 8.07865 36.8457C8.07865 36.6149 8.15557 36.3841 8.15557 36.1534C8.23249 35.2303 8.15557 34.4611 7.9248 33.9226C7.69403 33.3841 7.46326 33.2303 7.38634 33.2303C7.30942 33.3072 7.46326 33.538 7.46326 33.9995C7.54019 34.4611 7.46326 35.1534 7.30942 35.9995C7.23249 36.2303 7.23249 36.4611 7.15557 36.6918C7.07865 36.9226 7.00172 37.2303 7.00172 37.3841C7.00172 37.4611 7.00172 37.4611 6.84788 37.538C6.77095 37.6149 6.69403 37.6149 6.61711 37.6918C6.38634 37.6918 6.15557 37.7688 5.9248 37.8457C5.38634 37.9226 4.84788 37.9226 4.23249 37.7687C3.69403 37.6149 3.07865 37.3841 2.77095 37.0764C2.69403 36.9995 2.69403 36.9226 2.61711 36.7687C2.54019 36.6149 2.54019 36.538 2.46326 36.3841C2.38634 36.0764 2.38634 35.8457 2.30942 35.538C2.30942 34.9226 2.38634 34.3841 2.54019 33.9226C2.69403 33.4611 3.00172 33.0764 3.38634 32.9226C3.54019 32.8457 3.77095 32.7687 4.00172 32.7687C4.23249 32.6918 4.46326 32.6918 4.69403 32.6918C5.54019 32.6149 6.23249 32.6918 6.61711 32.9226C7.00172 33.1534 7.23249 33.3072 7.30942 33.3072C7.38634 33.3072 7.30942 32.9226 6.84788 32.6149C6.38634 32.2303 5.61711 31.9995 4.61711 31.9995C4.38634 31.9995 4.15557 31.9995 3.84788 31.9995C3.61711 31.9995 3.30942 32.0764 3.00172 32.1534C2.38634 32.3841 1.84788 32.9226 1.61711 33.538C1.30942 34.1534 1.15557 34.8457 1.23249 35.6149C1.30942 35.8457 1.38634 36.2303 1.46326 36.6149Z" fill="white"/>
<path d="M37.9247 33.2305C37.8477 33.3075 38.0016 33.5382 38.0016 33.9998C38.0785 34.4613 38.0016 35.1536 37.8477 35.9998C37.7708 36.2305 37.7708 36.4613 37.6939 36.6921C37.617 36.9228 37.54 37.2305 37.54 37.3844C37.54 37.4613 37.54 37.4613 37.3862 37.5382C37.3093 37.6152 37.2323 37.6152 37.1554 37.6921C36.9247 37.769 36.6939 37.8459 36.4631 37.9228C35.9247 37.9998 35.3862 37.9998 34.7708 37.8459C34.2323 37.6921 33.617 37.4613 33.3093 37.1536C33.2323 37.0767 33.2323 36.9998 33.1554 36.8459C33.0785 36.6921 33.0785 36.6152 33.0016 36.4613C32.9247 36.1536 32.9247 35.9228 32.8477 35.6152C32.8477 34.9998 32.9247 34.4613 33.0785 33.9998C33.2323 33.5382 33.54 33.1536 33.9246 32.9998C34.0785 32.9229 34.3093 32.8459 34.54 32.8459C34.7708 32.769 35.0016 32.769 35.2323 32.769C36.0785 32.6921 36.7708 32.769 37.1554 32.9998C37.6939 32.9998 37.8477 33.2305 37.9247 33.2305C38.0016 33.2305 37.9247 32.8459 37.4631 32.5382C37.0016 32.1536 36.2323 31.9229 35.2323 31.9229C35.0016 31.9229 34.7708 31.9229 34.4631 31.9229C34.2323 31.9229 33.9247 31.9998 33.617 32.0767C33.0016 32.3075 32.4631 32.8459 32.2323 33.4613C31.9247 34.0767 31.7708 34.769 31.8477 35.5382C31.8477 35.9228 31.9246 36.2305 32.0016 36.6152C32.0785 36.769 32.0785 36.9998 32.1554 37.1536C32.2323 37.3075 32.3862 37.6152 32.54 37.769C33.1554 38.4613 33.9247 38.6921 34.617 38.8459C35.3093 38.9998 36.0016 38.9998 36.6939 38.8459C37.0016 38.769 37.3862 38.6921 37.617 38.5382C37.7708 38.4613 37.9247 38.3844 38.0785 38.2305C38.2323 38.1536 38.3862 37.9228 38.4631 37.6921C38.54 37.3075 38.617 37.1536 38.617 36.8459C38.617 36.6152 38.6939 36.3844 38.6939 36.1536C38.7708 35.2305 38.6939 34.4613 38.4631 33.9228C38.2323 33.3844 38.0016 33.1536 37.9247 33.2305Z" fill="white"/>
<path d="M6.92398 1.69204C6.53936 1.38435 5.69321 1.07666 4.77013 1.07666C4.53936 1.07666 4.30859 1.07666 4.0009 1.07666C3.77013 1.07666 3.46244 1.15358 3.15475 1.23051C2.53936 1.5382 2.0009 2.07666 1.69321 2.69204C1.38552 3.30743 1.30859 3.99974 1.30859 4.76897C1.30859 5.15358 1.38552 5.46128 1.46244 5.84589C1.46244 6.07666 1.53936 6.23051 1.61629 6.38435C1.69321 6.5382 1.84706 6.84589 2.0009 6.99974C2.53936 7.61512 3.23167 7.84589 3.84706 7.99974C3.61629 8.15358 3.53936 8.38435 3.53936 8.61512V11.769C3.53936 12.2305 3.84705 12.5382 4.30859 12.5382C4.77013 12.5382 5.07782 12.2305 5.07782 11.769V8.61512C5.07782 8.46128 5.0009 8.30743 4.92398 8.15358C5.38552 8.15358 5.77013 8.15358 6.23167 8.07666C6.53936 7.99974 6.92398 7.92281 7.15475 7.76897C7.30859 7.69205 7.46244 7.61512 7.61629 7.46128C7.77013 7.38435 7.92398 7.15358 8.0009 6.92281C8.07782 6.5382 8.15475 6.38435 8.15475 6.07666C8.15475 5.84589 8.23167 5.61512 8.23167 5.38435C8.30859 4.46128 8.23167 3.69204 8.0009 3.15358C7.69321 2.61512 7.46244 2.38435 7.38552 2.46128C7.30859 2.5382 7.46244 2.76897 7.46244 3.23051C7.53936 3.69204 7.46244 4.38435 7.30859 5.23051C7.30859 5.46128 7.23167 5.69204 7.15475 5.92281C7.15475 6.15358 7.07782 6.46128 7.0009 6.5382C7.0009 6.61512 7.0009 6.61512 6.84705 6.69204C6.77013 6.76897 6.69321 6.84589 6.61629 6.84589C6.38552 6.92281 6.15475 6.99974 5.92398 7.07666C5.38552 7.15358 4.84705 7.15358 4.23167 6.99974C3.69321 6.84589 3.07782 6.61512 2.77013 6.30743C2.69321 6.15358 2.69321 6.15358 2.61629 5.99974C2.53936 5.84589 2.53936 5.69204 2.46244 5.61512C2.46244 5.30743 2.38552 4.99974 2.38552 4.69204C2.38552 4.07666 2.46244 3.5382 2.61629 3.07666C2.84706 2.61512 3.15475 2.30743 3.46244 2.15358C3.69321 2.07666 3.84706 1.99974 4.07782 1.92281C4.30859 1.84589 4.53936 1.84589 4.77013 1.84589C5.61629 1.76897 6.30859 1.84589 6.69321 2.07666C7.15475 2.30743 7.30859 2.46128 7.38552 2.46128C7.46244 2.38435 7.38552 2.07666 6.92398 1.69204Z" fill="white"/>
<path d="M37.9259 2.4615C37.8489 2.53842 38.0028 2.76919 38.0028 3.23073C38.0797 3.69227 38.0028 4.38458 37.8489 5.23073C37.772 5.4615 37.772 5.69227 37.6951 5.92304C37.6951 6.15381 37.6182 6.4615 37.5412 6.53842C37.5412 6.61535 37.5412 6.61535 37.3874 6.69227C37.3105 6.76919 37.2336 6.76919 37.1566 6.84612C36.9259 6.92304 36.6951 6.99996 36.4643 7.07689C35.9259 7.15381 35.3874 7.15381 34.772 6.99996C34.2335 6.84612 33.6182 6.61535 33.3105 6.30765C33.3105 6.15381 33.2335 6.15381 33.2335 5.99996C33.1566 5.84612 33.0797 5.69227 33.0797 5.61535C33.0028 5.30765 33.0028 5.07689 32.9259 4.76919C32.9259 4.15381 33.0028 3.61535 33.1566 3.15381C33.3105 2.69227 33.6182 2.30765 34.0028 2.15381C34.1566 2.07689 34.3874 1.99996 34.6182 1.99996C34.8489 1.92304 35.0797 1.92304 35.3105 1.92304C36.1566 1.84612 36.8489 1.92304 37.2336 2.15381C37.6951 2.30765 37.8489 2.4615 37.9259 2.4615C38.0028 2.4615 37.9259 2.07689 37.4643 1.76919C37.0028 1.38458 36.2336 1.15381 35.2335 1.15381C35.0028 1.15381 34.772 1.15381 34.4643 1.15381C34.2335 1.15381 33.9259 1.23073 33.6182 1.30765C33.0797 1.53842 32.5412 2.07689 32.3105 2.69227C32.0028 3.30765 31.8489 3.99996 31.9259 4.76919C31.9259 5.15381 32.0028 5.4615 32.0797 5.84612C32.1566 5.99996 32.1566 6.23073 32.2335 6.38458C32.3105 6.53842 32.4643 6.84612 32.6182 6.99996C33.2335 7.69227 34.0028 7.92304 34.6951 8.07689C34.9259 8.07689 35.0797 8.15381 35.3105 8.15381C35.2336 8.30766 35.1566 8.4615 35.1566 8.61535V11.7692C35.1566 12.2307 35.4643 12.5384 35.9259 12.5384C36.3874 12.5384 36.6951 12.2307 36.6951 11.7692V8.61535C36.6951 8.38458 36.6182 8.23073 36.4643 8.07689C36.5412 8.07689 36.6951 8.07689 36.772 7.99996C37.0797 7.92304 37.4643 7.84612 37.6951 7.69227C37.8489 7.61535 38.0028 7.53842 38.1566 7.38458C38.3105 7.30766 38.4643 7.07689 38.5412 6.84612C38.6182 6.4615 38.6951 6.30765 38.6951 5.99996C38.6951 5.76919 38.772 5.53842 38.772 5.30765C38.8489 4.38458 38.772 3.61535 38.5412 3.07689C38.2336 2.61535 38.0028 2.38458 37.9259 2.4615Z" fill="white"/>
</svg>
