<svg width="40" height="40" viewBox="0 0 40 40" fill="none" xmlns="http://www.w3.org/2000/svg">
<path d="M13.0553 8.52814C14.1874 8.45267 15.3194 8.30173 16.4515 7.99984C16.4515 8.98097 16.9043 9.88663 17.5836 10.5659C18.2628 11.2451 19.244 11.6225 20.2251 11.547C21.2062 11.4715 22.0364 11.0187 22.6402 10.3395C23.1685 9.66022 23.4704 8.75456 23.244 7.92437C24.4515 8.22626 25.7345 8.3772 26.9421 8.52814C29.5081 8.75456 31.9232 8.75456 34.3383 8.52814C35.5458 8.45267 36.8289 8.22626 38.0364 7.92437C36.8289 7.62248 35.5458 7.47154 34.3383 7.3206C31.9232 7.09418 29.5081 7.09418 26.9421 7.3206C25.7345 7.39607 24.4515 7.62248 23.244 7.92437C22.9421 9.50927 21.5081 10.4904 20.2251 10.3395C18.9421 10.264 17.8855 9.13192 17.9609 7.92437C17.8855 6.71682 18.9421 5.58475 20.2251 5.50927C21.5081 5.35833 22.9421 6.33946 23.244 7.92437C23.3949 7.16965 23.1685 6.26399 22.6402 5.58475C22.1119 4.9055 21.2062 4.45267 20.2251 4.3772C19.244 4.30173 18.2628 4.67909 17.5836 5.35833C16.9043 6.03758 16.4515 6.94324 16.4515 7.92437C15.3194 7.62248 14.1874 7.47154 13.0553 7.39607C10.6402 7.16965 8.22509 7.16965 5.65905 7.39607C4.4515 7.47154 3.16848 7.69795 1.96094 7.99984C3.16848 8.30173 4.4515 8.45267 5.65905 8.60361C8.22509 8.75456 10.6402 8.75456 13.0553 8.52814Z" fill="white"/>
<path d="M13.1307 16.7546C15.0175 16.7546 16.9043 16.6791 18.7157 16.6036C20.527 16.5281 22.2628 16.3772 24.0741 16.0753C24.0741 17.0564 24.527 18.0376 25.2062 18.6413C25.8855 19.3206 26.8666 19.6979 27.8477 19.6225C28.8289 19.547 29.6591 19.0942 30.2628 18.4149C30.7911 17.7357 31.093 16.83 30.8666 15.9998C32.7534 16.981 36.2251 16.981 38.1119 15.9998C36.1496 15.0187 32.7534 15.0187 30.8666 15.9998C30.5647 17.5847 29.1308 18.5659 27.8477 18.4149C26.5647 18.3395 25.5081 17.2074 25.5836 15.9998C25.5081 14.7923 26.5647 13.6602 27.8477 13.5847C29.1308 13.4338 30.5647 14.4149 30.8666 15.9998C31.0175 15.1696 30.7911 14.264 30.2628 13.5847C29.7345 12.9055 28.8289 12.4527 27.8477 12.3772C26.8666 12.3017 25.8855 12.6791 25.2062 13.3583C24.527 14.0376 24.0741 15.0187 24.0741 15.9244C22.2628 15.6225 20.527 15.4715 18.7157 15.3961C16.8289 15.2451 14.9421 15.2451 13.1307 15.2451C11.244 15.2451 9.35716 15.3206 7.54584 15.3961C5.65905 15.4715 3.77226 15.698 1.96094 15.9998C3.84773 16.3017 5.73452 16.4527 7.54584 16.6036C9.35716 16.6791 11.244 16.7546 13.1307 16.7546Z" fill="white"/>
<path d="M8.82816 24.1508C8.90363 25.0564 9.28099 26.0376 9.96024 26.6413C10.6395 27.3206 11.6206 27.698 12.6017 27.6225C13.5829 27.547 14.4131 27.0942 15.0168 26.4149C15.5451 25.7357 15.847 24.83 15.6206 23.9998C17.5074 24.3017 19.3942 24.4527 21.2055 24.6036C23.0923 24.7546 24.9791 24.7546 26.7904 24.7546C28.6772 24.7546 30.564 24.6791 32.3753 24.6036C34.2621 24.5281 36.1489 24.3017 37.9602 23.9998C36.0734 23.698 34.1867 23.547 32.3753 23.3961C30.4885 23.2451 28.6017 23.2451 26.7904 23.2451C24.9036 23.2451 23.0168 23.3206 21.2055 23.3961C19.3187 23.4715 17.4319 23.698 15.6206 23.9998C15.3187 25.5847 13.8848 26.5659 12.6017 26.4149C11.3187 26.3395 10.2621 25.2074 10.3376 23.9998C10.2621 22.7923 11.3187 21.6602 12.6017 21.5847C13.8848 21.4338 15.3187 22.4149 15.6206 23.9998C15.7716 23.1697 15.5451 22.264 15.0168 21.5847C14.4885 20.9055 13.5829 20.4527 12.6017 20.3772C11.6206 20.3017 10.6395 20.6791 9.96024 21.3583C9.28099 22.0376 8.90363 22.9432 8.82816 23.8489C6.79043 22.9432 3.62061 23.0187 1.88477 23.9998C3.69609 24.9055 6.8659 25.0564 8.82816 24.1508Z" fill="white"/>
<path d="M14.7162 32.6036C16.0747 32.5281 17.3577 32.3772 18.7162 32.0753C18.7162 33.0565 19.169 34.0376 19.8483 34.6414C20.5275 35.3206 21.5087 35.698 22.4898 35.6225C23.4709 35.547 24.3011 35.0942 24.9049 34.4149C25.4332 33.7357 25.7351 32.83 25.5087 31.9998C26.5653 32.3017 27.6219 32.4527 28.6785 32.6036C30.8671 32.83 32.9049 32.83 34.9426 32.6036C35.9992 32.5281 37.0558 32.3017 38.1124 31.9998C37.0558 31.698 35.9992 31.547 34.9426 31.3961C32.9049 31.1697 30.8671 31.1697 28.6785 31.3961C27.6219 31.4715 26.5653 31.698 25.5087 31.9998C25.2068 33.5848 23.7728 34.5659 22.4898 34.4149C21.2068 34.3395 20.1502 33.2074 20.2256 31.9998C20.1502 30.7923 21.2068 29.6602 22.4898 29.5847C23.7728 29.4338 25.2068 30.4149 25.5087 31.9998C25.6596 31.1697 25.4332 30.264 24.9049 29.5847C24.3766 28.9055 23.4709 28.4527 22.4898 28.3772C21.5087 28.3017 20.5275 28.6791 19.8483 29.3583C19.169 30.0376 18.7162 30.9432 18.7162 31.9244C17.3577 31.6225 16.0747 31.4715 14.7162 31.3961C11.9238 31.1697 9.1313 31.1697 6.11243 31.3961C4.67847 31.4715 3.24451 31.698 1.81055 31.9998C3.24451 32.3017 4.67847 32.4527 6.11243 32.6036C9.20677 32.9055 11.9238 32.83 14.7162 32.6036Z" fill="white"/>
</svg>
