<svg width="40" height="40" viewBox="0 0 40 40" fill="none" xmlns="http://www.w3.org/2000/svg">
<path d="M29.6898 20.563C29.512 20.7112 29.3639 20.889 29.275 21.0964C29.0972 21.4816 29.0972 21.8075 29.0972 22.1334C29.0972 27.289 28.3565 30.0149 29.3046 31.9704C30.6379 34.6964 35.4676 34.7556 37.3935 30.8445C38.2824 29.0075 38.5194 26.6667 37.6305 24.889C37.275 24.1779 36.8602 23.7038 36.5342 23.4075C36.2379 23.1112 36.0305 22.9927 36.0009 23.0223C35.9713 23.0519 36.1194 23.2297 36.3565 23.5853C36.5935 23.9112 36.949 24.4149 37.1861 25.0964C37.8379 26.8149 37.4824 28.9186 36.6231 30.4593C34.9046 33.5408 31.2602 33.4223 30.312 31.4667C29.6305 29.9853 30.2528 27.7334 30.2528 22.5779C30.2528 22.4297 30.2528 22.2816 30.2528 22.163C30.2528 21.926 30.2824 21.689 30.312 21.6001C30.3713 21.5112 30.3416 21.5112 30.4898 21.4519C30.6379 21.4223 30.8453 21.3927 31.0231 21.3927C32.6824 21.4223 33.7194 21.9853 34.4009 22.3408C35.0824 22.726 35.4083 22.963 35.6157 23.0519C35.8231 23.1408 35.8824 23.1112 35.9416 23.0519C36.0009 22.9927 36.0602 22.9334 35.9416 22.726C35.8231 22.5186 35.5565 22.163 34.875 21.6297C34.5194 21.363 34.075 21.0667 33.4528 20.8001C33.4231 20.7704 33.3639 20.7704 33.3046 20.7408C33.4528 20.5334 33.6009 20.2371 33.7194 19.9112C34.6676 17.4519 35.0231 12.889 33.9268 9.36304C32.5046 4.88897 28.8898 2.45934 26.7268 1.77785C25.8972 1.51119 25.0379 1.30378 24.1194 1.15563C21.1268 0.651929 18.1342 0.740817 15.112 1.83711C10.7268 3.43711 7.4972 6.90378 6.34164 10.1334C4.94905 13.9853 5.83794 18.6667 5.83794 18.9927C5.92683 19.4371 5.98608 19.9408 6.34164 20.4445C6.4009 20.5038 6.43053 20.563 6.48979 20.6223L6.57868 20.7112L6.60831 20.7408C5.57127 21.3334 4.65275 22.1334 3.94164 23.0816C3.55645 23.5853 3.23053 24.1482 3.05275 24.7408C2.84534 25.3334 2.75645 25.926 2.72683 26.5186C2.72683 27.6445 2.96386 28.6519 3.26016 29.5112C3.11201 29.6297 2.96386 29.7482 2.78608 29.8964C1.54164 31.1408 1.36386 33.8075 2.9046 35.5556C3.17127 35.8519 3.4972 36.1186 3.82312 36.3556C4.17868 36.563 4.53423 36.7408 4.88979 36.8593C7.26016 37.689 10.7268 37.6001 13.2157 37.3038C13.8972 37.2149 14.4305 37.126 14.875 37.0371C14.9046 37.126 14.9342 37.2149 14.9639 37.3334C15.2009 37.926 15.6157 38.489 16.2083 38.8445C16.5046 39.0223 16.8602 39.1408 17.2157 39.1408C17.5713 39.1704 17.8972 39.1112 18.1935 38.9927C20.475 38.163 21.0972 34.8149 18.9935 33.3038C18.7268 33.0964 18.4602 32.9779 18.2528 32.9186C17.8379 32.8001 17.6009 32.8297 17.4824 32.8593C17.3639 32.9186 17.3342 32.9779 17.3342 33.0667C17.3342 33.1556 17.3342 33.2149 17.3935 33.3038C17.4824 33.3927 17.6305 33.4816 17.8972 33.6593C20.5046 35.526 18.2824 38.6667 16.7416 37.8371C15.6453 37.3038 15.2602 35.4075 15.7342 34.2223C15.8824 33.8667 16.1194 33.5704 16.3565 33.4223C16.5935 33.2742 16.8602 33.1853 17.0379 33.1556C17.2157 33.126 17.3342 33.0964 17.3342 33.0371C17.3342 33.0075 17.2453 32.9482 17.0379 32.889C16.8305 32.8593 16.5342 32.8297 16.149 32.9779C15.7639 33.0964 15.3787 33.4519 15.1416 33.8964C14.875 34.3408 14.7268 34.9038 14.6972 35.4667V36.0297C14.2824 36.0593 13.749 36.089 13.0972 36.1482C10.9342 36.2964 7.37868 36.4149 5.21571 35.763C4.59349 35.5853 4.03053 35.289 3.58608 34.8445C2.43053 33.6593 2.13423 31.526 3.11201 30.163C3.2009 30.0445 3.28979 29.926 3.37868 29.8371C4.0009 31.2593 5.00831 32.3853 6.16386 32.9482C8.06016 33.8667 10.6972 33.5112 11.675 31.6149C12.0009 30.963 12.0602 30.3704 12.0602 29.926C12.0602 29.0371 11.9416 28.6223 11.8528 28.4149C11.7639 28.2075 11.675 28.1779 11.6157 28.2075C11.5268 28.2075 11.4676 28.2371 11.4083 28.4445C11.349 28.6519 11.3194 29.0964 11.2305 29.8371C11.1713 30.2223 11.0824 30.6667 10.8157 31.1112C10.0453 32.4149 8.06016 32.563 6.72683 31.8816C5.77868 31.4075 4.91942 30.4593 4.41571 29.0964C4.11942 28.3556 3.91201 27.4667 3.94164 26.489C3.94164 25.5112 4.23794 24.5334 4.86016 23.6742C5.48238 22.7853 6.34164 21.9853 7.31942 21.4519C7.79349 21.1853 8.32683 20.9779 8.86016 20.8593C9.39349 20.7408 9.92683 20.7112 10.4305 20.7704C10.549 20.8001 10.5787 20.8001 10.6083 20.8297C10.6379 20.8593 10.6972 20.9186 10.7268 21.0075C10.7861 21.1853 10.8453 21.4519 10.8453 21.689C10.875 22.2223 10.9639 22.726 10.9935 23.2297C11.112 24.2075 11.2009 25.0964 11.2898 25.8371C11.4676 27.3186 11.6157 28.2371 11.7046 28.2075C11.7935 28.1779 11.7935 27.289 11.7639 25.7779C11.7342 25.0371 11.7046 24.1482 11.675 23.1704C11.6453 22.6667 11.6157 22.163 11.6157 21.6297C11.6157 21.363 11.5861 21.0667 11.4972 20.7112C11.4379 20.5334 11.349 20.3556 11.1713 20.1779C10.9935 20.0001 10.7565 19.9112 10.5787 19.9112C10.1046 19.8519 9.6009 19.8223 9.12682 19.8816C9.36386 18.8742 7.26016 12.4149 13.5713 8.26674C16.4453 6.37045 19.5268 6.04452 22.875 6.54822C23.6453 6.66674 24.3861 6.84452 25.0676 7.05193C29.5713 8.50378 29.7787 14.1334 30.2528 17.689C30.3416 18.5482 30.4602 19.3186 30.6379 19.9112C30.6676 20.0297 30.6972 20.1186 30.7565 20.2075C30.6083 20.2075 30.4305 20.2371 30.2528 20.2964C30.0453 20.3556 29.8676 20.4149 29.6898 20.563ZM30.5787 17.689C30.312 14.3408 30.2528 8.14823 25.275 6.42971C24.5342 6.16304 23.7639 5.98526 22.9639 5.83711C5.95645 2.87415 8.0009 19.7038 8.0009 19.7334C7.97127 19.7927 7.88238 19.8816 7.76386 19.9112C7.64534 19.9408 7.52683 19.9704 7.46757 19.9408C7.37868 19.9112 7.37868 19.9112 7.28979 19.7927C6.84534 19.1704 6.19349 14.0149 7.4972 10.5482C8.5046 7.64452 11.4972 4.44452 15.5268 2.96304C18.2824 1.95563 21.0676 1.83711 23.9713 2.28156C24.8305 2.42971 25.6305 2.60748 26.3713 2.84452C29.0972 3.67415 31.7046 6.01489 32.9194 9.65934C34.1935 13.5408 33.5713 19.1112 32.7713 20.5038C32.6528 20.4741 32.5342 20.4445 32.3861 20.4149C32.0009 20.326 31.5565 20.2371 31.0528 20.2371C31.0231 20.2371 30.9935 20.2371 30.9342 20.2371C30.9046 20.1186 30.875 20.0001 30.8453 19.8816C30.7268 19.289 30.6379 18.5482 30.5787 17.689Z" fill="white"/>
</svg>
