<svg width="100" height="100" viewBox="0 0 100 100" fill="none" xmlns="http://www.w3.org/2000/svg">
<path d="M82.0463 9.50149C81.9355 9.45718 81.8202 9.41235 81.7041 9.36664C81.7626 9.32461 81.8353 9.2421 81.8788 9.24902C82.0046 9.26889 82.1181 9.32461 82.2351 9.36664C82.1766 9.40948 82.1181 9.45055 82.0463 9.50149ZM70.8846 15.9152C70.7738 15.8719 70.6577 15.8264 70.5425 15.7816C70.601 15.7396 70.6727 15.6562 70.7171 15.6637C70.842 15.6827 70.9555 15.7396 71.0743 15.7816C71.0149 15.8227 70.9555 15.8653 70.8846 15.9152ZM83.0329 42.7589C82.9735 42.7177 82.8573 42.666 82.8662 42.6352C82.8954 42.5461 82.9735 42.4659 83.0329 42.3819C83.0923 42.4239 83.2092 42.4748 83.1986 42.5055C83.1711 42.5956 83.0923 42.6758 83.0329 42.7589ZM55.5834 43.0024C55.5125 43.0533 55.454 43.0944 55.3937 43.1364C55.3352 43.0533 55.2563 42.9722 55.228 42.8834C55.2182 42.8523 55.3352 42.8017 55.3937 42.7598C55.4576 42.842 55.5222 42.9239 55.5834 43.0024ZM59.3799 44.08C59.3214 44.122 59.2496 44.2045 59.2062 44.198C59.0803 44.1781 58.9669 44.122 58.849 44.08C58.9084 44.0381 58.9801 43.955 59.0236 43.9624C59.1485 43.9814 59.262 44.0381 59.3799 44.08ZM60.5198 44.4033C60.5907 44.3523 60.6501 44.3112 60.7095 44.2687C60.7689 44.3523 60.8469 44.4334 60.8753 44.5226C60.885 44.5533 60.7689 44.6042 60.7095 44.6462C60.6457 44.5636 60.5819 44.482 60.5198 44.4033ZM78.8579 44.7005C78.9288 44.7505 78.9873 44.7926 79.0467 44.8354C78.9288 44.8765 78.8145 44.9326 78.6895 44.9529C78.6469 44.959 78.5742 44.8765 78.5148 44.8354C78.6309 44.7897 78.7462 44.744 78.8579 44.7005ZM58.1283 74.5082C58.1992 74.5583 58.2586 74.601 58.3171 74.6429C58.1992 74.6842 58.0858 74.7408 57.9608 74.7607C57.9173 74.7681 57.8456 74.6842 57.7853 74.6429C57.9014 74.5973 58.0166 74.5524 58.1283 74.5082ZM93.7398 75.9082C93.629 75.8655 93.5129 75.8199 93.3976 75.775C93.457 75.7323 93.5288 75.6499 93.5723 75.6572C93.6973 75.6764 93.8107 75.7323 93.9295 75.775C93.8692 75.8162 93.8107 75.8582 93.7398 75.9082ZM63.4432 76.0179C63.5141 76.0679 63.5735 76.1099 63.6329 76.1519C63.5141 76.1938 63.4007 76.2498 63.2757 76.2704C63.2323 76.2763 63.1604 76.1938 63.101 76.1519C63.2163 76.107 63.3315 76.0613 63.4432 76.0179ZM64.7719 76.475C64.8428 76.4249 64.9023 76.3822 64.9616 76.3403C65.0201 76.4249 65.099 76.5052 65.1283 76.5942C65.1371 76.6252 65.0201 76.6759 64.9616 76.7179C64.8978 76.6362 64.834 76.5538 64.7719 76.475ZM87.0962 77.2295C87.1671 77.1794 87.2256 77.1367 87.285 77.0955C87.3443 77.1794 87.4232 77.2596 87.4507 77.348C87.4614 77.3796 87.3444 77.4311 87.2859 77.4724C87.2212 77.3907 87.1573 77.309 87.0962 77.2295ZM65.4164 89.1154C65.3454 89.0646 65.2861 89.0227 65.2276 88.9807C65.3455 88.9388 65.4589 88.8821 65.5839 88.8629C65.6273 88.8556 65.6991 88.9388 65.7585 88.9807C65.6433 89.0263 65.528 89.0712 65.4164 89.1154ZM66.4792 91.7564C66.4083 91.7056 66.3497 91.6644 66.2903 91.6217C66.4082 91.5798 66.5217 91.5238 66.6467 91.5039C66.6901 91.4973 66.7628 91.5798 66.8222 91.6217C66.7061 91.6673 66.5909 91.7122 66.4792 91.7564ZM24.0343 94.4519C23.9758 94.4099 23.8588 94.3591 23.8686 94.3282C23.8961 94.2391 23.9758 94.1582 24.0343 94.0743C24.0937 94.117 24.2099 94.1677 24.201 94.1987C24.1726 94.287 24.0937 94.368 24.0343 94.4519ZM29.5389 94.5858C29.4778 94.6653 29.414 94.747 29.3493 94.8287C29.2908 94.7875 29.1737 94.736 29.1835 94.7051C29.2119 94.616 29.2908 94.5358 29.3493 94.4519C29.4095 94.4938 29.468 94.5358 29.5389 94.5858ZM58.0512 96.716C57.9927 96.6733 57.8757 96.6225 57.8854 96.5916C57.9138 96.5033 57.9927 96.4216 58.0512 96.3384C58.1115 96.3803 58.2276 96.4311 58.2178 96.4621C58.1895 96.5511 58.1115 96.6321 58.0512 96.716ZM74.3035 15.7816C73.8204 16.0257 73.4827 16.1347 73.2629 15.7264C73.574 15.5208 73.8682 15.534 74.3035 15.7816ZM81.6031 41.576C81.4914 41.5717 81.3788 41.5671 81.2671 41.5628C81.2343 41.3966 81.1909 41.2293 81.182 41.0616C81.1802 41.0202 81.3105 40.9328 81.3504 40.9409C81.4763 40.9664 81.6819 41.0234 81.6864 41.0748C81.7006 41.2405 81.6376 41.4081 81.6031 41.576ZM57.1816 44.3408C57.1754 44.4202 57.1692 44.4995 57.1639 44.5801C56.929 44.6013 56.6932 44.633 56.4565 44.6396C56.3989 44.641 56.2748 44.5476 56.2872 44.5197C56.3227 44.4306 56.4033 44.2839 56.4769 44.2819C56.7092 44.2716 56.9458 44.3164 57.1816 44.3408ZM6.49498 51.8088C6.93995 52.1923 6.93995 52.5691 6.49498 52.9526C6.05 52.5691 6.05 52.1923 6.49498 51.8088ZM55.0729 96.5658C55.6818 96.5997 56.2544 96.0116 56.679 96.5577C56.4211 96.741 56.1817 96.9118 56.1578 96.928C55.7935 96.8058 55.4327 96.6858 55.0729 96.5658ZM77.2145 44.6255C77.429 44.6542 77.6656 44.6853 78.0122 44.7321C77.9475 44.9906 77.8961 45.2006 77.7729 45.6994C77.3758 45.1157 76.703 45.729 76.4539 45.1657C76.7003 44.9906 76.9432 44.8184 77.2145 44.6255ZM91.2667 77.3347C90.5912 77.5739 89.9912 77.4429 89.4106 77.4679C89.1757 77.4768 88.9372 77.4282 88.6731 77.4032C88.8796 77.0175 89.1748 76.7812 89.8201 76.7017C89.9991 76.8033 90.2455 76.9424 90.4858 77.0778C90.6666 76.9615 90.8457 76.8467 91.1515 76.6502C91.2002 76.9402 91.2357 77.15 91.2667 77.3347ZM12.4853 50.5428C11.2843 50.6326 11.7212 51.2759 11.161 51.5519C10.6008 51.8287 10.1878 52.2541 9.74809 52.5861C9.24284 52.5044 8.77748 52.7016 8.41937 52.4285C8.63742 51.6667 8.91399 51.0514 9.40506 50.9108C10.2055 50.6819 10.8676 50.0643 12.4853 50.5428ZM22.7056 93.6967C22.2651 93.6967 21.8237 93.6967 21.5701 93.6967C20.9816 93.4854 20.502 93.3662 20.112 93.1608C19.5597 92.8693 19.1431 92.371 18.5404 92.2267C17.8791 92.0678 17.5946 91.7064 17.1496 91.4377C16.6142 91.1138 16.1533 90.7289 15.6401 90.3844C15.3387 90.182 15.0541 90.0016 14.6065 89.8883C14.08 89.7536 13.651 89.3693 13.2547 89.0484C12.8443 88.7157 12.1095 88.8225 11.7611 88.3992C11.5129 88.0967 11.5688 87.6668 11.0307 87.485C10.4129 87.276 10.6061 86.7019 10.0973 86.4442C9.92537 86.3574 9.95286 86.2676 10.1753 86.1785C10.3464 86.1697 10.5175 86.1601 10.9066 86.1388C10.8038 86.6643 11.2621 87.0898 11.8542 87.2436C12.2823 87.354 12.6156 87.4777 12.9179 87.6926C13.7883 88.3131 14.6561 88.9358 15.5151 89.5497C16.2916 89.4783 16.5504 89.9545 17.0007 90.2166C17.4652 90.4874 17.8543 90.9136 18.3773 91.0218C19.0572 91.1609 19.2619 91.7225 19.784 91.7711C20.5135 91.8381 20.8601 92.173 21.2218 92.4822C21.6339 92.834 22.2757 92.8487 22.7056 93.1328C22.7056 93.322 22.7056 93.509 22.5576 93.6547C22.9698 93.7379 23.3811 93.7099 23.0212 94.0397C22.8971 93.9374 22.773 93.8343 22.7056 93.6967ZM51.9394 42.7598C52.106 42.7598 52.2966 42.7215 52.4358 42.7663C52.9925 42.942 53.534 43.1447 54.065 43.3316C54.065 43.536 54.065 43.7135 53.7069 43.8394C54.5818 43.9653 55.1943 43.7002 55.6393 44.1074C55.0853 44.3687 54.5658 44.4055 54.065 43.8909C53.8204 43.8909 53.5748 43.8909 53.3107 43.8909C52.8311 43.536 52.1787 43.2755 51.9394 42.7598C51.5981 42.6895 51.1186 42.9414 50.9218 42.5381C51.6247 42.3733 51.6247 42.3733 51.9394 42.7598ZM69.4796 65.3987C68.6544 65.4591 68.0924 65.2397 68.033 64.6862C67.6209 64.603 67.2096 64.631 67.5695 64.3013C67.6935 64.4036 67.8168 64.5066 67.885 64.6443C68.7094 64.5832 69.2705 64.8025 69.3308 65.3553C69.7438 65.4392 70.1542 65.4112 69.7943 65.741C69.6711 65.6379 69.547 65.5356 69.4796 65.3987ZM49.82 41.9587C49.3262 41.9587 48.8414 41.9587 48.3734 41.9587C48.3087 41.8063 48.22 41.699 48.2307 41.5952C48.2422 41.4929 48.3521 41.3957 48.4195 41.2963C48.673 41.4067 48.9105 41.5723 49.1844 41.6142C49.5328 41.6666 49.8413 41.6769 49.8129 42.0053C50.3572 42.2281 50.3572 42.2281 50.124 42.7272C49.5558 42.5875 49.9113 42.2474 49.82 41.9587ZM67.7122 77.147C66.8364 77.0219 66.2248 77.2861 65.7798 76.8791C66.3338 76.6178 66.8532 76.581 67.2042 77.0521C67.6173 77.1352 68.0286 77.108 67.6678 77.437C67.5446 77.3347 67.4205 77.2324 67.7122 77.147ZM81.643 43.6194C81.7609 43.3271 81.7219 43.0349 82.1872 43.2903C82.0419 43.3779 81.8974 43.4656 81.7644 43.409C81.6465 43.7011 81.6855 43.9932 81.2219 43.737C81.3664 43.6496 81.5109 43.5619 81.643 43.6194ZM40.7777 37.8546C41.1456 37.8442 41.322 37.9701 41.3087 38.2321C41.5684 38.2321 41.9868 38.1599 42.0621 38.243C42.4194 38.6407 43.1941 38.5081 43.5336 38.8718C44.2134 39.6004 45.536 39.7471 46.2814 40.4242C46.4933 40.6162 47.2068 40.3747 47.0074 40.8296C47.4196 40.913 47.8309 40.8857 47.471 41.2154C47.3469 41.1122 47.2228 41.0093 47.1555 40.873C46.7194 40.873 46.2832 40.873 45.8462 40.873C45.6583 40.7474 45.4216 40.4926 45.2895 40.5168C44.6593 40.6346 44.4776 40.1128 43.9307 40.1062C43.3528 40.0987 43.0753 39.7028 42.7739 39.4328C42.375 39.0742 41.7147 39.0912 41.3087 38.7908C41.3087 38.6039 41.3087 38.4175 41.3087 38.2321C40.9408 38.2416 40.7635 38.1159 40.9258 37.8971C40.5136 37.8131 40.1023 37.8419 40.4622 37.5116C40.5863 37.6145 40.7095 37.7177 40.7777 37.8546ZM34.931 16.7244C35.4513 16.6956 35.3724 16.9731 35.4868 17.202C35.594 17.4162 35.883 17.595 36.1338 17.7578C36.4068 17.9374 36.406 18.2215 36.5664 18.3745C36.8944 18.6905 37.1497 18.9679 37.0575 19.3661C37.5946 19.3521 37.74 19.7172 38.0671 19.905C38.3986 20.0948 38.7824 20.2928 38.6512 20.6718C39.1476 21.0289 39.8541 21.3291 40.0846 21.7575C40.3496 22.2538 40.744 22.6327 41.2839 22.9021C41.8467 23.1819 41.6739 23.7236 42.2084 23.9599C42.7668 24.2072 42.8643 24.6489 43.1312 25.0126C43.4467 25.4401 43.6967 25.8824 44.2657 26.1894C44.5458 26.3403 45.0077 26.5603 44.9811 26.7141C44.8614 27.4062 46.1148 27.4798 46.1139 28.1003C46.113 28.2461 46.3391 28.4321 46.5314 28.5322C47.6013 29.0917 47.9284 30.0603 48.9495 30.6647C49.9645 31.2653 50.8438 31.983 51.7834 32.6498C52.013 32.8131 52.2408 32.9759 52.567 33.2099C52.1832 33.2732 51.9438 33.3137 51.6673 33.3602C51.1842 32.7035 50.21 32.5328 49.4167 32.2157C48.6207 31.8976 47.7937 31.6538 47.0562 31.2329C46.589 30.9663 45.9916 30.6573 45.2754 30.6704C45.0165 30.2887 44.3402 30.3968 43.9998 30.1331C43.6399 29.855 42.9876 29.9772 42.7057 29.606C42.4371 29.2535 41.8583 29.244 41.4354 29.0615C40.518 28.6661 39.5208 28.3924 38.5741 28.0437C37.553 27.6681 36.5301 27.2958 35.5169 26.91C34.5764 26.5522 33.5375 26.3305 32.668 25.8737C32.6024 25.8383 32.5058 25.7728 32.4606 25.786C31.6007 26.0341 31.0857 25.3487 30.2853 25.3872C29.9928 25.4005 29.6825 25.2282 29.0638 25.0499C28.1881 25.0499 26.9568 25.0499 25.7238 25.0499C25.5138 24.9205 25.3197 24.8012 25.0918 24.6612C24.7851 24.6612 24.4359 24.6612 24.0866 24.6612C23.8854 24.5304 23.694 24.4044 23.4945 24.2727C22.9778 24.2727 22.4468 24.2727 21.9043 24.2727C21.2262 24.7578 20.5419 25.2486 19.8337 25.7572C19.503 25.7572 19.1582 25.7572 18.7124 25.7572C18.4606 25.9545 18.177 26.1785 17.9376 26.3668C17.7816 26.8835 18.6423 27.0698 18.5023 27.5922C18.4269 27.8749 18.8471 28.2239 19.0111 28.4919C18.8347 28.8619 18.4269 28.7693 18.145 28.8355C17.8889 28.9304 17.9669 28.9813 18.0777 29.1144C18.6663 29.8154 19.2318 30.5256 19.6103 31.3027C19.6457 31.3757 19.8966 31.3956 20.0482 31.4396C20.1076 31.2145 19.9046 30.9577 20.2033 30.7611C20.268 30.7538 20.3584 30.7243 20.385 30.7421C21.0037 31.1549 21.6171 31.573 22.1906 31.9632C22.0488 32.5247 22.9981 32.797 22.7056 33.3269C22.9529 33.3269 23.2011 33.3269 23.5442 33.3269C23.7808 33.4934 24.0645 33.6958 24.3003 33.8628C24.3003 34.1073 24.3003 34.2832 24.3003 34.4583C24.4775 34.5394 24.739 34.5946 24.8108 34.7093C24.8995 34.8514 24.8321 35.0429 24.8321 35.2128C25.1556 35.1708 25.3232 35.3105 25.3533 35.4992C25.3923 35.7524 25.3303 35.9951 24.8321 35.9681C24.8321 36.149 24.8321 36.3301 24.8321 36.4948C25.3028 36.9954 26.1413 37.2597 26.4259 37.8546C26.8726 37.8089 27.0366 38.0878 27.2396 38.2617C27.6084 38.576 27.6119 39.0728 28.1916 39.2922C28.7137 39.49 28.4008 40.0127 28.9362 40.2053C29.5248 40.419 29.5195 40.9159 29.8722 41.2456C30.1745 41.5269 30.7781 41.6694 30.6851 42.137C30.6762 42.1818 30.7542 42.2445 30.811 42.2856C31.6202 42.8636 32.4331 43.4392 33.245 44.0153C33.3957 44.8463 34.502 45.1482 35.1207 45.721C35.6321 46.1942 36.4848 46.4685 36.6471 47.1591C36.6932 47.36 37.1426 47.5028 37.358 47.6986C37.646 47.9606 38.06 47.9945 38.4474 48.1108C38.8445 48.23 38.5262 48.7048 39.0147 48.8756C39.4454 49.0257 39.8364 49.2326 40.2459 49.4151C40.1448 49.8796 40.7503 50.0224 41.0481 50.3065C41.2245 50.3065 41.4009 50.3065 41.6411 50.3065C41.7413 50.5126 41.8459 50.7312 41.9549 50.9586C42.8679 51.072 43.3687 51.5916 43.9724 52.0215C43.9724 52.1415 43.9724 52.2659 43.9724 52.3881C44.9013 52.6096 45.7195 52.985 46.0643 53.6246C46.4729 54.3813 47.2715 54.7383 48.2209 55.0283C48.2209 55.1527 48.2209 55.2779 48.2209 55.4037C49.2837 56.1567 50.3474 56.9097 51.4022 57.6678C51.4465 57.6995 51.4075 57.7893 51.4075 57.8519C51.7754 57.8423 51.9527 57.9682 51.8658 58.2074C52.2035 58.2692 52.6139 58.242 52.254 58.5725C52.13 58.4694 52.0076 58.3664 51.8658 58.2074C51.5715 58.2383 51.3942 58.1139 51.4075 57.8519C51.1416 57.8519 50.8748 57.8607 50.6116 57.846C50.5433 57.8416 50.4963 57.7481 50.421 57.7208C49.1091 57.2402 47.8353 56.7073 46.4446 56.3378C45.8161 56.1714 45.6229 55.4994 44.7586 55.5848C44.3721 55.1358 43.6116 55.0997 43.0443 54.8664C42.4947 54.6412 41.8857 54.4351 41.298 54.2326C40.8619 54.0817 40.2636 54.0987 40.0021 53.7181C39.7424 53.3383 39.0297 53.4377 38.7408 53.1727C38.1841 52.6597 37.3429 52.5058 36.6284 52.207C35.8422 51.8787 34.946 51.7079 34.2839 51.1986C33.9728 50.9586 33.3319 50.9888 33.0039 50.6833C31.7213 50.807 30.8748 50.0812 29.7845 49.8207C29.1064 49.6587 28.5302 49.1921 27.7732 49.1936C27.0508 49.1958 26.6218 48.6202 25.8675 48.7961C25.2895 48.5429 24.7018 48.3132 23.9838 48.3824C23.6186 47.8856 22.8838 48.1417 22.3608 47.9768C22.1348 47.9054 21.9637 47.7038 21.7412 47.6787C21.3095 47.6302 20.8592 47.664 20.3726 47.664C20.2033 47.561 20.0083 47.4425 19.7761 47.3011C19.4738 47.3011 19.1254 47.3011 18.7771 47.3011C18.5741 47.1694 18.3817 47.045 18.1796 46.9132C17.6664 46.9132 17.1354 46.9132 16.6107 46.9132C16.4148 46.7829 16.2233 46.6563 16.023 46.5237C14.4372 46.5237 12.8461 46.5237 11.2665 46.5237C11.13 46.4274 11.0041 46.3383 10.8127 46.2023C10.3659 46.2023 9.85268 46.2023 9.05492 46.2023C8.85725 46.2368 8.60729 46.6254 7.95933 46.5637C7.53296 46.5231 7.002 46.7351 6.604 46.9235C6.18207 47.1237 5.70518 47.229 5.29566 47.413C4.9934 47.5485 4.7319 47.636 4.38532 47.6964C4.19651 47.7295 4.17435 48.1196 3.98466 48.2992C3.72051 48.548 3.37037 48.7504 3.04861 48.9786C3.04861 49.3481 3.04861 49.7235 3.04861 50.093C2.86246 50.2358 2.68519 50.3727 2.50081 50.514C2.50081 50.885 2.50081 51.2612 2.50081 51.6203C2.31201 51.7683 2.13828 51.9052 2 52.0134C2 53.5547 2 55.06 2 56.5483C2.14803 56.6528 2.35987 56.7323 2.3838 56.8324C2.48219 57.2505 2.33328 57.7716 2.63644 58.0712C2.98745 58.4179 3.03798 58.7278 3.03976 59.0951C3.04064 59.2202 2.96883 59.4204 3.05127 59.4609C3.73558 59.7936 3.43686 60.3604 3.72051 60.7807C3.82511 60.9352 4.01391 61.0611 4.23108 61.2628C3.99619 61.4689 3.7932 61.647 3.59021 61.8266C3.7152 61.9164 3.84018 62.0055 3.96605 62.0938C4.22577 62.4442 4.05114 62.8218 4.11407 63.2627C4.21424 63.3503 4.51209 63.4908 4.50677 63.6255C4.46688 64.6214 5.83548 65.2927 5.71582 66.3313C5.86208 66.4439 6.03759 66.5801 6.22462 66.7251C6.22462 66.9636 6.22462 67.2146 6.22462 67.5834C6.54727 67.7637 6.96034 67.9941 7.29186 68.1796C7.29186 68.4725 7.29186 68.6617 7.29186 68.9083C8.34225 69.6414 8.85016 70.6417 9.68428 71.8135C9.85358 71.9327 10.295 72.2419 10.7506 72.5606C10.904 72.5606 11.0786 72.5606 11.2479 72.5606C11.5067 72.8675 11.8905 73.148 11.9792 73.4704C12.0891 73.8715 12.3435 74.1763 12.7761 74.3632C13.2379 74.5634 12.9959 74.9425 13.3239 75.1567C13.7148 75.4129 14.0339 75.733 14.4647 75.9443C15.2855 76.3477 15.3325 77.1176 16.1285 77.5482C16.8961 77.9633 17.7506 78.43 18.1628 79.0173C18.8958 80.0611 20.1421 80.7287 21.2466 81.4905C22.0559 82.0499 22.2695 82.8817 23.2322 83.3373C22.6454 83.6722 22.0062 83.4455 21.4061 83.511C21.22 83.3881 21.0294 83.2622 20.8326 83.1312C20.4878 83.1312 20.1341 83.1312 19.7796 83.1312C19.6546 83.0421 19.5296 82.9531 19.3107 82.797C18.8108 82.797 18.2169 82.797 17.7151 82.797C17.4962 82.6417 17.3721 82.5527 17.1718 82.4106C16.6541 82.3929 16.0584 82.3716 15.4929 82.351C15.3387 82.2413 15.2128 82.153 15.0488 82.0359C14.1394 82.0359 13.1909 82.0359 12.1857 82.0359C12.1281 82.2332 12.0785 82.4055 12.0155 82.6211C11.7177 82.8949 11.2373 82.6977 10.9279 82.7426C10.3473 83.1018 9.83053 83.422 9.41746 83.6766C9.41746 83.8783 9.3829 83.9578 9.42456 84.0012C9.5655 84.1529 9.73392 84.292 9.92981 84.4701C9.92981 84.7984 9.92981 85.1716 9.92981 85.5757C9.78355 85.6883 9.60716 85.8252 9.42101 85.968C9.42101 86.4597 9.42101 86.9624 9.42101 87.4674C10.4679 88.0209 10.6478 89.0933 11.7656 89.4915C12.1201 89.5673 12.355 89.6181 12.5687 89.6638C12.5846 89.8331 12.5961 89.956 12.6112 90.1194C13.4134 90.6553 14.2466 91.2117 15.1516 91.8168C15.1968 91.8168 15.3724 91.8168 15.6028 91.8168C15.7083 92.0287 15.8156 92.2481 15.9379 92.4976C16.1568 92.53 16.3997 92.5653 16.6444 92.6014C17.2055 92.9996 17.7852 93.3897 18.3285 93.8034C18.801 94.1626 19.5243 94.1825 20.042 94.5667C20.5304 94.9303 21.392 95.0819 21.8236 95.5412C22.2438 95.9866 23.1453 95.8577 23.499 96.3362C23.8509 96.3362 24.2054 96.3362 24.5502 96.3362C24.747 96.4672 24.9385 96.5938 25.1371 96.7256C25.4863 96.7256 25.8364 96.7256 26.191 96.7256C26.4667 97.0009 26.8221 97.1797 27.3052 97.0884C27.798 96.995 27.9771 97.3748 28.3609 97.4175C28.5027 97.3166 28.6286 97.2276 28.8768 97.0516C29.1232 97.3777 29.3705 97.7045 29.4778 97.8473C30.5893 97.8473 31.2985 97.8473 32.0067 97.8473C32.1317 97.9364 32.2567 98.0255 32.4995 98.1992C32.7947 98.2117 33.214 98.2293 33.6333 98.247C33.955 98.643 34.4931 98.6121 35.0728 98.6011C35.3121 98.4877 35.5869 98.3559 35.9672 98.1749C36.2039 98.2787 36.4831 98.4016 36.8146 98.5466C36.9396 98.4722 37.1213 98.3618 37.3172 98.2441C37.4918 98.3574 37.678 98.4781 37.8721 98.6033C38.3906 98.6033 38.9216 98.6033 39.4508 98.6033C39.5775 98.6938 39.7034 98.7829 39.9099 98.9301C40.5863 99.0913 41.3734 98.8911 42.0772 99C42.2678 98.8653 42.3928 98.7762 42.578 98.6445C44.8827 98.6445 47.2494 98.6445 49.6072 98.6445C49.7402 98.7394 49.8661 98.8278 50.0345 98.9485C52.1034 98.9485 54.2175 98.9485 56.3971 98.9485C56.9059 98.7461 57.4839 98.5149 58.1895 98.233C58.3783 98.233 58.7293 98.233 59.0706 98.233C59.2727 98.102 59.4632 97.9776 59.6467 97.8584C59.832 97.9754 60.0164 98.0924 60.1564 98.1815C60.6298 97.8709 61.0836 97.5742 61.5197 97.2887C61.5197 97.006 61.5197 96.7579 61.5197 96.5173C61.783 96.3303 62.0338 96.1529 62.2935 95.9682C62.9894 95.9682 63.6959 95.9682 64.3926 95.9682C64.5947 95.8357 64.787 95.7098 64.9856 95.5795C65.1549 95.5795 65.3295 95.5795 65.5644 95.5795C65.6672 95.369 65.7736 95.1497 65.8959 94.9001C66.1149 94.8663 66.3568 94.8287 66.7105 94.7743C66.9321 94.2715 66.7726 93.7106 66.8284 93.1476C66.9906 93.0232 67.1688 92.8877 67.3523 92.7471C67.3523 92.0008 67.3523 91.2456 67.3523 90.4882C67.2299 90.402 67.1032 90.3145 66.8576 90.1422C66.8399 89.9317 66.816 89.6343 66.7921 89.337C66.3294 89.0838 66.0679 88.7798 66.3241 88.4441C66.27 88.2947 66.2735 88.2218 66.2239 88.1843C65.9181 87.9568 65.4828 87.7728 65.3206 87.5049C65.154 87.2289 65.1203 86.9057 64.7205 86.7423C64.2073 86.534 64.2764 86.1027 63.9635 85.8318C63.6285 85.5411 63.1835 85.3144 62.8582 85.0192C62.6135 84.7977 62.4815 84.5121 62.3006 84.2567C62.0994 84.2567 61.9248 84.2567 61.7591 84.2567C61.3451 84.0093 61.5844 83.5125 61.0011 83.3336C60.4578 83.1665 60.5287 82.7175 60.2468 82.4283C59.9605 82.1339 59.4845 81.9778 59.3356 81.5582C59.223 81.2403 58.7204 80.9841 58.365 80.7184C57.9998 80.4461 57.6018 80.1973 57.2436 79.9536C57.4076 79.2853 56.4113 79.1749 56.1915 78.7156C56.2172 78.5971 56.2429 78.4793 56.2686 78.3578C56.6382 78.0943 57.108 78.2953 57.5113 78.2283C57.7064 78.3571 57.897 78.4837 58.0627 78.5934C58.4465 78.5934 58.7967 78.5934 59.106 78.5934C59.3188 78.466 59.5005 78.3571 59.6786 78.2504C60.0234 78.4948 60.3363 78.717 60.6785 78.9599C60.8575 78.851 61.0393 78.7413 61.2502 78.614C61.7404 78.614 62.2687 78.614 62.8245 78.614C62.9938 78.7259 63.1844 78.8525 63.3768 78.9798C63.7278 78.9798 64.0805 78.9798 64.4209 78.9798C64.6204 78.8488 64.8118 78.7237 64.9944 78.603C65.185 78.6133 65.357 78.6221 65.583 78.6331C65.6849 78.8378 65.7957 79.0564 65.9083 79.2809C67.0172 79.2514 67.9196 79.9617 69.2492 79.6747C69.3077 79.6401 69.5045 79.523 69.75 79.3788C70.7446 79.3788 71.8003 79.3788 72.9189 79.3788C73.0634 79.47 73.2567 79.5915 73.4729 79.7284C73.9702 79.7284 74.4994 79.7284 75.0454 79.7284C75.2209 79.6128 75.4133 79.4862 75.6092 79.3567C80.0315 79.3567 84.4591 79.3567 88.8849 79.3567C89.1615 78.8915 89.9655 79.06 90.3883 78.7045C90.6551 78.48 91.2135 78.43 91.6416 78.3012C91.7666 78.3895 91.8916 78.4793 92.0282 78.5757C92.4988 77.9773 92.966 77.3811 93.4703 76.7378C94.3949 76.8474 95.1199 76.5118 95.8539 76.2674C96.5603 76.0319 96.5798 75.3761 97 75.0213C96.7616 74.6959 96.5382 74.3905 96.3184 74.0909C96.1278 74.2094 95.9443 74.3227 95.7546 74.439C95.1997 73.6831 94.8327 72.8882 93.8763 72.317C93.168 71.8937 92.5511 71.4116 92.1159 70.7712C91.7525 70.2361 90.9166 69.8629 90.2908 69.4191C89.602 68.9296 88.9133 68.4409 88.2236 67.9514C87.5978 67.5068 87.0049 67.035 86.3374 66.6243C85.2879 65.9787 84.5442 65.1072 83.2536 64.6332C82.0684 64.1982 81.3664 63.3525 80.332 62.7496C80.1848 62.7496 79.9109 62.8019 79.848 62.7423C78.8898 61.8391 77.3244 61.4622 76.2624 60.6364C75.9079 60.3604 75.2049 60.3147 74.8132 59.9548C74.4497 59.6206 73.9321 59.4366 73.3798 59.243C72.8099 59.0421 72.341 58.6711 71.709 58.4599C71.1975 58.2883 70.9201 57.8769 70.2322 57.7819C69.703 57.7098 69.5497 57.0724 68.7821 57.0797C68.5862 57.0812 68.3442 56.8861 68.1961 56.7433C67.245 55.8373 65.622 55.4987 64.6505 54.6139C63.4184 54.3467 62.8715 53.4171 61.8361 53.0549C60.6785 52.6501 59.972 51.9729 59.0945 51.3995C58.5219 51.0278 57.6931 50.9866 57.2073 50.4905C56.7597 50.0334 56.1046 49.6786 55.5409 49.2782C54.9771 48.8778 54.4142 48.4781 53.8496 48.0777C53.2238 47.6331 52.5971 47.1885 51.9713 46.7432C51.4075 46.3434 50.8429 45.9432 50.2801 45.5427C49.7163 45.143 49.1525 44.7434 48.5888 44.3428C48.025 43.9432 47.4577 43.5458 46.9011 43.1402C46.7867 43.0571 46.7149 42.9443 46.6236 42.8452C46.6582 42.7295 46.6918 42.614 46.7264 42.4984C49.4672 43.1232 49.4672 43.1232 50.5779 43.8681C51.17 43.8903 51.818 43.8087 52.2027 44.2663C52.8205 44.0999 53.0288 44.6344 53.5721 44.666C53.9542 44.6882 54.3203 45.009 54.6819 44.9981C55.2741 44.9811 55.6198 45.2307 56.0612 45.3955C56.7145 45.639 57.3935 45.8489 58.1132 46.091C58.2187 46.0234 58.4049 45.9033 58.5884 45.7848C58.864 46.2362 59.6361 46.1065 60.0882 46.4231C60.425 46.6593 61.0632 46.6541 61.4896 46.3486C61.7697 46.1499 62.0507 46.0919 62.4779 46.2529C62.516 46.3878 62.5666 46.5591 62.6295 46.7763C62.9264 47.0494 63.4077 46.8529 63.8394 46.9162C64.0247 46.7999 64.2188 46.6784 64.4138 46.5556C65.2178 47.0082 65.2178 47.0082 66.0626 46.5599C66.1884 46.649 66.3134 46.738 66.4978 46.8683C67.6608 46.8683 68.8858 46.8683 70.2633 46.8683C70.3386 46.8264 70.538 46.716 70.8155 46.5629C71.4191 46.5629 72.1158 46.5629 72.864 46.5629C73.2868 46.819 73.8213 46.9706 74.5003 46.9051C74.8486 46.6703 75.2254 46.417 75.6491 46.1324C75.7652 46.3694 75.8716 46.5878 75.9868 46.8227C76.477 46.861 76.7003 46.4377 77.3004 46.4921C77.7968 46.5378 78.474 46.317 78.8587 46.057C79.3268 45.7385 79.7983 45.7943 80.3027 45.7805C80.925 45.5205 81.2095 45.0915 81.463 44.6401C81.6358 44.6401 81.8114 44.6401 81.9027 44.6401C82.5436 44.2443 83.1259 43.8725 83.7304 43.5194C83.8448 43.453 84.0469 43.461 84.3146 43.4176C84.3403 43.1416 84.3687 42.8434 84.3944 42.5639C84.5584 42.4239 84.7108 42.296 84.8597 42.1694C84.514 41.9233 84.2003 41.7019 83.8847 41.4774C83.7881 41.0726 83.9831 40.5935 83.3236 40.3247C83.5035 39.8 83.0621 39.4055 82.767 38.9785C82.5143 38.6128 82.3609 38.1806 81.9833 37.8986C81.4994 37.538 81.2255 37.1134 80.8567 36.7151C80.5279 36.3603 79.9907 36.1027 79.5572 35.8091C79.7611 35.6449 79.9233 35.5138 80.0891 35.3821C79.4783 35.0831 78.5237 35.1127 78.4829 34.3502C78.4723 34.1596 78.1124 33.9255 77.8332 33.8048C77.3829 33.6104 77.5628 33.2395 77.3111 33.0216C77.0389 32.9706 76.7996 32.9267 76.4858 32.8683C76.4433 32.7196 76.3936 32.5474 76.3343 32.3445C75.7457 31.9264 75.0986 31.4948 74.5021 31.0319C74.1891 30.789 73.8036 30.7303 73.4082 30.6181C73.0067 30.5048 73.2487 30.0773 72.8613 29.8381C72.5068 29.6179 72.0378 29.6452 71.756 29.4473C71.4741 29.2498 71.4829 28.9209 71.2135 28.6627C70.8775 28.3381 70.0505 28.625 70.0221 28.1135C69.9973 27.6638 69.4584 27.5129 69.1339 27.242C68.7891 26.9557 68.3885 26.7046 68.0126 26.4376C67.6377 26.1702 67.2619 25.9039 66.886 25.6365C66.8648 25.5175 66.8426 25.3981 66.8222 25.2797C66.2753 25.0226 65.7275 24.7659 65.2276 24.5304C65.2276 24.3338 65.2276 24.2078 65.2276 24.0822C65.0875 24.0189 64.9483 23.9053 64.8056 23.9024C64.1842 23.8884 63.7083 23.5519 63.6799 23.2606C63.6054 22.4906 62.7102 22.5039 62.0976 22.2374C62.0773 22.1175 62.0578 21.9981 62.0258 21.8046C61.2742 21.2733 60.4649 20.6997 59.6556 20.1263C58.8445 19.5516 58.0352 18.9768 57.6496 18.7029C57.1754 18.0956 56.9866 17.8549 56.7969 17.6128C57.1648 17.3463 57.6346 17.5464 58.0396 17.4794C58.2347 17.6082 58.4252 17.735 58.5821 17.8388C59.1503 17.9647 59.3799 17.6312 59.606 17.5171C60.6705 17.1933 61.2343 18.1287 62.5914 17.6459C62.3901 17.7629 62.587 17.6488 62.8414 17.5015C63.2943 17.5015 63.8164 17.5015 64.4236 17.5015C64.7249 17.5841 64.8987 17.9984 65.4775 17.8483C65.6477 17.7356 65.8383 17.6091 66.0351 17.4789C67.2663 17.4789 68.5055 17.4789 69.7323 17.4789C69.9255 17.3543 70.1108 17.2344 70.296 17.1151C70.4352 17.2137 70.5602 17.3029 70.6852 17.392C70.8456 17.4213 71.0034 17.4552 71.1665 17.4774C71.2525 17.4884 71.3464 17.4912 71.4306 17.4774C72.1531 17.359 72.77 16.9828 73.5624 17.0329C73.7911 16.7117 74.3283 16.8009 74.6492 16.6243C74.994 16.4357 75.2697 16.1833 75.5675 15.9647C75.7758 16.0973 75.9602 16.2149 76.1445 16.3319C76.9751 15.7425 77.7897 15.1645 78.6043 14.5869C78.6655 14.5426 78.732 14.503 78.8011 14.4567C78.9722 14.4567 79.1477 14.4567 79.3179 14.4567C79.6973 13.9339 80.0191 13.3908 80.472 12.9087C80.7105 12.6568 80.5704 12.4293 80.6413 12.1967C80.495 12.2381 80.3417 12.2717 80.2016 12.3236C79.9889 12.4 79.7859 12.4897 79.6086 12.5213C79.5209 12.7614 79.5599 13.0536 79.0954 12.7974C79.2399 12.71 79.3853 12.6223 79.6086 12.5213C79.5776 12.3905 79.5776 12.2071 79.5776 11.9805C79.9268 11.8972 79.9987 11.5271 80.4614 11.5012C80.7911 11.7088 80.5801 11.9693 80.6413 12.1967C80.7264 12.1967 80.8682 12.2189 80.8895 12.1933C81.0819 11.9495 81.237 11.6898 81.4364 11.4483C81.6297 11.2148 82.0968 11.126 82.1535 10.816C81.8557 10.584 81.4923 10.7298 81.2024 10.6349C81.1155 10.875 81.1546 11.1662 80.6901 10.9109C80.8346 10.8232 80.979 10.7358 81.2024 10.6349C81.1723 10.6254 81.1377 10.5236 81.1776 10.507C82.4425 9.94372 82.493 9.96153 82.985 9.19956C83.6613 8.15214 84.5052 7.20475 85.7798 6.47384C86.0422 6.32376 86.3134 6.18258 86.6591 5.99393C85.7878 5.791 85.7878 5.79099 83.8599 6.48422C83.7739 6.72425 83.8129 7.01639 83.3475 6.76024C83.492 6.6728 83.6374 6.58513 83.8599 6.48422C83.8297 6.35106 83.8297 6.16477 83.8297 5.97126C84.5362 5.46978 85.248 4.96491 86.0954 4.36222C85.6354 4.32027 85.2391 4.22451 85.1797 4.28862C84.7693 4.72657 83.9272 4.63022 83.4734 5.01437C83.4016 5.07473 83.0249 4.95394 82.532 4.87666C83.2899 4.44393 83.8891 4.10232 84.4848 3.76078C84.3306 3.49418 84.2703 3.21676 84.14 3.19836C83.7039 3.138 83.3227 3.05777 83.0692 2.77453C82.7182 2.77453 82.3734 2.77453 81.8992 2.77453C81.6332 3.00257 81.3008 3.28603 81.0278 3.51862C80.6342 3.51862 80.3719 3.51862 80.1396 3.46577C80.0519 3.70639 80.0908 3.99765 79.6273 3.74179C79.7717 3.65406 79.9162 3.56639 80.1396 3.46577C80.1689 3.00396 79.4854 3.23656 79.13 3.0181C79.0963 2.90106 79.0467 2.72882 78.9828 2.51176C78.8924 2.40047 78.7719 2.38067 78.6416 2.48386C78.5228 2.57646 78.3473 2.75473 78.2746 2.73633C77.5584 2.55747 77.351 3.35676 76.6436 3.14919C76.2758 3.40968 75.9079 3.67165 75.5267 3.94186C75.2422 3.86744 75.0117 3.80789 74.6731 3.72023C75.6455 3.35161 75.845 2.68253 76.3041 2.13563C75.9274 1.88463 75.4673 2.07012 75.0543 2.01345C73.0217 3.45687 73.0218 3.45686 71.3234 3.91087C70.5593 4.46085 69.7553 5.03793 68.9416 5.62391C69.0373 5.89242 68.8051 6.05951 68.5711 6.25817C68.3716 6.42901 68.3247 6.68428 68.1775 6.89134C67.916 7.25414 67.6297 7.60811 67.3532 7.96665C67.737 8.52761 66.8186 8.81916 66.8 9.316C66.7876 9.6869 65.9544 10.691 65.552 11.0236C64.7905 11.0236 64.0194 11.0236 63.3094 11.0236C63.1259 10.8934 63.0009 10.8048 62.8555 10.7019C62.5275 10.7019 62.1792 10.7019 61.8308 10.7019C61.6296 10.5717 61.4372 10.4471 61.2325 10.314C60.9001 10.314 60.5482 10.314 60.2016 10.314C60.0039 10.1843 59.8125 10.0578 59.6122 9.92671C59.2691 9.92671 58.9181 9.92671 58.591 9.92671C58.3809 9.79275 58.1886 9.66909 58.0104 9.55581C57.5424 9.55581 57.1001 9.55581 56.6622 9.55581C56.0772 9.33727 55.4939 9.11933 54.7192 8.83013C54.424 8.83013 53.9054 8.83013 53.3842 8.83013C53.1697 8.70271 52.9747 8.58568 52.731 8.44222C52.0901 8.44222 51.3898 8.44222 50.6878 8.44222C50.4821 8.31253 50.2889 8.19122 50.0726 8.05491C48.8698 8.05491 47.6359 8.05491 46.3993 8.05491C46.2034 7.92558 46.0129 7.79876 45.817 7.66847C45.4731 7.66847 45.1185 7.66847 44.7745 7.66847C44.5786 7.53966 44.3881 7.41321 44.1931 7.28292C42.9556 7.28292 41.7217 7.28292 40.4994 7.28292C40.3629 7.18576 40.2379 7.09751 40.0464 6.96119C39.6006 6.96119 39.0891 6.96119 38.5723 6.96119C38.3428 6.839 38.1424 6.73286 37.8446 6.57387C36.835 6.57387 35.711 6.57387 34.5959 6.57387C34.5232 6.69981 34.4612 6.80647 34.4 6.91401C34.7404 6.98334 35.2191 6.73146 35.4167 7.13483C34.7138 7.30044 34.7138 7.30044 34.4 6.91401C33.7042 6.9701 32.4526 7.40798 31.7913 7.82319C31.7913 9.37327 31.7913 10.9152 31.7913 12.4434C32.1459 12.5346 32.449 12.6133 32.7025 12.6789C33.2486 13.2221 31.7319 13.4659 32.4588 14.0297C32.6804 13.9458 32.9179 13.8552 33.1555 13.7646C33.4977 13.9613 33.2699 14.2298 33.3354 14.461C33.4197 14.461 33.5544 14.4374 33.5792 14.4639C34.0765 15.0211 34.3096 15.6784 34.9132 16.2017C35.0356 16.3086 34.931 16.5469 34.931 16.7244Z" fill="#FE6338"/>
<path d="M15.5 11.0001C8.83725 11.8693 32 103.5 34.5 98.5001C37 93.5001 86 82.0001 86 82.0001C86.5 73.5001 82.9075 21.0805 79.5 11.5001C71.5503 11.577 22.1627 10.1309 15.5 11.0001Z" fill="#343740"/>
<path d="M36.2991 97.9463C52.3123 92.3765 67.484 86.3522 84.295 83.3059C85.3458 83.1158 85.265 81.4379 84.2031 81.6324C67.9304 84.624 50.427 88.9834 36.0236 97.3838C35.7127 97.5663 35.9633 98.0633 36.2991 97.9463Z" fill="white"/>
<path d="M34.8525 98.684C23.4284 70.4637 16.2796 41.0809 14.951 10.6157C14.8985 9.39888 12.9962 9.50147 13.0551 10.7192C14.5367 41.1002 21.2775 71.2813 34.2326 98.891C34.4064 99.2607 35.0124 99.0797 34.8525 98.684Z" fill="white"/>
<path d="M14.1835 11.1252C36.1439 11.2697 58.7231 9.97623 80.5762 12.5496C81.9259 12.7084 82.0683 10.6834 80.7227 10.7177C58.5561 11.2998 36.3328 9.28261 14.124 10.0427C13.4191 10.0673 13.4884 11.1214 14.1835 11.1252Z" fill="white"/>
<path d="M86.3777 81.8716C88.0745 77.6408 87.293 73.4013 86.8895 68.9402C86.3324 62.7913 85.7084 56.6498 85.1035 50.5047C83.8518 37.8049 82.5488 25.1091 81.2617 12.4124C81.1391 11.1919 79.2172 11.2905 79.347 12.517C80.5508 23.9833 81.7388 35.4518 82.9656 46.9156C83.5795 52.6469 84.1832 58.3812 84.8188 64.1113C85.449 69.7873 87.071 75.9868 85.6947 81.6283C85.5985 82.0203 86.2213 82.2618 86.3777 81.8716Z" fill="white"/>
<path d="M81.9409 77.8329C79.693 57.9148 76.1628 38.1615 74.0715 18.2096C73.9749 17.2783 72.5098 17.3545 72.6107 18.2894C74.7581 38.1649 76.9563 58.4245 81.7875 77.8628C81.8091 77.9488 81.9508 77.9221 81.9409 77.8329Z" fill="white"/>
<path d="M42.4167 88.525C54.8221 84.8244 67.1877 81.002 79.5393 77.1324C80.4252 76.8553 79.9638 75.4687 79.08 75.7672C66.8235 79.9172 54.584 84.1131 42.3863 88.4306C42.3251 88.4516 42.3553 88.5423 42.4167 88.525Z" fill="white"/>
<path d="M40.5313 88.2902C31.2454 65.1909 24.5179 41.3047 21.1471 16.626C21.0382 15.8256 19.7691 15.8911 19.8831 16.695C23.4086 41.4209 29.9422 65.5818 40.0821 88.4412C40.2035 88.7151 40.6471 88.5772 40.5313 88.2902Z" fill="white"/>
<path d="M20.8416 16.9992C38.1548 16.9121 55.1814 17.5396 72.3851 19.616C73.4674 19.7465 73.831 18.081 72.7467 17.9582C55.5911 16.0195 38.0453 15.2434 20.807 16.3691C20.3989 16.3952 20.4356 17.0011 20.8416 16.9992Z" fill="white"/>
<path d="M44.9853 84.192C46.0426 83.8954 47.0893 83.5691 48.1374 83.2401C48.6223 83.0885 48.3628 82.3127 47.8849 82.493C46.8564 82.8803 45.8318 83.2687 44.8154 83.6869C44.4982 83.8167 44.6517 84.2861 44.9853 84.192Z" fill="white"/>
<path d="M43.0679 83.0077C44.1537 82.9244 45.2696 82.4413 46.3027 82.1195C46.8636 81.9448 46.5555 81.0414 46.0134 81.2594C45.0083 81.6605 43.8301 81.9903 42.9371 82.6104C42.7639 82.7298 42.8475 83.0248 43.0679 83.0077Z" fill="white"/>
<path d="M63.3126 30.1805C57.277 30.8393 51.2262 31.1631 45.1533 31.1534C44.7091 31.1533 44.6952 31.8473 45.142 31.8432C51.24 31.7873 57.3131 31.3928 63.3674 30.667C63.643 30.6326 63.5919 30.15 63.3126 30.1805Z" fill="white"/>
<path d="M62.4272 26.8929C51.7644 28.3442 40.9967 28.4091 30.1792 27.409C29.5063 27.3469 29.4791 28.3733 30.1549 28.431C41.0584 29.3587 51.8174 28.8544 62.5093 27.2334C62.7342 27.1989 62.6508 26.8623 62.4272 26.8929Z" fill="white"/>
<path d="M32.4729 41.0487C38.7537 41.4396 44.8528 40.9988 50.7947 39.9207C51.1644 39.8537 51.3582 40.4647 50.9862 40.5292C44.983 41.568 38.8125 41.7463 32.4857 41.2555C32.3525 41.2449 32.3412 41.0404 32.4729 41.0487Z" fill="white"/>
<path d="M33.5816 53.2379C46.2691 52.9178 58.7348 50.9557 70.9944 47.7384C71.7571 47.5383 72.0425 48.734 71.2754 48.9294C58.8983 52.0784 46.334 53.5247 33.571 53.6519C33.3024 53.654 33.3155 53.2445 33.5816 53.2379Z" fill="white"/>
<path d="M35.4258 66.5248C45.6728 66.086 55.7642 64.3272 65.7074 61.5599C66.3259 61.3879 66.5392 62.3473 65.9171 62.5157C55.8802 65.2296 45.7165 66.5741 35.4113 66.8585C35.1944 66.864 35.2109 66.5339 35.4258 66.5248Z" fill="white"/>
<path d="M61.5075 43.9697C52.4695 45.9528 43.2285 46.7613 33.8583 46.6653C33.2754 46.6594 33.3356 47.5364 33.9206 47.5383C43.3588 47.5666 52.5565 46.3841 61.6057 44.2542C61.796 44.209 61.6971 43.928 61.5075 43.9697Z" fill="white"/>
<path d="M72.5444 53.9205C60.2423 57.031 47.7087 58.5008 35.0331 58.7066C34.2446 58.7195 34.2939 59.9476 35.0854 59.929C47.8555 59.6258 60.3443 57.6328 72.6669 54.3162C72.9261 54.2459 72.8024 53.8552 72.5444 53.9205Z" fill="white"/>
<path d="M88.628 88.3264C89.4503 87.6008 90.2714 86.8748 91.0937 86.1493C91.5201 85.7723 90.9236 85.0837 90.5416 85.4786C89.7744 86.2702 89.0072 87.0618 88.2401 87.853C87.9711 88.1308 88.3269 88.5929 88.628 88.3264Z" fill="white"/>
<path d="M89.3315 91.8316C90.6791 92.5075 92.3971 91.9641 93.1256 90.642C93.3384 90.2535 92.7944 89.9593 92.59 90.3578C92.0163 91.4749 90.6112 91.8842 89.5024 91.3671C89.2119 91.2319 89.0524 91.6911 89.3315 91.8316Z" fill="white"/>
</svg>
