<svg width="100" height="100" viewBox="0 0 100 100" fill="none" xmlns="http://www.w3.org/2000/svg">
<path d="M6.23725 53.6351C6.26751 53.733 6.29984 53.834 6.33206 53.9361C6.27166 53.9212 6.17605 53.9197 6.15709 53.8872C6.10202 53.7931 6.07805 53.6871 6.04285 53.5865C6.1038 53.601 6.16356 53.6164 6.23725 53.6351ZM16.6706 57.3839C16.7016 57.4812 16.7339 57.5832 16.7663 57.6842C16.7059 57.6693 16.6102 57.6688 16.5911 57.6355C16.5359 57.5425 16.5128 57.4358 16.4766 57.334C16.5369 57.35 16.5981 57.3652 16.6706 57.3839ZM28.277 34.3115C28.2815 34.3737 28.3096 34.4792 28.2839 34.4907C28.2074 34.5215 28.1105 34.5151 28.0212 34.5231C28.0173 34.4605 27.9881 34.3549 28.0148 34.3446C28.0909 34.3122 28.1883 34.319 28.277 34.3115ZM43.3931 52.2505C43.4663 52.2686 43.526 52.284 43.5874 52.3001C43.5628 52.3853 43.5507 52.4828 43.5058 52.5514C43.4901 52.5752 43.392 52.5266 43.3317 52.5116C43.3527 52.4234 43.3731 52.3348 43.3931 52.2505ZM42.0568 49.1453C42.1172 49.1603 42.2123 49.1613 42.2315 49.1935C42.2866 49.2876 42.3103 49.3938 42.346 49.495C42.2852 49.4794 42.1897 49.4788 42.1711 49.446C42.1159 49.3531 42.0926 49.2465 42.0568 49.1453ZM41.6554 48.2132C41.5822 48.1951 41.5219 48.1791 41.4607 48.1639C41.4851 48.0778 41.4977 47.9809 41.5428 47.9121C41.5583 47.8884 41.6561 47.9364 41.717 47.9519C41.6957 48.0403 41.6751 48.1281 41.6554 48.2132ZM31.8691 35.9705C31.8644 35.8958 31.8611 35.8336 31.8578 35.7705C31.9499 35.8251 32.0503 35.8688 32.1322 35.9397C32.1595 35.9643 32.1431 36.0585 32.1475 36.1207C32.0532 36.0699 31.9594 36.0197 31.8691 35.9705ZM63.3951 32.8842C63.3904 32.8094 63.387 32.7463 63.3837 32.6842C63.4759 32.7387 63.5761 32.7816 63.6577 32.8527C63.6864 32.8772 63.6685 32.9716 63.6733 33.0344C63.5791 32.9836 63.4859 32.9329 63.3951 32.8842ZM44.9492 8.64763C44.9806 8.74457 45.0128 8.84664 45.0451 8.94774C44.9838 8.9326 44.8887 8.9316 44.87 8.89886C44.815 8.80582 44.7912 8.6997 44.7554 8.59752C44.8163 8.61406 44.8766 8.62904 44.9492 8.64763ZM61.5251 28.5366C61.5204 28.4618 61.5166 28.3991 61.5127 28.3365C61.6059 28.3911 61.7057 28.4344 61.7877 28.5051C61.8154 28.5304 61.7985 28.624 61.8024 28.6867C61.7091 28.636 61.6154 28.5857 61.5251 28.5366ZM61.1117 27.405C61.0391 27.3864 60.9777 27.3712 60.9169 27.3557C60.9425 27.2696 60.954 27.1726 60.9985 27.1033C61.0147 27.0802 61.1129 27.1287 61.1732 27.1436C61.1525 27.2316 61.1314 27.3199 61.1117 27.405ZM49.4647 12.2806C49.3921 12.262 49.3312 12.2475 49.2709 12.2315C49.2955 12.1453 49.307 12.0483 49.352 11.9806C49.3677 11.9558 49.4664 12.004 49.5262 12.0193C49.506 12.1078 49.4853 12.1957 49.4647 12.2806ZM69.3418 19.883C69.3459 19.9583 69.3498 20.0209 69.3532 20.083C69.2605 20.0289 69.1602 19.986 69.0791 19.9145C69.0505 19.89 69.0678 19.796 69.064 19.7334C69.1577 19.7836 69.251 19.8343 69.3418 19.883ZM70.5558 17.7002C70.5599 17.7755 70.5638 17.8372 70.5672 17.9002C70.4745 17.8462 70.3747 17.8029 70.2931 17.7317C70.265 17.7068 70.2814 17.6127 70.2775 17.55C70.3717 17.6008 70.465 17.6515 70.5558 17.7002ZM95.5038 44.137C95.5071 44.1991 95.5364 44.3047 95.5101 44.3156C95.4347 44.3475 95.3363 44.3405 95.2474 44.3491C95.2441 44.286 95.2153 44.181 95.2411 44.1695C95.3165 44.1386 95.4144 44.1451 95.5038 44.137ZM92.5965 40.437C92.6838 40.4326 92.774 40.4288 92.8648 40.4255C92.8686 40.4872 92.8974 40.5932 92.8711 40.6041C92.7952 40.6354 92.6977 40.6285 92.6089 40.6371C92.6046 40.5739 92.6012 40.5118 92.5965 40.437ZM78.5131 20.4653C78.5159 20.5278 78.5452 20.6334 78.5189 20.6444C78.4435 20.6753 78.345 20.6692 78.2567 20.6774C78.2524 20.6141 78.2236 20.5091 78.2499 20.4982C78.3258 20.4669 78.4233 20.4728 78.5131 20.4653ZM14.7178 55.2076C15.1466 55.3886 15.4045 55.5498 15.2471 55.9238C14.9381 55.8344 14.7868 55.6332 14.7178 55.2076ZM28.2528 35.9172C28.3107 35.9932 28.3689 36.0699 28.4268 36.1459C28.3318 36.2608 28.2419 36.3833 28.1329 36.4833C28.1058 36.5077 27.9755 36.471 27.9592 36.4402C27.908 36.343 27.8347 36.1756 27.8672 36.1437C27.9719 36.0414 28.12 35.9888 28.2528 35.9172ZM43.4312 50.4465C43.4884 50.406 43.5457 50.3656 43.6033 50.3239C43.7456 50.4666 43.8955 50.6041 44.029 50.7562C44.0613 50.7934 44.0655 50.9276 44.0398 50.935C43.96 50.9617 43.8165 50.991 43.775 50.9437C43.6415 50.7965 43.543 50.6155 43.4312 50.4465ZM76.1081 79.6309C76.126 79.1225 76.3819 78.9109 76.8846 78.9886C76.8666 79.4969 76.6108 79.7085 76.1081 79.6309ZM80.0333 22.5109C79.7246 22.0909 79.0135 22.044 79.153 21.4578C79.4179 21.5247 79.6642 21.5865 79.6882 21.5931C79.8037 21.9016 79.9187 22.2066 80.0333 22.5109ZM32.7133 37.0949C32.616 36.9375 32.5082 36.7642 32.3512 36.5096C32.5619 36.4071 32.7324 36.3231 33.1382 36.1242C32.9582 36.7134 33.741 36.8121 33.4943 37.2923C33.2412 37.2284 32.992 37.1652 32.7133 37.0949ZM47.2646 9.4752C47.7949 9.78567 48.0328 10.2544 48.366 10.6227C48.4999 10.7724 48.5968 10.9567 48.7237 11.1447C48.3494 11.2252 48.0282 11.1635 47.6228 10.7832C47.5942 10.6083 47.5544 10.3679 47.5155 10.1337C47.3381 10.0799 47.1626 10.0265 46.8626 9.93543C47.033 9.7405 47.1561 9.59937 47.2646 9.4752ZM71.9859 76.397C72.701 77.1375 72.8997 76.4885 73.3922 76.7025C73.8853 76.916 74.3991 76.9491 74.8639 77.0522C75.0836 77.4308 75.471 77.6265 75.4806 78.0156C74.8447 78.2998 74.2763 78.4632 73.9134 78.2188C73.3221 77.8202 72.5422 77.7309 71.9859 76.397ZM95.7148 45.4361C95.9547 45.7262 96.1952 46.0168 96.3332 46.1838C96.5104 46.69 96.6907 47.0727 96.7637 47.4449C96.8666 47.9722 96.7552 48.5263 96.9856 49.0043C97.2378 49.529 97.1474 49.9193 97.2074 50.3632C97.2792 50.8976 97.2689 51.4172 97.3146 51.9486C97.3413 52.2608 97.3739 52.5494 97.5407 52.9078C97.736 53.3302 97.7089 53.8284 97.7068 54.2695C97.7045 54.7266 98.1772 55.1506 98.0796 55.6176C98.0094 55.9509 97.6872 56.1555 97.8568 56.6119C98.0514 57.1361 97.5564 57.3313 97.6587 57.811C97.6934 57.973 97.6174 58.0053 97.4358 57.9088C97.3366 57.8011 97.2369 57.6938 97.0105 57.4495C97.4233 57.2222 97.4625 56.6815 97.2444 56.2052C97.0862 55.8613 96.9886 55.5724 96.9699 55.2526C96.917 54.331 96.8671 53.4099 96.816 52.4996C96.3446 52.0284 96.5269 51.5905 96.4595 51.1469C96.3904 50.6889 96.4678 50.1934 96.2564 49.7882C95.9806 49.2624 96.2503 48.8122 95.9989 48.4412C95.647 47.9232 95.6856 47.5069 95.6985 47.0951C95.7129 46.6262 95.3733 46.1953 95.332 45.7527C95.4604 45.6464 95.5874 45.5415 95.7669 45.5571C95.5989 45.239 95.3559 44.9838 95.7758 45.0357C95.7739 45.1748 95.7715 45.3144 95.7148 45.4361ZM45.2131 54.7863C45.1224 54.6766 44.9926 54.5726 44.9472 54.4558C44.7633 53.9905 44.6059 53.5201 44.4436 53.0655C44.5824 52.9507 44.7028 52.8511 44.9834 53.0162C44.5923 52.3694 44.0787 52.1149 44.1128 51.5932C44.5919 51.8113 44.8999 52.1327 44.8233 52.7515C44.9565 52.9126 45.0902 53.0742 45.2341 53.2482C45.2544 53.7632 45.4329 54.3391 45.2131 54.7863C45.3513 55.0505 45.7835 55.2248 45.6169 55.5809C45.1222 55.2105 45.1222 55.2105 45.2131 54.7863ZM51.0283 30.5242C51.5188 31.0337 51.6759 31.527 51.3325 31.8769C51.5006 32.195 51.7436 32.4501 51.3237 32.3983C51.3256 32.2591 51.3284 32.1201 51.3847 31.9979C50.8942 31.4894 50.7375 30.9967 51.0799 30.6466C50.9119 30.3275 50.6694 30.073 51.0893 30.1248C51.0864 30.2638 51.0846 30.403 51.0283 30.5242ZM45.8237 56.6318C46.0926 56.9569 46.3567 57.2762 46.6116 57.5844C46.5434 57.7126 46.5188 57.8312 46.4426 57.8824C46.3668 57.9323 46.241 57.9145 46.1368 57.926C46.0737 57.697 46.0567 57.4476 45.936 57.2437C45.7818 56.9849 45.6208 56.7759 45.8592 56.6102C45.714 56.1267 45.714 56.1268 46.1798 56C46.3944 56.4526 45.9699 56.4095 45.8237 56.6318ZM59.9665 25.0915C60.3585 25.7384 60.871 25.9928 60.8371 26.5144C60.3579 26.2963 60.05 25.9749 60.1786 25.4792C60.0101 25.1605 59.7676 24.905 60.1875 24.9578C60.1851 25.0964 60.1833 25.2356 59.9665 25.0915ZM29.6183 34.7436C29.3556 34.8301 29.1785 35.0198 29.0984 34.57C29.2371 34.6165 29.3753 34.6624 29.4093 34.7818C29.6718 34.6954 29.8488 34.5057 29.9274 34.9548C29.7894 34.9087 29.6512 34.8628 29.6183 34.7436ZM47.9625 64.8906C47.7551 64.6542 47.7445 64.4673 47.9296 64.329C47.7882 64.158 47.5113 63.923 47.5266 63.8267C47.602 63.3682 47.0901 62.9325 47.1521 62.5047C47.2764 61.6479 46.6556 60.6947 46.7093 59.8236C46.7242 59.5762 46.1716 59.242 46.5891 59.1179C46.4212 58.7996 46.1786 58.5441 46.5985 58.5959C46.596 58.7356 46.5937 58.8751 46.5379 58.996C46.7754 59.2832 47.013 59.5704 47.251 59.8581C47.2681 60.0524 47.224 60.3513 47.3124 60.4247C47.7356 60.7736 47.4804 61.1862 47.7738 61.5501C48.0834 61.9349 47.9658 62.3399 47.9466 62.69C47.9205 63.1539 48.2917 63.5793 48.3089 64.0153C48.182 64.1202 48.0555 64.2249 47.9296 64.329C48.1364 64.5659 48.1477 64.7532 47.9108 64.7693C48.0783 65.0878 48.3218 65.3425 47.9015 65.291C47.9038 65.1515 47.9068 65.0124 47.9625 64.8906ZM36.8026 80.6053C36.4996 80.2788 36.731 80.175 36.8241 79.9712C36.911 79.7803 36.8751 79.4896 36.8489 79.233C36.8222 78.9523 37.0155 78.7934 37.032 78.6018C37.0679 78.2084 37.1172 77.8845 37.4377 77.7217C37.1356 77.3758 37.3043 77.0751 37.2536 76.7542C37.2019 76.4294 37.1273 76.0654 37.456 75.939C37.4281 75.4116 37.2471 74.7779 37.4124 74.3855C37.6049 73.9324 37.6473 73.4598 37.5362 72.9531C37.4196 72.4253 37.8814 72.235 37.7507 71.7503C37.6145 71.2437 37.8612 70.9315 37.9627 70.5516C38.0811 70.1038 38.2452 69.6909 38.1437 69.1437C38.0936 68.8745 37.9914 68.4469 38.1103 68.378C38.6453 68.0682 38.0126 67.2015 38.4343 66.8537C38.5337 66.7724 38.5369 66.5191 38.5001 66.3363C38.2972 65.3176 38.7766 64.5583 38.6307 63.5465C38.4857 62.5409 38.4939 61.5589 38.4348 60.5658C38.4207 60.3229 38.4071 60.0815 38.3882 59.7353C38.6403 59.9525 38.7981 60.0873 38.9804 60.2433C38.7977 60.9302 39.2123 61.6676 39.4292 62.368C39.6468 63.0708 39.9318 63.7523 40.0477 64.4743C40.1212 64.9316 40.2368 65.4985 40.6358 65.9628C40.5176 66.3476 40.9594 66.7322 40.9658 67.1044C40.973 67.4976 41.4113 67.8585 41.3128 68.2526C41.2198 68.6274 41.5286 69.0139 41.635 69.3948C41.8663 70.2209 42.2236 71.0313 42.5025 71.8505C42.8037 72.7338 43.1081 73.6165 43.398 74.5003C43.6674 75.3205 44.0828 76.1291 44.2462 76.9582C44.258 77.0212 44.2661 77.1217 44.2997 77.144C44.9365 77.5709 44.7517 78.2949 45.2137 78.8004C45.3821 78.9856 45.4341 79.2866 45.6501 79.7941C46.1271 80.3708 46.7977 81.1816 47.4693 81.9935C47.4958 82.2045 47.5206 82.3993 47.5496 82.6279C47.7166 82.8299 47.9069 83.0599 48.0971 83.2899C48.1178 83.4959 48.1366 83.6927 48.1559 83.8979C48.4373 84.2382 48.7265 84.5879 49.022 84.9451C49.7206 85.1193 50.4265 85.2943 51.1576 85.4751C51.3377 85.6928 51.5255 85.9199 51.7683 86.2135C52.0393 86.2685 52.3459 86.3295 52.6041 86.3814C53.0398 86.194 52.6975 85.5226 53.1284 85.3215C53.3614 85.2124 53.3695 84.7397 53.4621 84.4813C53.8094 84.3897 53.9686 84.7102 54.167 84.8586C54.371 84.974 54.363 84.8941 54.393 84.7464C54.5483 83.9652 54.7224 83.194 55.0439 82.5084C55.0741 82.4441 54.951 82.2677 54.8983 82.1432C54.7131 82.2305 54.6494 82.5083 54.3532 82.4221C54.313 82.3835 54.2437 82.3406 54.2413 82.3131C54.1846 81.6738 54.1343 81.0351 54.0868 80.4384C54.5453 80.2165 54.213 79.4385 54.7321 79.3335C54.5974 79.1707 54.4622 79.0072 54.2753 78.7813C54.2595 78.532 54.2424 78.2316 54.2274 77.9825C54.3933 77.8453 54.5127 77.7465 54.6316 77.6482C54.5901 77.4859 54.4852 77.2827 54.5239 77.171C54.5721 77.0329 54.7388 76.9697 54.8541 76.8743C54.6494 76.6848 54.653 76.4961 54.7646 76.3703C54.9153 76.2024 55.1139 76.107 55.3669 76.4502C55.4896 76.3486 55.6126 76.2469 55.7244 76.1544C55.8079 75.5634 55.5306 74.8628 55.7795 74.3414C55.5051 74.0729 55.6051 73.8083 55.6126 73.577C55.6251 73.1577 55.9605 72.8764 55.7937 72.3715C55.6436 71.9166 56.1689 71.8292 56.008 71.3684C55.8325 70.8609 56.1727 70.5854 56.2044 70.1679C56.2307 69.811 55.9987 69.3334 56.3668 69.1322C56.4021 69.1128 56.4021 69.0262 56.3991 68.9658C56.3507 68.1084 56.2987 67.2499 56.2476 66.3917C56.7296 65.8259 56.3321 64.9279 56.3839 64.1989C56.4266 63.5963 56.1484 62.8808 56.5288 62.3863C56.6401 62.2431 56.4923 61.8669 56.5079 61.6152C56.5289 61.2783 56.3264 60.9867 56.1943 60.6663C56.059 60.3379 56.5546 60.2809 56.4045 59.8634C56.2718 59.4954 56.1993 59.1218 56.1002 58.7496C56.4705 58.5554 56.2377 58.0765 56.2684 57.7209C56.1723 57.6047 56.0762 57.4886 55.9454 57.3304C56.0308 57.1487 56.1222 56.9571 56.2172 56.7576C55.7969 56.0927 55.8769 55.4711 55.8399 54.8322C55.9214 54.7649 56.0058 54.695 56.0888 54.6264C55.7332 53.8903 55.5424 53.1407 55.7888 52.5545C56.0799 51.8606 55.8873 51.1342 55.5671 50.3462C55.6516 50.2764 55.7365 50.2061 55.8219 50.1354C55.7543 49.0128 55.6861 47.8895 55.6262 46.7692C55.6236 46.7222 55.7058 46.6975 55.7482 46.6624C55.5414 46.4255 55.5303 46.2381 55.74 46.161C55.598 45.9039 55.356 45.6489 55.7764 45.7003C55.774 45.8399 55.7707 45.9783 55.74 46.161C55.9213 46.3374 55.9334 46.524 55.7482 46.6624C55.8931 46.8375 56.0444 47.0082 56.1778 47.1898C56.212 47.2373 56.1741 47.3207 56.1966 47.3856C56.5849 48.5194 56.9169 49.6574 57.4235 50.7807C57.6529 51.2879 57.302 51.7925 57.8306 52.3137C57.7363 52.8203 58.1261 53.3414 58.2767 53.846C58.4231 54.3344 58.6149 54.8511 58.7976 55.3517C58.9327 55.7237 59.27 56.1081 59.1541 56.494C59.0377 56.8783 59.4934 57.2918 59.4709 57.6309C59.4258 58.2855 59.7795 58.9258 59.9658 59.5641C60.1712 60.2662 60.5433 60.9522 60.5582 61.6742C60.5648 62.0139 60.9343 62.4189 60.9056 62.8064C61.6881 63.5816 61.6565 64.5466 62.0735 65.4108C62.3329 65.9483 62.3299 66.5897 62.7432 67.0874C63.1382 67.5619 62.9811 68.1676 63.5114 68.5655C63.6543 69.0883 63.8185 69.6042 64.2565 70.0382C64.1181 70.5577 64.6922 70.8977 64.8652 71.3347C64.9398 71.5236 64.8961 71.7495 65.0003 71.9101C65.2024 72.2216 65.4706 72.4991 65.7357 72.8196C65.758 72.989 65.7837 73.1839 65.8143 73.4162C65.9789 73.6152 66.1686 73.8446 66.3584 74.074C66.3795 74.2817 66.3998 74.4782 66.4205 74.6853C66.7 75.0232 66.9892 75.3729 67.275 75.7184C67.2933 75.9206 67.3116 76.1177 67.3307 76.3241C68.1944 77.3684 69.061 78.4161 69.9213 79.4563C69.9303 79.6003 69.9384 79.7332 69.9503 79.9357C70.1936 80.2299 70.4732 80.5678 70.9077 81.0932C71.0388 81.2039 71.4388 81.1503 71.7498 81.6117C71.9545 81.9152 72.3876 82.1458 72.7323 82.3021C73.098 82.4675 73.4292 82.7225 73.7772 82.8888C74.0337 83.0118 74.2356 83.1348 74.4654 83.3292C74.5907 83.4349 74.8676 83.2305 75.0928 83.2545C75.4056 83.2888 75.7337 83.4057 76.0639 83.4895C76.3147 83.282 76.5696 83.0712 76.8204 82.8637C77.0187 82.9061 77.2082 82.946 77.4046 82.988C77.6564 82.7797 77.9118 82.5685 78.1556 82.3669C78.3589 82.4081 78.5465 82.4456 78.6952 82.4759C79.7416 81.6105 80.7634 80.7653 81.7738 79.9296C81.7641 79.7734 81.7027 79.5893 81.7576 79.5173C81.9879 79.2178 82.4227 79.0232 82.461 78.6554C82.5052 78.2296 82.688 78.0223 82.9364 77.8149C83.0208 77.7441 83.1959 77.6789 83.1784 77.6019C83.0316 76.9645 83.579 76.843 83.7099 76.4202C83.7578 76.2645 83.7404 76.0695 83.7591 75.8133C84.0269 75.8522 84.2584 75.8859 84.4909 75.9187C84.4838 75.786 84.4762 75.6536 84.4676 75.5212C84.564 75.1534 84.9154 75.0564 85.1805 74.7674C85.1854 74.6522 85.1186 74.3772 85.2129 74.305C85.9107 73.7721 85.621 72.4939 86.3912 71.9896C86.388 71.83 86.3849 71.638 86.3814 71.4334C86.5433 71.2995 86.7137 71.1586 86.9641 70.9515C86.9108 70.6378 86.8422 70.2364 86.7875 69.914C86.9864 69.7495 87.1148 69.6432 87.2822 69.5048C87.2078 68.4014 87.6102 67.5053 87.9514 66.2981C87.9401 66.1196 87.9096 65.6554 87.8778 65.1764C87.7943 65.0754 87.6992 64.9604 87.6069 64.8489C87.6743 64.5061 87.6557 64.0959 87.8262 63.8565C88.0387 63.5589 88.107 63.2203 87.9983 62.8304C87.8827 62.4139 88.2718 62.3604 88.2386 62.0242C88.1996 61.6229 88.2432 61.233 88.1519 60.8307C87.9787 60.0637 88.4758 59.6005 88.3345 58.8345C88.1983 58.0959 88.0496 57.2712 88.2239 56.67C88.5332 55.6012 88.3076 54.4056 88.2232 53.2506C88.1622 52.4035 88.6104 51.7958 88.3954 50.9061C88.9424 51.1045 89.1366 51.6526 89.5079 52.011C89.5259 52.2026 89.5442 52.3988 89.5625 52.6019C89.7503 52.829 89.9429 53.0619 90.136 53.2954C90.1436 53.4277 90.1512 53.56 90.1646 53.7918C90.4368 54.121 90.7603 54.5121 91.0336 54.8424C91.0474 55.0738 91.0545 55.2056 91.0672 55.4172C91.3372 55.7681 91.6471 56.1723 91.9411 56.5563C91.9507 56.7194 91.9593 56.8519 91.9692 57.0256C92.4645 57.6245 92.9811 58.249 93.5286 58.911C93.6939 58.8381 93.8378 58.7741 94.0185 58.6945C94.3666 58.7368 94.4944 59.164 94.6934 59.3425C95.2534 59.5231 95.7523 59.6836 96.1501 59.8127C96.2871 59.6994 96.3599 59.6775 96.3666 59.6257C96.3928 59.4478 96.3955 59.2587 96.4098 59.0297C96.6326 58.8454 96.886 58.6359 97.1603 58.409C97.3164 58.442 97.5054 58.4813 97.7037 58.5237C98.0375 58.2476 98.3788 57.9654 98.7216 57.6818C98.5272 56.6817 99.1572 55.961 98.8187 55.0014C98.6771 54.7253 98.5836 54.5421 98.4982 54.3758C98.6045 54.2702 98.6817 54.1936 98.7844 54.092C98.7112 53.2628 98.6352 52.4017 98.553 51.466C98.5283 51.4362 98.4327 51.3206 98.3072 51.1689C98.3937 50.9804 98.4842 50.7866 98.5869 50.5659C98.4897 50.4036 98.3814 50.2238 98.2726 50.0424C98.2373 49.4494 98.1864 48.8486 98.1713 48.2585C98.1578 47.7457 97.7773 47.2582 97.7562 46.7016C97.737 46.1758 97.3707 45.5233 97.4474 44.9811C97.5208 44.4544 96.9424 43.9331 97.0746 43.4316C96.8829 43.1998 96.6898 42.9663 96.502 42.7393C96.4837 42.5361 96.4654 42.339 96.4467 42.1342C96.2565 41.9042 96.0658 41.6737 95.8726 41.4402C95.9094 41.1041 95.8372 40.7696 95.5121 40.5027C95.1802 40.2307 95.3405 39.8995 95.1605 39.6228C95.0148 39.586 94.8857 39.5531 94.6311 39.4885C94.7183 39.1431 94.8054 38.7967 94.844 38.6459C94.2385 37.914 93.8523 37.447 93.4665 36.9806C93.4589 36.8483 93.4513 36.716 93.437 36.4585C93.2847 36.2571 93.0683 35.9711 92.8519 35.6851C92.9455 35.2509 92.6315 34.9139 92.3082 34.5384C92.1009 34.4444 91.8618 34.3374 91.5318 34.1887C91.4733 33.9746 91.4047 33.7217 91.3226 33.422C91.204 33.3814 91.0301 33.3237 90.8435 33.2609C90.8253 33.0822 90.8059 32.8919 90.7851 32.6938C90.5026 32.3523 90.2134 32.0027 89.9252 31.6542C89.9176 31.5199 89.9095 31.387 89.897 31.1683C89.638 30.6324 89.0734 30.2265 88.764 29.7019C88.5688 29.652 88.4402 29.6197 88.2499 29.5717C86.9946 28.0541 85.7056 26.4956 84.4213 24.9429C84.4134 24.8021 84.4048 24.6696 84.395 24.4909C83.2681 23.1285 82.1167 21.7364 80.9295 20.301C80.515 20.0796 80.0433 19.8288 79.4676 19.5225C79.3648 19.3981 79.1736 19.167 78.9877 18.9423C78.7887 18.8828 78.6004 18.8271 78.4195 18.7732C78.3981 18.5855 78.3771 18.3984 78.3613 18.2562C77.8926 18.1189 77.4441 17.9866 77.0126 17.8598C76.8208 18.0185 76.6524 18.1578 76.489 18.2929C76.2187 18.2245 75.9616 18.1589 75.6947 18.0916C75.3157 17.6334 74.9309 17.1682 74.5515 16.7094C74.3514 16.6507 74.1612 16.5947 73.9646 16.5371C73.8724 16.4256 73.7773 16.3107 73.6494 16.156C73.4505 16.2065 73.2436 16.2596 73.0076 16.3191C72.8654 16.194 72.7081 16.0557 72.4785 15.8534C72.0165 15.9897 71.7226 16.4097 71.3099 16.6891C71.1372 16.6522 70.9482 16.6109 70.7528 16.569C70.2461 16.9881 69.7334 17.4121 69.2193 17.8374C69.2274 17.9663 69.237 18.099 69.2538 18.3574C69.1206 18.4873 68.9317 18.67 68.7429 18.8527C68.823 19.2996 68.7591 19.6425 68.3917 19.6622C68.3197 19.7817 68.2683 19.8203 68.2699 19.8741C68.282 20.2032 68.3941 20.5931 68.3006 20.8504C68.204 21.1151 68.003 21.3187 68.1098 21.6737C68.2479 22.1287 67.9174 22.3253 67.904 22.6835C67.8891 23.0674 67.9776 23.4877 67.9544 23.8676C67.9372 24.1531 67.8153 24.4005 67.7404 24.6629C67.85 24.7954 67.9451 24.9104 68.0354 25.0196C68.0929 25.431 67.6253 25.5524 67.8215 26.0369C68.0041 26.4886 67.6606 26.694 67.6178 27.042C67.5739 27.3959 67.7272 27.797 67.5235 28.1306C67.3689 28.3833 67.4688 28.8581 67.482 29.2413C67.496 29.6347 67.5439 30.0365 67.5736 30.4092C67.0305 30.6764 67.4982 31.3945 67.3062 31.7972C67.2117 31.8468 67.1178 31.896 67.0213 31.9473C66.6411 31.8518 66.5216 31.4296 66.2565 31.2016C66.2377 31.0009 66.2199 30.8043 66.204 30.6336C65.995 30.3808 65.8043 30.1503 65.6358 29.9465C65.4335 29.878 65.2605 29.8195 65.0911 29.7621C65.0691 29.3978 65.0496 29.0669 65.0282 28.7052C64.8567 28.6485 64.6833 28.5904 64.4819 28.523C64.2149 28.2002 63.9272 27.8523 63.6245 27.4863C63.6082 27.312 63.5903 27.1154 63.572 26.9172C63.3808 26.6861 63.1887 26.4538 63.0033 26.2297C62.8057 26.1719 62.6165 26.116 62.4351 26.0636C62.3383 25.9323 62.2506 25.8141 62.135 25.6591C62.2184 25.4771 62.3065 25.2814 62.3975 25.0812C61.7736 24.3675 61.7643 23.3744 60.8452 22.66C60.7899 22.6409 60.6032 22.5771 60.3716 22.4964C59.8299 21.8415 59.2549 21.1463 58.6456 20.4096C58.6288 20.2632 58.606 20.0678 58.5812 19.8485C58.3103 19.521 58.0221 19.1726 57.7247 18.813C57.5507 18.7623 57.3599 18.7067 57.1653 18.6505C54.7566 15.7384 52.3451 12.8228 49.9345 9.9083C49.4681 9.98739 49.1446 9.3633 48.6729 9.28449C48.3752 9.23485 48.0371 8.89524 47.7165 8.68564C47.7083 8.55374 47.7012 8.42099 47.6923 8.27696C47.0297 8.30302 46.3705 8.33017 45.6591 8.35927C45.23 7.68888 44.6072 7.39988 44.0416 7.0538C43.4969 6.72083 43.041 7.07623 42.5714 6.99876C42.4804 7.33845 42.3947 7.65706 42.311 7.97003C42.4953 8.02899 42.6722 8.0862 42.8544 8.1458C42.6435 8.93566 42.3037 9.62367 42.4369 10.5742C42.5353 11.2782 42.5441 11.9552 42.3464 12.6014C42.1811 13.1412 42.383 13.9011 42.4225 14.5625C42.4654 15.2908 42.5087 16.0188 42.552 16.7478C42.5911 17.4095 42.5938 18.0649 42.6785 18.7351C42.8119 19.7887 42.6253 20.7677 43.0065 21.8838C43.3567 22.9085 43.1649 23.8456 43.3191 24.8653C43.3992 24.9622 43.5839 25.1132 43.5777 25.1881C43.4865 26.3262 44.0833 27.5687 44.101 28.7317C44.1067 29.1202 44.4586 29.6087 44.4277 30.0688C44.3988 30.4957 44.5558 30.9399 44.7251 31.4123C44.8992 31.9004 44.9027 32.4175 45.1035 32.9523C45.2657 33.3854 45.1375 33.7991 45.4477 34.3054C45.6869 34.6944 45.3377 35.1533 45.7608 35.6546C45.8685 35.7828 45.8679 36.0517 45.8516 36.2294C45.7545 37.3645 46.4087 38.6233 46.3372 39.7599C46.8269 40.7213 46.4937 41.6034 46.8117 42.4885C47.1674 43.4781 47.0925 44.3236 47.1812 45.2234C47.2407 45.8092 47.6642 46.3781 47.592 46.9765C47.5255 47.528 47.6414 48.1586 47.6767 48.7546C47.7119 49.3507 47.7471 49.9458 47.7828 50.5424C47.8219 51.2042 47.8614 51.8665 47.8999 52.5286C47.9356 53.1243 47.9715 53.7208 48.0061 54.3164C48.0418 54.9121 48.0776 55.5077 48.1128 56.1038C48.1485 56.6995 48.1877 57.2962 48.2156 57.8905C48.2214 58.0125 48.184 58.1231 48.1664 58.2389C48.0691 58.281 47.9723 58.3237 47.875 58.3659C46.8063 56.2102 46.8063 56.2102 46.7071 55.0605C46.3997 54.6582 45.9913 54.2773 46.0925 53.767C45.643 53.4536 45.8924 53.0164 45.6179 52.6408C45.4249 52.3768 45.4433 51.9555 45.2389 51.7235C44.9049 51.3431 44.886 50.9753 44.7574 50.5921C44.5669 50.0252 44.3396 49.4602 44.1119 48.8503C44.0086 48.8188 43.8256 48.7637 43.6452 48.7094C43.8015 48.2744 43.293 47.8388 43.2617 47.3633C43.2386 47.0089 42.8874 46.5915 42.4478 46.4823C42.1604 46.4094 41.9679 46.257 41.8445 45.8852C41.9153 45.7844 42.0041 45.6549 42.1173 45.4915C42.1409 45.1426 41.7454 44.936 41.5532 44.6162C41.3734 44.5595 41.1852 44.4999 40.9956 44.4404C40.8649 43.6569 40.8649 43.6569 40.1005 43.3523C40.0924 43.2194 40.0848 43.0871 40.0728 42.8925C39.4394 42.1267 38.7722 41.32 38.0219 40.4129C37.9524 40.3869 37.7688 40.3176 37.5138 40.2208C37.185 39.8233 36.8055 39.3645 36.398 38.8719C36.3416 38.4496 36.1535 38.0125 35.7392 37.6022C35.39 37.5046 35.0129 37.3988 34.5889 37.2796C34.6865 37.0701 34.7769 36.8773 34.8736 36.6696C34.6325 36.3253 34.2236 36.4159 33.9337 35.9901C33.6943 35.6376 33.1756 35.3156 32.7895 35.2083C32.3184 35.079 32.0994 34.7371 31.8153 34.4127C31.2999 34.1489 30.8537 34.2024 30.4092 34.289C30.315 34.1751 30.2194 34.0595 30.1697 33.9994C29.5519 33.7997 28.9823 33.6249 28.4134 33.4251C28.306 33.3871 28.2014 33.2495 28.0261 33.0976C27.8247 33.2356 27.6068 33.3844 27.4031 33.5244C27.2188 33.495 27.0489 33.4665 26.8819 33.4394C26.9031 33.8053 26.9237 34.1363 26.9431 34.4701C26.7209 34.761 26.2895 34.9016 26.4662 35.4868C26.012 35.663 25.9846 36.1752 25.8555 36.6093C25.7449 36.981 25.535 37.3246 25.5492 37.7317C25.568 38.2528 25.4289 38.6716 25.3594 39.1381C25.2977 39.5539 25.4154 40.0523 25.4522 40.5025C25.2297 40.4605 25.0523 40.4273 24.8726 40.392C25.0023 40.9621 25.5423 41.5741 25.0469 42.0291C24.9233 42.1431 24.9604 42.5116 25.0305 42.7633C25.1439 43.1689 24.7941 43.2587 24.7832 43.5468C24.8969 43.7546 24.9974 43.9369 25.1287 44.1763C25.0509 44.2878 24.961 44.4172 24.8556 44.5703C24.8924 45.1926 24.9518 45.861 24.9625 46.5138C24.968 46.8562 25.1382 47.1431 25.2773 47.4664C25.4191 47.7944 24.9971 47.8751 25.0457 48.2645C25.0893 48.6217 25.3633 48.9151 25.3825 49.2118C25.4019 49.5083 25.1738 49.6872 25.1453 50.0097C25.1079 50.4131 25.7531 50.7966 25.4213 51.1025C25.1296 51.3713 25.3207 51.811 25.3135 52.1767C25.3069 52.5646 25.3547 52.9694 25.3781 53.3668C25.4008 53.7639 25.4247 54.1609 25.4479 54.5585C25.3787 54.6393 25.3097 54.721 25.2404 54.8009C25.3638 55.3054 25.4879 55.8102 25.6003 56.2717C25.4668 56.3821 25.3813 56.4528 25.296 56.5234C25.3293 56.6511 25.3281 56.8066 25.4038 56.9022C25.7327 57.3192 25.7636 57.8216 25.5813 58.0038C25.0991 58.4852 25.5958 59.0673 25.7484 59.6203C25.6781 59.701 25.6078 59.7809 25.4938 59.9106C25.5425 60.7039 25.5939 61.5589 25.6454 62.4138C25.697 63.2706 25.7476 64.1262 25.7717 64.534C25.6177 65.1872 25.5572 65.4467 25.4961 65.7076C25.1148 65.615 24.9948 65.1932 24.7287 64.9641C24.7099 64.7634 24.6922 64.5667 24.6772 64.4051C24.4532 63.9602 24.1017 63.9963 23.9011 63.9115C23.1015 63.3923 23.4294 62.4959 22.3625 61.8733C22.5516 61.9401 22.3669 61.8746 22.1284 61.7897C21.8817 61.4914 21.5973 61.1477 21.2666 60.7478C21.1585 60.503 21.3451 60.156 20.928 59.8591C20.7588 59.8103 20.5691 59.7558 20.3735 59.6994C19.7029 58.8886 19.0279 58.0726 18.3598 57.2647C18.17 57.2074 17.9877 57.1527 17.8058 57.0977C17.7969 56.9507 17.7894 56.8184 17.7818 56.686C17.7143 56.5639 17.6514 56.4409 17.5776 56.3211C17.5382 56.2583 17.489 56.1948 17.4337 56.1471C16.9598 55.7379 16.3685 55.5429 15.9708 54.9929C15.6283 55.0227 15.3962 54.6189 15.1016 54.5067C14.7857 54.3855 14.4642 54.3458 14.1536 54.2724C14.1302 54.0607 14.1096 53.8733 14.0886 53.6862C13.2361 53.4702 12.4001 53.2583 11.5643 53.0462C11.5009 53.0308 11.4377 53.0093 11.3686 52.9898C11.2754 52.8771 11.1799 52.7615 11.0872 52.6495C10.5256 52.6931 9.98172 52.7862 9.40767 52.7587C9.10681 52.7431 9.0287 52.963 8.83218 53.0469C8.93993 53.12 9.04628 53.2021 9.15774 53.2652C9.32553 53.3624 9.49694 53.4457 9.61499 53.5447C9.82578 53.4677 10.0029 53.2779 10.0819 53.7277C9.9439 53.6816 9.80516 53.6351 9.61499 53.5447C9.5431 53.6386 9.41858 53.7416 9.26472 53.8688C9.01794 53.6856 8.72758 53.8461 8.45802 53.5559C8.41934 53.2223 8.71109 53.2149 8.83218 53.0469C8.78583 52.9909 8.72361 52.8851 8.69463 52.8854C8.42437 52.8956 8.1636 52.9393 7.89102 52.9436C7.62727 52.9474 7.31253 52.6897 7.07122 52.8264C7.07593 53.1528 7.37282 53.3103 7.46629 53.5544C7.6766 53.4768 7.85306 53.2876 7.93271 53.7368C7.7945 53.6909 7.65645 53.6449 7.46629 53.5544C7.47626 53.5796 7.42597 53.6595 7.39295 53.6426C6.32164 53.1259 6.3062 53.0826 5.52098 53.1865C4.44156 53.3292 3.3388 53.3055 2.14835 52.8766C1.90356 52.788 1.65999 52.6887 1.34364 52.567C1.68046 53.2547 1.68046 53.2547 3.20114 54.1351C3.41092 54.0569 3.58799 53.8672 3.66757 54.3174C3.52951 54.2714 3.39083 54.2249 3.20114 54.1351C3.12716 54.2297 3.00069 54.3343 2.86932 54.4429C2.1441 54.2593 1.41368 54.074 0.542985 53.8544C0.765073 54.1809 0.915877 54.4956 0.991746 54.4987C1.51259 54.5231 1.90584 55.1317 2.41381 55.2149C2.4939 55.2282 2.61709 55.5442 2.83305 55.9121C2.1265 55.656 1.56821 55.4532 1.01192 55.2527C0.914943 55.504 0.759449 55.6995 0.817927 55.7956C1.01449 56.1167 1.16763 56.4127 1.11343 56.7387C1.30461 56.9698 1.49241 57.1969 1.75071 57.5092C2.05035 57.5562 2.42382 57.616 2.73043 57.6652C2.94479 57.9243 3.08769 58.0971 3.17831 58.2797C3.38945 58.2024 3.56595 58.0132 3.64476 58.4621C3.5065 58.4162 3.36828 58.3703 3.17831 58.2797C2.84888 58.5198 3.37901 58.8392 3.42431 59.1959C3.3632 59.2838 3.27332 59.4132 3.16073 59.5771C3.13442 59.6992 3.18662 59.7896 3.32765 59.8175C3.4552 59.8437 3.67183 59.8592 3.69893 59.9174C3.9676 60.4895 4.62318 60.1773 4.86753 60.7596C5.24473 60.8556 5.62294 60.9507 6.01397 61.05C6.11843 61.2792 6.20353 61.4644 6.32844 61.7366C5.54857 61.3032 4.98574 61.5476 4.36438 61.5523C4.39918 61.9413 4.77567 62.1401 4.96218 62.4439C7.04911 62.9719 7.0491 62.9719 8.28234 63.8353C9.07187 64.0297 9.90153 64.2351 10.7425 64.4419C10.8727 64.2281 11.1126 64.2872 11.3749 64.3298C11.5995 64.3652 11.7984 64.2528 12.0191 64.2334C12.4078 64.2019 12.8041 64.1917 13.1981 64.1725C13.3699 63.6047 14.068 64.0458 14.4154 63.7791C14.6739 63.579 15.8094 63.5639 16.2544 63.6421C16.6691 64.1435 17.0891 64.6513 17.4759 65.1189C17.4874 65.3128 17.4954 65.4448 17.5046 65.5984C17.6833 65.8144 17.873 66.0438 18.0627 66.2732C18.0839 66.4788 18.1042 66.6754 18.1254 66.8849C18.3064 67.1038 18.4981 67.3356 18.6868 67.5638C18.7065 67.7668 18.7248 67.9639 18.745 68.1694C18.9318 68.3953 19.123 68.6265 19.3011 68.8419C19.3246 69.0554 19.3454 69.2515 19.3656 69.4324C19.6205 69.7406 19.8614 70.0319 20.0999 70.3202C20.2702 70.8282 20.4399 71.3347 20.6656 72.0072C20.8263 72.2016 21.1088 72.5431 21.3927 72.8863C21.423 73.0991 21.4497 73.2932 21.4851 73.5343C21.8342 73.9563 22.2156 74.4174 22.598 74.8797C22.6219 75.088 22.6448 75.2833 22.6701 75.5023C23.3252 76.2944 23.9973 77.1069 24.6708 77.9212C24.6897 78.1228 24.7074 78.3195 24.7256 78.5217C24.913 78.7481 25.1061 78.9816 25.2934 79.2081C25.3127 79.4094 25.3306 79.6059 25.3484 79.8075C26.0224 80.6224 26.6944 81.4349 27.3602 82.2398C27.3686 82.3843 27.3768 82.5161 27.3885 82.7187C27.6313 83.0123 27.9099 83.3492 28.1914 83.6895C28.2335 83.9092 28.2705 84.1008 28.3248 84.3862C28.8747 85.051 29.4869 85.7911 30.0943 86.5254C30.2194 86.5026 30.3255 86.4836 30.4319 86.4635C30.2935 86.2004 29.8618 86.0266 30.028 85.67C30.5233 86.0398 30.5233 86.0398 30.4319 86.4635C30.8489 86.8902 31.8279 87.4685 32.4699 87.6708C33.5222 86.8004 34.569 85.9346 35.6064 85.0766C35.4752 84.7919 35.3636 84.548 35.27 84.3443C35.3413 83.6797 36.3329 84.5416 36.3197 83.7463C36.1421 83.6475 35.9512 83.542 35.7603 83.4364C35.7075 83.1006 36.0138 83.0999 36.1351 82.9269C36.0892 82.8714 35.9998 82.796 36.0043 82.7647C36.1117 82.1244 36.4309 81.6018 36.4574 80.9105C36.4633 80.7699 36.6821 80.7049 36.8026 80.6053Z" fill="#FE6338"/>
<path d="M13 77C13.7341 79.377 30.1538 80.3128 49.3497 80.1079C67.2484 79.9169 87.3869 72.7168 88.5 70.5C90.8071 65.9057 84 25 84 25C63 16.5 17.3526 25.9081 8.49999 29C8.53642 36.3037 11.5814 72.4066 13 77Z" fill="#343740"/>
<path d="M8.78224 29.2307C33.1423 21.8007 58.8 20.2871 83.733 25.6414C84.7608 25.8624 85.0717 24.2749 84.0444 24.0606C58.9597 18.8386 32.8196 20.2033 8.63902 28.8384C8.38118 28.9302 8.5224 29.3093 8.78224 29.2307Z" fill="white"/>
<path d="M7.93269 29.4854C8.90613 45.1001 10.7068 60.742 12.1322 76.3262C12.2292 77.3943 13.9179 77.2663 13.8207 76.1944C12.399 60.6443 10.9225 44.8538 8.28004 29.4583C8.24293 29.2441 7.91912 29.2618 7.93269 29.4854Z" fill="white"/>
<path d="M84.1308 24.9899C84.3633 24.9717 84.3365 24.6153 84.103 24.6335C83.8705 24.6517 83.8973 25.0081 84.1308 24.9899Z" fill="white"/>
<path d="M84.0372 24.8099C84.1949 32.3757 85.6471 40.0355 86.429 47.5641C87.2167 55.1543 87.8821 62.757 88.4712 70.3646C88.5351 71.1962 89.8455 71.0958 89.7824 70.2623C89.183 62.3475 88.4515 54.446 87.5725 46.556C86.7657 39.3305 86.2912 31.7723 84.4764 24.7164C84.4108 24.4605 84.0321 24.5703 84.0372 24.8099Z" fill="white"/>
<path d="M12.1479 77.2114C36.3335 86.634 65.3191 79.6642 88.903 71.6551C89.9054 71.3149 89.3502 69.7854 88.3441 70.1288C76.0331 74.3302 63.4235 77.7651 50.4586 79.2477C37.4322 80.7379 25.0187 79.4851 12.2472 76.9168C12.0756 76.8824 11.9776 77.1444 12.1479 77.2114Z" fill="white"/>
<path d="M15.7372 36.5202C17.1154 48.2062 18.4602 59.8977 19.8577 71.5822C19.9386 72.2575 21.0211 72.1721 20.9277 71.4986C19.3177 59.8278 17.6539 48.1651 16.0237 36.4978C15.999 36.3181 15.7162 36.3383 15.7372 36.5202Z" fill="white"/>
<path d="M76.4711 30.2077C78.429 42.1564 80.2707 54.071 81.3437 66.1365C81.3888 66.6522 82.2166 66.5875 82.1571 66.073C80.7712 54.0664 79.1754 42.0311 76.7277 30.1877C76.6951 30.0315 76.4447 30.0444 76.4711 30.2077Z" fill="white"/>
<path d="M20.7373 72.3559C29.8662 76.5729 40.5653 76.208 50.3403 74.8855C59.9904 73.5805 71.1068 72.2193 79.8134 67.6702C80.5176 67.3026 79.8858 66.0726 79.1687 66.4374C70.4729 70.8643 59.8662 72.3511 50.2486 73.711C40.1815 75.1337 30.6203 74.7548 20.7893 72.2017C20.6972 72.1783 20.6536 72.3165 20.7373 72.3559Z" fill="white"/>
<path d="M16.7274 35.8856C35.0806 30.3214 54.1101 28.0853 73.1823 30.5622C73.9238 30.6592 74.1479 29.5269 73.4051 29.4367C54.2128 27.0877 34.7712 28.8445 16.7175 35.8577C16.6986 35.8649 16.7084 35.8909 16.7274 35.8856Z" fill="white"/>
<path d="M43.4843 48.3811C43.3298 51.6984 44.1959 55.2076 44.7229 58.4765C44.7966 58.9354 45.5276 58.8869 45.461 58.4188C44.9952 55.1251 44.7871 51.49 43.6457 48.3465C43.6122 48.2535 43.4882 48.2938 43.4843 48.3811Z" fill="white"/>
<path d="M43.5688 48.3897C43.5883 48.3881 43.5859 48.358 43.5664 48.3595C43.547 48.361 43.5493 48.3912 43.5688 48.3897Z" fill="white"/>
<path d="M43.9184 48.2955C46.557 50.3249 49.5904 51.7651 52.673 53.015C53.1873 53.2234 53.564 52.4416 53.0492 52.2504C49.9327 51.0892 46.9756 49.6057 43.9436 48.2581C43.9205 48.2485 43.8977 48.2799 43.9184 48.2955Z" fill="white"/>
<path d="M45.3747 58.7918C48.0598 57.0639 50.7511 55.4283 53.2518 53.4269C53.7516 53.0275 53.2137 52.23 52.6753 52.6086C50.0404 54.4559 47.7118 56.5853 45.2972 58.6813C45.2326 58.737 45.2989 58.8398 45.3747 58.7918Z" fill="white"/>
<path d="M40.9353 43.221C34.4716 44.2955 35.1575 55.742 37.9415 59.7325C41.8896 65.3923 51.6161 67.4525 57.0544 62.7809C63.0713 57.6119 60.6434 49.142 55.7438 44.1531C50.8114 39.1275 42.6026 39.7464 38.1681 45.0778C37.5814 45.7823 38.6531 46.6892 39.259 45.9955C47.7565 36.2682 63.7787 47.7967 58.2876 58.7933C55.2335 64.9089 47.3027 65.0845 41.9888 61.8881C38.5461 59.8173 36.6238 56.3944 36.576 52.4628C36.542 49.7023 37.6433 44.349 40.9638 43.3498C41.036 43.3289 41.012 43.2084 40.9353 43.221Z" fill="white"/>
<path d="M20.8087 46.9846C20.9919 48.349 21.1656 49.7161 21.3738 51.0776C21.4477 51.5642 22.161 51.4244 22.048 50.9341C21.7367 49.595 21.392 48.2643 21.0579 46.9308C21.0228 46.793 20.7899 46.8436 20.8087 46.9846Z" fill="white"/>
<path d="M21.4855 45.2328C21.6068 47.2961 21.9097 49.3234 22.3851 51.3342C22.4852 51.7586 23.1535 51.5286 23.0395 51.1005C22.5247 49.1568 22.186 47.1926 22.0133 45.1916C21.9852 44.8572 21.4661 44.8977 21.4855 45.2328Z" fill="white"/>
<path d="M21.4762 43.5613C21.9187 41.6203 23.031 39.9387 24.6611 38.7616C25.0306 38.4956 24.619 37.9111 24.2562 38.187C22.5161 39.5113 21.3802 41.3373 21.0013 43.4712C20.9472 43.7738 21.4083 43.8601 21.4762 43.5613Z" fill="white"/>
<path d="M23.4587 42.3826C23.9072 40.792 25.2711 39.5229 26.8333 38.9803C27.3805 38.7903 27.0495 37.9193 26.531 38.1539C24.725 38.969 23.6208 40.4425 23.1622 42.3274C23.1157 42.5155 23.407 42.5664 23.4587 42.3826Z" fill="white"/>
<path d="M69.062 66.0934C70.1931 66.0959 71.2742 65.8681 72.3052 65.41C72.689 65.2395 72.4556 64.6247 72.0854 64.8076C71.1171 65.2867 70.1046 65.5474 69.0226 65.5888C68.6888 65.6024 68.7358 66.0931 69.062 66.0934Z" fill="white"/>
<path d="M69.9724 67.2652C70.785 66.9924 71.5935 66.718 72.3963 66.4192C72.8424 66.2524 72.5893 65.5589 72.1446 65.7322C71.3468 66.045 70.5605 66.3808 69.7725 66.7196C69.4279 66.8679 69.6092 67.3882 69.9724 67.2652Z" fill="white"/>
<path d="M76.3961 63.687C76.6121 63.3699 76.8105 63.0514 77.002 62.7199C77.2551 62.2804 76.449 61.9533 76.3047 62.4923C76.2123 62.838 76.1322 63.1798 76.0674 63.531C76.036 63.6998 76.2855 63.8496 76.3961 63.687Z" fill="white"/>
<path d="M75.742 53.1577C76.017 55.3257 76.293 57.4927 76.569 59.6597C76.6304 60.1482 77.4237 60.0758 77.3379 59.5996C76.9462 57.4417 76.5554 55.2837 76.1636 53.1248C76.1172 52.8655 75.7073 52.8869 75.742 53.1577Z" fill="white"/>
<path d="M44.9179 55.6006C44.9614 55.7224 44.9103 55.8383 44.9476 55.9558C44.9967 56.1117 45.1159 56.2716 45.1968 56.4125C45.391 56.7482 45.585 57.083 45.7792 57.4188C46.043 57.8753 46.7993 57.3678 46.463 56.9514C46.219 56.6492 45.9761 56.3479 45.7322 56.0456C45.6333 55.9233 45.5397 55.7805 45.4199 55.677C45.3169 55.5885 45.1778 55.5841 45.0736 55.4937C44.9997 55.4297 44.8847 55.5104 44.9179 55.6006Z" fill="white"/>
<path d="M44.5635 53.9196C45.2276 54.8038 45.8697 55.706 46.4052 56.671C46.6944 57.1915 47.5546 56.6348 47.1885 56.1356C46.5117 55.2122 45.767 54.3649 44.8648 53.6514C44.689 53.5131 44.4216 53.7309 44.5635 53.9196Z" fill="white"/>
<path d="M44.1059 51.8147C45.0104 53.2547 46.0861 54.537 47.1358 55.872C47.457 56.281 48.0625 55.7423 47.6705 55.3962C46.4215 54.2948 45.3658 52.9574 44.3547 51.6442C44.2369 51.4909 44.0038 51.6515 44.1059 51.8147Z" fill="white"/>
<path d="M43.7662 49.8621C45.024 51.8979 46.6201 53.7534 47.9972 55.713C48.2155 56.023 48.7225 55.665 48.4819 55.3807C46.9246 53.5384 45.5296 51.5229 43.866 49.773C43.811 49.7152 43.7284 49.801 43.7662 49.8621Z" fill="white"/>
<path d="M43.7032 48.6078C43.8364 49.8662 45.0915 51.0092 45.8455 51.9887C46.8879 53.3424 47.9304 54.6962 48.9728 56.049C49.3973 56.6 50.3072 55.9706 49.8685 55.436C48.7809 54.1135 47.6932 52.79 46.6066 51.4675C45.8075 50.4953 44.9799 49.0082 43.7577 48.572C43.7317 48.5626 43.6998 48.5775 43.7032 48.6078Z" fill="white"/>
<path d="M45.8581 50.0258C47.0187 51.6256 48.2918 53.1487 49.5241 54.6951C49.8318 55.0803 50.4763 54.6322 50.1581 54.2612C48.8519 52.7378 47.5772 51.1823 46.2029 49.7178C46.0208 49.5236 45.7059 49.8168 45.8581 50.0258Z" fill="white"/>
<path d="M47.5442 51.0318C48.1221 52.0796 48.98 52.9974 49.7259 53.9344C50.1123 54.4196 50.8209 53.8107 50.3722 53.3591C49.5293 52.5099 48.7207 51.5528 47.7448 50.8527C47.6163 50.7613 47.4697 50.8981 47.5442 51.0318Z" fill="white"/>
<path d="M48.9878 51.7796C49.6016 52.443 50.1154 53.1802 50.5152 53.9856C50.7629 54.4854 51.5103 54.0867 51.1948 53.6391C50.6348 52.8443 49.9726 52.1339 49.214 51.5191C49.0358 51.3753 48.8415 51.6218 48.9878 51.7796Z" fill="white"/>
<path d="M50.3125 52.532C50.5288 52.9033 50.8796 53.1685 51.2014 53.4493C51.7161 53.8986 52.3641 52.9856 51.7279 52.6576C51.3487 52.4626 50.9779 52.2391 50.5495 52.1731C50.3372 52.14 50.2116 52.3592 50.3125 52.532Z" fill="white"/>
<path d="M52.0082 53.5776C52.0912 53.6581 52.1741 53.7377 52.257 53.8173C52.6347 54.1788 53.211 53.5162 52.7887 53.205C52.696 53.1367 52.6024 53.0684 52.5097 53.0002C52.1121 52.7071 51.6515 53.2364 52.0082 53.5776Z" fill="white"/>
<path d="M10.4044 31.6654C11.1439 32.2732 11.7724 33.0119 12.1608 33.8842C12.3444 34.2953 12.9594 33.992 12.721 33.5986C12.1862 32.7167 11.5412 31.941 10.7099 31.3146C10.4717 31.1353 10.171 31.4743 10.4044 31.6654Z" fill="white"/>
<path d="M11.387 31.516C12.0974 32.3603 12.8089 33.2044 13.5203 34.0486C13.7247 34.2917 14.1401 34.005 13.9304 33.768C13.1987 32.9378 12.467 32.1077 11.7353 31.2775C11.5596 31.079 11.2114 31.307 11.387 31.516Z" fill="white"/>
<path d="M78.5974 28.9058C79.7371 28.4956 80.7963 27.888 81.9493 27.4882C82.4749 27.3066 82.1652 26.4732 81.657 26.6907C80.5551 27.162 79.2803 27.6803 78.3636 28.4604C78.1551 28.6373 78.3047 29.0109 78.5974 28.9058Z" fill="white"/>
<path d="M79.6875 29.7224C80.4477 29.2022 81.2831 28.8358 82.1899 28.6513C82.638 28.5599 82.5097 27.936 82.0581 28.0449C81.0844 28.2805 80.1883 28.7014 79.3861 29.2937C79.1144 29.4947 79.4054 29.9146 79.6875 29.7224Z" fill="white"/>
<path d="M16.0508 74.8318C16.3654 74.5721 16.6791 74.3133 16.9938 74.0545C17.3257 73.78 16.9162 73.3215 16.5917 73.6164C16.2907 73.8895 15.9898 74.1635 15.6899 74.4374C15.4642 74.6424 15.8136 75.0272 16.0508 74.8318Z" fill="white"/>
<path d="M83.2589 67.2895C83.6707 67.8644 84.2209 68.2843 84.8946 68.5214C85.3257 68.6722 85.5387 68.0552 85.0942 67.9321C84.5247 67.7748 84.0429 67.4596 83.6689 67.0089C83.4695 66.7672 83.0715 67.0278 83.2589 67.2895Z" fill="white"/>
</svg>
