<svg width="100" height="100" viewBox="0 0 100 100" fill="none" xmlns="http://www.w3.org/2000/svg">
<path d="M83.0463 91.4985C82.9355 91.5428 82.8202 91.5876 82.7041 91.6334C82.7626 91.6754 82.8353 91.7579 82.8788 91.751C83.0046 91.7311 83.1181 91.6754 83.2351 91.6334C83.1766 91.5905 83.1181 91.5494 83.0463 91.4985ZM71.8846 85.0848C71.7738 85.1281 71.6577 85.1736 71.5425 85.2184C71.601 85.2604 71.6727 85.3438 71.7171 85.3363C71.842 85.3173 71.9555 85.2604 72.0743 85.2184C72.0149 85.1773 71.9555 85.1347 71.8846 85.0848ZM84.0329 58.2411C83.9735 58.2823 83.8573 58.334 83.8662 58.3648C83.8954 58.4539 83.9735 58.5341 84.0329 58.6181C84.0923 58.5761 84.2092 58.5252 84.1986 58.4945C84.1711 58.4044 84.0923 58.3242 84.0329 58.2411ZM56.5834 57.9976C56.5125 57.9467 56.454 57.9056 56.3937 57.8636C56.3352 57.9467 56.2563 58.0278 56.228 58.1166C56.2182 58.1477 56.3352 58.1983 56.3937 58.2402C56.4576 58.158 56.5222 58.0761 56.5834 57.9976ZM60.3799 56.92C60.3214 56.878 60.2496 56.7955 60.2062 56.802C60.0803 56.8219 59.9669 56.878 59.849 56.92C59.9084 56.9619 59.9801 57.045 60.0236 57.0376C60.1485 57.0186 60.262 56.9619 60.3799 56.92ZM61.5198 56.5967C61.5907 56.6477 61.6501 56.6888 61.7095 56.7313C61.7689 56.6477 61.8469 56.5666 61.8753 56.4774C61.885 56.4467 61.7689 56.3958 61.7095 56.3538C61.6457 56.4364 61.5819 56.518 61.5198 56.5967ZM79.8579 56.2995C79.9288 56.2495 79.9873 56.2074 80.0467 56.1646C79.9288 56.1235 79.8145 56.0674 79.6895 56.0471C79.6469 56.041 79.5742 56.1235 79.5148 56.1646C79.6309 56.2103 79.7462 56.256 79.8579 56.2995ZM59.1283 26.4918C59.1992 26.4417 59.2586 26.399 59.3171 26.3571C59.1992 26.3158 59.0858 26.2592 58.9608 26.2393C58.9173 26.2319 58.8456 26.3158 58.7853 26.3571C58.9014 26.4027 59.0166 26.4476 59.1283 26.4918ZM94.7398 25.0918C94.629 25.1345 94.5129 25.1801 94.3976 25.225C94.457 25.2677 94.5288 25.3501 94.5723 25.3428C94.6973 25.3236 94.8107 25.2677 94.9295 25.225C94.8692 25.1838 94.8107 25.1418 94.7398 25.0918ZM64.4432 24.9821C64.5141 24.9321 64.5735 24.8901 64.6329 24.8481C64.5141 24.8062 64.4007 24.7502 64.2757 24.7296C64.2323 24.7237 64.1604 24.8062 64.101 24.8481C64.2163 24.893 64.3315 24.9387 64.4432 24.9821ZM65.7719 24.525C65.8428 24.5751 65.9023 24.6178 65.9616 24.6597C66.0201 24.5751 66.099 24.4948 66.1283 24.4058C66.1371 24.3748 66.0201 24.3241 65.9616 24.2821C65.8978 24.3638 65.834 24.4462 65.7719 24.525ZM88.0962 23.7705C88.1671 23.8206 88.2256 23.8633 88.285 23.9045C88.3443 23.8206 88.4232 23.7404 88.4507 23.652C88.4614 23.6204 88.3444 23.5689 88.2859 23.5276C88.2212 23.6093 88.1573 23.691 88.0962 23.7705ZM66.4164 11.8846C66.3454 11.9354 66.2861 11.9773 66.2276 12.0193C66.3455 12.0612 66.4589 12.1179 66.5839 12.1371C66.6273 12.1444 66.6991 12.0612 66.7585 12.0193C66.6433 11.9737 66.528 11.9288 66.4164 11.8846ZM67.4792 9.2436C67.4083 9.29439 67.3497 9.3356 67.2903 9.3783C67.4082 9.42025 67.5217 9.4762 67.6467 9.49607C67.6901 9.50269 67.7628 9.42025 67.8222 9.3783C67.7061 9.33266 67.5909 9.28777 67.4792 9.2436ZM25.0343 6.54813C24.9758 6.59009 24.8588 6.64088 24.8686 6.6718C24.8961 6.76086 24.9758 6.84183 25.0343 6.92574C25.0937 6.88304 25.2099 6.83226 25.201 6.80135C25.1726 6.71302 25.0937 6.63205 25.0343 6.54813ZM30.5389 6.41418C30.4778 6.33468 30.414 6.25298 30.3493 6.17127C30.2908 6.21249 30.1737 6.26402 30.1835 6.29494C30.2119 6.384 30.2908 6.46423 30.3493 6.54813C30.4095 6.50618 30.468 6.46423 30.5389 6.41418ZM59.0512 4.284C58.9927 4.3267 58.8757 4.37749 58.8854 4.4084C58.9138 4.49673 58.9927 4.57843 59.0512 4.66161C59.1115 4.61965 59.2276 4.56886 59.2178 4.53795C59.1895 4.44889 59.1115 4.36791 59.0512 4.284ZM75.3035 85.2184C74.8204 84.9743 74.4827 84.8653 74.2629 85.2736C74.574 85.4792 74.8682 85.466 75.3035 85.2184ZM82.6031 59.424C82.4914 59.4283 82.3788 59.4329 82.2671 59.4372C82.2343 59.6034 82.1909 59.7707 82.182 59.9384C82.1802 59.9798 82.3105 60.0672 82.3504 60.0591C82.4763 60.0336 82.6819 59.9766 82.6864 59.9252C82.7006 59.7595 82.6376 59.5919 82.6031 59.424ZM58.1816 56.6592C58.1754 56.5798 58.1692 56.5005 58.1639 56.4199C57.929 56.3987 57.6932 56.367 57.4565 56.3604C57.3989 56.359 57.2748 56.4524 57.2872 56.4803C57.3227 56.5694 57.4033 56.7161 57.4769 56.7181C57.7092 56.7284 57.9458 56.6836 58.1816 56.6592ZM7.49498 49.1912C7.93995 48.8077 7.93995 48.4309 7.49498 48.0474C7.05 48.4309 7.05 48.8077 7.49498 49.1912ZM56.0729 4.43417C56.6818 4.40031 57.2544 4.98842 57.679 4.44226C57.4211 4.25898 57.1817 4.08821 57.1578 4.07201C56.7935 4.19421 56.4327 4.31419 56.0729 4.43417ZM78.2145 56.3745C78.429 56.3458 78.6656 56.3147 79.0122 56.2679C78.9475 56.0094 78.8961 55.7994 78.7729 55.3006C78.3758 55.8843 77.703 55.271 77.4539 55.8343C77.7003 56.0094 77.9432 56.1816 78.2145 56.3745ZM92.2667 23.6653C91.5912 23.4261 90.9912 23.5571 90.4106 23.5321C90.1757 23.5232 89.9372 23.5718 89.6731 23.5968C89.8796 23.9825 90.1748 24.2188 90.8201 24.2983C90.9991 24.1967 91.2455 24.0576 91.4858 23.9222C91.6666 24.0385 91.8457 24.1533 92.1515 24.3498C92.2002 24.0598 92.2357 23.85 92.2667 23.6653ZM13.4853 50.4572C12.2843 50.3674 12.7212 49.7241 12.161 49.4481C11.6008 49.1713 11.1878 48.7459 10.7481 48.4139C10.2428 48.4956 9.77748 48.2984 9.41937 48.5715C9.63742 49.3333 9.91399 49.9486 10.4051 50.0892C11.2055 50.3181 11.8676 50.9357 13.4853 50.4572ZM23.7056 7.30334C23.2651 7.30334 22.8237 7.30334 22.5701 7.30334C21.9816 7.51459 21.502 7.63383 21.112 7.8392C20.5597 8.13068 20.1431 8.62898 19.5404 8.77325C18.8791 8.93224 18.5946 9.29365 18.1496 9.56231C17.6142 9.88618 17.1533 10.2711 16.6401 10.6156C16.3387 10.818 16.0541 10.9984 15.6065 11.1117C15.08 11.2464 14.651 11.6307 14.2547 11.9516C13.8443 12.2843 13.1095 12.1775 12.7611 12.6008C12.5129 12.9033 12.5688 13.3332 12.0307 13.515C11.4129 13.724 11.6061 14.2981 11.0973 14.5558C10.9254 14.6426 10.9529 14.7324 11.1753 14.8215C11.3464 14.8303 11.5175 14.8399 11.9066 14.8612C11.8038 14.3357 12.2621 13.9102 12.8542 13.7564C13.2823 13.646 13.6156 13.5223 13.9179 13.3074C14.7883 12.6869 15.6561 12.0642 16.5151 11.4503C17.2916 11.5217 17.5504 11.0455 18.0007 10.7834C18.4652 10.5126 18.8543 10.0864 19.3773 9.97819C20.0572 9.83907 20.2619 9.27746 20.784 9.22888C21.5135 9.1619 21.8601 8.82699 22.2218 8.51784C22.6339 8.166 23.2757 8.15128 23.7056 7.86716C23.7056 7.67799 23.7056 7.49103 23.5576 7.34529C23.9698 7.26212 24.3811 7.29008 24.0212 6.96033C23.8971 7.06264 23.773 7.1657 23.7056 7.30334ZM52.9394 58.2402C53.106 58.2402 53.2966 58.2785 53.4358 58.2337C53.9925 58.058 54.534 57.8553 55.065 57.6684C55.065 57.464 55.065 57.2865 54.7069 57.1606C55.5818 57.0347 56.1943 57.2998 56.6393 56.8926C56.0853 56.6313 55.5658 56.5945 55.065 57.1091C54.8204 57.1091 54.5748 57.1091 54.3107 57.1091C53.8311 57.464 53.1787 57.7245 52.9394 58.2402C52.5981 58.3105 52.1186 58.0586 51.9218 58.4619C52.6247 58.6267 52.6247 58.6267 52.9394 58.2402ZM70.4796 35.6013C69.6544 35.5409 69.0924 35.7603 69.033 36.3138C68.6209 36.397 68.2096 36.369 68.5695 36.6987C68.6935 36.5964 68.8168 36.4934 68.885 36.3557C69.7094 36.4168 70.2705 36.1975 70.3308 35.6447C70.7438 35.5608 71.1542 35.5888 70.7943 35.259C70.6711 35.3621 70.547 35.4644 70.4796 35.6013ZM50.82 59.0413C50.3262 59.0413 49.8414 59.0413 49.3734 59.0413C49.3087 59.1937 49.22 59.301 49.2307 59.4048C49.2422 59.5071 49.3521 59.6043 49.4195 59.7037C49.673 59.5933 49.9105 59.4277 50.1844 59.3858C50.5328 59.3334 50.8413 59.3231 50.8129 58.9947C51.3572 58.7719 51.3572 58.7719 51.124 58.2728C50.5558 58.4125 50.9113 58.7526 50.82 59.0413ZM68.7122 23.853C67.8364 23.9781 67.2248 23.7139 66.7798 24.1209C67.3338 24.3822 67.8532 24.419 68.2042 23.9479C68.6173 23.8648 69.0286 23.892 68.6678 23.563C68.5446 23.6653 68.4205 23.7676 68.7122 23.853ZM82.643 57.3806C82.7609 57.6729 82.7219 57.9651 83.1872 57.7097C83.0419 57.6221 82.8974 57.5344 82.7644 57.591C82.6465 57.2989 82.6855 57.0068 82.2219 57.263C82.3664 57.3504 82.5109 57.4381 82.643 57.3806ZM41.7777 63.1454C42.1456 63.1558 42.322 63.0299 42.3087 62.7679C42.5684 62.7679 42.9868 62.8401 43.0621 62.757C43.4194 62.3593 44.1941 62.4919 44.5336 62.1282C45.2134 61.3996 46.536 61.2529 47.2814 60.5758C47.4933 60.3838 48.2068 60.6253 48.0074 60.1704C48.4196 60.087 48.8309 60.1143 48.471 59.7846C48.3469 59.8878 48.2228 59.9907 48.1555 60.127C47.7194 60.127 47.2832 60.127 46.8462 60.127C46.6583 60.2526 46.4216 60.5074 46.2895 60.4832C45.6593 60.3654 45.4776 60.8872 44.9307 60.8938C44.3528 60.9013 44.0753 61.2972 43.7739 61.5672C43.375 61.9258 42.7147 61.9088 42.3087 62.2092C42.3087 62.3961 42.3087 62.5825 42.3087 62.7679C41.9408 62.7584 41.7635 62.8841 41.9258 63.1029C41.5136 63.1869 41.1023 63.1581 41.4622 63.4884C41.5863 63.3855 41.7095 63.2823 41.7777 63.1454ZM35.931 84.2756C36.4513 84.3044 36.3724 84.0269 36.4868 83.798C36.594 83.5838 36.883 83.405 37.1338 83.2422C37.4068 83.0626 37.406 82.7785 37.5664 82.6255C37.8944 82.3095 38.1497 82.0321 38.0575 81.6339C38.5946 81.6479 38.74 81.2828 39.0671 81.095C39.3986 80.9052 39.7824 80.7072 39.6512 80.3282C40.1476 79.9711 40.8541 79.6709 41.0846 79.2425C41.3496 78.7462 41.744 78.3673 42.2839 78.0979C42.8467 77.8181 42.6739 77.2764 43.2084 77.0401C43.7668 76.7928 43.8643 76.3511 44.1312 75.9874C44.4467 75.5599 44.6967 75.1176 45.2657 74.8106C45.5458 74.6597 46.0077 74.4397 45.9811 74.2859C45.8614 73.5938 47.1148 73.5202 47.1139 72.8997C47.113 72.7539 47.3391 72.5679 47.5314 72.4678C48.6013 71.9083 48.9284 70.9397 49.9495 70.3353C50.9645 69.7347 51.8438 69.017 52.7834 68.3502C53.013 68.1869 53.2408 68.0241 53.567 67.7901C53.1832 67.7268 52.9438 67.6863 52.6673 67.6398C52.1842 68.2965 51.21 68.4672 50.4167 68.7843C49.6207 69.1024 48.7937 69.3462 48.0562 69.7671C47.589 70.0337 46.9916 70.3427 46.2754 70.3296C46.0165 70.7113 45.3402 70.6032 44.9998 70.8669C44.6399 71.145 43.9876 71.0228 43.7057 71.394C43.4371 71.7465 42.8583 71.756 42.4354 71.9385C41.518 72.3339 40.5208 72.6076 39.5741 72.9563C38.553 73.3319 37.5301 73.7042 36.5169 74.09C35.5764 74.4478 34.5375 74.6695 33.668 75.1263C33.6024 75.1617 33.5058 75.2272 33.4606 75.214C32.6007 74.9659 32.0857 75.6513 31.2853 75.6128C30.9928 75.5995 30.6825 75.7718 30.0638 75.9501C29.1881 75.9501 27.9568 75.9501 26.7238 75.9501C26.5138 76.0795 26.3197 76.1988 26.0918 76.3388C25.7851 76.3388 25.4359 76.3388 25.0866 76.3388C24.8854 76.4696 24.694 76.5956 24.4945 76.7273C23.9778 76.7273 23.4468 76.7273 22.9043 76.7273C22.2262 76.2422 21.5419 75.7514 20.8337 75.2428C20.503 75.2428 20.1582 75.2428 19.7124 75.2428C19.4606 75.0455 19.177 74.8215 18.9376 74.6332C18.7816 74.1165 19.6423 73.9302 19.5023 73.4078C19.4269 73.1251 19.8471 72.7761 20.0111 72.5081C19.8347 72.1381 19.4269 72.2307 19.145 72.1645C18.8889 72.0696 18.9669 72.0187 19.0777 71.8856C19.6663 71.1846 20.2318 70.4744 20.6103 69.6973C20.6457 69.6243 20.8966 69.6044 21.0482 69.5604C21.1076 69.7855 20.9046 70.0423 21.2033 70.2389C21.268 70.2462 21.3584 70.2757 21.385 70.2579C22.0037 69.8451 22.6171 69.427 23.1906 69.0368C23.0488 68.4753 23.9981 68.203 23.7056 67.6731C23.9529 67.6731 24.2011 67.6731 24.5442 67.6731C24.7808 67.5066 25.0645 67.3042 25.3003 67.1372C25.3003 66.8927 25.3003 66.7168 25.3003 66.5417C25.4775 66.4606 25.739 66.4054 25.8108 66.2907C25.8995 66.1486 25.8321 65.9571 25.8321 65.7872C26.1556 65.8292 26.3232 65.6895 26.3533 65.5008C26.3923 65.2476 26.3303 65.0049 25.8321 65.0319C25.8321 64.851 25.8321 64.6699 25.8321 64.5052C26.3028 64.0046 27.1413 63.7403 27.4259 63.1454C27.8726 63.1911 28.0366 62.9122 28.2396 62.7383C28.6084 62.424 28.6119 61.9272 29.1916 61.7078C29.7137 61.51 29.4008 60.9873 29.9362 60.7947C30.5248 60.581 30.5195 60.0841 30.8722 59.7544C31.1745 59.4731 31.7781 59.3306 31.6851 58.863C31.6762 58.8182 31.7542 58.7555 31.811 58.7144C32.6202 58.1364 33.4331 57.5608 34.245 56.9847C34.3957 56.1537 35.502 55.8518 36.1207 55.279C36.6321 54.8058 37.4848 54.5315 37.6471 53.8409C37.6932 53.64 38.1426 53.4972 38.358 53.3014C38.646 53.0394 39.06 53.0055 39.4474 52.8892C39.8445 52.77 39.5262 52.2952 40.0147 52.1244C40.4454 51.9743 40.8364 51.7674 41.2459 51.5849C41.1448 51.1204 41.7503 50.9776 42.0481 50.6935C42.2245 50.6935 42.4009 50.6935 42.6411 50.6935C42.7413 50.4874 42.8459 50.2688 42.9549 50.0414C43.8679 49.928 44.3687 49.4084 44.9724 48.9785C44.9724 48.8585 44.9724 48.7341 44.9724 48.6119C45.9013 48.3904 46.7195 48.015 47.0643 47.3754C47.4729 46.6187 48.2715 46.2617 49.2209 45.9717C49.2209 45.8473 49.2209 45.7221 49.2209 45.5963C50.2837 44.8433 51.3474 44.0903 52.4022 43.3322C52.4465 43.3005 52.4075 43.2107 52.4075 43.1481C52.7754 43.1577 52.9527 43.0318 52.8658 42.7926C53.2035 42.7308 53.6139 42.758 53.254 42.4275C53.13 42.5306 53.0076 42.6336 52.8658 42.7926C52.5715 42.7617 52.3942 42.8861 52.4075 43.1481C52.1416 43.1481 51.8748 43.1393 51.6116 43.154C51.5433 43.1584 51.4963 43.2519 51.421 43.2792C50.1091 43.7598 48.8353 44.2927 47.4446 44.6622C46.8161 44.8286 46.6229 45.5006 45.7586 45.4152C45.3721 45.8642 44.6116 45.9003 44.0443 46.1336C43.4947 46.3588 42.8857 46.5649 42.298 46.7674C41.8619 46.9183 41.2636 46.9013 41.0021 47.2819C40.7424 47.6617 40.0297 47.5623 39.7408 47.8273C39.1841 48.3403 38.3429 48.4942 37.6284 48.793C36.8422 49.1213 35.946 49.2921 35.2839 49.8014C34.9728 50.0414 34.3319 50.0112 34.0039 50.3167C32.7213 50.193 31.8748 50.9188 30.7845 51.1793C30.1064 51.3413 29.5302 51.8079 28.7732 51.8064C28.0508 51.8042 27.6218 52.3798 26.8675 52.2039C26.2895 52.4571 25.7018 52.6868 24.9838 52.6176C24.6186 53.1144 23.8838 52.8583 23.3608 53.0232C23.1348 53.0946 22.9637 53.2962 22.7412 53.3213C22.3095 53.3698 21.8592 53.336 21.3726 53.336C21.2033 53.439 21.0083 53.5575 20.7761 53.6989C20.4738 53.6989 20.1254 53.6989 19.7771 53.6989C19.5741 53.8306 19.3817 53.955 19.1796 54.0868C18.6664 54.0868 18.1354 54.0868 17.6107 54.0868C17.4148 54.2171 17.2233 54.3437 17.023 54.4763C15.4372 54.4763 13.8461 54.4763 12.2665 54.4763C12.13 54.5726 12.0041 54.6617 11.8127 54.7977C11.3659 54.7977 10.8527 54.7977 10.0549 54.7977C9.85725 54.7632 9.60729 54.3746 8.95933 54.4363C8.53296 54.4769 8.002 54.2649 7.604 54.0765C7.18207 53.8763 6.70518 53.771 6.29566 53.587C5.9934 53.4515 5.7319 53.364 5.38532 53.3036C5.19651 53.2705 5.17435 52.8804 4.98466 52.7008C4.72051 52.452 4.37037 52.2496 4.04861 52.0214C4.04861 51.6519 4.04861 51.2765 4.04861 50.907C3.86246 50.7642 3.68519 50.6273 3.50081 50.486C3.50081 50.115 3.50081 49.7388 3.50081 49.3797C3.31201 49.2317 3.13828 49.0948 3 48.9866C3 47.4453 3 45.94 3 44.4517C3.14803 44.3472 3.35987 44.2677 3.3838 44.1676C3.48219 43.7495 3.33328 43.2284 3.63644 42.9288C3.98745 42.5821 4.03798 42.2722 4.03976 41.9049C4.04064 41.7798 3.96883 41.5796 4.05127 41.5391C4.73558 41.2064 4.43686 40.6396 4.72051 40.2193C4.82511 40.0648 5.01391 39.9389 5.23108 39.7372C4.99619 39.5311 4.7932 39.353 4.59021 39.1734C4.7152 39.0836 4.84018 38.9945 4.96605 38.9062C5.22577 38.5558 5.05114 38.1782 5.11407 37.7373C5.21424 37.6497 5.51209 37.5092 5.50677 37.3745C5.46688 36.3786 6.83548 35.7073 6.71582 34.6687C6.86208 34.5561 7.03759 34.4199 7.22462 34.2749C7.22462 34.0364 7.22462 33.7854 7.22462 33.4166C7.54727 33.2363 7.96034 33.0059 8.29186 32.8204C8.29186 32.5275 8.29186 32.3383 8.29186 32.0917C9.34225 31.3586 9.85016 30.3583 10.6843 29.1865C10.8536 29.0673 11.295 28.7581 11.7506 28.4394C11.904 28.4394 12.0786 28.4394 12.2479 28.4394C12.5067 28.1325 12.8905 27.852 12.9792 27.5296C13.0891 27.1285 13.3435 26.8237 13.7761 26.6368C14.2379 26.4366 13.9959 26.0575 14.3239 25.8433C14.7148 25.5871 15.0339 25.267 15.4647 25.0557C16.2855 24.6523 16.3325 23.8824 17.1285 23.4518C17.8961 23.0367 18.7506 22.57 19.1628 21.9827C19.8958 20.9389 21.1421 20.2713 22.2466 19.5095C23.0559 18.9501 23.2695 18.1183 24.2322 17.6627C23.6454 17.3278 23.0062 17.5545 22.4061 17.489C22.22 17.6119 22.0294 17.7378 21.8326 17.8688C21.4878 17.8688 21.1341 17.8688 20.7796 17.8688C20.6546 17.9579 20.5296 18.0469 20.3107 18.203C19.8108 18.203 19.2169 18.203 18.7151 18.203C18.4962 18.3583 18.3721 18.4473 18.1718 18.5894C17.6541 18.6071 17.0584 18.6284 16.4929 18.649C16.3387 18.7587 16.2128 18.847 16.0488 18.9641C15.1394 18.9641 14.1909 18.9641 13.1857 18.9641C13.1281 18.7668 13.0785 18.5945 13.0155 18.3789C12.7177 18.1051 12.2373 18.3023 11.9279 18.2574C11.3473 17.8982 10.8305 17.578 10.4175 17.3234C10.4175 17.1217 10.3829 17.0422 10.4246 16.9988C10.5655 16.8471 10.7339 16.708 10.9298 16.5299C10.9298 16.2016 10.9298 15.8284 10.9298 15.4243C10.7836 15.3117 10.6072 15.1748 10.421 15.032C10.421 14.5403 10.421 14.0376 10.421 13.5326C11.4679 12.9791 11.6478 11.9067 12.7656 11.5085C13.1201 11.4327 13.355 11.3819 13.5687 11.3362C13.5846 11.1669 13.5961 11.044 13.6112 10.8806C14.4134 10.3447 15.2466 9.78829 16.1516 9.18324C16.1968 9.18324 16.3724 9.18324 16.6028 9.18324C16.7083 8.97126 16.8156 8.75191 16.9379 8.50239C17.1568 8.47 17.3997 8.43467 17.6444 8.3986C18.2055 8.00039 18.7852 7.61028 19.3285 7.19661C19.801 6.83741 20.5243 6.81754 21.042 6.43331C21.5304 6.0697 22.392 5.91806 22.8236 5.45876C23.2438 5.01344 24.1453 5.14226 24.499 4.66382C24.8509 4.66382 25.2054 4.66382 25.5502 4.66382C25.747 4.5328 25.9385 4.40619 26.1371 4.27444C26.4863 4.27444 26.8364 4.27444 27.191 4.27444C27.4667 3.99915 27.8221 3.82029 28.3052 3.91156C28.798 4.00504 28.9771 3.62523 29.3609 3.58253C29.5027 3.68337 29.6286 3.77245 29.8768 3.94836C30.1232 3.62229 30.3705 3.29547 30.4778 3.15267C31.5893 3.15267 32.2985 3.15267 33.0067 3.15267C33.1317 3.06361 33.2567 2.97455 33.4995 2.80083C33.7947 2.78832 34.214 2.77066 34.6333 2.753C34.955 2.35699 35.4931 2.38791 36.0728 2.39895C36.3121 2.5123 36.5869 2.64406 36.9672 2.82513C37.2039 2.72134 37.4831 2.59842 37.8146 2.45341C37.9396 2.52776 38.1213 2.63817 38.3172 2.75594C38.4918 2.64259 38.678 2.52187 38.8721 2.39674C39.3906 2.39674 39.9216 2.39674 40.4508 2.39674C40.5775 2.3062 40.7034 2.21714 40.9099 2.06993C41.5863 1.90873 42.3734 2.10893 43.0772 2C43.2678 2.1347 43.3928 2.22377 43.578 2.35552C45.8827 2.35552 48.2494 2.35552 50.6072 2.35552C50.7402 2.26057 50.8661 2.17224 51.0345 2.05153C53.1034 2.05153 55.2175 2.05153 57.3971 2.05153C57.9059 2.25394 58.4839 2.48507 59.1895 2.76698C59.3783 2.76698 59.7293 2.76698 60.0706 2.76698C60.2727 2.89799 60.4632 3.02239 60.6467 3.14163C60.832 3.0246 61.0164 2.90756 61.1564 2.8185C61.6298 3.12912 62.0836 3.42575 62.5197 3.71134C62.5197 3.994 62.5197 4.24205 62.5197 4.48275C62.783 4.66971 63.0338 4.84709 63.2935 5.03185C63.9894 5.03185 64.6959 5.03185 65.3926 5.03185C65.5947 5.16434 65.787 5.29021 65.9856 5.42049C66.1549 5.42049 66.3295 5.42049 66.5644 5.42049C66.6672 5.631 66.7736 5.85035 66.8959 6.09988C67.1149 6.13374 67.3568 6.17127 67.7105 6.22574C67.9321 6.72847 67.7726 7.28935 67.8284 7.85244C67.9906 7.97683 68.1688 8.11227 68.3523 8.25286C68.3523 8.99923 68.3523 9.75443 68.3523 10.5118C68.2299 10.598 68.1032 10.6855 67.8576 10.8578C67.8399 11.0683 67.816 11.3657 67.7921 11.663C67.3294 11.9162 67.0679 12.2202 67.3241 12.5559C67.27 12.7053 67.2735 12.7782 67.2239 12.8157C66.9181 13.0432 66.4828 13.2272 66.3206 13.4951C66.154 13.7711 66.1203 14.0943 65.7205 14.2577C65.2073 14.466 65.2764 14.8973 64.9635 15.1682C64.6285 15.4589 64.1835 15.6856 63.8582 15.9808C63.6135 16.2023 63.4815 16.4879 63.3006 16.7433C63.0994 16.7433 62.9248 16.7433 62.7591 16.7433C62.3451 16.9907 62.5844 17.4875 62.0011 17.6664C61.4578 17.8335 61.5287 18.2825 61.2468 18.5717C60.9605 18.8661 60.4845 19.0222 60.3356 19.4418C60.223 19.7597 59.7204 20.0159 59.365 20.2816C58.9998 20.5539 58.6018 20.8027 58.2436 21.0464C58.4076 21.7147 57.4113 21.8251 57.1915 22.2844C57.2172 22.4029 57.2429 22.5207 57.2686 22.6422C57.6382 22.9057 58.108 22.7047 58.5113 22.7717C58.7064 22.6429 58.897 22.5163 59.0627 22.4066C59.4465 22.4066 59.7967 22.4066 60.106 22.4066C60.3188 22.534 60.5005 22.6429 60.6786 22.7496C61.0234 22.5052 61.3363 22.283 61.6785 22.0401C61.8575 22.149 62.0393 22.2587 62.2502 22.386C62.7404 22.386 63.2687 22.386 63.8245 22.386C63.9938 22.2741 64.1844 22.1475 64.3768 22.0202C64.7278 22.0202 65.0805 22.0202 65.4209 22.0202C65.6204 22.1512 65.8118 22.2763 65.9944 22.397C66.185 22.3867 66.357 22.3779 66.583 22.3669C66.6849 22.1622 66.7957 21.9436 66.9083 21.7191C68.0172 21.7486 68.9196 21.0383 70.2492 21.3253C70.3077 21.3599 70.5045 21.477 70.75 21.6212C71.7446 21.6212 72.8003 21.6212 73.9189 21.6212C74.0634 21.53 74.2567 21.4085 74.4729 21.2716C74.9702 21.2716 75.4994 21.2716 76.0454 21.2716C76.2209 21.3872 76.4133 21.5138 76.6092 21.6433C81.0315 21.6433 85.4591 21.6433 89.8849 21.6433C90.1615 22.1085 90.9655 21.94 91.3883 22.2955C91.6551 22.52 92.2135 22.57 92.6416 22.6988C92.7666 22.6105 92.8916 22.5207 93.0282 22.4243C93.4988 23.0227 93.966 23.6189 94.4703 24.2622C95.3949 24.1526 96.1199 24.4882 96.8539 24.7326C97.5603 24.9681 97.5798 25.6239 98 25.9787C97.7616 26.3041 97.5382 26.6095 97.3184 26.9091C97.1278 26.7906 96.9443 26.6773 96.7546 26.561C96.1997 27.3169 95.8327 28.1118 94.8763 28.683C94.168 29.1063 93.5511 29.5884 93.1159 30.2288C92.7525 30.7639 91.9166 31.1371 91.2908 31.5809C90.602 32.0704 89.9133 32.5591 89.2236 33.0486C88.5978 33.4932 88.0049 33.965 87.3374 34.3757C86.2879 35.0213 85.5442 35.8928 84.2536 36.3668C83.0684 36.8018 82.3664 37.6475 81.332 38.2504C81.1848 38.2504 80.9109 38.1981 80.848 38.2577C79.8898 39.1609 78.3244 39.5378 77.2624 40.3636C76.9079 40.6396 76.2049 40.6853 75.8132 41.0452C75.4497 41.3794 74.9321 41.5634 74.3798 41.757C73.8099 41.9579 73.341 42.3289 72.709 42.5401C72.1975 42.7117 71.9201 43.1231 71.2322 43.2181C70.703 43.2902 70.5497 43.9276 69.7821 43.9203C69.5862 43.9188 69.3442 44.1139 69.1961 44.2567C68.245 45.1627 66.622 45.5013 65.6505 46.3861C64.4184 46.6533 63.8715 47.5829 62.8361 47.9451C61.6785 48.3499 60.972 49.0271 60.0945 49.6005C59.5219 49.9722 58.6931 50.0134 58.2073 50.5095C57.7597 50.9666 57.1046 51.3214 56.5409 51.7218C55.9771 52.1222 55.4142 52.5219 54.8496 52.9223C54.2238 53.3669 53.5971 53.8115 52.9713 54.2568C52.4075 54.6566 51.8429 55.0568 51.2801 55.4573C50.7163 55.857 50.1525 56.2566 49.5888 56.6572C49.025 57.0568 48.4577 57.4542 47.9011 57.8598C47.7867 57.9429 47.7149 58.0557 47.6236 58.1548C47.6582 58.2705 47.6918 58.386 47.7264 58.5016C50.4672 57.8768 50.4672 57.8768 51.5779 57.1319C52.17 57.1097 52.818 57.1913 53.2027 56.7337C53.8205 56.9001 54.0288 56.3656 54.5721 56.334C54.9542 56.3118 55.3203 55.991 55.6819 56.0019C56.2741 56.0189 56.6198 55.7693 57.0612 55.6045C57.7145 55.361 58.3935 55.1511 59.1132 54.909C59.2187 54.9766 59.4049 55.0967 59.5884 55.2152C59.864 54.7638 60.6361 54.8935 61.0882 54.5769C61.425 54.3407 62.0632 54.3459 62.4896 54.6514C62.7697 54.8501 63.0507 54.9081 63.4779 54.7471C63.516 54.6122 63.5666 54.4409 63.6295 54.2237C63.9264 53.9506 64.4077 54.1471 64.8394 54.0838C65.0247 54.2001 65.2188 54.3216 65.4138 54.4444C66.2178 53.9918 66.2178 53.9918 67.0626 54.4401C67.1884 54.351 67.3134 54.262 67.4978 54.1317C68.6608 54.1317 69.8858 54.1317 71.2633 54.1317C71.3386 54.1736 71.538 54.284 71.8155 54.4371C72.4191 54.4371 73.1158 54.4371 73.864 54.4371C74.2868 54.181 74.8213 54.0294 75.5003 54.0949C75.8486 54.3297 76.2254 54.583 76.6491 54.8676C76.7652 54.6306 76.8716 54.4122 76.9868 54.1773C77.477 54.139 77.7003 54.5623 78.3004 54.5079C78.7968 54.4622 79.474 54.683 79.8587 54.943C80.3268 55.2615 80.7983 55.2057 81.3027 55.2195C81.925 55.4795 82.2095 55.9085 82.463 56.3599C82.6358 56.3599 82.8114 56.3599 82.9027 56.3599C83.5436 56.7557 84.1259 57.1275 84.7304 57.4806C84.8448 57.547 85.0469 57.539 85.3146 57.5824C85.3403 57.8584 85.3687 58.1566 85.3944 58.4361C85.5584 58.5761 85.7108 58.704 85.8597 58.8306C85.514 59.0767 85.2003 59.2981 84.8847 59.5226C84.7881 59.9274 84.9831 60.4065 84.3236 60.6753C84.5035 61.2 84.0621 61.5945 83.767 62.0215C83.5143 62.3872 83.3609 62.8194 82.9833 63.1014C82.4994 63.462 82.2255 63.8866 81.8567 64.2849C81.5279 64.6397 80.9907 64.8973 80.5572 65.1909C80.7611 65.3551 80.9233 65.4862 81.0891 65.6179C80.4783 65.9169 79.5237 65.8873 79.4829 66.6498C79.4723 66.8404 79.1124 67.0745 78.8332 67.1952C78.3829 67.3896 78.5628 67.7605 78.3111 67.9784C78.0389 68.0294 77.7996 68.0733 77.4858 68.1317C77.4433 68.2804 77.3936 68.4526 77.3343 68.6555C76.7457 69.0736 76.0986 69.5052 75.5021 69.9681C75.1891 70.211 74.8036 70.2697 74.4082 70.3819C74.0067 70.4952 74.2487 70.9227 73.8613 71.1619C73.5068 71.3821 73.0378 71.3548 72.756 71.5527C72.4741 71.7502 72.4829 72.0791 72.2135 72.3373C71.8775 72.6619 71.0505 72.375 71.0221 72.8865C70.9973 73.3362 70.4584 73.4871 70.1339 73.758C69.7891 74.0443 69.3885 74.2954 69.0126 74.5624C68.6377 74.8298 68.2619 75.0961 67.886 75.3635C67.8648 75.4825 67.8426 75.6019 67.8222 75.7203C67.2753 75.9774 66.7275 76.2341 66.2276 76.4696C66.2276 76.6662 66.2276 76.7922 66.2276 76.9178C66.0875 76.9811 65.9483 77.0947 65.8056 77.0976C65.1842 77.1116 64.7083 77.4481 64.6799 77.7394C64.6054 78.5094 63.7102 78.4961 63.0976 78.7626C63.0773 78.8825 63.0578 79.0019 63.0258 79.1954C62.2742 79.7267 61.4649 80.3003 60.6556 80.8737C59.8445 81.4484 59.0352 82.0232 58.6496 82.2971C58.1754 82.9044 57.9866 83.1451 57.7969 83.3872C58.1648 83.6537 58.6346 83.4536 59.0396 83.5206C59.2347 83.3918 59.4252 83.265 59.5821 83.1612C60.1503 83.0353 60.3799 83.3688 60.606 83.4829C61.6705 83.8067 62.2343 82.8713 63.5914 83.3541C63.3901 83.2371 63.587 83.3512 63.8414 83.4985C64.2943 83.4985 64.8164 83.4985 65.4236 83.4985C65.7249 83.4159 65.8987 83.0016 66.4775 83.1517C66.6477 83.2644 66.8383 83.3909 67.0351 83.5211C68.2663 83.5211 69.5055 83.5211 70.7323 83.5211C70.9255 83.6457 71.1108 83.7656 71.296 83.8849C71.4352 83.7863 71.5602 83.6971 71.6852 83.608C71.8456 83.5787 72.0034 83.5448 72.1665 83.5226C72.2525 83.5116 72.3464 83.5088 72.4306 83.5226C73.1531 83.641 73.77 84.0172 74.5624 83.9671C74.7911 84.2883 75.3283 84.1991 75.6492 84.3757C75.994 84.5643 76.2697 84.8167 76.5675 85.0353C76.7758 84.9027 76.9602 84.7851 77.1445 84.6681C77.9751 85.2575 78.7897 85.8355 79.6043 86.4131C79.6655 86.4574 79.732 86.497 79.8011 86.5433C79.9722 86.5433 80.1477 86.5433 80.3179 86.5433C80.6973 87.0661 81.0191 87.6092 81.472 88.0913C81.7105 88.3432 81.5704 88.5707 81.6413 88.8033C81.495 88.7619 81.3417 88.7283 81.2016 88.6764C80.9889 88.6 80.7859 88.5103 80.6086 88.4787C80.5209 88.2386 80.5599 87.9464 80.0954 88.2026C80.2399 88.29 80.3853 88.3777 80.6086 88.4787C80.5776 88.6095 80.5776 88.7929 80.5776 89.0195C80.9268 89.1028 80.9987 89.4729 81.4614 89.4988C81.7911 89.2912 81.5801 89.0307 81.6413 88.8033C81.7264 88.8033 81.8682 88.7811 81.8895 88.8067C82.0819 89.0505 82.237 89.3102 82.4364 89.5517C82.6297 89.7852 83.0968 89.874 83.1535 90.184C82.8557 90.416 82.4923 90.2702 82.2024 90.3651C82.1155 90.125 82.1546 89.8338 81.6901 90.0891C81.8346 90.1768 81.979 90.2642 82.2024 90.3651C82.1723 90.3746 82.1377 90.4764 82.1776 90.493C83.4425 91.0563 83.493 91.0385 83.985 91.8004C84.6613 92.8479 85.5052 93.7952 86.7798 94.5262C87.0422 94.6762 87.3134 94.8174 87.6591 95.0061C86.7878 95.209 86.7878 95.209 84.8599 94.5158C84.7739 94.2758 84.8129 93.9836 84.3475 94.2398C84.492 94.3272 84.6374 94.4149 84.8599 94.5158C84.8297 94.6489 84.8297 94.8352 84.8297 95.0287C85.5362 95.5302 86.248 96.0351 87.0954 96.6378C86.6354 96.6797 86.2391 96.7755 86.1797 96.7114C85.7693 96.2734 84.9272 96.3698 84.4734 95.9856C84.4016 95.9253 84.0249 96.0461 83.532 96.1233C84.2899 96.5561 84.8891 96.8977 85.4848 97.2392C85.3306 97.5058 85.2703 97.7832 85.14 97.8016C84.7039 97.862 84.3227 97.9422 84.0692 98.2255C83.7182 98.2255 83.3734 98.2255 82.8992 98.2255C82.6332 97.9974 82.3008 97.714 82.0278 97.4814C81.6342 97.4814 81.3719 97.4814 81.1396 97.5342C81.0519 97.2936 81.0908 97.0023 80.6273 97.2582C80.7717 97.3459 80.9162 97.4336 81.1396 97.5342C81.1689 97.996 80.4854 97.7634 80.13 97.9819C80.0963 98.0989 80.0467 98.2712 79.9828 98.4882C79.8924 98.5995 79.7719 98.6193 79.6416 98.5161C79.5228 98.4235 79.3473 98.2453 79.2746 98.2637C78.5584 98.4425 78.351 97.6432 77.6436 97.8508C77.2758 97.5903 76.9079 97.3284 76.5267 97.0581C76.2422 97.1326 76.0117 97.1921 75.6731 97.2798C76.6455 97.6484 76.845 98.3175 77.3041 98.8644C76.9274 99.1154 76.4673 98.9299 76.0543 98.9866C74.0217 97.5431 74.0218 97.5431 72.3234 97.0891C71.5593 96.5391 70.7553 95.9621 69.9416 95.3761C70.0373 95.1076 69.8051 94.9405 69.5711 94.7418C69.3716 94.571 69.3247 94.3157 69.1775 94.1087C68.916 93.7459 68.6297 93.3919 68.3532 93.0333C68.737 92.4724 67.8186 92.1808 67.8 91.684C67.7876 91.3131 66.9544 90.309 66.552 89.9764C65.7905 89.9764 65.0194 89.9764 64.3094 89.9764C64.1259 90.1066 64.0009 90.1952 63.8555 90.2981C63.5275 90.2981 63.1792 90.2981 62.8308 90.2981C62.6296 90.4283 62.4372 90.5529 62.2325 90.686C61.9001 90.686 61.5482 90.686 61.2016 90.686C61.0039 90.8157 60.8125 90.9422 60.6122 91.0733C60.2691 91.0733 59.9181 91.0733 59.591 91.0733C59.3809 91.2073 59.1886 91.3309 59.0104 91.4442C58.5424 91.4442 58.1001 91.4442 57.6622 91.4442C57.0772 91.6627 56.4939 91.8807 55.7192 92.1699C55.424 92.1699 54.9054 92.1699 54.3842 92.1699C54.1697 92.2973 53.9747 92.4143 53.731 92.5578C53.0901 92.5578 52.3898 92.5578 51.6878 92.5578C51.4821 92.6875 51.2889 92.8088 51.0726 92.9451C49.8698 92.9451 48.6359 92.9451 47.3993 92.9451C47.2034 93.0744 47.0129 93.2012 46.817 93.3315C46.4731 93.3315 46.1185 93.3315 45.7745 93.3315C45.5786 93.4603 45.3881 93.5868 45.1931 93.7171C43.9556 93.7171 42.7217 93.7171 41.4994 93.7171C41.3629 93.8142 41.2379 93.9025 41.0464 94.0388C40.6006 94.0388 40.0891 94.0388 39.5723 94.0388C39.3428 94.161 39.1424 94.2671 38.8446 94.4261C37.835 94.4261 36.711 94.4261 35.5959 94.4261C35.5232 94.3002 35.4612 94.1935 35.4 94.086C35.7404 94.0167 36.2191 94.2685 36.4167 93.8652C35.7138 93.6996 35.7138 93.6996 35.4 94.086C34.7042 94.0299 33.4526 93.592 32.7913 93.1768C32.7913 91.6267 32.7913 90.0848 32.7913 88.5566C33.1459 88.4654 33.449 88.3867 33.7025 88.3211C34.2486 87.7779 32.7319 87.5341 33.4588 86.9703C33.6804 87.0542 33.9179 87.1448 34.1555 87.2354C34.4977 87.0387 34.2699 86.7702 34.3354 86.539C34.4197 86.539 34.5544 86.5626 34.5792 86.5361C35.0765 85.9789 35.3096 85.3216 35.9132 84.7983C36.0356 84.6914 35.931 84.4531 35.931 84.2756Z" fill="#FE6338"/>
<path d="M25.5 7.5C27.0001 7.50001 85.5003 28.5003 88.0001 31.0002C90.4999 33.5001 82 45.0001 82 45.0001C56.5488 37.22 24.5 27.5001 18.9999 21.5001C20.552 16.3841 23.9999 7.49999 25.5 7.5Z" fill="#41444C"/>
<path d="M19.5 87.4997C20 91.9993 78 92.5001 82 89.5001C86 86.5 80.6551 45.4999 80.6551 45.4999C55.8011 44.2683 25.4998 43.9999 16.9998 45.9999C16.7577 51.3398 19 83.0001 19.5 87.4997Z" fill="#41444C"/>
<path d="M16.7578 44.6207C16.9404 57.9505 17.5362 71.303 18.1409 84.62C18.1781 85.4453 19.4757 85.4496 19.4339 84.62C18.7582 71.289 18.0695 57.9247 16.9733 44.6207C16.9619 44.4849 16.7557 44.4806 16.7578 44.6207Z" fill="white"/>
<path d="M17.9104 86.7753C19.1786 88.3442 20.6398 89.5736 22.4953 90.3936C23.1468 90.6824 23.552 89.7363 22.8764 89.4939C21.1151 88.8614 19.4287 87.9056 18.0719 86.6148C17.9633 86.5113 17.82 86.6643 17.9104 86.7753Z" fill="white"/>
<path d="M22.105 89.7135C30.129 93.071 40.9339 91.7144 49.4397 91.7974C59.4608 91.8965 69.489 91.8448 79.5092 91.6767C80.5766 91.6584 80.5804 90.0098 79.5092 90.0228C70.1769 90.1273 60.8463 90.1908 51.5136 90.1822C41.9666 90.1725 31.597 91.235 22.233 89.2513C21.9215 89.1855 21.8253 89.5971 22.105 89.7135Z" fill="white"/>
<path d="M79.5457 90.8731C79.8528 90.8418 80.0467 90.9668 80.3586 90.9259C80.6295 90.8903 80.8886 90.774 81.1374 90.6662C81.7886 90.3807 82.3827 89.9518 82.8779 89.4432C83.8761 88.4185 84.4072 87.0921 84.5078 85.6816C84.567 84.853 83.3166 84.8821 83.2274 85.6816C83.0985 86.8378 82.5682 87.9013 81.7908 88.7612C81.445 89.1437 81.0407 89.482 80.6067 89.7611C80.2901 89.9648 79.8339 90.4033 79.5005 90.5391C79.3394 90.6037 79.3352 90.8946 79.5457 90.8731Z" fill="white"/>
<path d="M83.7456 86.1925C83.708 72.8809 82.6528 59.5284 81.9129 46.2406C81.8681 45.44 80.6119 45.4357 80.658 46.2406C81.4161 59.5435 81.8719 72.9445 83.3273 86.1925C83.356 86.4532 83.7465 86.4672 83.7456 86.1925Z" fill="white"/>
<path d="M16.8684 45.5529C27.4727 46.7866 38.5801 45.9871 49.2524 45.9483C60.0467 45.9106 70.8419 45.8535 81.6362 45.7554C82.6145 45.7457 82.6165 44.2372 81.6362 44.2394C70.8415 44.2674 60.0467 44.3375 49.2524 44.4247C38.5691 44.512 27.4676 43.8429 16.8684 45.1995C16.6423 45.2285 16.6394 45.5259 16.8684 45.5529Z" fill="white"/>
<path d="M24.7633 7.22595C21.9697 11.0479 19.8417 15.4086 18.7417 20.016C18.6044 20.5924 19.4727 20.8338 19.6342 20.2617C20.9208 15.693 22.6461 11.4961 25.1355 7.44251C25.2829 7.20222 24.9229 7.00722 24.7633 7.22595Z" fill="white"/>
<path d="M25.4143 7.27118C35.2977 12.1361 45.9449 15.6057 56.2293 19.5289C67.1964 23.7129 78.1303 27.9809 88.9537 32.5237C89.8314 32.8922 90.2176 31.4612 89.348 31.0992C78.8461 26.7159 68.241 22.5923 57.6013 18.5538C47.0335 14.5422 36.4462 9.9768 25.5267 7.00503C25.3717 6.96301 25.2626 7.19575 25.4143 7.27118Z" fill="white"/>
<path d="M81.3959 45.0067C83.21 43.7622 84.4262 41.521 85.6042 39.7053C87.1639 37.3025 88.5761 34.7984 89.8983 32.2587C90.3036 31.4796 89.1196 30.789 88.716 31.5702C87.4724 33.9784 86.1683 36.3446 84.7908 38.6796C83.6161 40.6697 81.9182 42.7127 81.3309 44.9571C81.3216 44.9916 81.3629 45.0293 81.3959 45.0067Z" fill="white"/>
<path d="M17.9003 21.2108C20.3136 24.271 23.6336 25.843 27.1798 27.3311C33.0344 29.79 39.0301 31.9094 45.0474 33.933C57.1471 38.0027 69.3198 41.8624 81.466 45.7931C82.4767 46.1196 82.9111 44.5335 81.9038 44.2103C71.0235 40.7116 60.1261 37.2636 49.2604 33.7218C39.2216 30.4494 26.2797 27.9086 18.0888 21.0233C17.9553 20.9113 17.7955 21.0783 17.9003 21.2108Z" fill="white"/>
<path d="M21.9792 12.6899C23.8487 17.7585 26.0798 22.7172 28.1487 27.7082C28.3739 28.2524 29.1358 27.9442 28.9017 27.3925C26.791 22.4187 24.8176 17.3534 22.5121 12.4669C22.3731 12.1716 21.8652 12.3807 21.9792 12.6899Z" fill="white"/>
<path d="M26.0292 7.94033C26.5312 8.16015 27.9074 12.2665 28.1056 12.7191C28.8358 14.386 29.566 16.0529 30.2962 17.7187C31.8609 21.2907 33.4257 24.8615 34.9905 28.4335C35.2917 29.122 36.3177 28.5272 36.0084 27.8408C33.9818 23.3433 31.9552 18.8447 29.929 14.3472C29.0606 12.4195 28.196 7.81535 25.9873 7.16453C25.8361 7.12036 25.6561 7.19363 25.5787 7.33047C25.364 7.70976 25.3708 7.73453 25.5723 8.1289C25.6146 8.21187 25.7122 8.2345 25.7955 8.21942C25.8631 8.20757 25.9303 8.19463 25.9975 8.18278C26.1048 8.16338 26.1323 7.98559 26.0292 7.94033Z" fill="white"/>
<path d="M38.9571 13.0981C41.8913 19.2076 44.9084 25.2492 47.5941 31.475C47.7738 31.891 48.3908 31.5322 48.2073 31.1184C45.4793 24.9486 42.6362 18.7701 39.2963 12.9009C39.1704 12.679 38.8493 12.874 38.9571 13.0981Z" fill="white"/>
<path d="M51.0262 17.4417C53.5202 23.8238 56.5389 30.041 59.3262 36.3003C59.5399 36.7808 60.2592 36.3649 60.0378 35.8865C57.1791 29.693 54.5064 23.3551 51.362 17.3006C51.2678 17.1206 50.9497 17.2467 51.0262 17.4417Z" fill="white"/>
<path d="M64.9902 22.2311C67.0781 28.3977 69.7085 34.4199 72.0686 40.4885C72.2777 41.0262 73.1592 40.7762 72.9365 40.2504C70.385 34.2195 68.0617 28.0357 65.2449 22.1245C65.1773 21.9822 64.9395 22.0824 64.9902 22.2311Z" fill="white"/>
<path d="M77.3548 29.2211C77.4364 29.2211 77.4364 29.0945 77.3548 29.0945C77.2732 29.0945 77.2728 29.2211 77.3548 29.2211Z" fill="white"/>
<path d="M75.8912 28.5411C78.5293 33.8554 81.0499 39.0544 82.8102 44.7415C82.9641 45.2371 83.7543 45.0216 83.5929 44.526C81.7712 38.9272 79.4919 33.2757 76.209 28.3569C76.0772 28.1597 75.7865 28.3299 75.8912 28.5411Z" fill="white"/>
<path d="M19.8645 19.5753C19.8695 19.9115 19.6797 20.0343 19.72 20.3856C19.7694 20.8187 19.9062 21.2562 20.0503 21.6656C20.3513 22.5201 20.7847 23.3056 21.3337 24.0265C21.7068 24.5167 22.412 23.9877 22.0106 23.506C21.438 22.8186 20.9787 22.0525 20.6712 21.212C20.546 20.8704 20.4936 20.4987 20.3609 20.1636C20.2875 19.9772 20.0512 19.724 20.014 19.5548C19.9951 19.4708 19.8632 19.4902 19.8645 19.5753Z" fill="white"/>
<path d="M20.1308 16.875C21.4517 19.4998 22.55 22.2054 23.4294 25.008C23.5367 25.3496 24.0856 25.1977 23.9673 24.8604C22.9836 22.0557 21.7877 19.3501 20.3717 16.7349C20.2859 16.5766 20.051 16.7166 20.1308 16.875Z" fill="white"/>
<path d="M21.1221 15.2986C22.129 19.6852 24.1928 24.0286 26.5292 27.8592C26.8127 28.3225 27.54 27.9033 27.2627 27.4314C24.9395 23.4758 23.2438 19.4287 21.5378 15.1844C21.4369 14.9323 21.0587 15.0228 21.1221 15.2986Z" fill="white"/>
<path d="M21.5949 14.2802C23.5534 18.2789 25.2889 22.3648 26.7353 26.5746C26.8705 26.9679 27.5052 26.789 27.359 26.4033C25.7664 22.2032 23.9143 18.1301 21.7262 14.2037C21.6781 14.1175 21.5522 14.194 21.5949 14.2802Z" fill="white"/>
<path d="M29.3082 9.04047C30.9503 16.2813 34.8818 23.4489 38.3679 29.9506C38.66 30.4948 39.503 30.0077 39.2 29.4657C35.4844 22.8218 32.9329 15.6984 29.4008 9.00062C29.3733 8.9489 29.296 8.98552 29.3082 9.04047Z" fill="white"/>
<path d="M31.8475 10.4929C34.2535 17.9202 37.5787 25.0942 40.9482 32.1282C41.2135 32.6831 42.0599 32.1972 41.7802 31.6444C38.2573 24.6794 35.2533 17.514 31.9747 10.439C31.9417 10.3679 31.8233 10.4186 31.8475 10.4929Z" fill="white"/>
<path d="M34.0766 11.5079C36.648 18.9212 40.3238 26.0748 43.4918 33.251C43.7457 33.8264 44.612 33.3286 44.3453 32.7543C41.0654 25.6675 38.1349 18.2154 34.285 11.4206C34.2229 11.3107 34.0336 11.384 34.0766 11.5079Z" fill="white"/>
<path d="M35.9104 12.1683C38.4943 19.3747 41.863 26.3289 45.3579 33.1345C45.6694 33.74 46.6045 33.2024 46.2774 32.599C42.632 25.8699 39.4818 18.9512 36.2112 12.0411C36.1321 11.8752 35.8474 11.9926 35.9104 12.1683Z" fill="white"/>
<path d="M37.9092 13.3602C41.1862 20.6043 44.9369 27.6609 48.4868 34.7757C48.7758 35.3554 49.6666 34.8436 49.3623 34.266C45.6658 27.2407 42.1353 20.0871 38.1721 13.2072C38.0728 13.0348 37.8307 13.1867 37.9092 13.3602Z" fill="white"/>
<path d="M53.4451 18.0764C55.9382 25.3711 58.9341 32.4148 62.157 39.4143C62.3054 39.7354 62.8007 39.4553 62.6388 39.1331C59.2038 32.2941 56.3143 25.1923 53.6893 18.0096C53.6344 17.8587 53.3919 17.9212 53.4451 18.0764Z" fill="white"/>
<path d="M56.1644 20.1838C57.9488 26.6704 60.6364 32.9361 63.6509 38.9421C63.8584 39.3559 64.4875 38.9917 64.2746 38.579C61.1819 32.5935 58.7927 26.4172 56.5556 20.0771C56.4698 19.8347 56.0946 19.9295 56.1644 20.1838Z" fill="white"/>
<path d="M57.602 21.0946C60.2641 27.4077 63.1997 33.5323 65.4245 40.0297C65.6192 40.6007 66.5409 40.3411 66.3288 39.7818C63.9147 33.4051 61.4012 26.8474 57.9265 20.9588C57.8285 20.7929 57.5222 20.905 57.602 21.0946Z" fill="white"/>
<path d="M59.6003 22.2421C61.8119 29.0325 64.903 35.6862 67.7219 42.2493C67.945 42.7697 68.8704 42.3894 68.6485 41.8603C65.8867 35.2724 63.2495 28.427 59.9015 22.1149C59.8149 21.9522 59.5424 22.0632 59.6003 22.2421Z" fill="white"/>
<path d="M61.8549 22.7302C64.1765 28.6511 66.6565 34.5365 68.7977 40.5231C68.9684 40.9994 69.658 40.7235 69.4467 40.2505C66.8624 34.4578 64.5936 28.5078 62.185 22.6397C62.103 22.4403 61.7742 22.5244 61.8549 22.7302Z" fill="white"/>
<path d="M64.1748 24.4704C66.493 30.3256 68.9505 36.1301 71.3481 41.954C71.548 42.44 72.2309 42.1631 72.02 41.6718C69.5396 35.8823 67.1153 30.0648 64.5567 24.3098C64.4621 24.0965 64.0872 24.2506 64.1748 24.4704Z" fill="white"/>
<path d="M76.8343 27.508C78.7934 32.2038 80.8851 36.8359 82.7388 41.577C82.9125 42.0209 83.6397 41.8227 83.4601 41.3787C81.5438 36.6463 79.5996 31.874 77.2861 27.3183C77.1619 27.0737 76.7257 27.2483 76.8343 27.508Z" fill="white"/>
<path d="M78.6702 28.1985C80.3156 32.3286 82.1327 36.3908 83.8558 40.4886C84.0908 41.0478 84.897 40.7213 84.6321 40.1632C82.725 36.1419 80.9076 32.0754 78.9249 28.0918C78.8557 27.9528 78.6114 28.0509 78.6702 28.1985Z" fill="white"/>
<path d="M81.8573 30.8472C82.615 33.0227 83.5751 35.1303 84.3884 37.2853C84.6183 37.8952 85.501 37.5396 85.2226 36.9351C84.2579 34.8426 83.4314 32.6811 82.4134 30.6144C82.263 30.3084 81.7441 30.5229 81.8573 30.8472Z" fill="white"/>
<path d="M83.2513 30.7545C83.9997 32.3082 84.7379 33.9439 85.0467 35.6496C85.1236 36.0741 85.8471 35.878 85.6945 35.4718C85.0602 33.779 84.4712 32.1509 83.4812 30.6208C83.3873 30.4765 83.1773 30.6025 83.2513 30.7545Z" fill="white"/>
<path d="M85.7239 33.0086C85.8937 33.3696 86.0637 33.7295 86.2335 34.0904C86.4051 34.4536 86.9755 34.1336 86.7807 33.7715C86.5927 33.4213 86.4047 33.0722 86.2162 32.722C86.0409 32.3955 85.5697 32.6821 85.7239 33.0086Z" fill="white"/>
<path d="M19.4424 61.0809C39.9486 59.8148 60.551 59.8202 81.0892 59.387C81.8954 59.3709 81.8984 58.1188 81.0892 58.1371C60.6355 58.6134 39.7644 58.0024 19.4424 60.5626C19.1204 60.6036 19.101 61.1013 19.4424 61.0809Z" fill="white"/>
<path d="M19.5917 60.6444C22.8175 56.1598 25.8333 51.4824 28.9066 46.8911C29.1737 46.4924 28.5314 45.9838 28.2297 46.3707C24.8365 50.7249 21.655 55.4799 19.2743 60.4591C19.1721 60.6735 19.4539 60.8362 19.5917 60.6444Z" fill="white"/>
<path d="M35.8725 60.2363C38.8035 55.6666 42.0394 51.2175 45.6223 47.1348C46.0563 46.6403 45.3278 45.913 44.8964 46.4118C41.2344 50.6454 38.1514 55.0987 35.6537 60.1091C35.5814 60.2535 35.7843 60.3742 35.8725 60.2363Z" fill="white"/>
<path d="M52.7375 58.5314C56.0487 54.3195 58.7755 49.6377 61.2995 44.9279C61.5953 44.3751 60.7463 43.8816 60.4565 44.4365C57.9777 49.1797 55.1444 53.688 52.4291 58.2944C52.3196 58.4797 52.5964 58.7103 52.7375 58.5314Z" fill="white"/>
<path d="M67.2674 58.5318C70.1658 54.5289 72.6144 50.1973 75.1566 45.967C75.4968 45.4002 74.6048 44.882 74.2701 45.4498C71.7652 49.7017 69.1271 53.919 66.9935 58.3724C66.9052 58.5577 67.1482 58.6967 67.2674 58.5318Z" fill="white"/>
<path d="M77.8659 59.5486C78.6126 57.5865 79.6035 55.6739 80.9435 54.049C81.3068 53.6094 80.662 52.9802 80.3159 53.4241C78.8957 55.2494 77.9361 57.1911 77.6089 59.4775C77.5854 59.6456 77.8042 59.7103 77.8659 59.5486Z" fill="white"/>
<path d="M17.2446 54.2634C17.8493 56.4281 18.5013 58.5756 19.1567 60.7242C19.2928 61.1702 20.012 60.9655 19.8535 60.5334C19.0785 58.4151 18.3015 56.2999 17.477 54.1998C17.4217 54.0598 17.2024 54.1115 17.2446 54.2634Z" fill="white"/>
<path d="M17.2285 51.5547C17.1512 53.8121 18.1582 56.1859 19.2366 58.1297C19.4618 58.5348 20.102 58.1642 19.8606 57.7655C18.642 55.757 18.1899 53.7227 17.54 51.5116C17.4893 51.3392 17.2349 51.3759 17.2285 51.5547Z" fill="white"/>
<path d="M16.1314 46.2805C17.3205 49.6725 18.5852 53.0418 19.7317 56.4489C19.8707 56.8616 20.5405 56.6634 20.3794 56.2711C19.0099 52.9363 17.7536 49.5518 16.4251 46.2007C16.3545 46.023 16.0659 46.0941 16.1314 46.2805Z" fill="white"/>
<path d="M17.8378 45.1833C18.6834 48.4439 19.7622 51.6409 20.7789 54.8508C20.9416 55.3647 21.7694 55.1309 21.5856 54.6288C20.4192 51.4491 19.3092 48.2413 17.9769 45.1252C17.9422 45.0443 17.8167 45.1025 17.8378 45.1833Z" fill="white"/>
<path d="M19.2443 45.7685C19.86 48.2134 20.8039 50.4492 21.7345 52.7799C21.9377 53.2885 22.6924 52.9512 22.4181 52.4933C21.1628 50.3986 20.3493 47.985 19.6845 45.6479C19.6043 45.3655 19.1729 45.4841 19.2443 45.7685Z" fill="white"/>
<path d="M20.7571 45.7886C21.0994 48.0848 21.8929 50.2301 22.8994 52.314C23.1656 52.8657 24.0323 52.3776 23.7311 51.8302C22.6502 49.867 21.9482 47.7755 21.3926 45.614C21.2848 45.1938 20.6962 45.3813 20.7571 45.7886Z" fill="white"/>
<path d="M22.531 45.6886C22.5339 47.473 23.1568 49.1496 23.9508 50.7249C24.2208 51.2604 25.0964 50.741 24.7499 50.2594C23.7425 48.8608 23.2798 47.2984 22.9422 45.6337C22.8944 45.3998 22.5306 45.4569 22.531 45.6886Z" fill="white"/>
<path d="M23.6712 45.7199C24.1098 46.9946 24.6033 48.2553 25.012 49.5396C25.1806 50.0709 25.9737 49.7616 25.7299 49.2379C25.1624 48.0182 24.6731 46.7575 24.1343 45.5248C24.0206 45.2641 23.5783 45.4505 23.6712 45.7199Z" fill="white"/>
<path d="M25.1546 46.1346C26.0402 46.2951 25.264 48.4006 26.5478 48.3068C27.2019 48.2594 27.5766 47.2067 26.8228 47.0052C26.388 46.8899 26.2013 47.5774 26.6378 47.6754C26.1011 47.5548 26.1971 46.7563 26.02 46.3436C25.8628 45.9762 25.6172 45.7402 25.2133 45.7003C24.9665 45.6756 24.9086 46.0893 25.1546 46.1346Z" fill="white"/>
<path d="M25.8669 45.7899C26.0934 46.0636 26.2501 46.3556 26.4902 46.6229C26.7656 46.9299 27.0411 47.237 27.3167 47.5441C27.6801 47.9482 28.3135 47.3254 27.9176 46.945C27.6201 46.6606 27.3226 46.375 27.0256 46.0895C26.7669 45.8417 26.4816 45.6768 26.2163 45.4419C25.9755 45.2286 25.6661 45.5475 25.8669 45.7899Z" fill="white"/>
<path d="M38.5104 56.437C38.0037 57.5306 38.4098 58.8139 39.2853 59.6134C39.527 59.8343 39.8912 59.4647 39.6436 59.2568C38.8196 58.5607 38.5826 57.5672 38.7305 56.5296C38.7474 56.4089 38.5733 56.3012 38.5104 56.437Z" fill="white"/>
<path d="M39.0369 55.4876C39.361 56.4563 39.6851 57.4239 40.0096 58.3915C40.0958 58.6501 40.5137 58.524 40.4128 58.2816C40.0193 57.3323 39.6259 56.383 39.2326 55.4348C39.1839 55.3184 38.9946 55.3615 39.0369 55.4876Z" fill="white"/>
<path d="M40.0323 53.7172C40.296 55.3195 40.8365 56.8808 41.2087 58.4604C41.3368 59.0046 42.2339 58.746 42.0399 58.232C41.4601 56.6954 41.03 55.0814 40.3454 53.5858C40.2588 53.3972 40.0035 53.5427 40.0323 53.7172Z" fill="white"/>
<path d="M40.8186 52.2614C41.2238 54.6028 42.0325 56.886 42.7015 59.1617C42.8624 59.7102 43.7422 59.4645 43.5571 58.9279C42.7779 56.6662 42.1082 54.3162 41.0733 52.1547C41.0002 52.0028 40.7931 52.1181 40.8186 52.2614Z" fill="white"/>
<path d="M42.0814 51.8777C42.2927 54.3032 43.2818 56.497 44.4731 58.5852C44.7473 59.0669 45.5252 58.5917 45.2062 58.1585C43.8003 56.2492 43.1255 54.0823 42.6041 51.8077C42.5385 51.5211 42.0547 51.5771 42.0814 51.8777Z" fill="white"/>
<path d="M43.3894 50.7865C43.708 53.3369 44.8362 55.7721 46.3089 57.8582C46.6013 58.2719 47.1874 57.8345 46.8662 57.4293C45.2613 55.4068 44.3363 53.213 43.6137 50.7574C43.5791 50.6389 43.3729 50.655 43.3894 50.7865Z" fill="white"/>
<path d="M43.8887 48.3749C45.0157 51.9792 46.5525 55.48 48.0865 58.9281C48.2817 59.3666 48.9663 58.9862 48.7435 58.5455C47.0428 55.1837 45.6259 51.7271 44.1089 48.2833C44.054 48.1584 43.8486 48.2467 43.8887 48.3749Z" fill="white"/>
<path d="M44.964 47.6565C46.4704 51.4989 48.0487 55.324 49.4672 59.1998C49.657 59.7181 50.4058 59.4175 50.1737 58.9035C48.4848 55.157 46.9462 51.3362 45.343 47.552C45.2466 47.3257 44.8706 47.4183 44.964 47.6565Z" fill="white"/>
<path d="M45.7254 46.9202C47.1004 50.9146 48.6516 54.9024 50.2712 58.8052C50.4665 59.275 51.2436 59.081 51.0539 58.5897C49.5191 54.6191 47.8741 50.6344 46.0964 46.764C46.0013 46.5571 45.651 46.7037 45.7254 46.9202Z" fill="white"/>
<path d="M47.0361 45.8861C48.322 49.4806 49.6983 53.0461 51.042 56.6202C51.2685 57.2215 52.2514 56.9424 52.008 56.3552C50.5294 52.7908 49.0817 49.2113 47.5457 45.6716C47.4215 45.385 46.9301 45.5897 47.0361 45.8861Z" fill="white"/>
<path d="M49.0658 46.1649C49.9769 49.321 50.9644 52.477 52.0347 55.5824C52.2266 56.1394 53.1182 55.9024 52.9272 55.3378C51.8708 52.2173 50.7184 49.1076 49.5061 46.0442C49.401 45.7792 48.9825 45.8772 49.0658 46.1649Z" fill="white"/>
<path d="M50.8295 46.8888C51.8351 49.3035 52.7508 51.7559 53.6944 54.1943C53.9691 54.9055 55.0027 54.4853 54.6671 53.786C53.5355 51.4262 52.3748 49.0783 51.3044 46.6895C51.1857 46.4244 50.7162 46.6173 50.8295 46.8888Z" fill="white"/>
<path d="M52.5251 45.1357C53.1273 47.5568 53.8147 49.9629 54.6012 52.3324C54.8154 52.9778 55.8439 52.7009 55.628 52.0501C54.8382 49.672 53.9462 47.323 52.9777 45.0118C52.8644 44.7424 52.4503 44.835 52.5251 45.1357Z" fill="white"/>
<path d="M54.3096 45.8564C54.5556 47.2647 55.012 48.5545 55.468 49.9025C55.7101 50.618 56.7948 50.1525 56.4179 49.5027C55.7371 48.3315 55.3146 46.9792 54.9697 45.6754C54.8556 45.2444 54.2353 45.4319 54.3096 45.8564Z" fill="white"/>
<path d="M56.3073 45.0917C56.5004 46.2974 56.9091 47.4385 57.428 48.543C57.6511 49.016 58.438 48.5559 58.1286 48.1346C57.4267 47.1788 56.9865 46.1304 56.7109 44.9807C56.6471 44.7146 56.266 44.8331 56.3073 45.0917Z" fill="white"/>
<path d="M58.0344 45.8192C58.1346 46.1834 58.2347 46.5476 58.3348 46.9129C58.4553 47.3514 59.1703 47.137 59.0071 46.7276C58.8664 46.3741 58.7253 46.0207 58.5842 45.6673C58.4523 45.3365 57.9347 45.4572 58.0344 45.8192Z" fill="white"/>
<path d="M68.4773 56.6037C68.6873 57.33 68.8973 58.0562 69.1074 58.7836C69.2125 59.1467 69.8033 58.9732 69.6698 58.6295C69.3947 57.9205 69.1192 57.2115 68.8441 56.5035C68.7579 56.2805 68.408 56.3645 68.4773 56.6037Z" fill="white"/>
<path d="M69.4244 55.4758C69.3255 55.8724 69.4933 56.2818 69.5988 56.6686C69.7303 57.1524 69.8714 57.6341 70.008 58.1157C70.1723 58.6987 71.121 58.4099 70.9 57.8711C70.7085 57.4035 70.5205 56.9348 70.3257 56.4693C70.1723 56.1019 70.0502 55.6461 69.7316 55.395C69.6293 55.3142 69.4607 55.3293 69.4244 55.4758Z" fill="white"/>
<path d="M69.9774 53.3993C70.7435 54.995 71.3709 56.6652 71.6896 58.4086C71.7563 58.7728 72.3665 58.6155 72.252 58.2545C71.7036 56.524 71.0971 54.8507 70.2507 53.2398C70.1557 53.0588 69.8899 53.2182 69.9774 53.3993Z" fill="white"/>
<path d="M71.0987 51.5406C71.8778 53.7118 72.7001 55.8722 73.3813 58.0768C73.5427 58.5994 74.3274 58.2966 74.0879 57.7794C73.1261 55.7041 72.297 53.5664 71.4286 51.4501C71.3475 51.2529 71.0234 51.3316 71.0987 51.5406Z" fill="white"/>
<path d="M71.9607 50.5323C72.5988 53.3521 73.8914 55.9759 75.2148 58.5274C75.4582 58.9983 76.2198 58.5565 75.9265 58.1136C74.3376 55.7183 73.3425 53.1011 72.3397 50.4278C72.2523 50.194 71.9045 50.2823 71.9607 50.5323Z" fill="white"/>
<path d="M72.6844 49.1131C73.672 52.4265 75.2104 55.6224 76.534 58.8129C76.8217 59.5068 77.8106 59.107 77.4957 58.4088C76.0738 55.2582 74.7963 51.9491 73.055 48.9569C72.9409 48.7619 72.6181 48.8912 72.6844 49.1131Z" fill="white"/>
<path d="M73.6127 48.2984C74.8254 51.3272 76.0039 54.3701 77.2129 57.4001C77.4678 58.039 78.3784 57.6716 78.0935 57.0305C76.7667 54.0501 75.4107 51.0816 74.0877 48.099C73.9702 47.8339 73.5032 48.0258 73.6127 48.2984Z" fill="white"/>
<path d="M74.5069 46.9624C75.1851 50.0473 77.0507 53.2152 78.3958 56.0598C78.6877 56.6772 79.6059 56.1396 79.3152 55.5243C77.9757 52.6915 76.7135 49.2823 74.7719 46.8094C74.6666 46.6747 74.4764 46.8245 74.5069 46.9624Z" fill="white"/>
<path d="M75.4542 46.4927C75.6761 47.804 76.416 49.0442 76.9628 50.25C77.6591 51.7865 78.3141 53.3403 78.9366 54.908C79.2306 55.6494 80.2773 55.2259 79.9563 54.4803C79.3117 52.9858 78.6412 51.5031 77.9287 50.0398C77.3118 48.7727 76.7401 47.3375 75.7297 46.3321C75.6051 46.2082 75.4284 46.3386 75.4542 46.4927Z" fill="white"/>
<path d="M77.17 45.4582C77.8689 48.1315 79.1243 50.5365 80.13 53.0902C80.3577 53.6699 81.2142 53.2626 80.8944 52.7702C79.42 50.4945 78.523 47.8546 77.4755 45.3741C77.399 45.1931 77.1167 45.2545 77.17 45.4582Z" fill="white"/>
<path d="M78.3443 46.1486C79.1074 47.2983 79.9035 48.4512 80.1558 49.839C80.2399 50.3002 81.0289 50.075 80.8526 49.6472C80.2961 48.2971 79.7434 46.9351 78.643 45.919C78.4909 45.779 78.2205 45.9622 78.3443 46.1486Z" fill="white"/>
<path d="M79.7892 46.1454C80.0118 46.8684 80.2342 47.5914 80.4565 48.3144C80.5383 48.5805 80.9686 48.4566 80.8722 48.2002C80.6052 47.489 80.3377 46.779 80.0706 46.0678C80.006 45.8965 79.7334 45.9633 79.7892 46.1454Z" fill="white"/>
<path d="M33.8409 70.1934C33.7893 71.2698 33.7166 72.3484 33.7015 73.4259C33.6946 73.8968 34.4434 73.8979 34.4367 73.4259C34.4215 72.3484 34.3488 71.2698 34.2972 70.1934C34.2833 69.9014 33.8549 69.9014 33.8409 70.1934Z" fill="white"/>
<path d="M34.0769 70.8347C35.0378 70.7593 35.9792 70.88 36.8734 71.242C37.3919 71.4521 37.6628 70.5643 37.1092 70.3897C36.0778 70.0643 35.0471 70.0298 34.0114 70.3509C33.757 70.4296 33.7875 70.8573 34.0769 70.8347Z" fill="white"/>
<path d="M34.382 74.6672C35.2482 74.9409 36.2403 74.9334 37.1041 74.6403C37.6779 74.4453 37.3466 73.6156 36.7765 73.8677C36.0084 74.2061 35.2811 74.2955 34.4461 74.1964C34.1665 74.163 34.1348 74.5897 34.382 74.6672Z" fill="white"/>
<path d="M37.1935 74.2728C37.81 73.1231 37.8536 71.8883 37.3127 70.7041C37.106 70.2515 36.4004 70.647 36.634 71.0995C37.1263 72.0531 37.2227 73.1252 36.8808 74.1413C36.8191 74.3245 37.1022 74.443 37.1935 74.2728Z" fill="white"/>
<path d="M40.9342 72.1773C48.2698 72.1223 55.5849 71.8702 62.9167 72.257C63.7462 72.3012 63.7491 70.9996 62.9167 70.9694C55.5493 70.6946 48.1959 70.7916 40.9224 72.0911C40.8725 72.0997 40.8852 72.1784 40.9342 72.1773Z" fill="white"/>
<path d="M33.4679 80.2506C33.4163 81.2075 33.3715 82.1654 33.3283 83.1233C33.3064 83.6103 34.111 83.6114 34.089 83.1233C34.0459 82.1654 34.0011 81.2075 33.9496 80.2506C33.9326 79.9414 33.4843 79.9403 33.4679 80.2506Z" fill="white"/>
<path d="M33.3479 80.434C34.4335 80.489 35.5085 80.6129 36.5932 80.6668C37.1316 80.6937 37.1325 79.8058 36.5932 79.8328C35.509 79.8877 34.4335 80.0116 33.3479 80.0677C33.1118 80.0795 33.1113 80.4211 33.3479 80.434Z" fill="white"/>
<path d="M33.7085 84.3778C34.7848 84.5092 35.8696 84.6116 36.9538 84.6493C37.5328 84.6698 37.534 83.7335 36.9538 83.7529C35.8696 83.7906 34.7848 83.8929 33.7085 84.0244C33.4808 84.0524 33.4804 84.3498 33.7085 84.3778Z" fill="white"/>
<path d="M36.8561 80.5828C36.5899 81.7616 36.6008 82.9985 36.5294 84.201C36.497 84.7452 37.4114 84.7463 37.3788 84.201C37.307 82.9985 37.3179 81.7616 37.0517 80.5828C37.0302 80.4858 36.8781 80.4858 36.8561 80.5828Z" fill="white"/>
<path d="M43.4417 82.8251C50.0383 83.1257 56.6789 82.8466 63.2796 82.7399C64.0302 82.7281 64.0306 81.5536 63.2796 81.5784C56.6751 81.7928 50.0222 81.8381 43.4417 82.4587C43.2088 82.4803 43.2012 82.8132 43.4417 82.8251Z" fill="white"/>
<path d="M22.7226 84.5833C22.7057 84.5101 22.7133 84.5909 22.8114 84.6512C22.8841 84.6965 22.9673 84.7148 23.034 84.773C23.2133 84.9314 23.3117 85.1954 23.4896 85.3678C23.8449 85.7126 24.2696 85.7513 24.6462 85.4302C25.0277 85.1048 24.5291 84.4616 24.1086 84.7352C24.085 84.7514 23.7456 84.2795 23.629 84.1825C23.4642 84.0467 23.2162 83.9454 22.9952 83.9745C22.6808 84.0165 22.4526 84.342 22.5836 84.6415C22.6195 84.7223 22.7412 84.6631 22.7226 84.5833Z" fill="white"/>
<path d="M24.1503 83.5815C24.517 84.4338 25.1749 85.0878 26.031 85.452C26.3247 85.5759 26.5043 85.1589 26.2018 85.048C25.4023 84.7516 24.7956 84.1838 24.4241 83.4231C24.3332 83.2367 24.0716 83.3994 24.1503 83.5815Z" fill="white"/>
<path d="M76.2851 86.4442C76.7555 86.3624 77.1142 86.3128 77.519 85.996C77.9171 85.6846 78.2163 85.2267 78.4161 84.7698C78.6625 84.2073 77.8288 83.8625 77.6398 84.4433C77.4218 85.1178 76.8285 85.9184 76.2365 86.3289C76.1765 86.371 76.2137 86.4572 76.2851 86.4442Z" fill="white"/>
<path d="M77.8029 87.177C78.2006 86.7072 78.5758 86.2234 78.9514 85.7364C79.104 85.5381 78.7613 85.3366 78.6122 85.5392C78.2571 86.0208 77.9064 86.5035 77.5743 87.0014C77.4835 87.1371 77.6956 87.3041 77.8029 87.177Z" fill="white"/>
<path d="M85.6806 21.7745C87.7431 23.2011 89.8741 24.5351 91.9777 25.9014C92.3947 26.1718 92.7923 25.4973 92.3681 25.2365C90.2329 23.9252 88.1158 22.5751 85.943 21.3273C85.6489 21.1582 85.4093 21.5859 85.6806 21.7745Z" fill="white"/>
<path d="M88.6132 18.7488C89.9413 20.1107 91.2702 21.4727 92.5988 22.8347C92.8092 23.0513 93.1473 22.7151 92.93 22.505C91.563 21.1818 90.1957 19.8586 88.8282 18.5344C88.6875 18.3986 88.4762 18.6087 88.6132 18.7488Z" fill="white"/>
<path d="M10.1521 87.2512C10.3232 87.2512 10.3237 86.9862 10.1521 86.9862C9.98055 86.9862 9.98055 87.2512 10.1521 87.2512Z" fill="white"/>
<path d="M10.0237 83.6645C9.84627 86.0846 10.6682 88.356 12.3364 90.1221C12.5266 90.3235 12.838 90.0143 12.6411 89.8182C10.9732 88.1588 10.1404 86.0081 10.2393 83.6645C10.2452 83.5256 10.0335 83.5277 10.0237 83.6645Z" fill="white"/>
<path d="M12.2692 84.242C12.1315 87.1685 13.9071 89.8979 16.379 91.3611C16.7167 91.5605 17.029 91.0271 16.6863 90.8375C14.1589 89.4399 12.8536 87.0468 12.5608 84.242C12.5418 84.0588 12.2785 84.0513 12.2692 84.242Z" fill="white"/>
</svg>
