<svg width="50" height="54" viewBox="0 0 50 54" fill="none" xmlns="http://www.w3.org/2000/svg">
<path fill-rule="evenodd" clip-rule="evenodd" d="M49.0104 2.65762C48.1638 0.421993 46.8397 -0.392087 44.5646 0.247272C37.354 2.27245 32.1698 6.71202 29.1363 13.5143C28.7993 14.2728 28.5625 14.646 27.6758 14.511C25.8862 14.237 24.0805 14.2569 22.2829 14.5031C21.6048 14.5944 21.2597 14.4594 20.9628 13.7247C18.3707 7.22427 13.3831 3.1143 6.99513 0.620524C3.25948 -0.836836 1.45382 0.243268 0.607158 4.17456C-0.496259 9.2971 -0.119101 14.4276 1.93132 19.2047C3.22738 22.2226 4.09005 25.0937 3.33568 28.0123C3.4444 29.859 3.53674 31.4531 3.62748 33.0198L3.65669 33.5241C3.82123 36.3434 5.07715 38.5076 7.48868 40.0682L7.81683 40.2809C9.72766 41.52 11.6601 42.7732 13.8044 43.4793C16.1759 44.2616 17.0105 45.6276 16.9382 47.9983C16.858 50.6548 18.2985 52.3703 20.8826 53.1089C21.0292 53.1508 21.1759 53.1933 21.3228 53.2359C22.0402 53.4438 22.7613 53.6528 23.4907 53.7879C29.1965 54.8363 32.9362 51.9454 33.2371 46.2788L33.2397 46.252C33.2436 46.2122 33.2477 46.1707 33.2412 46.1319C33.1529 45.163 33.5662 44.6348 34.5131 44.2536C37.1574 43.1815 39.6613 41.8313 42.1049 40.3501C44.8535 38.6823 46.2137 36.3434 46.4344 33.1547C46.6431 30.1209 46.5387 27.1109 46.4063 24.089C46.4028 24.0146 46.3982 23.9402 46.3936 23.8659C46.362 23.3538 46.3307 22.8466 46.6391 22.3577C48.8379 18.8473 49.6003 14.916 49.9093 10.8855C50.1219 8.09392 50.0136 5.31024 49.0104 2.65762Z" fill="#FE6338"/>
<path fill-rule="evenodd" clip-rule="evenodd" d="M49.0104 2.65762C48.1638 0.421993 46.8397 -0.392087 44.5646 0.247272C37.354 2.27245 32.1698 6.71202 29.1363 13.5143C28.7993 14.2728 28.5625 14.646 27.6758 14.511C25.8862 14.237 24.0805 14.2569 22.2829 14.5031C21.6048 14.5944 21.2597 14.4594 20.9628 13.7247C18.3707 7.22427 13.3831 3.1143 6.99513 0.620524C3.25948 -0.836836 1.45382 0.243268 0.607158 4.17456C-0.496259 9.2971 -0.119101 14.4276 1.93132 19.2047C3.22738 22.2226 4.09005 25.0937 3.33568 28.0123C3.4444 29.859 3.53674 31.4531 3.62748 33.0198L3.65669 33.5241C3.82123 36.3434 5.07715 38.5076 7.48868 40.0682L7.81683 40.2809C9.72766 41.52 11.6601 42.7732 13.8044 43.4793C16.1759 44.2616 17.0105 45.6276 16.9382 47.9983C16.858 50.6548 18.2985 52.3703 20.8826 53.1089C21.0292 53.1508 21.1759 53.1933 21.3228 53.2359C22.0402 53.4438 22.7613 53.6528 23.4907 53.7879C29.1965 54.8363 32.9362 51.9454 33.2371 46.2788L33.2397 46.252C33.2436 46.2122 33.2477 46.1707 33.2412 46.1319C33.1529 45.163 33.5662 44.6348 34.5131 44.2536C37.1574 43.1815 39.6613 41.8313 42.1049 40.3501C44.8535 38.6823 46.2137 36.3434 46.4344 33.1547C46.6431 30.1209 46.5387 27.1109 46.4063 24.089C46.4028 24.0146 46.3982 23.9402 46.3936 23.8659C46.362 23.3538 46.3307 22.8466 46.6391 22.3577C48.8379 18.8473 49.6003 14.916 49.9093 10.8855C50.1219 8.09392 50.0136 5.31024 49.0104 2.65762Z" fill="url(#paint0_linear_242_964)"/>
<path fill-rule="evenodd" clip-rule="evenodd" d="M49.0104 2.65762C48.1638 0.421993 46.8397 -0.392087 44.5646 0.247272C37.354 2.27245 32.1698 6.71202 29.1363 13.5143C28.7993 14.2728 28.5625 14.646 27.6758 14.511C25.8862 14.237 24.0805 14.2569 22.2829 14.5031C21.6048 14.5944 21.2597 14.4594 20.9628 13.7247C18.3707 7.22427 13.3831 3.1143 6.99513 0.620523C3.25948 -0.836836 1.45382 0.243268 0.607158 4.17456C-0.496259 9.2971 -0.119101 14.4276 1.93132 19.2047C3.22738 22.2226 4.09005 25.0937 3.33568 28.0123C3.4444 29.859 3.53674 31.4531 3.62748 33.0198L3.65669 33.5241C3.82123 36.3434 5.07715 38.5076 7.48868 40.0682L7.81683 40.2809C9.72766 41.52 11.6601 42.7732 13.8044 43.4793C16.1759 44.2616 17.0105 45.6276 16.9382 47.9983C16.858 50.6548 18.2985 52.3703 20.8826 53.1089C21.0292 53.1508 21.176 53.1933 21.3229 53.2359C22.0402 53.4438 22.7613 53.6528 23.4907 53.7879C29.1965 54.8363 32.9362 51.9454 33.2371 46.2788L33.2397 46.2519C33.2436 46.2121 33.2477 46.1707 33.2412 46.1319C33.1529 45.163 33.5662 44.6348 34.5131 44.2536C37.1574 43.1815 39.6612 41.8313 42.1049 40.3501C44.8535 38.6823 46.2137 36.3434 46.4344 33.1547C46.6431 30.1209 46.5387 27.1109 46.4063 24.089C46.4028 24.0146 46.3982 23.9402 46.3936 23.8659C46.362 23.3538 46.3307 22.8466 46.6391 22.3577C48.8379 18.8473 49.6003 14.916 49.9093 10.8855C50.1219 8.09392 50.0136 5.31024 49.0104 2.65762ZM44.6288 22.2624L44.587 22.3259C44.1872 22.9325 43.8558 23.4352 44.5927 24.0493C44.7492 24.1803 44.8134 24.494 44.8214 24.7244C44.8348 25.203 44.8511 25.6817 44.8673 26.1605V26.1605C44.967 29.1013 45.0668 32.0422 44.5285 34.9655C44.3318 36.0297 43.7741 36.9033 42.9676 37.6142C40.4706 39.8137 37.4701 41.135 34.4686 42.4568L34.4685 42.4568L33.9955 42.6652C33.2572 42.9909 33.2532 42.566 33.2532 42.0696C33.2517 41.7713 33.2519 41.4729 33.2521 41.1746V41.1739C33.2524 40.6783 33.2527 40.1826 33.2452 39.687C33.2371 39.1509 33.1088 38.6546 32.4306 38.6823C31.7766 38.7101 31.6442 39.1946 31.6442 39.7347C31.6426 40.4097 31.6423 41.084 31.6419 41.7583V41.7584C31.6415 42.7699 31.641 43.7811 31.6362 44.7937C31.6356 44.9132 31.6352 45.0327 31.6349 45.1522V45.1523V45.1523C31.633 45.8269 31.6311 46.501 31.58 47.1723C31.3473 50.365 30.8818 50.9249 27.7681 51.8382C27.3869 51.9971 27.0859 52.0129 27.09 51.4729C27.102 51.451 27.1151 51.4301 27.1281 51.4093L27.1282 51.4092C27.1412 51.3884 27.1542 51.3676 27.1662 51.3458C28.2776 49.6184 28.39 48.4271 27.5273 47.5575C26.6526 46.6759 24.241 46.4853 22.9811 47.22C21.8135 47.903 21.7412 48.9513 22.1385 50.0711C22.2622 50.4168 22.4727 50.7307 22.6833 51.0449L22.6833 51.0449C22.78 51.1891 22.8767 51.3334 22.9651 51.4808C22.9771 52.0288 22.6601 51.9812 22.2909 51.8461C19.117 50.8891 18.6275 50.3451 18.467 47.0293C18.3932 45.5343 18.399 44.034 18.4049 42.5343V42.5342C18.408 41.7515 18.4111 40.969 18.4028 40.1873C18.4018 40.109 18.4032 40.0271 18.4047 39.9437C18.4151 39.3635 18.4268 38.7116 17.6163 38.6943C16.7165 38.6767 16.7143 39.3742 16.7124 40.0024C16.7121 40.0857 16.7119 40.1679 16.7095 40.2469C16.6934 40.8053 16.697 41.3656 16.7012 42.0051C16.7033 42.3205 16.7055 42.6553 16.7055 43.0186C16.1785 42.7726 15.654 42.5333 15.1336 42.2959L15.1335 42.2959C12.1509 40.935 9.30476 39.6364 6.92692 37.503C5.49445 36.2203 5.30185 34.4453 5.2256 32.7219C5.14914 30.9059 5.16862 29.086 5.18811 27.265V27.2649C5.19624 26.5056 5.20437 25.746 5.20555 24.9864C5.20555 24.9579 5.20257 24.9264 5.19955 24.8946C5.19209 24.8158 5.18444 24.735 5.2216 24.6926C6.25888 23.5306 5.6658 22.7086 5.05593 21.8634C4.86132 21.5937 4.665 21.3216 4.5194 21.0353C1.73067 15.5633 1.10071 9.7935 2.44092 3.841C2.92643 1.69667 3.74899 1.25192 5.82751 1.96274C11.6978 3.97599 16.232 7.60548 19.0368 13.1807C19.5544 14.2092 19.743 15.3449 19.8553 16.4806C19.9035 16.9492 19.9677 17.4059 20.5134 17.517C21.0671 17.6282 21.3801 17.2947 21.4483 16.7983C21.5406 16.1153 22.0101 16.0636 22.5397 16.0636C23.6418 16.061 24.7439 16.0619 25.8461 16.0628C26.3971 16.0632 26.9482 16.0636 27.4992 16.0636C28.0409 16.0636 28.4743 16.155 28.5866 16.8102C28.6709 17.2907 28.9758 17.6441 29.5376 17.517C29.995 17.4138 30.0954 17.0326 30.1716 16.6117C31.6321 8.62205 37.354 4.61535 44.372 1.91905C46.1656 1.23208 47.1647 1.77609 47.5338 3.55905C48.8981 10.131 48.4487 16.4727 44.6288 22.2624ZM17.1493 34.6655C15.2755 34.4868 13.7627 33.7244 13.0485 31.9136C12.7917 31.2664 12.3744 31.1552 11.8086 31.0718C11.3632 31.0083 11.0944 30.7184 11.1064 30.2538C11.1185 29.7773 11.4435 29.5827 11.8648 29.4596C15.3918 28.439 19.0111 30.0155 20.5279 33.2479C20.5556 33.3067 20.5858 33.366 20.6161 33.4255C20.8313 33.8478 21.0526 34.2822 20.4476 34.6616C19.902 34.7049 19.3564 34.6837 18.8108 34.6625H18.8107C18.2569 34.641 17.7031 34.6195 17.1493 34.6655ZM29.008 33.9451C28.9718 34.2549 29.0361 34.5408 29.3851 34.6679C29.9272 34.701 30.4682 34.6805 31.0093 34.66C31.5697 34.6388 32.1301 34.6176 32.6915 34.6559C34.5774 34.4773 36.0339 33.6592 36.7883 31.8763C36.9849 31.4117 37.1815 31.1218 37.7272 31.1099C38.2809 31.094 38.7464 30.8716 38.7023 30.2323C38.6501 29.5056 38.0643 29.3944 37.4905 29.4182C37.1698 29.4309 36.8486 29.4413 36.5273 29.4517C35.3446 29.4899 34.1599 29.5281 32.9924 29.6843C31.3593 29.9027 29.1925 32.321 29.008 33.9451Z" fill="#22262F"/>
<defs>
<linearGradient id="paint0_linear_242_964" x1="39.7136" y1="-60.0817" x2="-29.7422" y2="-17.0198" gradientUnits="userSpaceOnUse">
<stop stop-color="#FFB800"/>
<stop offset="1" stop-color="#FFA800" stop-opacity="0"/>
</linearGradient>
</defs>
</svg>
