<svg width="95" height="95" viewBox="0 0 95 95" fill="none" xmlns="http://www.w3.org/2000/svg">
<g opacity="0.2">
<path d="M51.5119 52.074C51.723 51.3703 51.8637 50.0333 51.8637 47.6407C51.8637 44.7555 51.2304 38.6333 50.4563 38.6333C49.6822 38.6333 49.0489 44.7555 49.0489 47.6407C49.0489 50.0333 49.1897 51.3 49.4008 52.074C49.0489 52.2148 48.7674 52.3555 48.5563 52.4963C47.8526 52.9888 47.36 53.5518 47.0082 54.2555C46.6563 54.9592 46.5156 55.7333 46.586 56.3666C46.6563 57.6333 47.4304 58.5481 48.1341 59.1111C48.8378 59.674 49.5415 59.8148 50.1748 59.9555C51.5119 60.0963 52.3563 59.6037 52.7786 59.1814C53.2008 58.7592 53.2711 58.4074 53.2008 58.1963C53.1304 57.9851 52.9897 57.8444 52.8489 57.774C52.4971 57.4926 52.2156 57.4222 51.723 57.4925C51.4415 57.4925 51.0897 57.5629 50.6674 57.3518C50.1045 57.1407 49.4711 56.7889 49.4711 56.1555C49.4711 56.0148 49.4711 55.7333 49.6119 55.5222C49.6823 55.2407 49.9637 54.9592 50.1748 54.6777C50.386 54.4666 50.5971 54.3963 50.8786 54.3259C51.16 54.3259 51.5119 54.4666 51.7934 54.6777C52.0748 54.8888 52.3563 55.2407 52.4971 55.5926C52.6378 55.9444 52.7786 56.2963 52.7786 56.5777C52.8489 57.2111 52.7082 57.6333 52.8489 57.774C52.9193 57.8444 53.06 57.774 53.2711 57.6333C53.4823 57.4926 53.6934 57.2111 53.9045 56.7888C54.2563 55.9444 54.186 54.537 53.2711 53.3407C52.7785 52.7777 52.2156 52.3555 51.5119 52.074Z" fill="white"/>
<path d="M48.7668 28.0786C45.8113 28.0786 42.5742 28.6416 39.3372 29.8379C31.6668 32.6527 25.3335 38.8453 22.7298 47.7119C21.3224 52.7786 21.3224 58.6897 23.3631 64.1082C27.3742 75.4378 39.2668 82.686 50.8076 81.5601C53.552 81.349 56.2261 80.786 58.6187 79.7304C68.8224 75.5786 74.3113 66.7119 74.9446 58.0564C75.015 57.5638 74.9446 57.1416 75.015 56.7193C75.015 56.3675 75.015 56.0156 75.015 55.7342C75.015 55.2416 74.9446 54.9601 74.8742 54.9601C74.7335 54.9601 74.6631 56.0156 74.3816 57.986C72.8335 67.0638 67.1335 74.5934 57.9853 77.9712C55.7335 78.886 53.2001 79.3082 50.6668 79.449C40.252 80.223 29.3446 73.5378 25.8261 63.123C24.0668 58.1971 24.0668 52.849 25.4039 48.3453C28.852 37.2971 38.7742 31.0342 48.7668 30.8934C63.052 30.8934 72.9039 42.0119 74.1001 53.0601C74.1705 53.4119 74.2409 53.7638 74.2409 53.9749C74.452 54.9601 74.6631 55.0304 74.8742 55.0304C75.0853 55.0304 75.2261 54.9601 75.3668 53.9045C75.3668 53.623 75.4372 53.3416 75.4372 52.9193C76.352 43.7712 66.6409 28.2194 48.7668 28.0786Z" fill="white"/>
<path d="M10.4854 27.7968C12.1039 29.8375 13.9336 31.3857 15.4113 32.2301C16.115 32.6523 16.8188 32.8634 17.3113 33.0042H17.5225C17.3113 33.2857 17.1002 33.5671 16.8891 33.8486C16.678 34.2005 16.4669 34.5523 16.2558 34.9042C14.3558 37.719 12.9484 41.0968 11.8928 44.6153C9.85208 51.7227 9.85208 60.0968 12.7373 67.8375C16.5373 78.7449 26.3891 88.5264 39.5484 91.6931C43.4891 92.6079 47.5706 93.0301 51.5113 92.6782C55.4521 92.3264 59.2521 91.5523 62.6299 90.1449C74.8039 85.219 84.0928 74.8745 86.0632 59.4634C86.2039 58.7597 86.1336 58.1264 86.1336 57.5634C86.1336 57.0005 86.1336 56.5783 86.1336 56.156C86.1336 55.382 86.0632 55.0301 86.0632 55.0301C85.9928 55.0301 85.9225 55.4523 85.8521 56.156C85.7817 56.5079 85.7817 57.0005 85.7113 57.4931C85.641 58.056 85.641 58.619 85.5002 59.3227C82.4039 74.8745 73.3262 84.0931 61.9965 88.3857C58.6891 89.6523 55.1002 90.356 51.3706 90.5671C47.641 90.8486 43.841 90.4264 40.1113 89.4412C27.9373 86.3449 18.7188 77.1264 15.2706 66.8523C12.6669 59.8153 12.7373 52.0042 14.6373 45.4597C18.1558 33.9894 26.178 25.8968 36.3817 22.0968C40.6039 20.5486 44.7558 19.8449 48.6965 19.7745C61.4336 19.7745 72.1299 25.756 78.815 35.1857C81.9113 39.6894 84.3039 45.1783 85.3595 52.1449C85.4299 52.7079 85.5002 53.1301 85.5706 53.482C85.8521 54.9597 85.9928 55.0301 86.2039 55.0301C86.4151 55.0301 86.5558 54.8894 86.6965 53.4116C86.6965 53.0597 86.7669 52.5671 86.7669 52.0042C86.7669 46.9375 84.9373 40.0412 80.8558 33.7783C80.5743 33.2857 80.2225 32.8634 79.8706 32.3708C80.5743 32.019 81.6299 31.5264 83.0373 30.3301C83.741 29.6968 84.5854 28.9227 85.2891 27.7968C88.8076 22.0264 84.5151 16.1857 79.0965 16.1153C77.6188 16.1153 76.4225 16.6079 75.3669 17.1005C73.2558 18.2264 71.778 19.7042 70.8632 20.9005C70.0891 21.956 69.8076 22.7301 69.878 23.0116C69.8076 22.9412 69.7373 22.8708 69.5965 22.8708C68.9632 22.4486 68.2595 22.0264 67.5558 21.6042C66.8521 21.2523 66.078 20.9005 65.3039 20.4783C65.0225 20.3375 64.8113 20.1968 64.5299 20.1264C64.741 19.8449 64.8817 19.282 65.0928 17.7338C65.1632 17.1005 65.2336 16.3968 65.3743 15.4116C65.4447 14.4264 65.5151 13.2301 65.3743 11.7523C64.741 6.8264 62.0669 4.01159 57.5632 2.81529C54.4669 2.04122 49.9632 2.11159 44.9669 2.25233C41.2373 2.39307 38.7039 3.44862 37.7188 7.17825C36.8039 10.6968 37.3669 15.3412 38.7039 18.3671C37.578 18.6486 36.5225 19.0005 35.3965 19.4227C32.441 20.4783 29.5558 22.0264 26.741 23.9264C26.741 23.6449 26.6002 23.1523 26.2484 22.4486C25.8262 21.6042 25.1928 20.4079 23.7854 18.7894C23.0817 18.0153 22.1669 17.1005 20.8299 16.3264C13.5817 12.1042 4.01134 19.2116 10.4854 27.7968ZM71.5669 21.6745C72.6225 20.8301 74.1706 19.7042 76.0706 19.0005C76.9854 18.6486 78.041 18.4375 78.815 18.5079C81.9817 18.8597 85.1484 22.2375 82.7558 26.3894C82.2632 27.2338 81.7002 27.8671 81.1373 28.4301C80.0114 29.4857 79.0965 30.1894 78.5336 30.7523L78.4632 30.8227C76.2817 28.219 73.4669 25.5449 69.8076 23.1523C70.0891 23.082 70.6521 22.4486 71.5669 21.6745ZM39.6891 7.74122C41.2373 3.16714 55.3817 5.27825 56.8595 5.63011C60.4484 6.54492 62.0669 8.65603 62.6299 12.1745C62.841 13.3708 62.841 14.4968 62.841 15.4116C62.841 16.3264 62.9113 17.1005 62.9113 17.7338C62.9817 18.6486 63.1225 19.282 63.2632 19.7042C63.1225 19.6338 62.9817 19.5634 62.841 19.5634C61.9965 19.282 61.1521 18.9301 60.3076 18.6486C56.7891 17.5931 52.9188 16.9597 48.6965 16.9597C45.741 16.9597 42.5743 17.382 39.4076 18.156C38.8447 14.919 38.6336 10.8375 39.6891 7.74122ZM10.8373 22.0968C11.6113 19.0708 15.0595 16.4671 19.4928 18.8597C20.478 19.4227 21.2521 20.056 21.9558 20.6894C23.2225 21.956 24.0669 23.0116 24.6299 23.6449C25.1928 24.2783 25.5447 24.5597 25.8262 24.7005C22.5188 27.1634 20.2669 29.556 17.8743 32.7227C17.8039 32.6523 17.6632 32.582 17.5225 32.5116C17.1706 32.2301 16.6076 31.9486 16.0447 31.3857C14.8484 30.3301 13.3706 28.7116 12.1039 26.6708C11.4706 25.6857 10.9076 24.5597 10.6965 23.5042C10.6262 23.2227 10.6262 23.082 10.6262 22.8708C10.6965 22.5894 10.7669 22.3079 10.8373 22.0968Z" fill="white"/>
</g>
</svg>
