<svg width="92" height="92" viewBox="0 0 92 92" fill="none" xmlns="http://www.w3.org/2000/svg">
<g opacity="0.2">
<path d="M35.4368 65.8992C38.2309 67.6029 41.2976 68.8978 44.4324 69.8518C44.6368 71.4874 46.545 77.5526 47.022 78.9837C47.2946 79.7333 47.5672 80.6192 48.1124 81.437C48.6576 82.3229 49.4753 83.0044 50.2931 83.5496C51.1109 84.0948 52.065 84.4355 52.9509 84.7763C54.2457 85.1852 55.5405 85.4578 56.9035 85.594V85.7303C56.9716 86.1392 57.1079 86.6163 57.4487 87.0933C57.7894 87.5704 58.2665 87.9792 58.8116 88.32C59.3568 88.6607 59.9702 88.8652 60.5835 89.0696C61.1968 89.274 61.8102 89.3422 62.4916 89.3422C63.1731 89.3422 63.9227 89.2059 64.5361 88.9333C65.2176 88.5926 65.6946 88.1837 66.0353 87.7066C67.262 86.0711 67.1257 84.2992 66.8531 83.3452C66.785 83.0726 66.6487 82.8681 66.5805 82.6637C67.0576 82.2548 67.5346 81.9141 67.8753 81.5052C68.7613 80.5511 69.5109 79.5289 69.9879 78.4385C70.5331 77.3481 70.8057 76.3259 70.942 75.3037C71.2827 73.2592 71.0783 71.5555 70.7376 70.1926C70.1242 67.3985 69.3065 65.6948 68.6931 64.6044C67.9435 63.1733 67.4664 62.6963 67.1939 62.56C70.0561 58.8118 71.9642 54.9274 73.0546 51.52C74.2131 47.84 74.4176 44.7052 74.4176 42.5926C74.4176 42.0474 74.4176 41.5704 74.3494 41.1615C74.2813 40.7526 74.2813 40.4118 74.2131 40.1392C74.145 39.5941 74.0768 39.3215 74.0087 39.3215C73.9405 39.3215 73.9405 39.5941 73.9405 40.2074V41.2296C73.9405 41.6385 73.8724 42.1155 73.8724 42.5926C73.7361 44.637 73.3272 47.7037 72.0324 51.1792C70.7376 54.6548 68.625 58.6074 65.4902 62.3555C60.8561 67.9437 54.4502 75.1674 36.5272 63.9911C31.6205 60.8563 27.3272 56.5629 24.465 51.5881C16.4917 37.9585 22.6931 22.3526 34.7553 17.1052C37.822 15.8104 40.8887 15.1289 43.7509 15.0607C46.6813 14.9926 49.339 15.3333 51.7924 16.0148C61.9465 18.6726 69.7153 25.4193 72.782 35.7778C73.1227 36.8681 73.3272 37.6859 73.4635 38.2311C73.7361 39.3215 73.9405 39.3896 74.145 39.3215C74.3494 39.3215 74.5539 39.1852 74.5539 38.0948C74.5539 37.5496 74.5539 36.6637 74.3494 35.437C74.145 34.2104 73.8042 32.643 72.9865 30.6667C69.6472 22.2163 61.5376 15.9467 52.4739 13.4933C49.8161 12.8118 46.8857 12.3348 43.6146 12.403C40.4116 12.4711 36.9361 13.1526 33.5968 14.5837C24.6013 18.4681 19.2176 27.3274 18.2635 35.7096C17.582 41.3659 19.0131 47.5674 22.2161 52.8829C25.4191 58.1985 30.0531 62.6963 35.4368 65.8992ZM64.3316 84.9126C64.2635 85.2533 64.1272 85.6622 63.8546 86.0029C63.582 86.3437 63.1731 86.6844 62.3553 86.8207C61.5376 86.957 60.4472 86.8207 59.6294 86.5481C58.9479 86.3437 58.4027 86.0029 58.062 85.594H58.6072C60.5153 85.5259 62.3553 85.0489 63.9909 84.2992C64.1272 84.2311 64.2635 84.1629 64.3998 84.0948C64.3998 84.3674 64.3998 84.64 64.3316 84.9126ZM66.5805 63.5822C66.6487 63.9911 66.7168 64.5363 66.9894 65.3541C67.3302 66.5126 67.8753 68.2163 68.2842 70.6696C68.4887 71.8963 68.5568 73.3274 68.2842 74.8948C68.0116 76.4622 67.262 78.0978 65.8309 79.597C65.0131 80.4148 63.9909 81.2326 62.7642 81.8459C60.1746 83.1407 56.8353 83.4815 53.5642 82.5955C51.9287 82.1185 50.4294 81.437 49.6116 80.3466C49.2028 79.8015 48.862 79.12 48.5894 78.3703C47.8398 76.5985 45.7953 71.6237 44.7731 69.92C57.5168 73.6 60.7879 70.7378 66.5805 63.5822Z" fill="white"/>
<path d="M14.7201 45.183C14.1068 45.1149 13.1527 45.3874 11.2445 46.0689C10.2223 46.4097 8.65491 47.0912 7.29194 47.7045C5.92898 48.3178 4.83861 48.9312 4.97491 49.2719C5.04305 49.6127 6.33787 49.749 7.83713 49.6127C9.33639 49.4764 11.1082 49.0675 12.1986 48.7267C14.1749 48.0452 15.0608 47.4319 15.4697 47.023C15.8786 46.6141 15.7423 46.2734 15.606 45.9326C15.4016 45.5237 15.2653 45.183 14.7201 45.183Z" fill="white"/>
<path d="M6.6785 24.2617C8.10961 25.3521 9.88147 26.5788 11.04 27.1921C15.4015 29.5091 15.8104 28.964 16.1511 28.2825C16.4918 27.601 16.6281 27.0558 12.4029 24.7388C11.2444 24.1254 9.33628 23.2395 7.70073 22.558C6.06517 21.8765 4.63406 21.3995 4.42961 21.7402C4.22517 22.081 5.24739 23.1714 6.6785 24.2617Z" fill="white"/>
<path d="M24.3282 11.1085C25.6911 12.8804 26.4407 13.7663 26.9859 14.1752C27.5311 14.5159 27.8037 14.3796 28.1444 14.1752C28.4852 13.9707 28.7578 13.7663 28.6215 13.0848C28.4852 12.4715 27.94 11.313 26.5089 9.40481C25.6911 8.38258 24.26 6.88332 22.8971 5.79295C21.5341 4.70258 20.2393 4.08925 20.0348 4.36184C19.7622 4.63444 20.58 5.79295 21.5341 7.15592C22.42 8.51888 23.5785 10.0863 24.3282 11.1085Z" fill="white"/>
<path d="M41.1616 9.67755C41.5705 9.6094 41.9112 9.6094 42.1157 9.20051C42.3201 8.85977 42.3883 8.24644 42.4564 7.01977C42.4564 6.33829 42.3883 5.31607 42.252 4.36199C42.1157 3.47607 41.9112 2.65829 41.5705 2.59014C41.2298 2.52199 40.6846 3.20347 40.2757 4.15755C39.8668 5.11162 39.6624 6.27014 39.6624 7.01977C39.6624 8.38273 39.8668 9.06422 40.2075 9.40496C40.412 9.7457 40.7527 9.7457 41.1616 9.67755Z" fill="white"/>
<path d="M57.2441 12.8118C57.9256 13.1526 58.5389 13.357 60.3789 9.677C61.4011 7.63255 63.1048 2.99848 62.4233 2.65774C61.7419 2.317 58.9478 6.40589 57.9256 8.45033C56.0856 12.1303 56.5626 12.4711 57.2441 12.8118Z" fill="white"/>
<path d="M69.9199 21.6035C70.6013 21.399 71.6917 20.7857 73.5317 19.1501C74.5539 18.2642 75.985 16.6968 77.0754 15.2657C78.1658 13.8346 78.8473 12.5398 78.5747 12.2672C78.3021 11.9946 77.0754 12.8124 75.7124 13.9027C74.3495 14.9931 72.7139 16.2198 71.7599 17.1057C69.988 18.6731 69.1021 19.4909 68.7613 20.1042C68.4206 20.6494 68.625 20.9901 68.8295 21.2627C69.0339 21.5353 69.3065 21.8079 69.9199 21.6035Z" fill="white"/>
<path d="M75.5076 32.9842C75.6439 33.7338 75.7802 34.4153 80.278 33.6657C82.7313 33.2568 87.7743 31.5531 87.638 30.8034C87.4336 30.0538 82.2543 30.5308 79.801 30.9397C75.4395 31.6212 75.3713 32.1664 75.5076 32.9842Z" fill="white"/>
</g>
</svg>
