<svg width="85" height="85" viewBox="0 0 85 85" fill="none" xmlns="http://www.w3.org/2000/svg">
<g opacity="0.2">
<path d="M0.0348001 44.2645C1.08147 68.5464 22.6037 87.1494 46.808 84.7996C69.9656 82.6455 86.974 62.019 84.8153 38.8468C80.8248 -5.99625 18.2861 -14.6124 3.43649 26.7059C3.17482 27.4239 2.97857 28.1419 2.78232 28.7294C2.58606 29.3169 2.45523 29.839 2.38981 30.2307C2.19356 31.014 2.12814 31.4709 2.19356 31.4709C2.3244 31.5362 2.78232 29.839 3.95982 26.9017C20.8374 -13.0458 78.9277 -2.73256 82.3294 39.0427C84.2265 60.7135 68.3302 80.0999 46.5463 82.1886C24.4353 84.2774 3.8944 67.9589 1.93189 44.134C1.67023 41.1314 1.80106 38.8468 1.93189 37.0844C1.99731 36.2359 2.06273 35.4526 2.12814 34.8651C2.19356 34.2777 2.25898 33.7555 2.3244 33.2986C2.52065 31.6667 2.38981 31.4709 2.19356 31.4709C1.99731 31.4056 1.80106 31.4709 1.27772 33.1027C1.14689 33.4944 1.01606 34.0166 0.885221 34.604C0.754387 35.2568 0.558136 35.9748 0.427302 36.8886C0.165634 38.7163 -0.096034 41.0661 0.0348001 44.2645Z" fill="white"/>
<path d="M32.2858 34.4737C32.6129 35.3223 33.1362 36.0403 33.7249 36.693C34.3137 37.3458 35.0333 37.868 35.8183 38.3249C36.6033 38.7165 37.3229 39.1082 38.1733 39.304C39.7433 39.8262 41.3787 40.022 42.8833 40.1525H42.9488C42.8833 43.0899 42.8833 45.8314 42.9488 48.0507C43.0142 52.0976 43.0796 55.2308 43.2104 57.5806C42.36 57.5154 41.575 57.3848 40.8554 57.189C39.3508 56.8626 38.1733 56.471 37.2575 56.1446C35.4258 55.4266 34.4445 54.9697 33.9212 54.7739C33.3979 54.578 33.267 54.7086 33.1362 54.8391C33.0054 54.9697 32.9399 55.1655 33.3324 55.6224C33.725 56.0793 34.5754 56.8626 36.4725 57.8417C37.4537 58.2987 38.6966 58.8861 40.3321 59.2778C41.1825 59.5389 42.2292 59.7347 43.3413 59.8652C43.4067 61.3665 43.5375 62.4109 43.6683 63.2595C43.9954 65.4788 44.3225 65.6093 44.6496 65.544C45.0421 65.544 45.3692 65.4135 45.5 63.1942C45.5654 62.4109 45.6309 61.3665 45.6309 59.9958H46.3504C47.5934 59.9305 48.9017 59.7347 50.3409 59.2778C51.7146 58.7556 53.2192 58.0376 54.4622 56.7321C55.1163 56.1446 55.6397 55.3613 56.0976 54.578C56.5555 53.7295 56.8826 52.8809 57.1443 51.9018C57.6676 50.0742 57.733 47.7896 57.1443 45.6355C56.8172 44.4606 56.2284 43.2204 55.378 42.1108C54.5276 41.0011 53.2847 39.9567 51.9109 39.304C49.8175 38.3249 47.5934 37.9985 45.3038 37.8027C45.2384 34.9959 45.1075 32.1239 45.0421 29.5129C44.9113 26.6409 44.8459 23.9646 44.6496 21.9412C46.4813 22.0064 48.3784 22.5286 50.0792 23.573C50.9951 24.0952 51.453 24.4216 51.5184 24.3563C51.5838 24.291 51.2567 23.8341 50.4063 23.1161C49.5559 22.4633 48.1821 21.5495 46.285 21.0926C45.7617 20.962 45.1729 20.8315 44.5842 20.7662C44.4533 19.1344 44.3225 18.1553 44.1263 18.1553C43.9954 18.1553 43.7992 19.1344 43.6683 20.7662C42.2946 20.701 40.8554 20.8968 39.3508 21.4842C36.865 22.3981 34.3791 24.291 32.8745 27.0978C32.482 27.8158 32.2204 28.5338 31.9587 29.3171C31.7624 30.2309 31.697 31.0795 31.697 31.928C31.7624 32.7766 31.9587 33.6252 32.2858 34.4737ZM47.1354 40.6747C48.4438 40.9358 49.6867 41.2622 50.7334 41.7844C52.8267 42.8288 54.0697 44.6564 54.593 46.4841C54.8547 47.3327 54.9201 48.1812 54.9201 48.9645C54.9201 49.7478 54.7892 50.5311 54.593 51.3144C54.2005 52.8157 53.4809 54.0559 52.5651 55.035C50.7334 56.9279 48.2475 57.5154 46.2196 57.6459C46.0234 57.6459 45.8271 57.6459 45.6309 57.6459C45.6309 55.2308 45.6309 52.0976 45.5654 47.9854C45.5654 45.8966 45.5 43.2204 45.3692 40.4136C45.9579 40.4789 46.5467 40.5442 47.1354 40.6747ZM33.9212 29.9046C34.052 29.2518 34.2483 28.6644 34.5754 28.0769C35.6875 25.6618 37.7808 23.8994 39.9396 22.9855C41.1825 22.4633 42.4254 22.2022 43.6029 22.137C43.4721 24.1605 43.2758 26.7714 43.2104 29.6435C43.0796 32.2544 43.0142 35.0612 43.0142 37.7374C41.575 37.6069 40.2012 37.4763 38.8929 37.0847C38.2387 36.8888 37.5846 36.6278 36.9958 36.3667C36.407 36.0403 35.8837 35.6486 35.4258 35.1917C34.9679 34.7348 34.5754 34.2126 34.3137 33.6252C34.052 33.0377 33.9212 32.4502 33.8558 31.7975C33.7249 31.1448 33.7904 30.492 33.9212 29.9046Z" fill="white"/>
</g>
</svg>
