<svg width="95" height="95" viewBox="0 0 95 95" fill="none" xmlns="http://www.w3.org/2000/svg">
<g opacity="0.2">
<path d="M91.411 48.6253C91.1295 48.4142 90.848 48.2734 90.5665 48.2734H89.511H87.611C84.6554 48.2734 81.4184 48.2031 87.611 47.7809C89.9332 47.6401 89.2999 47.6401 90.6369 47.5697C91.0591 47.5697 91.5517 47.7105 91.9739 47.992C92.748 48.5549 93.1702 49.7512 92.748 50.8068C92.4665 51.3697 92.1851 51.6512 91.9036 52.0734C85.148 61.5735 86.2739 60.4475 84.7962 62.1364C84.3036 62.629 83.7406 63.1216 83.1073 63.5438C82.4739 63.966 81.5591 64.2475 80.6443 64.1068C77.1258 63.8253 70.3702 56.0846 68.2591 53.1994C67.7665 52.566 67.2739 51.792 66.9221 50.8772C66.5702 50.0327 66.2888 48.9772 66.6406 47.7809C66.7814 47.2179 67.2036 46.6549 67.6258 46.3031C68.1184 45.8809 68.611 45.7401 69.1036 45.529C70.3702 45.1772 70.7925 45.3883 71.7777 45.2475C72.1295 45.1772 72.3406 45.1068 72.3406 45.0364C72.6925 44.6142 70.0888 28.4994 53.5517 19.5623C50.3147 17.8031 46.7962 16.6068 43.2777 16.1142C35.5369 15.129 28.6406 18.6475 24.4888 23.292C21.3221 26.8809 21.3221 29.3438 20.1962 31.1735C20.0554 31.4549 19.8443 31.666 19.5629 31.9475C19.2814 32.229 18.9295 32.4401 18.5073 32.6512C18.0147 32.8623 17.3814 32.8623 16.8888 32.7216C16.3258 32.5105 15.974 32.2994 15.6925 32.0883C15.1295 31.666 14.7073 31.3142 14.4258 31.1031C14.074 30.8216 10.4147 29.1327 9.35915 25.8957C8.09249 22.5883 9.64063 18.929 11.7517 16.0438C18.3666 7.24752 31.2443 1.19567 45.1777 2.53271C49.7517 3.0253 53.9036 4.2216 57.5628 5.91048C71.7777 12.3846 81.6999 27.5142 84.0925 42.4327C84.2332 43.2772 84.3036 44.0512 84.3739 44.6846C84.4443 45.3179 84.4443 45.8105 84.4443 46.2327C84.5147 47.8512 84.3036 47.992 84.0925 48.0623C83.8814 48.0623 83.6702 47.992 83.3184 46.4438C82.8962 44.6142 83.1073 45.3883 82.4739 42.8549C77.9702 24.8401 67.5554 13.3697 56.3665 8.37345C52.9888 6.89567 49.1184 5.76974 44.8258 5.34752C31.8073 4.15123 19.9851 9.71048 14.0036 17.8734C12.5258 19.8438 11.048 22.729 11.9629 25.0512C12.5258 26.8105 14.074 27.6549 17.311 29.9068C17.4517 30.0475 17.6629 30.1179 17.5925 30.1179C17.5221 30.1179 17.7332 29.9772 17.8036 29.8364C17.9443 29.6253 18.0851 29.2734 18.2258 28.9216C18.8591 27.3031 19.5629 24.8401 22.3777 21.6734C26.9517 16.6068 34.6925 12.5957 43.4888 13.792C47.4295 14.3549 51.1591 15.7623 54.6073 17.592C64.3888 22.9401 72.5517 32.792 74.311 44.3327C74.3814 44.8957 74.3814 45.7401 73.8184 46.3735C73.5369 46.7253 73.1851 46.866 72.9036 47.0068C72.5517 47.1475 72.3406 47.1475 72.0591 47.2179C71.4962 47.2883 71.074 47.2883 70.6517 47.2883H70.0888C69.948 47.3586 69.7369 47.3586 69.5962 47.3586C69.3147 47.429 68.9628 47.5697 68.8221 47.7105C68.611 47.8512 68.4702 48.0623 68.3999 48.2734C68.2591 48.766 68.3295 49.4697 68.611 50.1735C68.8925 50.8772 69.2443 51.4401 69.7369 52.1438C71.6369 54.8883 78.0406 62.3475 80.7851 62.7697C81.8406 62.9809 82.8962 62.2068 83.7406 61.292C85.2888 59.6734 84.4443 60.166 91.0591 51.5809C91.3406 51.1586 91.6925 50.8068 91.8332 50.4549C92.1147 49.892 91.9036 49.0475 91.411 48.6253V48.6253Z" fill="white"/>
<path d="M2.32202 51.299H2.25165C2.18128 51.299 2.25165 51.2286 2.25165 51.2286L2.32202 51.0878C2.81461 49.9619 9.64054 35.536 10.2035 34.7619C10.3442 34.5508 10.485 34.3397 10.6961 34.1989C11.0479 33.8471 11.5405 33.636 12.0331 33.7064C12.5257 33.7064 13.0887 34.0582 13.2998 34.1989C15.7628 35.536 18.2961 37.0841 20.8998 38.773C22.7294 39.9693 25.122 41.0952 26.9517 42.7841C27.3035 43.0656 27.585 43.4175 27.8665 43.8397C28.1479 44.2619 28.4294 44.7545 28.4998 45.2471C28.6405 45.7397 28.7109 46.373 28.4998 47.0064C28.2887 47.6397 27.8665 48.1323 27.4442 48.4138C26.5998 49.0471 25.7554 49.3286 24.9109 49.6804C24.0665 49.9619 23.2924 50.2434 22.5183 50.5249C21.8146 50.8064 21.1109 51.1582 20.7591 51.6508C18.5776 54.6064 28.7813 76.4915 47.7813 79.3064C55.4517 80.4323 62.1368 77.1249 66.148 72.7619C69.7368 68.8212 69.1739 66.2878 71.0035 64.4582C71.285 64.1767 71.6368 63.9656 71.9887 63.8249C72.4813 63.6841 72.9739 63.6138 73.4665 63.7545C73.6776 63.8249 73.9591 63.8953 74.1702 64.036C74.3813 64.1064 74.522 64.2471 74.6628 64.3175C78.1109 66.6397 79.6591 67.6249 80.5739 69.5953C81.1368 70.6508 81.348 71.8471 81.2776 72.973C81.2776 73.536 81.2072 74.099 81.0665 74.5916C80.3628 77.0545 79.0961 79.5175 75.7183 82.7545C71.5665 86.7656 65.9368 89.8619 61.7146 90.9879C56.8591 92.536 52.0035 92.9582 47.5702 92.6064C43.1368 92.3249 39.0554 91.199 35.4665 89.7212C26.9517 86.1323 20.3368 79.6582 15.4813 71.7064C11.9628 65.7249 9.78128 58.8286 9.21831 54.8175C9.07757 53.973 9.0072 53.2693 8.93683 52.636C8.86646 52.2841 8.86646 51.9323 8.86646 51.6508C8.3035 51.7915 7.52943 51.9323 6.54424 51.9323C5.98128 51.9323 5.34795 51.9323 4.64425 51.8619C4.29239 51.7915 3.7998 51.7212 3.37758 51.6508C3.16647 51.5804 2.88498 51.5101 2.67387 51.5101L2.32202 51.299ZM3.51831 50.8767C3.65906 50.9471 3.7998 50.9471 3.94054 51.0175C4.22202 51.0878 4.43313 51.1582 4.78498 51.2286C5.41832 51.3693 6.05165 51.3693 6.61461 51.4397C7.5998 51.4397 8.3035 51.4397 8.93683 51.3693C8.93683 51.299 8.93683 51.2286 8.93683 51.1582C8.86646 49.5397 9.07757 49.3989 9.28868 49.3989C9.4998 49.3989 9.71091 49.4693 10.0628 51.0175C10.0628 51.0878 10.1331 51.2286 10.1331 51.299C10.2035 51.6508 10.2739 52.0027 10.4146 52.4249C10.5554 52.9878 10.6961 53.6915 10.9072 54.4656C12.1035 59.8138 14.7776 65.8656 17.5924 70.3693C22.3072 77.8286 28.6405 83.8101 36.5924 87.1175C39.8998 88.5249 43.6998 89.5101 47.7813 89.7212C57.8443 90.4249 67.3443 86.836 73.748 80.573C83.6702 71.073 74.6628 67.9767 74.5924 67.6953C74.4517 67.6249 74.3109 67.4841 74.1702 67.4138C73.6776 67.0619 73.3257 66.7101 73.0443 66.499C72.9739 66.4286 72.9035 66.4286 72.9035 66.4286C71.9887 67.4138 71.9887 70.3693 68.1887 74.5212C64.7406 78.2508 58.8998 81.5582 53.1998 81.9804C51.2294 82.1212 49.3294 82.0508 47.3591 81.699C39.9702 80.5027 32.7924 76.0693 27.6554 70.5804C23.4331 66.0767 17.0294 55.3804 18.7183 51.0878C18.8591 50.8064 18.9998 50.5249 19.2109 50.3138C19.985 49.3286 20.9702 48.9767 21.8146 48.6249C22.6591 48.273 23.5035 48.0619 24.2776 47.7804C25.0517 47.499 25.8257 47.2175 26.3183 46.8656C26.8109 46.5138 26.8813 46.2323 26.7405 45.599C26.5998 45.036 26.2479 44.473 25.685 43.9804C24.1368 42.5027 21.7442 41.236 19.985 40.0397C17.4517 38.2804 14.9887 36.7323 12.5961 35.3952C12.2442 35.1841 12.1739 35.1138 11.9628 35.1138C11.7516 35.1138 11.6109 35.1841 11.4702 35.2545C11.3998 35.3249 11.3294 35.3952 11.2591 35.4656C11.2591 35.4656 4.01091 49.3286 3.3072 50.5952C3.16646 50.8064 3.37757 50.8064 3.51831 50.8767V50.8767Z" fill="white"/>
</g>
</svg>
