<svg width="86" height="87" viewBox="0 0 86 87" fill="none" xmlns="http://www.w3.org/2000/svg">
<g opacity="0.1">
<path d="M2.03439 45.7438C3.06875 69.74 24.3377 88.1241 48.2573 85.8019C71.1425 83.6732 87.9508 63.2894 85.8174 40.3898C81.8739 -3.92571 20.071 -12.4405 5.39606 28.3917C5.13747 29.1013 4.94352 29.8109 4.74958 30.3914C4.55564 30.972 4.42634 31.488 4.3617 31.875C4.16775 32.6491 4.10311 33.1006 4.16776 33.1006C4.29705 33.1652 4.74958 31.488 5.91324 28.5852C22.5923 -10.8923 79.9992 -0.700417 83.3608 40.5833C85.2356 61.9993 69.5263 81.1575 47.9987 83.2217C26.1479 85.2859 5.84859 69.1594 3.90917 45.6148C3.65058 42.6475 3.77987 40.3898 3.90917 38.6482C3.97381 37.8096 4.03846 37.0355 4.10311 36.455C4.16776 35.8744 4.2324 35.3584 4.29705 34.9068C4.49099 33.2942 4.3617 33.1006 4.16776 33.1006C3.97381 33.0361 3.77987 33.1006 3.26269 34.7133C3.1334 35.1003 3.0041 35.6164 2.87481 36.1969C2.74551 36.842 2.55157 37.5516 2.42228 38.4546C2.16369 40.2608 1.9051 42.583 2.03439 45.7438Z" fill="white"/>
<path d="M33.906 36.0679C34.2293 36.9064 34.7465 37.616 35.3283 38.2611C35.9101 38.9061 36.6212 39.4222 37.397 39.8737C38.1728 40.2607 38.8839 40.6478 39.7243 40.8413C41.2759 41.3573 42.892 41.5509 44.3789 41.6799H44.4436C44.3789 44.5826 44.3789 47.2919 44.4436 49.4851C44.5082 53.4845 44.5729 56.5807 44.7022 58.9029C43.8618 58.8384 43.086 58.7094 42.3749 58.5159C40.888 58.1934 39.7243 57.8063 38.8193 57.4838C37.0091 56.7743 36.0394 56.3227 35.5222 56.1292C35.0051 55.9357 34.8758 56.0647 34.7465 56.1937C34.6172 56.3227 34.5525 56.5162 34.9404 56.9678C35.3283 57.4193 36.1687 58.1934 38.0435 59.161C39.0132 59.6125 40.2415 60.1931 41.8577 60.5801C42.6981 60.8381 43.7325 61.0316 44.8315 61.1606C44.8961 62.6443 45.0254 63.6764 45.1547 64.515C45.4779 66.7082 45.8012 66.8372 46.1244 66.7727C46.5123 66.7727 46.8355 66.6436 46.9648 64.4504C47.0295 63.6764 47.0941 62.6443 47.0941 61.2897H47.8052C49.0336 61.2252 50.3265 61.0316 51.7487 60.5801C53.1063 60.064 54.5932 59.3545 55.8215 58.0644C56.468 57.4838 56.9852 56.7097 57.4377 55.9357C57.8903 55.0971 58.2135 54.2585 58.4721 53.2909C58.9893 51.4848 59.0539 49.2271 58.4721 47.0984C58.1488 45.9373 57.567 44.7117 56.7266 43.6151C55.8862 42.5185 54.6579 41.4864 53.3003 40.8413C51.2316 39.8737 49.0336 39.5512 46.7709 39.3577C46.7062 36.5839 46.5769 33.7457 46.5123 31.1654C46.383 28.3272 46.3184 25.6824 46.1244 23.6827C47.9345 23.7473 49.8093 24.2633 51.4902 25.2954C52.3952 25.8114 52.8478 26.134 52.9124 26.0695C52.977 26.005 52.6538 25.5534 51.8134 24.8439C50.973 24.1988 49.6154 23.2957 47.7406 22.8442C47.2234 22.7152 46.6416 22.5861 46.0598 22.5216C45.9305 20.909 45.8012 19.9414 45.6072 19.9414C45.4779 19.9414 45.284 20.909 45.1547 22.5216C43.7971 22.4571 42.3749 22.6507 40.888 23.2312C38.4314 24.1343 35.9748 26.005 34.4879 28.7787C34.1 29.4883 33.8414 30.1978 33.5828 30.9719C33.3889 31.875 33.3242 32.7136 33.3242 33.5521C33.3889 34.3907 33.5828 35.2293 33.906 36.0679ZM48.581 42.1959C49.874 42.4539 51.1023 42.7765 52.1366 43.2925C54.2053 44.3246 55.4336 46.1308 55.9508 47.9369C56.2094 48.7755 56.2741 49.6141 56.2741 50.3882C56.2741 51.1622 56.1448 51.9363 55.9508 52.7104C55.5629 54.194 54.8518 55.4196 53.9468 56.3872C52.1366 58.2579 49.68 58.8384 47.676 58.9674C47.482 58.9674 47.2881 58.9674 47.0941 58.9674C47.0941 56.5807 47.0941 53.4845 47.0295 49.4206C47.0295 47.3564 46.9648 44.7117 46.8355 41.9379C47.4174 42.0024 47.9992 42.0669 48.581 42.1959ZM35.5222 31.5525C35.6515 30.9074 35.8455 30.3268 36.1687 29.7463C37.2677 27.3596 39.3364 25.6179 41.4698 24.7148C42.6981 24.1988 43.9264 23.9408 45.0901 23.8763C44.9608 25.8759 44.7668 28.4562 44.7022 31.2944C44.5729 33.8747 44.5082 36.6484 44.5082 39.2932C43.086 39.1642 41.7284 39.0351 40.4354 38.6481C39.789 38.4546 39.1425 38.1966 38.5607 37.9385C37.9788 37.616 37.4617 37.229 37.0091 36.7774C36.5566 36.3259 36.1687 35.8098 35.9101 35.2293C35.6515 34.6487 35.5222 34.0682 35.4576 33.4231C35.3283 32.7781 35.3929 32.133 35.5222 31.5525Z" fill="white"/>
</g>
<rect width="86" height="87" fill="url(#paint0_radial_1450_7703)"/>
<g clip-path="url(#clip0_1450_7703)">
<path d="M63.9692 24.7252C48.2013 24.9688 27.525 25.546 11.7615 25.0219C11.1161 25.0001 10.7459 25.4039 10.6374 25.8858C10.6236 25.9268 10.6053 25.9655 10.5974 26.0088C10.4947 26.5507 10.4532 27.0882 10.4532 27.6378C10.0463 33.4169 10.1339 44.6413 10.0004 50.4292C9.9956 50.6408 10.0384 50.8207 10.1126 50.9745C10.2412 51.4457 10.6047 51.8671 11.2079 51.9386C27.2732 53.8422 48.2574 52.4173 64.3371 51.4859C64.6237 51.4688 64.8566 51.3721 65.0375 51.2265C65.5723 51.1587 66.0392 50.7784 65.9975 50.0774C65.6182 43.8104 65.5954 32.1026 65.5947 25.8267C65.5947 24.8644 64.6737 24.4984 63.9692 24.7252ZM12.4298 49.6529C12.5397 44.1231 12.4792 33.1584 12.8681 27.6379C12.8681 27.5798 12.8705 27.522 12.871 27.464C28.0069 27.918 48.0443 27.3977 63.1827 27.1539C63.1886 32.6671 63.2352 43.6117 63.537 49.1181C48.1281 50.0256 27.8257 51.318 12.4298 49.6529Z" fill="#FE6338"/>
<path d="M43.0704 38.5684C41.8511 37.5941 40.343 37.1622 38.8039 36.8471C38.7525 35.5589 38.7006 34.2703 38.6432 32.982C39.3135 33.1295 39.9556 33.3448 40.501 33.5973C41.8352 34.2131 42.5546 32.0516 41.238 31.4437C40.4568 31.0832 39.5212 30.8026 38.5406 30.6516C38.5366 30.5621 38.5322 30.4727 38.5292 30.384C38.4663 28.9332 36.1941 28.7806 36.2575 30.2463C36.2616 30.3516 36.2663 30.4566 36.2708 30.5614C34.8133 30.6788 33.4366 31.1646 32.4947 32.1975C30.7595 34.1001 32.0457 37.3856 34.2903 38.1984C35.0335 38.4675 35.8185 38.6293 36.6125 38.7694C36.673 40.5087 36.7103 42.2489 36.7331 43.9897C35.6925 43.5003 34.7456 42.7777 34.1571 42.136C33.1647 41.0553 31.4595 42.5614 32.4533 43.6448C33.4488 44.7297 35.0469 45.8115 36.7507 46.3941C36.7496 46.6265 36.756 46.8575 36.7549 47.0891C36.7469 48.5508 39.0183 48.6964 39.0271 47.2266C39.0277 47.0934 39.0231 46.9602 39.0247 46.8269C40.1938 46.8511 41.31 46.5344 42.2121 45.7009C44.1399 43.9213 45.5131 40.5208 43.0704 38.5684ZM35.5328 36.1932C34.0856 35.8308 33.2912 34.0361 34.9031 33.2264C35.3491 33.0023 35.8496 32.8795 36.3714 32.8243C36.4239 34.0206 36.4728 35.2163 36.5212 36.4125C36.186 36.3459 35.8553 36.2743 35.5328 36.1932ZM40.5409 44.1094C40.0823 44.4202 39.5575 44.5505 39.0087 44.5558C38.9897 42.7675 38.9524 40.9792 38.8926 39.1922C39.8436 39.4112 40.7615 39.7217 41.5835 40.2829C42.9542 41.2183 41.4921 43.4623 40.5409 44.1094Z" fill="white"/>
<path d="M64.2872 52.0893C46.7846 53.5899 29.1934 54.3623 11.6608 52.8942C10.1081 52.7645 10.1207 55.1801 11.6608 55.3092C29.1934 56.7767 46.7846 56.0042 64.2872 54.5044C65.8266 54.3722 65.8389 51.9556 64.2872 52.0893Z" fill="white"/>
<path d="M64.2872 55.7124C46.7846 57.213 29.1934 57.9852 11.6608 56.5172C10.1081 56.3875 10.1207 58.8032 11.6608 58.9323C29.1934 60.3997 46.7846 59.6273 64.2872 58.1274C65.8266 57.9953 65.8389 55.5786 64.2872 55.7124Z" fill="white"/>
<path d="M64.2872 59.3345C46.7846 60.835 29.1934 61.6073 11.6608 60.1393C10.1081 60.0096 10.1207 62.4252 11.6608 62.5542C29.1934 64.0218 46.7846 63.2494 64.2872 61.7495C65.8266 61.6174 65.8389 59.2006 64.2872 59.3345Z" fill="white"/>
<path d="M20.1854 31.9982C20.1854 31.9781 20.1901 31.9595 20.1883 31.9396C20.1278 31.1542 19.8944 30.3836 19.2729 29.8571C18.6247 29.3073 17.7733 29.1442 16.9432 29.2226C16.8775 29.2286 16.8129 29.2415 16.7507 29.2577C15.987 29.3378 15.2876 29.6236 14.7185 30.1674C14.6412 30.2411 14.5871 30.3201 14.5434 30.4C14.4921 30.4749 14.4455 30.555 14.4102 30.6425C14.1597 31.256 14.1003 31.9075 14.2325 32.5522C14.2175 32.7309 14.2531 32.9139 14.3504 33.0761C14.7318 33.7161 15.2705 34.1949 15.8828 34.6084C15.9255 34.6373 15.9721 34.6591 16.0192 34.6781C16.0874 34.7173 16.1622 34.7518 16.2504 34.7754C17.22 35.0342 18.1981 34.8912 19.0607 34.3821C19.1585 34.3243 19.2334 34.2553 19.2968 34.1822C19.3048 34.1762 19.3125 34.1715 19.3198 34.1653C19.9301 33.6323 20.2693 32.8254 20.1885 32.0154C20.1878 32.0091 20.186 32.0041 20.1854 31.9982ZM18.3317 32.5347C18.3306 32.507 18.2262 32.7104 18.2061 32.7396C18.2757 32.6382 18.127 32.7951 18.0655 32.8573C17.6569 33.0769 17.2451 33.1459 16.7894 33.0377C16.5152 32.8511 16.2302 32.6014 16.0182 32.3083C16.014 32.2813 16.0128 32.2541 16.0055 32.2269C15.9316 31.9354 15.9622 31.6848 16.0515 31.4071C16.3419 31.153 16.688 31.0413 17.0947 31.0339C17.1455 31.0326 17.1903 31.0242 17.2366 31.0171C17.5355 31.0115 17.8079 31.0495 18.0149 31.1674C18.1151 31.2241 18.1714 31.3007 18.2348 31.4038C18.3126 31.5314 18.3622 31.739 18.3772 31.9396C18.3778 31.9442 18.379 31.9486 18.3797 31.9528C18.3797 31.974 18.3749 31.9938 18.3772 32.0149C18.3887 32.1249 18.3893 32.2323 18.3846 32.3421C18.3777 32.3249 18.3488 32.4613 18.3317 32.5347Z" fill="#FE6338"/>
<path d="M61.8438 31.3946C61.8438 31.3745 61.8484 31.356 61.8467 31.336C61.786 30.5506 61.5525 29.78 60.9311 29.2535C60.2831 28.7037 59.4317 28.5407 58.6016 28.6191C58.5357 28.625 58.4714 28.638 58.4089 28.6542C57.6454 28.7344 56.9461 29.02 56.3765 29.5639C56.2993 29.6376 56.245 29.7165 56.2013 29.7964C56.1501 29.8713 56.1035 29.9515 56.0682 30.0391C55.8176 30.6526 55.7586 31.3041 55.8908 31.9487C55.8754 32.1274 55.9114 32.3104 56.0087 32.4726C56.3901 33.1127 56.9285 33.5914 57.541 34.005C57.5835 34.0339 57.6302 34.0557 57.6773 34.0745C57.7457 34.1137 57.8205 34.1482 57.9084 34.1718C58.8783 34.4306 59.8563 34.2877 60.719 33.7785C60.8168 33.7207 60.8916 33.6518 60.9548 33.5786C60.9629 33.5727 60.9707 33.568 60.9776 33.5618C61.5879 33.0288 61.9275 32.2219 61.8467 31.4118C61.8462 31.4055 61.8444 31.4006 61.8438 31.3946ZM59.9901 31.9312C59.9889 31.9035 59.8846 32.1069 59.8645 32.1361C59.9342 32.0347 59.7855 32.1916 59.7236 32.2537C59.315 32.4734 58.9035 32.5424 58.4478 32.4341C58.1737 32.2476 57.8883 31.9978 57.6765 31.7048C57.6724 31.6776 57.6713 31.6505 57.6636 31.6234C57.5899 31.3318 57.6205 31.0813 57.7096 30.8035C58.0002 30.5495 58.3463 30.4377 58.753 30.4304C58.8038 30.4292 58.8486 30.4206 58.8946 30.4135C59.1935 30.408 59.4659 30.4459 59.6728 30.5639C59.773 30.6204 59.8297 30.6971 59.8928 30.8003C59.9706 30.928 60.0202 31.1355 60.0355 31.3359C60.0361 31.3406 60.0374 31.3451 60.038 31.3491C60.038 31.3704 60.0332 31.3901 60.0355 31.4114C60.0468 31.5213 60.0474 31.6287 60.0426 31.7385C60.0361 31.7212 60.0072 31.8578 59.9901 31.9312Z" fill="#FE6338"/>
</g>
<defs>
<radialGradient id="paint0_radial_1450_7703" cx="0" cy="0" r="1" gradientUnits="userSpaceOnUse" gradientTransform="translate(2.38889 32.8902) rotate(7.13105) scale(85.4667 66.9331)">
<stop stop-color="#31343C"/>
<stop offset="1" stop-color="#31343C" stop-opacity="0"/>
</radialGradient>
<clipPath id="clip0_1450_7703">
<rect width="56" height="56" fill="white" transform="translate(10 16)"/>
</clipPath>
</defs>
</svg>
