<svg width="86" height="87" viewBox="0 0 86 87" fill="none" xmlns="http://www.w3.org/2000/svg">
<g opacity="0.1">
<path d="M5.88478 76.4999C7.51939 77.1538 8.82709 76.9903 9.64439 76.6634C10.4617 76.3365 10.7886 76.0095 10.7886 75.8461C10.7886 75.6826 10.2982 75.8461 9.48093 75.8461C8.66362 75.8461 7.68285 75.6826 6.53862 75.0288C5.39439 74.3749 4.41362 73.2307 4.41362 71.5961C4.25016 70.1249 5.39439 68.4903 7.02901 67.673C7.84632 67.3461 8.66362 67.1826 9.48093 67.3461C10.2982 67.5095 11.1155 67.8365 11.6059 68.3268C12.7502 69.3076 13.0771 70.9422 12.9136 72.0865C12.7502 73.2307 12.0963 74.2115 11.6059 74.7018C11.1155 75.1922 10.7886 75.5191 10.7886 75.6826C10.7886 75.8461 11.279 75.8461 12.0963 75.3557C12.9136 75.0288 14.0579 74.048 14.5482 72.4134C14.7117 72.2499 14.7117 71.923 14.7117 71.7595C16.3463 72.2499 20.5963 72.5768 25.6636 72.5768C30.0771 72.5768 34.0002 72.2499 35.9617 71.923C36.2886 74.3749 37.9232 75.8461 39.5579 76.4999C41.1925 77.1538 42.5002 76.9903 43.3175 76.6634C44.1348 76.3365 44.4617 76.0095 44.4617 75.8461C44.4617 75.6826 43.9713 75.8461 43.154 75.8461C42.3367 75.8461 41.3559 75.6826 40.2117 75.0288C39.0675 74.3749 38.0867 73.2307 38.0867 71.5961C37.9232 70.1249 39.0675 68.4903 40.7021 67.673C41.5194 67.3461 42.3367 67.1826 43.154 67.3461C43.9713 67.5095 44.7886 67.8365 45.279 68.3268C46.4232 69.3076 46.7502 70.9422 46.5867 72.0865C46.4232 73.2307 45.7694 74.2115 45.279 74.7018C44.7886 75.1922 44.4617 75.5191 44.4617 75.6826C44.4617 75.8461 44.9521 75.8461 45.7694 75.3557C46.5867 75.0288 47.7309 74.048 48.2213 72.4134C48.3848 72.0865 48.3848 71.7595 48.3848 71.4326C49.529 71.923 53.779 72.4134 59.0098 72.4134C65.0579 72.4134 69.9617 71.923 69.9617 71.2691C69.9617 70.6153 65.0579 70.1249 59.0098 70.1249C53.779 70.1249 49.529 70.4518 48.3848 71.1057C48.3848 69.6345 47.8944 68.1634 46.7502 66.8557C45.9329 66.0384 44.7886 65.3845 43.6444 65.0576C42.3367 64.7307 41.029 65.0576 39.7213 65.548C37.5963 66.5288 36.1252 68.4903 35.9617 70.6153C34.0002 70.2884 30.0771 69.9615 25.6636 69.9615C20.5963 69.9615 16.3463 70.2884 14.7117 70.7788C14.7117 69.4711 14.2213 67.8365 13.0771 66.6922C12.2598 65.8749 11.1155 65.2211 9.97132 64.8941C9.48093 64.7307 8.82709 64.7307 8.3367 64.8941C8.66362 63.423 8.99055 60.4807 8.99055 57.048C8.99055 52.798 8.66362 49.3653 8.17324 48.3845C8.82709 48.3845 9.48093 48.2211 9.80785 48.2211C10.6252 47.8941 10.9521 47.5672 10.9521 47.4038C10.9521 47.2403 10.4617 47.4038 9.64439 47.4038C8.82709 47.4038 7.84632 47.2403 6.70209 46.5865C5.55785 45.9326 4.57709 44.7884 4.57709 43.1538C4.41362 41.6826 5.55785 40.048 7.19247 39.2307C8.00978 38.9038 8.82709 38.7403 9.64439 38.9038C10.4617 39.0672 11.279 39.3941 11.7694 39.8845C12.7502 41.0288 13.0771 42.4999 12.9136 43.6441C12.7502 44.7884 12.0963 45.7691 11.6059 46.2595C11.1155 46.7499 10.7886 47.0768 10.7886 47.2403C10.7886 47.4038 11.279 47.4038 12.0963 46.9134C12.9136 46.7499 14.0579 45.7691 14.5482 44.1345C15.0386 42.4999 14.7117 40.2115 13.0771 38.4134C12.2598 37.5961 11.1155 36.9422 9.97132 36.6153C9.48093 36.4518 8.99055 36.4518 8.50016 36.4518C8.82709 34.8172 9.15401 31.8749 9.15401 28.4422C9.15401 24.5191 8.82709 21.0865 8.3367 19.9422C8.82709 19.9422 9.48093 19.7788 9.80785 19.7788C10.6252 19.4518 10.9521 19.1249 10.9521 18.9615C10.9521 18.798 10.4617 18.9615 9.64439 18.9615C8.82709 18.9615 7.84632 18.798 6.70209 18.1441C5.55785 17.4903 4.57709 16.1826 4.41362 14.7115C4.41362 13.2403 5.39439 11.6057 7.02901 10.7884C7.84632 10.4614 8.66362 10.298 9.48093 10.4614C10.2982 10.6249 11.1155 10.9518 11.6059 11.4422C12.7502 12.5864 13.0771 14.0576 12.9136 15.2018C12.7502 16.3461 12.0963 17.3268 11.6059 17.8172C11.1155 18.3076 10.7886 18.6345 10.7886 18.798C10.7886 18.9615 11.279 18.9615 12.0963 18.4711C12.9136 18.1441 14.0579 17.1634 14.5482 15.5288C14.8752 14.8749 14.8752 14.0576 14.7117 13.0768C16.3463 13.5672 20.5963 13.8941 25.8271 13.8941C30.404 13.8941 34.3271 13.5672 36.2886 13.2403C36.1252 13.7307 36.1252 14.3845 36.2886 14.8749C36.6156 17.3268 38.2502 18.9614 39.8848 19.4518C41.5194 20.1057 42.8271 19.9422 43.6444 19.6153C44.4617 19.2884 44.7886 18.9615 44.7886 18.798C44.7886 18.6345 44.2982 18.798 43.4809 18.798C42.6636 18.798 41.6829 18.6345 40.5386 17.9807C39.3944 17.3268 38.4136 16.1826 38.4136 14.548C38.0867 13.2403 39.2309 11.6057 40.8656 10.7884C41.6829 10.4614 42.5002 10.298 43.3175 10.4614C44.1348 10.6249 44.9521 10.9518 45.4425 11.4422C46.5867 12.423 46.9136 14.0576 46.7502 15.2018C46.5867 16.3461 45.9329 17.3268 45.4425 17.8172C44.9521 18.3076 44.6252 18.6345 44.6252 18.798C44.6252 18.9615 45.1156 18.9615 45.9329 18.4711C46.7502 18.1441 47.8944 17.1634 48.3848 15.5288C48.5482 14.7115 48.7117 13.7307 48.5482 12.7499C49.3656 13.2403 53.9425 13.7307 59.3367 13.7307C65.3848 13.7307 70.2886 13.2403 70.2886 12.5864C70.2886 11.9326 65.3848 11.4422 59.3367 11.4422C53.779 11.4422 49.0386 11.9326 48.5482 12.423C48.3848 11.4422 47.8944 10.6249 47.0771 9.8076C46.2598 8.9903 45.1156 8.33645 43.9713 8.00953C42.6636 7.6826 41.3559 8.00953 40.0482 8.49991C38.5771 9.15376 37.2694 10.4614 36.779 11.9326C34.654 11.7691 30.5675 11.4422 25.8271 11.4422C20.5963 11.4422 16.0194 11.7691 14.5482 12.2595C14.2213 11.4422 13.8944 10.6249 13.0771 9.97106C12.2598 9.15376 11.279 8.49991 9.97132 8.17299C8.66362 8.00953 7.19247 8.17299 6.04824 8.66337C3.59632 9.8076 1.9617 12.423 2.28862 14.8749C2.61555 17.3268 4.25016 18.9614 5.88478 19.4518C6.37516 19.6153 7.02901 19.7788 7.51939 19.7788C7.02901 21.2499 6.70209 24.5191 6.70209 28.6057C6.70209 32.2018 7.02901 35.3076 7.35593 36.7788C6.86555 36.9422 6.53862 36.9422 6.04824 37.2691C3.59632 38.4134 1.9617 41.0288 2.28862 43.4807C2.61555 45.7691 4.41362 47.4038 5.88478 48.0576C6.37516 48.2211 7.02901 48.3845 7.51939 48.3845C7.02901 49.2018 6.53862 52.798 6.53862 57.048C6.53862 60.6441 6.86555 63.7499 7.19247 65.2211C6.70209 65.3845 6.37516 65.3845 6.04824 65.7115C3.59632 66.8557 1.9617 69.4711 2.28862 71.923C2.61555 74.2115 4.41362 75.8461 5.88478 76.4999Z" fill="white"/>
<path d="M78.7886 18.9611C78.7886 18.7976 78.2982 18.9611 77.4809 18.9611C76.6636 18.9611 75.6829 18.7976 74.5386 18.1438C73.3944 17.4899 72.4136 16.3457 72.4136 14.7111C72.2502 13.2399 73.3944 11.6053 75.029 10.788C75.8463 10.4611 76.6636 10.2976 77.4809 10.4611C78.2982 10.6245 79.1155 10.9515 79.6059 11.4418C80.7502 12.4226 81.0771 14.0572 80.9136 15.2015C80.7502 16.3457 80.0963 17.3265 79.6059 17.8168C79.1155 18.4707 78.6252 18.7976 78.7886 18.9611C78.7886 19.1245 79.279 19.1245 80.0963 18.6342C80.9136 18.3072 82.0579 17.3265 82.5482 15.6918C83.0386 14.0572 82.7117 11.7688 81.0771 9.97069C80.2598 9.15338 79.1155 8.49954 77.9713 8.17261C76.6636 7.84569 75.3559 8.17261 74.0482 8.663C71.5963 9.80723 69.9617 12.4226 70.2886 14.8745C70.6155 17.3265 72.2502 18.9611 73.8848 19.4515C75.1925 19.9418 76.3367 19.9418 77.154 19.7784C76.6636 20.9226 76.3367 24.3553 76.3367 28.4418C76.3367 31.8745 76.5002 34.8168 76.9905 36.4515C76.0098 36.4515 75.029 36.6149 74.0482 37.1053C71.5963 38.2495 69.9617 40.8649 70.2886 43.3168C70.6155 45.7688 72.2502 47.4034 73.8848 47.8938C75.1925 48.3841 76.3367 48.3842 77.154 48.2207C76.6636 48.8745 76.1732 52.6342 76.1732 57.0476C76.1732 60.4803 76.5002 63.4226 76.8271 64.8938C75.8463 64.8938 74.8655 65.0572 74.0482 65.5476C71.5963 66.6918 69.9617 69.3072 70.2886 71.7592C70.6155 74.2111 72.2502 75.8457 73.8848 76.3361C75.5194 76.9899 76.8271 76.8265 77.6444 76.4995C78.4617 76.1726 78.7886 75.8457 78.7886 75.6822C78.7886 75.5188 78.2982 75.6822 77.4809 75.6822C76.6636 75.6822 75.6829 75.5188 74.5386 74.8649C73.3944 74.2111 72.4136 73.0668 72.4136 71.4322C72.2502 69.9611 73.3944 68.3265 75.029 67.5091C75.8463 67.1822 76.6636 67.0188 77.4809 67.1822C78.2982 67.3457 79.1155 67.6726 79.6059 68.163C80.7502 69.1438 81.0771 70.7784 80.9136 71.9226C80.7502 73.0668 80.0963 74.0476 79.6059 74.538C79.1155 75.0284 78.7886 75.3553 78.7886 75.5188C78.7886 75.6822 79.279 75.6822 80.0963 75.1918C80.9136 74.8649 82.0579 73.8842 82.5482 72.2495C83.0386 70.6149 82.7117 68.3265 81.0771 66.5284C80.2598 65.7111 79.1155 65.0572 77.9713 64.7303C78.2982 63.2591 78.6252 60.3168 78.6252 56.7207C78.6252 52.1438 78.1348 48.3841 77.6444 47.8938H77.8079C78.6252 47.5668 78.9521 47.2399 78.9521 47.0765C78.9521 46.913 78.4617 47.0765 77.6444 47.0765C76.8271 47.0765 75.8463 46.913 74.7021 46.2591C73.5579 45.6053 72.5771 44.4611 72.5771 42.8265C72.4136 41.3553 73.5579 39.7207 75.1925 38.9034C76.0098 38.5765 76.8271 38.413 77.6444 38.5765C78.4617 38.7399 79.279 39.0668 79.7694 39.5572C80.9136 40.538 81.2405 42.1726 81.0771 43.3168C80.9136 44.4611 80.2598 45.4418 79.7694 45.9322C79.279 46.4226 78.9521 46.7495 78.9521 46.913C78.9521 47.0765 79.4425 47.0765 80.2598 46.5861C81.0771 46.2592 82.2213 45.2784 82.7117 43.6438C83.2021 42.0092 82.8752 39.7207 81.2405 37.9226C80.4232 37.1053 79.4425 36.4515 78.1348 36.288C78.4617 34.8168 78.7886 31.7111 78.7886 28.1149C78.7886 23.8649 78.4617 20.2688 77.9713 19.288C78.4617 19.4515 78.7886 19.1245 78.7886 18.9611Z" fill="white"/>
<path d="M59.8269 39.2306C59.6634 38.5768 59.173 37.7595 58.5192 37.2691C57.8653 36.6152 57.048 36.2883 56.3942 35.9614C54.923 35.471 53.7788 34.9806 52.4711 34.6537C36.7788 29.5864 36.4519 30.2402 51.8173 36.2883C52.9615 36.7787 54.2692 37.2691 55.5769 37.7595C56.2307 38.0864 56.7211 38.4133 57.048 38.7402C57.375 39.0672 57.7019 39.8845 57.7019 39.721C57.7019 39.721 57.7019 39.721 57.5384 39.8845C57.375 40.0479 57.2115 40.2114 56.8846 40.3749C56.3942 40.7018 55.9038 40.8652 55.4134 41.0287C54.2692 41.3556 52.9615 41.6825 51.6538 42.0095C50.3461 42.3364 48.7115 42.6633 47.2403 43.6441C46.9134 43.971 46.5865 44.1345 46.2596 44.6249C45.9326 44.7883 45.6057 45.6056 45.4423 46.096C45.2788 46.9133 45.1153 47.7306 45.1153 48.5479C44.9519 49.8556 44.9519 51.1633 44.6249 52.1441C44.4615 52.6345 44.298 52.9614 44.1346 53.1249C44.1346 53.1249 44.1346 53.1249 43.9711 53.1249C43.8076 53.1249 43.6442 53.1249 43.6442 52.9614C43.3173 52.7979 42.8269 51.3268 42.3365 50.346C40.7019 46.5864 41.5192 48.3845 38.4134 41.3556C37.5961 39.3941 36.6153 37.9229 35.9615 36.2883C35.3076 34.8172 34.8173 33.346 35.1442 32.3652C35.4711 31.3845 36.6153 31.0575 37.4326 31.0575C39.2307 31.0575 40.2115 31.3845 40.375 31.221C40.375 31.0575 39.5576 30.4037 37.5961 30.2402C37.1057 30.2402 36.4519 30.2402 35.798 30.4037C35.1442 30.5672 34.4903 31.0575 34.1634 31.8748C33.8365 32.6922 33.8365 33.6729 33.9999 34.4902C34.1634 35.3075 34.3269 36.1249 34.6538 36.9422C35.1442 38.5768 36.1249 40.3749 36.7788 42.0095C39.0673 48.0575 39.2307 48.3845 41.0288 52.7979C41.1923 53.2883 41.5192 53.7787 42.0096 54.4325C42.173 55.4133 42.9903 56.721 44.4615 57.7018C45.2788 58.1922 46.2596 58.6825 47.7307 58.5191C48.3846 58.3556 49.2019 58.0287 49.5288 57.3748C50.0192 56.721 50.1826 56.0672 50.3461 55.4133C50.8365 52.9614 50.1826 50.346 51.8173 49.3652C53.2884 48.0575 55.9038 47.8941 58.1923 47.2402C59.3365 46.9133 60.4807 46.5864 61.4615 45.6056C61.9519 45.1152 62.2788 44.4614 62.2788 43.8075C62.2788 43.1537 62.2788 42.4998 62.1153 42.1729C61.7884 41.1922 61.298 40.5383 60.6442 40.0479C60.4807 39.721 60.1538 39.3941 59.8269 39.2306ZM47.5673 48.7114C47.5673 48.0575 47.7307 47.2402 47.8942 46.5864C48.0576 46.9133 48.2211 47.4037 48.548 47.7306C48.875 48.221 49.3653 48.3845 49.6923 48.5479C49.5288 48.8749 49.2019 49.2018 49.2019 49.5287C48.875 50.346 48.8749 50.9999 48.7115 51.6537V52.1441C48.2211 51.6537 47.7307 51.4902 47.4038 51.4902C47.5673 50.5095 47.5673 49.6922 47.5673 48.7114ZM47.5673 56.721C47.0769 56.8845 46.2596 56.721 45.6057 56.3941C44.9519 56.0672 44.4615 55.7402 44.1346 55.4133C44.625 55.4133 45.2788 55.4133 45.7692 55.0864C46.423 54.596 46.75 54.1056 46.9134 53.4518C47.2403 54.2691 47.8942 54.9229 48.7115 55.0864C48.3846 56.0672 48.0576 56.5575 47.5673 56.721ZM50.8365 47.4037C50.673 47.0768 50.5096 46.5864 50.1826 46.2595C49.8557 45.7691 49.3653 45.6056 49.0384 45.4422C50.3461 44.7883 51.8173 44.4614 53.2884 44.1345C53.2884 44.6249 53.4519 45.1152 53.7788 45.6056C53.9423 45.7691 53.9423 45.9325 54.1057 45.9325C53.1249 46.2595 51.9807 46.5864 50.8365 47.4037ZM56.3942 45.6056C56.3942 45.1152 56.0673 44.7883 55.7403 44.2979C55.5769 44.1345 55.4134 43.8075 55.25 43.6441C55.5769 43.4806 55.9038 43.4806 56.2307 43.3172C56.7211 43.1537 57.048 42.9902 57.5384 42.8268C57.5384 43.3172 57.8653 43.8075 58.1923 44.1345C58.5192 44.4614 58.6826 44.7883 59.0096 44.9518C58.1923 45.2787 57.375 45.2787 56.3942 45.6056ZM60.6442 43.8075C60.4807 43.4806 60.3173 42.9902 59.9903 42.6633C59.6634 42.3364 59.3365 42.0095 59.0096 41.6825L59.173 41.5191C59.3365 41.3556 59.5 41.0287 59.6634 40.7018C60.1538 41.1922 60.4807 41.846 60.6442 42.6633C60.8076 43.1537 60.8076 43.4806 60.6442 43.8075Z" fill="white"/>
</g>
<rect width="86" height="87" fill="url(#paint0_radial_1450_7705)"/>
<g clip-path="url(#clip0_1450_7705)">
<path d="M55.7393 25.9139C55.7969 25.2467 55.4003 24.5493 54.5384 24.5788C39.4724 25.0976 24.2196 22.6203 9.19823 24.0565C8.22987 24.1493 7.8479 25.1091 8.05432 25.8153C8.66598 34.9357 9.08343 44.0659 9.30239 53.204C9.3049 53.3236 9.32535 53.4316 9.35352 53.5333C9.40294 54.1167 9.80075 54.6656 10.5563 54.6661C15.9544 54.6722 21.352 54.7561 26.7491 54.8504V59.7856C26.7491 59.8227 26.7567 59.8544 26.7596 59.8899H25.0251C23.408 59.8899 23.408 62.3972 25.0251 62.3972H42.2628C43.8797 62.3972 43.8797 59.8899 42.2628 59.8899H41.126C41.0002 58.2863 40.9666 56.6806 40.96 55.0728C45.4853 55.1233 50.011 55.1416 54.538 55.0841C54.6637 55.0825 54.7762 55.0616 54.8821 55.032C55.4605 54.9781 56 54.5805 56 53.8307C56 44.6366 55.9914 35.4424 55.7914 26.25C55.7898 26.1282 55.7689 26.0183 55.7393 25.9139ZM29.2462 59.8904C29.2487 59.8549 29.2564 59.8232 29.2564 59.7861V54.8942C32.3219 54.9481 35.3876 54.9975 38.4528 55.0392C38.4594 56.6586 38.4925 58.275 38.6192 59.8899H29.2462V59.8904ZM13.5469 50.5166C13.3707 43.0767 13.0548 35.6431 12.6013 28.2164C23.9652 27.2368 40.5517 29.0844 51.9461 28.7909C52.0857 36.1529 52.1004 43.516 52.1014 50.8794C40.9377 51.0033 24.7102 50.5558 13.5469 50.5166Z" fill="#FE6338"/>
<path d="M50.701 32.0239C50.701 31.5699 50.4959 31.1863 50.135 30.9599C49.9038 30.6476 49.5541 30.471 49.1443 30.4601C39.0882 30.1938 28.7878 29.6676 18.5297 28.8966C18.0568 28.8628 17.6811 29.0433 17.4522 29.3966C17.2211 29.7553 17.1857 30.2516 17.3583 30.6769C17.3667 30.8714 17.4166 31.0591 17.5084 31.2364C20.2718 36.5849 24.7859 39.4895 32.1451 40.653L33.3218 40.8368C39.2307 41.7506 44.813 42.6133 48.1302 48.2361C48.1887 48.4922 48.3216 48.7136 48.5181 48.8802C48.7488 49.1856 49.0801 49.3542 49.4543 49.3542C49.9221 49.3542 50.3875 49.0894 50.6374 48.6806C50.8579 48.3195 50.8809 47.8916 50.7006 47.497V32.0239H50.701ZM48.0945 33.0342V43.8885C45.4686 41.1682 41.8938 39.5208 36.9113 38.7233L35.7731 38.5434C29.6325 37.5792 24.3064 36.7422 20.801 31.6633C29.9875 32.3205 39.1657 32.7814 48.0945 33.0342Z" fill="white"/>
</g>
<defs>
<radialGradient id="paint0_radial_1450_7705" cx="0" cy="0" r="1" gradientUnits="userSpaceOnUse" gradientTransform="translate(2.38889 32.8902) rotate(7.13105) scale(85.4667 66.9331)">
<stop stop-color="#31343C"/>
<stop offset="1" stop-color="#31343C" stop-opacity="0"/>
</radialGradient>
<clipPath id="clip0_1450_7705">
<rect width="48" height="48" fill="white" transform="translate(8 19)"/>
</clipPath>
</defs>
</svg>
