<svg width="88" height="87" viewBox="0 0 88 87" fill="none" xmlns="http://www.w3.org/2000/svg">
<g opacity="0.1">
<path d="M81.4042 58.8651C80.4234 58.2113 79.7696 58.0478 79.7696 58.0478C79.7696 58.2113 80.26 58.3747 81.0773 59.192C81.4042 59.519 81.8946 60.1728 81.7311 60.8266C81.5677 61.4805 80.9138 62.1343 79.9331 62.4613C76.01 64.2593 70.2888 67.0382 63.4234 70.4709C59.9907 72.1055 56.0677 74.2305 51.9811 75.8651C47.7311 77.1728 43.1542 80.6055 38.9042 79.2978C37.4331 78.8074 36.2888 77.9901 32.2023 75.5382C29.9138 74.2305 27.6254 72.7593 25.1734 71.2882C20.4331 68.3459 15.5292 65.4036 10.4619 62.2978C9.80805 61.9709 9.31767 61.4805 8.82728 61.1536C8.3369 60.8266 8.17344 60.1728 8.17344 60.1728C8.17344 60.0093 8.3369 59.6824 8.82728 59.3555C9.31767 59.0286 9.97151 58.7016 10.4619 58.3747L14.385 56.9036L15.5292 56.5766C15.8561 56.4132 16.3465 56.2497 16.51 56.0863C18.7984 54.942 17.4907 55.5959 20.5965 53.9613C21.2504 54.2882 21.9042 54.7786 22.5581 55.1055C27.6254 57.8843 32.3657 60.4997 36.9427 62.9516C38.0869 63.6055 39.5581 64.0959 41.0292 64.2593C42.5004 64.2593 43.9715 63.9324 45.1157 63.442L48.5484 61.9709C50.51 60.9901 51.4907 60.9901 57.0484 58.2113C59.3369 57.067 61.2984 55.9228 63.4234 54.942C64.8946 54.1247 66.2023 53.4709 67.6734 52.817C69.9619 53.9613 71.9234 54.942 73.5581 55.5959C77.4811 57.5574 79.6061 58.5382 79.7696 58.3747C79.9331 58.2113 77.8081 56.9036 74.0484 54.7786C72.5773 53.9613 70.9427 52.9805 68.9811 51.9997C73.3946 49.7113 77.1542 47.5863 79.9331 46.1151C80.9138 45.4613 81.8946 44.8074 82.0581 43.6632C82.2215 42.519 81.4042 41.8651 81.0773 41.5382C80.0965 40.8843 79.4427 40.7209 79.4427 40.7209C79.4427 40.8843 79.9331 41.0478 80.7504 41.8651C81.0773 42.192 81.5677 42.8459 81.4042 43.4997C81.2407 44.1536 80.5869 44.8074 79.6061 45.1343C78.7888 45.4613 77.9715 45.9516 77.1542 46.2786C77.4811 45.7882 76.8273 44.8074 75.8465 44.1536C74.8657 43.4997 73.7215 43.3363 73.3946 43.9901C73.0677 44.4805 73.5581 45.4613 74.7023 46.1151C75.3561 46.442 75.8465 46.6055 76.3369 46.6055C74.0484 47.5863 71.5965 48.894 68.6542 50.3651C68.6542 49.8747 68.1638 49.2209 67.3465 48.7305C66.3657 48.2401 65.385 48.0766 65.0581 48.567C64.7311 49.0574 65.0581 50.0382 66.2023 50.692C66.5292 50.8555 66.8561 51.019 67.3465 51.019C64.8946 52.1632 63.5869 52.817 62.9331 53.144C62.9331 52.4901 61.9523 51.5093 60.6446 50.3651C59.1734 49.2209 57.7023 48.4036 57.2119 48.894C56.7215 49.3843 57.5388 50.8555 59.1734 52.1632C60.1542 52.9805 61.135 53.4709 61.9523 53.6343C60.3177 54.4516 58.6831 55.269 56.885 56.0863C56.7215 55.7593 56.3946 55.4324 56.0677 55.1055C54.9234 53.9613 53.6157 53.4709 53.1254 53.9613C52.635 54.4517 53.2888 55.7593 54.4331 56.7401C54.5965 56.9036 54.76 56.9036 54.76 57.067C53.6157 57.5574 52.4715 58.0478 51.3273 58.5382C51.1638 58.5382 51.0004 58.7016 50.6734 58.7016C50.8369 58.0478 50.1831 57.067 49.0388 56.2497C47.5677 55.269 46.0965 55.269 45.9331 55.9228C45.7696 56.5766 46.5869 57.394 47.7311 58.2113C48.5484 58.7016 49.2023 59.0286 49.6927 59.192C45.7696 60.8266 42.01 63.6055 38.0869 60.9901C36.6157 60.1728 34.9811 59.3555 33.51 58.3747L34.4907 57.8843C35.7984 57.067 36.6157 55.9228 36.1254 55.269C35.7984 54.7786 34.4907 54.942 33.1831 55.9228C32.5292 56.4132 32.0388 56.9036 31.7119 57.394C29.5869 56.2497 27.4619 54.942 25.1734 53.7978C25.6638 53.7978 26.4811 53.4709 27.135 53.144C28.6061 52.3266 29.4234 51.3459 29.26 50.692C28.9331 50.2016 27.6254 50.2016 26.1542 51.019C25.01 51.6728 24.1927 52.4901 24.0292 52.9805H23.8657C22.5581 52.3266 21.4138 51.6728 20.1061 50.8555C19.6157 50.5286 19.1254 50.3651 18.635 50.0382C18.7984 50.0382 18.9619 49.8747 19.1254 49.7113C20.2696 49.0574 20.76 48.0766 20.4331 47.5863C20.1061 47.0959 18.9619 47.0959 17.9811 47.7497C17.3273 48.0766 17.0004 48.567 16.8369 49.0574C16.6734 48.894 16.51 48.894 16.3465 48.7305C15.0388 48.0766 13.8946 47.5863 12.5869 46.9324C13.2407 46.9324 14.0581 46.6055 14.8754 46.1151C16.6734 45.1343 17.4907 43.6632 17.1638 43.1728C16.6734 42.6824 15.3657 43.1728 13.7311 44.1536C12.4234 44.9709 11.4427 45.6247 11.2792 46.2786C10.2984 45.7882 9.48113 45.2978 8.50036 44.644L6.53882 43.6632C6.37536 43.4997 6.04844 43.3363 6.04844 43.3363C6.04844 43.3363 6.2119 43.1728 6.37536 43.1728C6.53882 43.0093 6.86574 42.8459 7.19267 42.6824C7.84651 42.3555 8.50036 42.192 9.15421 41.8651C11.9331 40.7209 14.385 39.2497 17.0004 38.1055C17.9811 37.6151 18.9619 37.1247 19.7792 36.6343C21.9042 37.7786 19.6157 36.4709 35.7984 45.2978C36.9427 45.9516 38.4138 46.442 39.885 46.442C42.5004 46.442 44.9523 45.1343 47.4042 44.1536C48.385 43.6632 49.5292 43.3363 50.6734 42.8459C55.0869 41.0478 58.683 38.7593 62.2792 36.9613C63.7504 36.144 65.2215 35.3266 66.6927 34.6728C69.3081 35.9805 71.4331 36.9613 73.3946 37.942C77.3177 39.9036 79.6061 40.8843 79.6061 40.7209C79.6061 40.5574 77.4811 39.2497 73.7215 37.1247C72.0869 36.144 70.1254 35.1632 68.0004 34.019C72.4138 31.7305 76.01 29.769 78.7888 28.2978C79.7696 27.8074 80.7504 26.9901 80.9138 25.8459C81.0773 24.7016 80.26 24.0478 79.9331 23.7209C78.9523 23.067 78.2984 22.9036 78.2984 22.9036C78.2984 23.067 78.7888 23.2305 79.6061 24.0478C79.9331 24.3747 80.4234 25.0286 80.26 25.6824C80.0965 26.3363 79.4427 26.9901 78.4619 27.317C74.5388 29.1151 68.6542 31.894 61.6254 35.4901C58.0292 37.1247 54.2696 39.2497 50.0196 41.0478C45.6061 42.3555 41.1927 46.2786 36.9427 43.3363C21.5773 34.8363 23.2119 35.6536 18.9619 33.3651C15.0388 31.0766 11.1157 29.6055 7.19267 27.317C6.53882 26.9901 6.04844 26.6632 5.55805 26.3363C5.39459 26.1728 5.06767 26.0093 5.06767 25.8459C4.90421 26.0093 5.39459 25.3555 5.88497 25.192C6.37536 24.8651 7.02921 24.5382 7.68305 24.2113C8.99074 23.5574 10.2984 23.067 11.6061 22.5766C12.9138 22.0863 14.2215 21.4324 15.5292 20.7786C16.8369 20.1247 17.9811 19.4709 19.1254 18.817C25.8273 15.2209 32.5292 11.7882 39.5581 8.68242C40.3754 8.02857 41.5196 7.53819 42.5004 7.21126C43.4811 6.88434 44.135 7.0478 45.1157 7.53819C49.0388 9.33626 52.7984 10.9709 56.2311 12.442C68.1638 17.9997 77.9715 23.067 78.135 22.7401C78.135 22.5766 76.3369 21.4324 72.5773 19.3074C68.9811 17.1824 63.5869 14.4036 56.885 10.9709C53.4523 9.33626 49.8561 7.53819 45.7696 5.74011C45.2792 5.57665 44.6254 5.24972 43.9715 5.08626C43.3177 4.9228 42.5004 5.08626 41.8465 5.24972C40.5388 5.57665 39.5581 6.06703 38.4138 6.55742C30.2407 9.99011 22.5581 14.0766 14.0581 18.4901C12.9138 19.144 11.6061 19.6343 10.2984 20.1247C8.99074 20.6151 7.68305 21.269 6.37536 21.7593C5.72151 22.0863 5.06767 22.4132 4.41382 22.9036C4.0869 23.067 3.75997 23.394 3.43305 23.7209C3.26959 23.8843 3.10613 24.2113 2.94267 24.3747C2.77921 24.7016 2.61574 25.0286 2.61574 25.3555C2.45228 26.0093 2.77921 26.8266 3.10613 27.1536C3.43305 27.4805 3.75997 27.8074 4.0869 28.1343C4.74074 28.6247 5.39459 28.9516 5.88497 29.2786C8.50036 30.9132 11.2792 32.0574 13.8946 33.3651C15.2023 34.019 16.3465 34.5093 17.4907 35.1632C17.0004 35.3266 16.51 35.6536 16.0196 35.817C13.4042 36.9613 10.7888 38.4324 8.3369 39.5766C7.19267 40.067 6.2119 40.394 5.06767 41.2113C4.90421 41.3747 4.74074 41.5382 4.41382 41.7016C4.25036 41.8651 3.92344 42.192 3.75997 42.519C3.43305 43.1728 3.43305 43.9901 3.92344 44.644C4.57728 45.1343 4.90421 45.2978 5.23113 45.6247L7.19267 46.769C9.80805 48.4036 12.5869 49.7113 15.2023 51.019C16.3465 51.5093 17.3273 51.9997 18.3081 52.6536C17.9811 52.817 17.8177 52.9805 17.4907 53.144L15.5292 54.1247C15.2023 54.2882 15.0388 54.4516 14.7119 54.4516L13.7311 54.7786C12.4234 55.269 10.9523 55.7593 9.64459 56.2497C8.99074 56.5766 8.17344 56.9036 7.51959 57.394C7.19267 57.7209 6.86574 57.8843 6.53882 58.3747C6.2119 58.8651 5.88497 59.3555 5.88497 60.0093C5.88497 61.317 6.70228 62.1343 7.19267 62.7882C7.84651 63.442 8.50036 63.769 9.15421 64.2593C11.7696 65.7305 14.2215 67.3651 16.6734 68.8363C26.3177 74.5574 21.4138 71.6151 31.0581 77.4997C32.2023 78.1536 33.3465 78.8074 34.4907 79.4613C35.635 80.1151 36.7792 80.9324 38.2504 81.2593C42.5004 82.567 46.7504 80.2786 49.5292 78.9709C50.51 78.4805 51.6542 78.1536 52.7984 77.6632C57.0484 75.7017 60.8081 73.7401 64.2407 71.942C71.1061 68.3459 76.6638 65.4036 80.4234 63.2786C81.4042 62.7882 82.385 61.9709 82.385 60.8266C82.5484 59.8459 81.8946 59.3555 81.4042 58.8651Z" fill="white"/>
</g>
<rect x="2" width="86" height="87" fill="url(#paint0_radial_1450_7704)"/>
<g clip-path="url(#clip0_1450_7704)">
<path d="M56.9831 23.631C56.9816 23.5122 56.9642 23.404 56.9387 23.302C56.9474 22.6413 56.527 21.9745 55.6755 21.9745H52.3629C52.299 21.9745 52.2419 21.985 52.1832 21.9924C51.8215 21.9227 51.4287 22.0111 51.0896 22.3573C50.3265 23.1368 49.6778 24.0188 49.0925 24.9382H47.3798C46.9058 24.3063 46.4956 23.6264 46.0891 22.9502C45.9691 22.4243 45.5644 21.9741 44.8662 21.9741H23.2465C23.1748 21.9741 23.1112 21.9851 23.0458 21.994C22.6465 21.9368 22.227 22.0355 21.9734 22.3569C21.3305 23.1729 20.7965 24.0099 20.3838 24.9377H18.1357C17.7932 24.2144 17.4588 23.4868 17.0526 22.7957C17.0174 22.7367 16.9772 22.6892 16.9379 22.6384C16.7826 22.1734 16.3865 21.7995 15.748 21.7995C14.2662 21.7995 11.9199 21.3104 10.542 21.7492C8.05012 22.5425 9.30719 26.187 9.38917 28.0272C9.5143 30.8266 9.4122 33.6538 9.42749 36.4563C9.46199 42.8311 9.52677 49.2066 9.61006 55.5808C9.64758 58.473 9.68108 61.364 9.73389 64.2546C9.74123 64.6664 9.90449 64.9759 10.1446 65.1863C10.2334 65.7534 10.6482 66.2595 11.3904 66.2595C12.6719 66.259 13.9533 66.2529 15.2259 66.0854C15.3252 66.0726 15.421 66.0511 15.5145 66.0247C16.0579 66.0477 16.6167 65.7825 16.8353 65.1256C17.0935 64.3497 17.3249 63.5718 17.4592 62.7729H19.9956C20.2177 63.2959 20.3564 63.8431 20.369 64.4294C20.3735 64.6435 20.4208 64.8298 20.4976 64.9892C20.655 65.4632 21.0483 65.8631 21.6766 65.9112C28.0021 66.3984 37.4778 66.4336 43.8188 66.4342C43.9428 66.4342 44.0553 66.4162 44.1609 66.3898C44.6972 66.4092 45.2366 66.139 45.4287 65.474C45.6734 64.6256 45.9426 63.7858 46.2179 62.9471H48.0812C48.4239 63.5998 48.7663 64.2537 49.0089 64.951C49.0411 65.0434 49.0829 65.1307 49.13 65.2135C49.3036 65.6553 49.6815 66.0246 50.2696 66.0849C51.8355 66.2463 53.4047 66.259 54.9769 66.259C55.1047 66.259 55.2191 66.2401 55.3273 66.2126C55.9929 66.2288 56.6584 65.8105 56.6333 64.9514C56.3288 54.4871 57.124 34.0961 56.9831 23.631ZM53.9965 63.636C53.0816 63.6277 52.1673 63.6109 51.255 63.55C50.8868 62.671 50.4352 61.8323 50.0046 60.9797C49.7645 60.5041 49.2108 60.286 48.7021 60.3494C48.6444 60.3423 48.5892 60.3315 48.527 60.3315H45.2144C44.4579 60.3315 44.0436 60.8581 43.9655 61.4384C43.9619 61.4481 43.9568 61.4558 43.9533 61.4658C43.6927 62.2474 43.4415 63.031 43.1993 63.8181C37.4673 63.8151 28.6002 63.768 22.8806 63.3783C22.7253 62.4747 22.401 61.612 21.9347 60.8055C21.6412 60.2988 21.1776 60.1323 20.7319 60.1848C20.6451 60.1685 20.5547 60.1578 20.4564 60.1578H16.2721C15.5079 60.1578 15.0942 60.6951 15.0219 61.2821C14.9905 61.3924 14.9674 61.5088 14.9644 61.6396C14.9494 62.2914 14.7923 62.9192 14.6016 63.5382C13.8494 63.6087 13.094 63.6332 12.3382 63.6409C12.1661 54.1407 12.006 34.7027 12.0004 25.2005C12.0004 24.938 11.9334 24.7189 11.8262 24.5383V24.416H14.9587C15.4071 25.2267 15.7785 26.0766 16.1894 26.9069C16.4055 27.3437 16.8899 27.5559 17.3612 27.5413C17.4055 27.5454 17.4465 27.5543 17.4929 27.5543H21.1543C21.6204 27.5543 21.9529 27.3512 22.1616 27.0621C22.3521 26.8964 22.5013 26.6754 22.5896 26.4204C22.8148 25.7696 23.1467 25.1561 23.543 24.5907H44.027C44.5399 25.4213 45.0771 26.2273 45.6845 26.9973C45.8224 27.172 46.0114 27.2755 46.2173 27.3311C46.411 27.4685 46.656 27.5543 46.958 27.5543H49.922C50.6178 27.5543 51.0213 27.1081 51.1434 26.585C51.5775 25.8794 52.0455 25.2085 52.592 24.5906H54.3715C54.4521 34.2956 53.7957 53.9299 53.9965 63.636Z" fill="#FE6338"/>
<path d="M20.805 30.5176H16.2717C15.3094 30.5176 14.8987 31.3686 15.0341 32.0998C14.9929 32.2279 14.9641 32.3657 14.9641 32.5229V34.8897C14.6132 35.6637 14.9876 36.7942 16.0975 36.7942C17.6113 36.7937 19.1249 36.7932 20.6308 36.62C20.7217 36.6096 20.8108 36.5925 20.8969 36.5697C21.5183 36.5317 22.1125 36.1159 22.1125 35.3124V32.3483C22.1125 32.2106 22.09 32.0883 22.0576 31.9733C22.1266 31.2739 21.7119 30.5176 20.805 30.5176ZM19.4973 34.1016C18.8586 34.1424 18.2195 34.1621 17.5793 34.1701V33.1329H19.4973V34.1016Z" fill="#FE6338"/>
<path d="M20.805 40.9795H16.2717C15.3094 40.9795 14.8987 41.8305 15.0341 42.5617C14.9929 42.6898 14.9641 42.8275 14.9641 42.9848V45.3516C14.6132 46.1253 14.9876 47.2559 16.0975 47.2559C17.6113 47.2553 19.1249 47.2548 20.6308 47.0817C20.7217 47.0714 20.8108 47.0542 20.8969 47.0317C21.5183 46.9933 22.1125 46.5775 22.1125 45.7741V42.8102C22.1125 42.6725 22.09 42.5502 22.0576 42.4352C22.1266 41.7357 21.7119 40.9795 20.805 40.9795ZM19.4973 44.5634C18.8586 44.6042 18.2195 44.6237 17.5793 44.6319V43.5947H19.4973V44.5634Z" fill="#FE6338"/>
<path d="M20.805 51.4395H16.2717C15.3094 51.4395 14.8987 52.2904 15.0341 53.0218C14.9929 53.15 14.9641 53.2875 14.9641 53.4447V55.8118C14.6132 56.5855 14.9876 57.7159 16.0975 57.7159C17.6113 57.7154 19.1249 57.7149 20.6308 57.5418C20.7217 57.5316 20.8108 57.5143 20.8969 57.4918C21.5183 57.4535 22.1125 57.0377 22.1125 56.2343V53.2701C22.1125 53.1327 22.09 53.0101 22.0576 52.8951C22.1266 52.196 21.7119 51.4395 20.805 51.4395ZM19.4973 55.0237C18.8586 55.0645 18.2195 55.084 17.5793 55.0922V54.0548H19.4973V55.0237Z" fill="#FE6338"/>
<path d="M49.05 30.5176H44.5169C43.5545 30.5176 43.1438 31.3686 43.2791 32.0998C43.2378 32.2279 43.2092 32.3657 43.2092 32.5229V34.8897C42.8583 35.6637 43.2326 36.7942 44.3426 36.7942C45.8562 36.7937 47.3702 36.7932 48.8759 36.62C48.9668 36.6096 49.0556 36.5925 49.1421 36.5697C49.7632 36.5317 50.3578 36.1159 50.3578 35.3124V32.3483C50.3578 32.2106 50.3352 32.0883 50.3026 31.9733C50.3715 31.2739 49.9567 30.5176 49.05 30.5176ZM47.7425 34.1016C47.1034 34.1424 46.4645 34.1621 45.8244 34.1701V33.1329H47.7425V34.1016Z" fill="#FE6338"/>
<path d="M49.05 40.9795H44.5169C43.5545 40.9795 43.1438 41.8305 43.2791 42.5617C43.2378 42.6898 43.2092 42.8275 43.2092 42.9848V45.3516C42.8583 46.1253 43.2326 47.2559 44.3426 47.2559C45.8562 47.2553 47.3702 47.2548 48.8759 47.0817C48.9668 47.0714 49.0556 47.0542 49.1421 47.0317C49.7632 46.9933 50.3578 46.5775 50.3578 45.7741V42.8102C50.3578 42.6725 50.3352 42.5502 50.3026 42.4352C50.3715 41.7357 49.9567 40.9795 49.05 40.9795ZM47.7425 44.5634C47.1034 44.6042 46.4645 44.6237 45.8244 44.6319V43.5947H47.7425V44.5634Z" fill="#FE6338"/>
<path d="M49.05 51.4395H44.5169C43.5545 51.4395 43.1438 52.2904 43.2791 53.0218C43.2378 53.15 43.2092 53.2875 43.2092 53.4447V55.8118C42.8583 56.5855 43.2326 57.7159 44.3426 57.7159C45.8562 57.7154 47.3702 57.7149 48.8759 57.5418C48.9668 57.5316 49.0556 57.5143 49.1421 57.4918C49.7632 57.4535 50.3578 57.0377 50.3578 56.2343V53.2701C50.3578 53.1327 50.3352 53.0101 50.3026 52.8951C50.3715 52.196 49.9567 51.4395 49.05 51.4395ZM47.7425 55.0237C47.1034 55.0645 46.4645 55.084 45.8244 55.0922V54.0548H47.7425V55.0237Z" fill="#FE6338"/>
<path d="M37.4655 41.8578C34.6337 39.3005 30.7953 37.3471 27.2558 35.9702C24.3068 34.8248 26.0286 50.9872 26.1233 52.0507C26.1259 52.0823 26.1353 52.1089 26.1401 52.1385C26.0094 53.0652 27.0047 54.124 28.0912 53.5284C30.9666 51.9515 33.7995 50.296 36.5205 48.4638C38.748 46.9641 39.8728 45.6417 39.1449 43.9624C38.8681 43.3228 38.3216 42.6309 37.4655 41.8578ZM28.6 50.2501C28.3598 47.0188 28.2266 43.7858 28.2156 40.5433C28.2151 40.4172 28.1962 40.3037 28.1686 40.1965C28.1962 40.0882 28.2156 39.9738 28.2156 39.8461V39.1913C31.4244 40.6447 34.3528 42.6006 36.9506 44.99C34.2659 46.9024 31.4672 48.6289 28.6 50.2501Z" fill="white"/>
</g>
<defs>
<radialGradient id="paint0_radial_1450_7704" cx="0" cy="0" r="1" gradientUnits="userSpaceOnUse" gradientTransform="translate(4.38889 32.8902) rotate(7.13105) scale(85.4667 66.9331)">
<stop stop-color="#31343C"/>
<stop offset="1" stop-color="#31343C" stop-opacity="0"/>
</radialGradient>
<clipPath id="clip0_1450_7704">
<rect width="48" height="48" fill="white" transform="translate(9 20)"/>
</clipPath>
</defs>
</svg>
