<svg width="90" height="90" viewBox="0 0 90 90" fill="none" xmlns="http://www.w3.org/2000/svg">
<g opacity="0.1">
<path d="M84.5751 46.0656C84.3084 45.8656 84.0418 45.7323 83.7751 45.7323H82.7751H80.9751C78.1751 45.7323 75.1084 45.6656 80.9751 45.2656C83.1751 45.1323 82.5751 45.1323 83.8418 45.0656C84.2418 45.0656 84.7084 45.1989 85.1084 45.4656C85.8418 45.9989 86.2418 47.1323 85.8418 48.1323C85.5751 48.6656 85.3084 48.9323 85.0418 49.3323C78.6418 58.3323 79.7084 57.2656 78.3084 58.8656C77.8418 59.3323 77.3084 59.799 76.7084 60.199C76.1084 60.5989 75.2418 60.8656 74.3751 60.7323C71.0418 60.4656 64.6418 53.1323 62.6418 50.3989C62.1751 49.7989 61.7084 49.0656 61.3751 48.1989C61.0418 47.3989 60.7751 46.3989 61.1084 45.2656C61.2418 44.7323 61.6418 44.199 62.0418 43.8656C62.5084 43.4656 62.9751 43.3323 63.4418 43.1323C64.6418 42.7989 65.0418 42.999 65.9751 42.8656C66.3084 42.799 66.5084 42.7323 66.5084 42.6656C66.8418 42.2656 64.3751 26.9989 48.7084 18.5323C45.6418 16.8656 42.3084 15.7323 38.9751 15.2656C31.6418 14.3323 25.1085 17.6656 21.1751 22.0656C18.1751 25.4656 18.1751 27.7989 17.1085 29.5323C16.9751 29.7989 16.7751 29.9989 16.5085 30.2656C16.2418 30.5323 15.9085 30.7323 15.5085 30.9323C15.0418 31.1323 14.4418 31.1323 13.9751 30.9989C13.4418 30.7989 13.1085 30.5989 12.8418 30.3989C12.3085 29.9989 11.9085 29.6656 11.6418 29.4656C11.3085 29.1989 7.84179 27.5989 6.84179 24.5323C5.64179 21.3989 7.10845 17.9323 9.10845 15.1989C15.3751 6.86561 27.5751 1.13228 40.7751 2.39894C45.1084 2.86561 49.0418 3.99894 52.5084 5.59894C65.9751 11.7323 75.3751 26.0656 77.6418 40.1989C77.7751 40.9989 77.8418 41.7323 77.9084 42.3323C77.9751 42.9323 77.9751 43.3989 77.9751 43.7989C78.0418 45.3323 77.8418 45.4656 77.6418 45.5323C77.4418 45.5323 77.2418 45.4656 76.9084 43.999C76.5084 42.2656 76.7084 42.999 76.1084 40.5989C71.8418 23.5323 61.9751 12.6656 51.3751 7.93228C48.1751 6.53228 44.5084 5.46561 40.4418 5.06561C28.1084 3.93228 16.9085 9.19894 11.2418 16.9323C9.84179 18.7989 8.44179 21.5323 9.30846 23.7323C9.84179 25.3989 11.3085 26.1989 14.3751 28.3323C14.5085 28.4656 14.7085 28.5323 14.6418 28.5323C14.5751 28.5323 14.7751 28.3989 14.8418 28.2656C14.9751 28.0656 15.1085 27.7323 15.2418 27.3989C15.8418 25.8656 16.5085 23.5323 19.1751 20.5323C23.5085 15.7323 30.8418 11.9323 39.1751 13.0656C42.9084 13.5989 46.4418 14.9323 49.7084 16.6656C58.9751 21.7323 66.7084 31.0656 68.3751 41.999C68.4418 42.5323 68.4418 43.3323 67.9084 43.9323C67.6418 44.2656 67.3084 44.399 67.0418 44.5323C66.7084 44.6656 66.5084 44.6656 66.2418 44.7323C65.7084 44.799 65.3084 44.7989 64.9084 44.7989H64.3751C64.2418 44.8656 64.0418 44.8656 63.9084 44.8656C63.6418 44.9323 63.3084 45.0656 63.1751 45.1989C62.9751 45.3323 62.8418 45.5323 62.7751 45.7323C62.6418 46.1989 62.7084 46.8656 62.9751 47.5323C63.2418 48.1989 63.5751 48.7323 64.0418 49.3989C65.8418 51.9989 71.9084 59.0656 74.5084 59.4656C75.5084 59.6656 76.5084 58.9323 77.3084 58.0656C78.7751 56.5323 77.9751 56.999 84.2418 48.8656C84.5084 48.4656 84.8418 48.1323 84.9751 47.7989C85.2418 47.2656 85.0418 46.4656 84.5751 46.0656Z" fill="white"/>
<path d="M5.49035 48.5984H5.42368C5.35701 48.5984 5.42368 48.5317 5.42368 48.5317L5.49035 48.3984C5.95702 47.3317 12.4237 33.6651 12.957 32.9317C13.0903 32.7317 13.2237 32.5317 13.4237 32.3984C13.757 32.0651 14.2237 31.8651 14.6903 31.9317C15.157 31.9317 15.6903 32.2651 15.8904 32.3984C18.2237 33.6651 20.6237 35.1317 23.0903 36.7317C24.8237 37.8651 27.0904 38.9317 28.8237 40.5317C29.157 40.7984 29.4237 41.1317 29.6903 41.5317C29.957 41.9317 30.2237 42.3984 30.2903 42.8651C30.4237 43.3317 30.4903 43.9317 30.2903 44.5317C30.0903 45.1317 29.6903 45.5984 29.2903 45.8651C28.4903 46.4651 27.6903 46.7317 26.8904 47.0651C26.0903 47.3317 25.357 47.5984 24.6237 47.8651C23.957 48.1317 23.2903 48.4651 22.957 48.9317C20.8903 51.7317 30.557 72.4651 48.557 75.1317C55.8237 76.1984 62.157 73.0651 65.957 68.9317C69.357 65.1984 68.8237 62.7984 70.557 61.0651C70.8237 60.7984 71.157 60.5984 71.4904 60.4651C71.957 60.3317 72.4237 60.2651 72.8904 60.3984C73.0904 60.4651 73.357 60.5317 73.557 60.6651C73.757 60.7317 73.8904 60.8651 74.0237 60.9317C77.2904 63.1317 78.757 64.0651 79.6237 65.9317C80.157 66.9317 80.357 68.0651 80.2904 69.1317C80.2904 69.6651 80.2237 70.1984 80.0904 70.6651C79.4237 72.9984 78.2237 75.3317 75.0237 78.3984C71.0904 82.1984 65.757 85.1317 61.757 86.1984C57.157 87.6651 52.557 88.0651 48.357 87.7317C44.157 87.4651 40.2904 86.3984 36.8904 84.9984C28.8237 81.5984 22.557 75.4651 17.957 67.9317C14.6237 62.2651 12.557 55.7317 12.0237 51.9317C11.8903 51.1317 11.8237 50.4651 11.757 49.8651C11.6903 49.5317 11.6903 49.1984 11.6903 48.9317C11.157 49.0651 10.4237 49.1984 9.49035 49.1984C8.95702 49.1984 8.35702 49.1984 7.69035 49.1317C7.35702 49.0651 6.89034 48.9984 6.49035 48.9317C6.29034 48.8651 6.02368 48.7984 5.82368 48.7984L5.49035 48.5984ZM6.62368 48.1984C6.75701 48.2651 6.89035 48.2651 7.02368 48.3317C7.29035 48.3984 7.49035 48.4651 7.82368 48.5317C8.42368 48.6651 9.02368 48.6651 9.55701 48.7317C10.4903 48.7317 11.157 48.7317 11.757 48.6651C11.757 48.5984 11.757 48.5317 11.757 48.4651C11.6903 46.9317 11.8903 46.7984 12.0903 46.7984C12.2903 46.7984 12.4903 46.8651 12.8237 48.3317C12.8237 48.3984 12.8903 48.5317 12.8903 48.5984C12.957 48.9317 13.0237 49.2651 13.157 49.6651C13.2903 50.1984 13.4237 50.8651 13.6237 51.5984C14.757 56.6651 17.2903 62.3984 19.957 66.6651C24.4237 73.7317 30.4237 79.3984 37.957 82.5317C41.0904 83.8651 44.6904 84.7984 48.557 84.9984C58.0904 85.6651 67.0904 82.2651 73.157 76.3317C82.557 67.3317 74.0237 64.3984 73.957 64.1317C73.8237 64.0651 73.6904 63.9317 73.557 63.8651C73.0904 63.5317 72.757 63.1984 72.4904 62.9984C72.4237 62.9317 72.357 62.9317 72.357 62.9317C71.4904 63.8651 71.4904 66.6651 67.8904 70.5984C64.6237 74.1317 59.0904 77.2651 53.6904 77.6651C51.8237 77.7984 50.0237 77.7317 48.157 77.3984C41.157 76.2651 34.357 72.0651 29.4904 66.8651C25.4903 62.5984 19.4237 52.4651 21.0237 48.3984C21.157 48.1317 21.2903 47.8651 21.4903 47.6651C22.2237 46.7317 23.157 46.3984 23.957 46.0651C24.757 45.7317 25.557 45.5317 26.2903 45.2651C27.0237 44.9984 27.757 44.7317 28.2237 44.3984C28.6903 44.0651 28.757 43.7984 28.6237 43.1984C28.4903 42.6651 28.157 42.1317 27.6237 41.6651C26.157 40.2651 23.8904 39.0651 22.2237 37.9317C19.8237 36.2651 17.4903 34.7984 15.2237 33.5317C14.8904 33.3317 14.8237 33.2651 14.6237 33.2651C14.4237 33.2651 14.2903 33.3317 14.157 33.3984C14.0903 33.4651 14.0237 33.5317 13.957 33.5984C13.957 33.5984 7.09034 46.7317 6.42368 47.9317C6.29034 48.1317 6.49034 48.1317 6.62368 48.1984Z" fill="white"/>
</g>
<rect x="2" y="2" width="86" height="87" fill="url(#paint0_radial_1450_7701)"/>
<path d="M54.1964 52.4565C54.1338 48.3685 50.3064 46.2041 46.8306 46.3004C46.738 46.2866 46.6369 46.2826 46.5336 46.2928C46.3119 46.3151 46.0951 46.347 45.8954 46.3835C45.5845 46.4302 45.2892 46.4937 45.0202 46.5702C44.9416 46.592 44.8665 46.6214 44.7915 46.6598C42.2312 47.5037 40.6202 49.5003 40.369 52.145C40.2338 53.5706 40.6437 54.9109 41.5544 56.022C42.7539 57.4841 44.7448 58.4719 46.8791 58.6632C47.0749 58.6809 47.2712 58.6895 47.4679 58.6895C49.3403 58.6895 51.2286 57.8965 52.5198 56.5687C53.6391 55.4165 54.2193 53.9946 54.1964 52.4565ZM51.7793 52.9037C51.7903 53.6127 51.539 54.237 51.0329 54.7573C50.1908 55.6236 48.6323 56.1833 47.0619 56.1833C46.758 56.1833 46.4701 56.161 46.2058 56.1174C43.9119 55.7391 43.0082 54.1711 42.9272 52.8302C42.8395 51.3721 43.6871 49.5247 45.7436 48.9177C46.1976 48.797 46.6688 48.7351 47.1439 48.7351C49.4168 48.7351 51.7387 50.1667 51.7793 52.9037Z" fill="#FE6338"/>
<path d="M63.4966 48.5383C63.4891 48.4186 63.4656 48.3014 63.4254 48.1823C63.416 47.6255 63.1111 47.166 62.618 46.9597C62.5515 46.9099 62.4794 46.8678 62.4043 46.8348C61.4892 46.4332 60.6085 45.9956 59.6498 45.5108C59.8215 44.662 59.9923 43.8136 60.1605 42.9639C60.1766 42.8823 60.1831 42.7988 60.1805 42.7093C60.2075 42.399 60.1014 42.1018 59.8781 41.8672C58.532 40.4511 57.05 39.252 55.4747 38.3026C55.2588 38.1728 55.023 38.1232 54.7842 38.1553H54.7797C54.5974 38.1553 54.4207 38.2015 54.254 38.2932C53.9427 38.4657 53.6327 38.6407 53.3243 38.8195C52.9719 38.0971 52.614 37.3443 52.2915 36.5916C52.2595 36.5158 52.2174 36.4425 52.1684 36.3746C51.9636 35.8745 51.51 35.5653 50.9593 35.5565C50.8431 35.5168 50.7275 35.4934 50.6099 35.485C49.7122 35.4262 48.8156 35.3524 47.9195 35.2794C46.4256 35.1572 44.8801 35.0311 43.3502 34.9756L43.2951 34.9746C42.7508 34.9746 42.3029 35.2741 42.1006 35.7655C42.023 35.8587 41.9599 35.9596 41.9088 36.0708L41.7406 36.4369C41.4438 37.0832 41.1379 37.7476 40.8591 38.4241C39.8703 38.1325 38.8503 37.8016 37.7547 37.4179C37.2332 37.2348 36.6976 37.479 36.4761 37.974C36.4671 37.9849 36.4583 37.9968 36.4501 38.0092C35.3798 39.5499 34.1925 40.9288 33.1717 42.0744C32.8646 42.4197 32.7995 42.8786 32.9937 43.2905C33.0113 43.3574 33.0333 43.4203 33.0616 43.4821C33.3477 44.1049 33.6393 44.7695 33.9485 45.5025C33.2451 45.7947 32.5565 46.1198 31.8866 46.4371L31.4928 46.6223C31.3827 46.6744 31.2831 46.7383 31.1919 46.8159C30.6873 47.029 30.3912 47.5036 30.4122 48.0823C30.467 49.6305 30.5914 51.1951 30.7121 52.7078C30.7845 53.6166 30.8565 54.5253 30.9151 55.4356C30.9226 55.5553 30.9463 55.6734 30.9862 55.7911C30.9954 56.349 31.3011 56.808 31.7942 57.0148C31.8618 57.0651 31.9331 57.1066 32.0079 57.1391C32.8542 57.5118 33.692 57.9241 34.5409 58.3512C34.4553 58.625 34.3706 58.8989 34.2861 59.1722C34.0693 59.8746 33.852 60.5761 33.6248 61.2737C33.4866 61.6972 33.6017 62.1237 33.9244 62.3996L33.9852 62.462C35.3118 63.6481 36.723 64.665 38.1777 65.4829C38.2413 65.5189 38.3089 65.5488 38.3792 65.5722C38.6072 65.6646 38.8636 65.6671 39.1086 65.5779C39.6771 65.374 40.2439 65.166 40.8114 64.9586L40.9641 64.9028C41.3706 65.733 41.7636 66.552 42.1191 67.3832C42.1517 67.4588 42.1937 67.5317 42.2428 67.6002C42.447 68.0998 42.9001 68.4087 43.4498 68.4182C43.5669 68.4578 43.682 68.4817 43.8012 68.4898C44.6984 68.5486 45.5945 68.6221 46.4905 68.6952C47.985 68.8174 49.5299 68.9442 51.0604 68.999L51.1164 69.0005C51.661 69.0005 52.1082 68.7008 52.3099 68.2099C52.3874 68.117 52.4506 68.0157 52.5021 67.9041L52.6753 67.5263C52.9541 66.9198 53.2415 66.2966 53.5054 65.6632C54.434 66.0055 55.3302 66.2423 56.2334 66.3853C56.2934 66.3944 56.351 66.398 56.4076 66.398C56.5057 66.398 56.6033 66.3853 56.6984 66.3594C56.8507 66.3289 56.9948 66.263 57.1265 66.1631C58.4847 65.1368 60.1965 63.7101 61.3844 61.7734C61.5176 61.5553 61.5721 61.316 61.5421 61.0766C61.5442 60.8839 61.4925 60.6921 61.3924 60.5162C60.9953 59.821 60.6844 59.15 60.4487 58.4775C61.1546 58.1849 61.8469 57.8584 62.5193 57.5403L62.9178 57.3527C63.0275 57.301 63.1271 57.2371 63.2187 57.1586C63.7239 56.946 64.0193 56.4709 63.9986 55.8922C63.9441 54.3439 63.8195 52.7804 63.6993 51.2681C63.6273 50.3584 63.5551 49.4491 63.4966 48.5383ZM50.2749 66.1758C49.0158 66.1119 47.7417 66.0095 46.5066 65.9101C45.8027 65.8538 45.0994 65.7975 44.3954 65.7473C43.9908 64.8295 43.5509 63.9292 43.0994 63.0139C43.0318 62.8754 42.9431 62.7517 42.8355 62.6436C42.5702 62.2795 42.1141 62.1376 41.672 62.2973C41.1353 62.49 40.5997 62.6867 40.0639 62.883C39.6617 63.031 39.2587 63.1781 38.8556 63.3247C37.8324 62.7187 36.849 62.0173 35.9265 61.2364C36.0693 60.7835 36.2093 60.3302 36.349 59.8768C36.5623 59.1866 36.7748 58.4964 36.9988 57.8092C37.0569 57.6312 37.0702 57.4533 37.0393 57.2797C37.0388 56.7964 36.7747 56.3771 36.3212 56.1463C35.4138 55.6873 34.5229 55.2411 33.6215 54.8338C33.5721 54.1166 33.516 53.4002 33.4601 52.683C33.3626 51.4355 33.2616 50.1484 33.1988 48.8775L33.2914 48.8339C34.006 48.4941 34.7447 48.1427 35.4896 47.8668C35.8823 47.7207 36.1735 47.4565 36.3315 47.1026C36.558 46.5944 36.5094 45.9352 36.1828 45.0852C36.1382 44.9696 36.0376 44.7819 35.8486 44.4336C35.6774 44.1174 35.3097 43.4401 35.181 43.1089C36.2607 41.876 37.1328 40.7954 37.894 39.7445C38.3318 39.8762 39.1859 40.1779 39.5976 40.3232C39.8954 40.4282 40.1236 40.5081 40.1942 40.5289C40.3157 40.5647 40.455 40.6215 40.6031 40.68C41.0016 40.8384 41.4531 41.0171 41.8998 41.0171C42.4879 41.0171 42.9275 40.6978 43.1378 40.1176C43.4092 39.3678 43.7541 38.6226 44.0875 37.9018L44.136 37.7973C45.3897 37.8612 46.6587 37.9631 47.8893 38.0623C48.5978 38.1188 49.3065 38.1761 50.0154 38.2258C50.42 39.1444 50.859 40.0443 51.3115 40.961C51.5398 41.4248 51.9478 41.6901 52.4305 41.6901C52.6888 41.6901 52.9486 41.6123 53.1399 41.4882L53.236 41.4363C53.7682 41.0973 54.3209 40.7798 54.8225 40.4994C55.9084 41.201 56.9496 42.0464 57.925 43.0186C57.7097 44.1092 57.4935 45.1985 57.2682 46.2863C57.1981 46.6271 57.2782 46.9609 57.4879 47.2185C57.6076 47.4786 57.8145 47.6875 58.0897 47.827C58.9944 48.285 59.8834 48.7307 60.7896 49.14C60.8397 49.858 60.8952 50.5751 60.9514 51.2923C61.0485 52.5392 61.1491 53.8253 61.2126 55.0963L61.12 55.1399C60.4052 55.4797 59.6667 55.8311 58.9218 56.1074C58.4902 56.2677 58.1779 56.6065 58.0557 57.0421C57.951 57.2621 57.924 57.5066 57.9765 57.7541C58.2084 58.8536 58.6134 59.9464 59.2116 61.0859C58.4962 62.1158 57.544 63.0693 56.1788 64.1257C55.3257 63.9543 54.4695 63.6901 53.6286 63.3386C53.3692 63.0754 52.9942 62.9218 52.5988 62.9218C51.9894 62.9218 51.4824 63.2787 51.2741 63.8548C51.0012 64.6091 50.6543 65.3581 50.3184 66.0822L50.2749 66.1758ZM51.1159 68.4813V68.4757V68.4813Z" fill="#FE6338"/>
<path d="M26.9932 27.6543C26.2205 27.6543 25.4423 27.8372 24.7397 28.1825C24.6713 28.2033 24.6082 28.2317 24.5466 28.2678C24.4267 28.3383 24.3113 28.4136 24.2124 28.4833C24.0494 28.5898 23.8962 28.7038 23.7599 28.8198C23.7168 28.856 23.6763 28.8966 23.6382 28.9432C22.3901 30.1086 21.9828 31.683 22.5218 33.271C23.0237 34.7501 24.3832 35.6322 26.1579 35.6327C26.7618 35.6327 27.3807 35.5255 27.9477 35.3228C29.1163 34.9047 30.0992 33.9627 30.577 32.8011C30.9902 31.7958 30.978 30.729 30.5427 29.7974C29.9064 28.4353 28.612 27.6543 26.9932 27.6543ZM24.3592 32.5971C24.0552 31.7671 24.3078 30.8398 24.9932 30.2425C25.5337 29.7954 26.2313 29.5388 26.9076 29.5388C27.8293 29.5388 28.5782 30.009 28.9617 30.8282C29.1397 31.208 29.1345 31.5932 28.9474 32.0055C28.5705 32.8355 27.577 33.5005 26.8333 33.7051C25.6902 34.0198 24.7148 33.5677 24.3592 32.5971Z" fill="white"/>
<path d="M33.4297 38.8278C33.4488 38.75 33.459 38.6693 33.4595 38.5889L33.4616 38.3401C33.4645 37.9983 33.4678 37.6493 33.4616 37.2977C33.9943 37.2449 34.4942 37.1519 34.978 37.0142C35.0954 36.981 35.202 36.925 35.2953 36.8482C35.3942 36.7749 35.4754 36.6808 35.5357 36.5687C36.0355 35.648 36.6323 34.4127 36.8103 33.0183C36.8354 32.8226 36.7985 32.6362 36.7037 32.4747C36.6422 32.3401 36.5457 32.2236 36.4216 32.134C36.1022 31.904 35.8209 31.6682 35.5685 31.4199C35.8384 31.1225 36.0957 30.8169 36.3473 30.5195L36.515 30.3207C36.5667 30.2593 36.6109 30.1929 36.6466 30.1217C36.9086 29.8184 36.9605 29.3988 36.7743 29.0224C36.3618 28.1846 35.9085 27.3585 35.4696 26.5599C35.2073 26.0816 34.9443 25.6026 34.6889 25.1199C34.6516 25.0496 34.6068 24.9847 34.5531 24.9235C34.3779 24.5744 34.0502 24.3683 33.6677 24.3683C33.6642 24.3683 33.6602 24.3683 33.6565 24.3683C33.6044 24.3589 33.5391 24.3632 33.4885 24.3549C32.9383 24.3658 32.3929 24.3503 31.8239 24.3315C31.7208 23.8751 31.6171 23.4192 31.5123 22.9638C31.4982 22.9035 31.4777 22.8441 31.4497 22.7845C31.3671 22.5586 31.1924 22.3796 30.9635 22.2881C29.8624 21.8456 28.7392 21.5596 27.6248 21.4348L27.5262 21.4292C27.3706 21.4292 27.2219 21.4713 27.0922 21.5512C26.9661 21.6108 26.8559 21.7029 26.7694 21.8192C26.6838 21.9344 26.5991 22.0502 26.515 22.1667C26.2001 21.9045 25.8812 21.6317 25.5763 21.3527C25.5348 21.3155 25.4903 21.2818 25.441 21.2527C25.1603 20.999 24.7641 20.9301 24.4056 21.0744C24.3257 21.0853 24.2494 21.1046 24.1745 21.1329C23.6684 21.3272 23.16 21.513 22.6508 21.6997C21.8026 22.01 20.9251 22.331 20.0723 22.6873C19.6878 22.8478 19.4551 23.1977 19.4551 23.6007C19.4375 23.6788 19.4277 23.7582 19.4273 23.8401L19.4252 24.0847C19.4222 24.455 19.4185 24.834 19.4262 25.2154C18.8704 25.2936 18.2917 25.3612 17.6704 25.421C17.4441 25.4428 17.2444 25.5464 17.108 25.7144C16.9905 25.8582 16.9265 26.038 16.9225 26.2299L16.9202 26.2408C16.7159 27.3408 16.4072 28.3892 16.1321 29.2683C16.0264 29.6053 16.1243 29.957 16.3821 30.187C16.4124 30.2228 16.4443 30.2562 16.4791 30.2867C16.7574 30.5284 17.0322 30.7743 17.3038 31.0236C17.042 31.3139 16.7912 31.6111 16.5457 31.9015L16.3715 32.1076C16.3182 32.1697 16.2747 32.2356 16.2383 32.3078C15.9767 32.6116 15.9249 33.0313 16.1106 33.4068C16.5241 34.2458 16.9784 35.0732 17.4177 35.8734C17.6796 36.3506 17.9416 36.8279 18.196 37.3082C18.2332 37.3794 18.2785 37.4448 18.3318 37.5061C18.509 37.8576 18.8265 38.0508 19.2277 38.0612C19.281 38.0706 19.3376 38.0607 19.3975 38.0751C19.8963 38.0653 20.3967 38.0761 20.8966 38.0934L20.9377 38.4334C20.9911 38.8703 21.0449 39.3069 21.0919 39.7441C21.1288 40.0922 21.3468 40.3607 21.6656 40.4571L21.725 40.479C22.757 40.798 23.7936 41.0015 24.8033 41.0825L24.8762 41.0855C24.9079 41.0855 24.9393 41.0839 24.9695 41.0809C25.1653 41.07 25.3468 40.9881 25.4965 40.8425C25.7375 40.6072 25.9769 40.3699 26.2164 40.133C26.5901 40.4426 26.9556 40.7522 27.3078 41.0743C27.3499 41.1126 27.3954 41.1473 27.4452 41.177C27.6277 41.3416 27.8557 41.4312 28.0968 41.4312C28.2259 41.4312 28.3551 41.4054 28.4813 41.3539C28.5601 41.3436 28.636 41.3246 28.7108 41.2964C29.2169 41.1022 29.7259 40.9163 30.235 40.73C31.0828 40.4194 31.9602 40.0983 32.8142 39.7416C33.1975 39.5814 33.4297 39.2307 33.4297 38.8278ZM31.653 35.9003C31.457 36.1148 31.3613 36.3978 31.3839 36.6981C31.4176 37.1456 31.4147 37.5924 31.409 38.0623C30.746 38.3255 30.0678 38.5742 29.4097 38.8164C29.0502 38.9482 28.6908 39.0806 28.3321 39.2153C27.91 38.8412 27.4775 38.484 27.034 38.1209C26.9494 38.0524 26.8568 37.9984 26.7571 37.9591C26.4502 37.7938 26.0672 37.8497 25.8089 38.1024C25.5542 38.3511 25.3013 38.602 25.049 38.8522L24.5882 39.3081C23.9674 39.2391 23.3456 39.1212 22.7325 38.9567C22.7043 38.7168 22.6745 38.4761 22.6447 38.2363C22.5919 37.8086 22.5391 37.3811 22.4935 36.9515C22.4788 36.8136 22.4331 36.6843 22.3614 36.5729C22.2069 36.2443 21.8968 36.0427 21.5175 36.0287C20.9556 36.0085 20.3926 35.992 19.8314 35.991C19.6479 35.6492 19.4617 35.3089 19.2756 34.9684C18.9367 34.3499 18.5883 33.7123 18.2596 33.0745C18.5605 32.7167 18.8471 32.3776 19.1627 32.0628C19.3818 31.8437 19.4972 31.5754 19.4967 31.2851C19.4954 30.8913 19.2864 30.4947 18.8574 30.0703C18.8096 30.0231 18.6697 29.9131 18.4949 29.7812C18.357 29.6767 18.0826 29.4696 17.9144 29.324C18.1672 28.4839 18.3589 27.748 18.5081 27.051C18.7942 27.0168 19.2238 26.9767 19.4448 26.956C19.6312 26.939 19.7739 26.925 19.8195 26.9186C19.8896 26.9082 19.9737 26.9052 20.0631 26.8998C20.4398 26.8791 20.9565 26.8507 21.2749 26.483C21.3948 26.3448 21.5312 26.1024 21.5036 25.7304C21.4701 25.2824 21.4734 24.8356 21.4784 24.3663C22.1367 24.1051 22.8093 23.8578 23.4629 23.6175C23.8268 23.4836 24.1913 23.3494 24.5548 23.2133C24.9736 23.5848 25.4079 23.9425 25.8509 24.3061C26.2982 24.6733 26.9473 24.5653 27.2775 24.0921L27.3206 24.0338C27.5006 23.7567 27.6948 23.4823 27.8788 23.2301C28.5577 23.3355 29.2455 23.5135 29.9306 23.7603C30.0721 24.3737 30.2125 24.9868 30.3489 25.6016C30.4063 25.8608 30.5627 26.0679 30.7852 26.1864C30.9467 26.3185 31.1464 26.392 31.3689 26.3994C31.9314 26.4207 32.4943 26.4384 33.0555 26.4379C33.2412 26.7836 33.4297 27.1279 33.6184 27.4722C33.9546 28.0871 34.3014 28.7197 34.6277 29.3536C34.3273 29.7114 34.0402 30.0499 33.724 30.3664C33.484 30.6062 33.3748 30.9272 33.4189 31.2569C33.4184 31.4428 33.477 31.621 33.5901 31.7761C33.9761 32.3043 34.4472 32.7879 35.0247 33.2489C34.8868 33.9114 34.6252 34.5971 34.2012 35.4122C33.7441 35.5152 33.2668 35.5768 32.7791 35.5966C32.3942 35.4721 31.9314 35.5956 31.653 35.9003Z" fill="white"/>
<defs>
<radialGradient id="paint0_radial_1450_7701" cx="0" cy="0" r="1" gradientUnits="userSpaceOnUse" gradientTransform="translate(4.38889 34.8902) rotate(7.13105) scale(85.4667 66.9331)">
<stop stop-color="#31343C"/>
<stop offset="1" stop-color="#31343C" stop-opacity="0"/>
</radialGradient>
</defs>
</svg>
