<svg width="86" height="86" viewBox="0 0 86 86" fill="none" xmlns="http://www.w3.org/2000/svg">
<g opacity="0.1">
<path d="M45.7271 47.1401C45.9183 46.503 46.0457 45.2927 46.0457 43.1267C46.0457 40.5149 45.4723 34.9727 44.7716 34.9727C44.0708 34.9727 43.4975 40.5149 43.4975 43.1267C43.4975 45.2927 43.6249 46.4393 43.816 47.1401C43.4975 47.2675 43.2427 47.3949 43.0516 47.5223C42.4145 47.9682 41.9686 48.4778 41.6501 49.1149C41.3316 49.7519 41.2042 50.4527 41.2679 51.026C41.3316 52.1726 42.0323 53.0008 42.6694 53.5104C43.3064 54.0201 43.9434 54.1475 44.5168 54.2749C45.7271 54.4023 46.4916 53.9564 46.8738 53.5741C47.256 53.1919 47.3197 52.8734 47.256 52.6823C47.1923 52.4912 47.0649 52.3638 46.9375 52.3001C46.619 52.0452 46.3642 51.9815 45.9183 52.0452C45.6634 52.0452 45.3449 52.1089 44.9627 51.9178C44.4531 51.7267 43.8797 51.4082 43.8797 50.8349C43.8797 50.7075 43.8797 50.4527 44.0071 50.2615C44.0708 50.0067 44.3257 49.7519 44.5168 49.4971C44.7079 49.306 44.899 49.2423 45.1538 49.1786C45.4086 49.1786 45.7271 49.306 45.982 49.4971C46.2368 49.6882 46.4916 50.0067 46.619 50.3252C46.7464 50.6438 46.8738 50.9623 46.8738 51.2171C46.9375 51.7904 46.8101 52.1726 46.9375 52.3001C47.0012 52.3638 47.1286 52.3001 47.3197 52.1727C47.5108 52.0452 47.702 51.7904 47.8931 51.4082C48.2116 50.6438 48.1479 49.3697 47.3197 48.2867C46.8738 47.7771 46.3642 47.3949 45.7271 47.1401Z" fill="white"/>
<path d="M43.2415 25.418C40.566 25.418 37.6356 25.9276 34.7052 27.0106C27.7615 29.5587 22.0282 35.1646 19.6712 43.1913C18.3971 47.778 18.3971 53.1291 20.2445 58.0342C23.8756 68.2905 34.6415 74.852 45.0889 73.8328C47.5734 73.6416 49.9941 73.132 52.16 72.1765C61.3971 68.4179 66.366 60.3913 66.9393 52.5557C67.003 52.1098 66.9393 51.7276 67.003 51.3454C67.003 51.0268 67.003 50.7083 67.003 50.4535C67.003 50.0076 66.9393 49.7528 66.8756 49.7528C66.7482 49.7528 66.6845 50.7083 66.4297 52.492C65.0282 60.7098 59.8682 67.5261 51.5867 70.5839C49.5482 71.412 47.2549 71.7942 44.9615 71.9216C35.5334 72.6224 25.6593 66.5705 22.4741 57.1424C20.8815 52.6831 20.8815 47.8417 22.0919 43.7646C25.2134 33.7631 34.1956 28.0935 43.2415 27.9661C56.1734 27.9661 65.0919 38.0313 66.1749 48.0328C66.2386 48.3513 66.3023 48.6698 66.3023 48.8609C66.4934 49.7528 66.6845 49.8165 66.8756 49.8165C67.0667 49.8165 67.1941 49.7528 67.3215 48.7972C67.3215 48.5424 67.3852 48.2876 67.3852 47.9054C68.2134 39.6239 59.4223 25.5454 43.2415 25.418Z" fill="white"/>
<path d="M8.58693 25.1628C10.0521 27.0102 11.7084 28.4117 13.0462 29.1761C13.6832 29.5584 14.3203 29.7495 14.7662 29.8769H14.9573C14.7662 30.1317 14.5751 30.3865 14.384 30.6413C14.1929 30.9598 14.0017 31.2784 13.8106 31.5969C12.0906 34.145 10.8166 37.2028 9.86101 40.388C8.0136 46.8221 8.0136 54.4028 10.6255 61.4102C14.0655 71.2843 22.984 80.1391 34.8966 83.0058C38.464 83.8339 42.1588 84.2161 45.7262 83.8976C49.2936 83.5791 52.7336 82.8784 55.7914 81.6043C66.8121 77.145 75.221 67.7806 77.0047 53.8295C77.1321 53.1924 77.0684 52.6191 77.0684 52.1095C77.0684 51.5998 77.0684 51.2176 77.0684 50.8354C77.0684 50.1347 77.0047 49.8161 77.0047 49.8161C76.941 49.8161 76.8773 50.1984 76.8136 50.8354C76.7499 51.1539 76.7499 51.5998 76.6862 52.0458C76.6225 52.5554 76.6225 53.065 76.4951 53.7021C73.6921 67.7806 65.4743 76.1258 55.218 80.0117C52.224 81.1584 48.9751 81.7954 45.5988 81.9865C42.2225 82.2413 38.7825 81.8591 35.4062 80.9672C24.3855 78.1643 16.0403 69.8191 12.9188 60.5184C10.5617 54.148 10.6254 47.0769 12.3454 41.1524C15.5306 30.7687 22.7929 23.4428 32.0299 20.0028C35.8521 18.6013 39.6106 17.9643 43.178 17.9006C54.7084 17.9006 64.3914 23.3154 70.4432 31.8517C73.2462 35.9287 75.4121 40.8976 76.3677 47.2043C76.4314 47.7139 76.4951 48.0961 76.5588 48.4146C76.8136 49.7524 76.941 49.8161 77.1321 49.8161C77.3232 49.8161 77.4506 49.6887 77.578 48.3509C77.578 48.0324 77.6418 47.5865 77.6418 47.0769C77.6418 42.4902 75.9855 36.2472 72.2906 30.5776C72.0358 30.1317 71.7173 29.7495 71.3988 29.3035C72.0358 28.985 72.9914 28.5391 74.2655 27.4561C74.9025 26.8828 75.6669 26.1821 76.304 25.1628C79.4892 19.9391 75.6032 14.6517 70.6981 14.588C69.3603 14.588 68.2773 15.0339 67.3218 15.4798C65.4106 16.4991 64.0729 17.8369 63.2447 18.9198C62.544 19.8754 62.2892 20.5761 62.3529 20.8309C62.2892 20.7672 62.2255 20.7035 62.098 20.7035C61.5247 20.3213 60.8877 19.9391 60.2506 19.5569C59.6136 19.2384 58.9129 18.9198 58.2121 18.5376C57.9573 18.4102 57.7662 18.2828 57.5114 18.2191C57.7025 17.9643 57.8299 17.4546 58.021 16.0532C58.0847 15.4798 58.1484 14.8428 58.2758 13.9509C58.3395 13.0591 58.4032 11.9761 58.2758 10.6384C57.7025 6.17909 55.2818 3.63095 51.2047 2.54798C48.4018 1.84724 44.3247 1.91095 39.8018 2.03835C36.4255 2.16576 34.1321 3.12132 33.2403 6.49761C32.4121 9.6828 32.9217 13.8872 34.1321 16.6265C33.1129 16.8813 32.1573 17.1998 31.138 17.5821C28.4625 18.5376 25.8506 19.9391 23.3025 21.6591C23.3025 21.4043 23.1751 20.9584 22.8566 20.3213C22.4743 19.5569 21.901 18.4739 20.6269 17.0087C19.9899 16.308 19.1617 15.4798 17.9514 14.7791C11.3899 10.9569 2.72619 17.3909 8.58693 25.1628ZM63.8817 19.6206C64.8373 18.8561 66.2388 17.8369 67.9588 17.1998C68.7869 16.8813 69.7425 16.6902 70.4432 16.7539C73.3099 17.0724 76.1766 20.1302 74.0106 23.8887C73.5647 24.6532 73.0551 25.2265 72.5455 25.7361C71.5262 26.6917 70.698 27.3287 70.1884 27.8384L70.1247 27.9021C68.1499 25.545 65.6017 23.1243 62.2892 20.9584C62.544 20.8946 63.0536 20.3213 63.8817 19.6206ZM35.024 7.00724C36.4255 2.8665 49.2299 4.77761 50.5677 5.09613C53.8166 5.92428 55.2817 7.83539 55.7914 11.0206C55.9825 12.1035 55.9825 13.1228 55.9825 13.9509C55.9825 14.7791 56.0462 15.4798 56.0462 16.0532C56.1099 16.8813 56.2373 17.4546 56.3647 17.8369C56.2373 17.7732 56.1099 17.7095 55.9825 17.7095C55.218 17.4546 54.4536 17.1361 53.6892 16.8813C50.504 15.9258 47.0003 15.3524 43.178 15.3524C40.5025 15.3524 37.6358 15.7346 34.7692 16.4354C34.2595 13.505 34.0684 9.8102 35.024 7.00724ZM8.90545 20.0028C9.60619 17.2635 12.7277 14.9065 16.741 17.0724C17.6329 17.5821 18.3336 18.1554 18.9706 18.7287C20.1173 19.8754 20.8817 20.8309 21.3914 21.4043C21.901 21.9776 22.2195 22.2324 22.4743 22.3598C19.4803 24.5895 17.4417 26.7554 15.2758 29.6221C15.2121 29.5584 15.0847 29.4946 14.9573 29.4309C14.6388 29.1761 14.1292 28.9213 13.6195 28.4117C12.5366 27.4561 11.1988 25.9909 10.0521 24.1435C9.47878 23.2517 8.96915 22.2324 8.77804 21.2769C8.71434 21.0221 8.71434 20.8946 8.71434 20.7035C8.77804 20.4487 8.84175 20.1939 8.90545 20.0028Z" fill="white"/>
</g>
<rect x="6" y="2" width="72" height="82" fill="url(#paint0_radial_1450_7702)"/>
<g clip-path="url(#clip0_1450_7702)">
<path d="M55.42 21.4262C55.3618 21.2248 55.2545 21.0851 55.1308 20.9718C54.9281 20.5632 54.4477 20.256 53.9533 20.3413C53.9733 19.77 53.4786 19.1931 52.777 19.3576C45.5658 21.0452 38.1624 22.7854 31.0949 25.0083C25.9626 26.6225 20.8482 28.4035 15.7655 30.1705C13.5775 30.9311 10.4953 31.5917 8.63014 33.0817C8.25543 33.381 8.23342 33.8298 8.39711 34.2149C8.03632 34.3897 7.83265 34.8925 8.17725 35.3082C10.5533 38.1738 14.0762 43.5323 18.2632 44.331C17.7785 50.6588 17.2957 57.5473 19.7719 63.4903C20.0639 64.1909 20.8201 64.4563 21.4269 63.9273C21.6566 63.7269 21.8598 63.506 22.0776 63.2965C23.7416 63.4481 25.765 61.8801 27.0546 61.0763C28.8527 59.9547 30.5765 58.714 32.2704 57.4428C33.0393 56.8657 34.1667 56.2238 34.8928 55.4408C36.801 56.6871 38.8132 57.7249 41.0323 58.2203C44.7647 59.0533 45.2705 57.6291 46.8642 54.5438C49.7581 48.9417 51.6701 42.6118 53.6937 36.6461C55.3256 31.8341 56.8753 26.4599 55.42 21.4262ZM20.6236 53.3711C20.5327 54.5965 20.2787 56.3033 20.2939 57.9403C19.5498 53.5189 19.8185 48.9012 19.6211 44.4214C20.2562 44.3915 20.8885 44.2665 21.5164 44.078C21.1961 47.1736 20.8538 50.269 20.6236 53.3711ZM9.71403 34.894C17.5735 32.1708 25.3784 29.2731 33.316 26.7721C38.2905 25.2047 44.2352 24.7781 49.3518 23.0055C47.7773 24.2404 46.2696 25.6421 44.5585 26.7156C40.8489 29.0431 36.9751 31.0988 33.1541 33.234C29.8053 35.1052 27.0692 37.8909 23.9554 40.1209C17.7896 44.5367 13.9431 38.9505 9.71403 34.894ZM43.8111 31.5378C43.78 31.2924 43.7499 31.0467 43.7345 30.7992C43.7152 30.4853 43.7213 30.1667 43.7259 29.8492C44.8422 29.2402 45.9417 28.6185 46.9841 27.9516C47.1544 27.8428 47.3495 27.7231 47.5549 27.5982C46.8445 28.3597 46.1249 29.1157 45.3889 29.8699C44.854 30.4185 44.3374 30.9819 43.8111 31.5378ZM42.79 32.6171C42.5322 32.8934 42.2668 33.1631 42.0107 33.4409C41.8751 32.6402 41.6676 31.8442 41.4976 31.0434C41.8622 30.8524 42.2179 30.6555 42.5805 30.4632C42.5312 31.2165 42.5775 31.9674 42.79 32.6171ZM38.4132 37.4292C37.9755 37.9273 37.5236 38.4139 37.0912 38.9166C36.9761 38.6836 36.6181 38.5882 36.4141 38.783C36.0744 37.2743 35.8203 35.7691 35.6966 34.1982C36.2284 33.8786 36.7823 33.5816 37.3288 33.277C37.2602 34.7667 37.3161 37.3328 38.4132 37.4292ZM38.3173 34.9901C38.2242 34.2647 38.2153 33.5335 38.1647 32.8059C38.967 32.3707 39.7777 31.9451 40.5883 31.5213C40.6156 32.5268 40.7735 33.5492 41.1469 34.3961C40.4519 35.1591 39.7544 35.9204 39.0692 36.6921C39.0057 36.6327 38.9268 36.5894 38.8306 36.5841C38.481 36.5639 38.3477 35.2282 38.3173 34.9901ZM35.6941 40.5548C34.8516 41.5613 34.0149 42.5731 33.1981 43.6016C33.1928 43.6011 33.188 43.5996 33.1825 43.5991C33.1303 43.318 33.0618 43.046 33.0253 42.7603C32.9289 42.0001 32.9049 41.2299 32.8786 40.4648C32.8341 39.1782 32.8457 37.8899 32.8009 36.6033C32.7948 36.426 32.6838 36.3382 32.5573 36.2962C33.3049 35.7266 34.0978 35.2009 34.9067 34.6911C34.9092 36.6643 35.1736 38.6545 35.6941 40.5548ZM31.8855 42.7603C31.8999 43.1743 32.1153 44.0692 32.4649 44.537C31.9688 45.1733 31.4569 45.796 30.9719 46.4417C30.976 45.2826 30.7918 44.0801 30.6956 42.9924C30.5595 41.4556 30.4221 39.875 30.0499 38.3645C30.7159 37.7851 31.356 37.229 31.9516 36.7468C31.992 36.7139 32.0371 36.6853 32.0778 36.6527C31.9865 38.6886 31.8144 40.7208 31.8855 42.7603ZM28.5177 50.7312C28.603 50.7937 28.6882 50.861 28.7735 50.9243C28.5078 51.1659 28.27 51.4323 28.0443 51.7088C27.5393 48.0804 27.7759 44.4932 27.4703 40.8635C27.4619 40.7651 27.4166 40.6975 27.3642 40.6414C28.0428 40.0961 28.6953 39.537 29.3296 38.9882C29.571 40.4924 29.6385 42.0345 29.6725 43.5439C29.7051 44.9972 29.4632 46.5801 29.8086 48.0045C29.4928 48.4399 29.155 48.8559 28.8454 49.2966C28.8317 49.3161 28.832 49.3364 28.8203 49.3558C28.2308 49.4107 27.9087 50.2844 28.5177 50.7312ZM22.3357 60.0709C22.2489 54.6137 22.8607 49.096 22.6502 43.6611C24.0587 43.0551 25.4295 42.1405 26.7368 41.134C26.7221 41.2871 26.7084 41.4417 26.694 41.5957C26.6697 41.7701 26.6578 41.7789 26.6487 42.0848C26.3588 45.3656 26.2039 48.8374 26.8977 52.0256C26.9744 52.3776 27.2466 52.4869 27.5074 52.4388C27.0024 53.1768 26.5549 53.9657 26.0787 54.7298C25.8824 55.0445 25.6716 55.3497 25.4717 55.6629C25.6506 53.8802 25.4181 51.9054 25.4381 50.2442C25.4674 47.8216 25.1767 45.3684 25.1593 42.9934C25.1577 42.7684 24.8258 42.772 24.8129 42.9934C24.6735 45.3724 24.2583 47.8155 24.1647 50.2442C24.0809 52.4206 23.4922 55.2095 24.1212 57.3333C24.1467 57.4193 24.2042 57.4681 24.2555 57.5248C23.6496 58.4002 23.0168 59.2554 22.3357 60.0709ZM31.8483 55.2459C30.4489 56.3572 29.0179 57.4309 27.5699 58.4779C26.609 59.1727 25.617 59.8173 24.6092 60.4382C25.286 59.5504 25.9314 58.6355 26.5589 57.6964C27.7433 55.9233 29.3205 53.967 30.1117 51.9338C31.0918 52.687 32.0821 53.4541 33.0924 54.1922C32.6582 54.5373 32.2488 54.9277 31.8483 55.2459ZM47.9752 45.9394C46.318 50.2113 45.836 57.0813 40.3297 55.8901C36.8028 55.127 33.4853 52.2237 30.3806 50.1637C37.9244 40.9867 46.2013 32.4747 53.7724 23.3805C54.9104 30.7276 50.5217 39.3751 47.9752 45.9394Z" fill="#FE6338"/>
<path d="M12.7065 56.1513C12.3604 55.2276 12.1362 54.2669 12.0261 53.287C11.951 52.619 11.0075 52.5935 10.9681 53.287C10.9129 54.2613 11.0708 55.1797 11.3071 56.1242C11.5396 57.0528 11.8015 58.1536 12.3712 58.9309C12.6933 59.3699 13.6383 59.3081 13.5488 58.6118C13.4367 57.7372 13.0152 56.9756 12.7065 56.1513Z" fill="white"/>
<path d="M11.3809 59.3297C10.8478 58.3911 10.1738 57.6429 9.78872 56.6094C9.32318 55.359 9.31862 54.018 9.52634 52.7191C9.63413 52.0466 8.72734 51.7758 8.49735 52.4354C7.63434 54.9079 8.08394 58.7177 10.4395 60.2709C11.034 60.6631 11.7086 59.9066 11.3809 59.3297Z" fill="white"/>
<path d="M33.41 61.283C33.3015 60.8794 32.8311 60.7036 32.4749 60.9025C32.0569 61.1357 31.9676 61.4664 31.7516 61.8707C31.5454 62.2571 31.2729 62.5926 30.9728 62.9088C30.3104 63.6071 29.4403 64.0631 28.5818 64.4729C27.9549 64.7718 28.4002 65.8218 29.0545 65.5938C30.0728 65.2386 30.9877 64.7419 31.8224 64.0573C32.5366 63.4708 33.6757 62.2735 33.41 61.283Z" fill="white"/>
<path d="M35.3264 61.7213C34.6752 62.2969 34.1418 63.0623 33.4994 63.6692C32.791 64.3387 31.9545 64.9179 31.2965 65.6334C30.8155 66.1563 31.4169 66.9096 32.0396 66.5963C32.9479 66.1394 33.7775 65.3733 34.5603 64.7301C35.2315 64.1788 36.2059 63.498 36.5963 62.7015C37.0039 61.8708 36.0272 61.1014 35.3264 61.7213Z" fill="white"/>
</g>
<defs>
<radialGradient id="paint0_radial_1450_7702" cx="0" cy="0" r="1" gradientUnits="userSpaceOnUse" gradientTransform="translate(8 33) rotate(8.0171) scale(71.7008 62.9568)">
<stop stop-color="#31343C"/>
<stop offset="1" stop-color="#31343C" stop-opacity="0"/>
</radialGradient>
<clipPath id="clip0_1450_7702">
<rect width="48" height="48" fill="white" transform="translate(8 19)"/>
</clipPath>
</defs>
</svg>
