<svg width="86" height="86" viewBox="0 0 86 86" fill="none" xmlns="http://www.w3.org/2000/svg">
<g opacity="0.1">
<path d="M33.1258 61.6013C35.7377 63.1939 38.6043 64.4043 41.5347 65.2962C41.7258 66.825 43.5095 72.4947 43.9554 73.8324C44.2102 74.5332 44.4651 75.3613 44.9747 76.1258C45.4843 76.9539 46.2488 77.591 47.0132 78.1006C47.7777 78.6102 48.6695 78.9287 49.4977 79.2473C50.708 79.6295 51.9184 79.8843 53.1925 80.0117V80.1391C53.2562 80.5213 53.3836 80.9673 53.7021 81.4132C54.0206 81.8591 54.4665 82.2413 54.9762 82.5599C55.4858 82.8784 56.0591 83.0695 56.6325 83.2606C57.2058 83.4517 57.7791 83.5154 58.4162 83.5154C59.0532 83.5154 59.7539 83.388 60.3273 83.1332C60.9643 82.8147 61.4102 82.4324 61.7288 81.9865C62.8754 80.4576 62.748 78.8013 62.4932 77.9095C62.4295 77.6547 62.3021 77.4636 62.2384 77.2724C62.6843 76.8902 63.1302 76.5717 63.4488 76.1895C64.2769 75.2976 64.9776 74.3421 65.4236 73.3228C65.9332 72.3036 66.188 71.348 66.3154 70.3924C66.6339 68.4813 66.4428 66.8887 66.1243 65.6147C65.551 63.0028 64.7865 61.4102 64.2132 60.391C63.5125 59.0532 63.0665 58.6073 62.8117 58.4799C65.4873 54.9762 67.271 51.345 68.2902 48.1599C69.3732 44.7199 69.5643 41.7895 69.5643 39.8147C69.5643 39.305 69.5643 38.8591 69.5006 38.4769C69.4369 38.0947 69.4369 37.7762 69.3732 37.5213C69.3095 37.0117 69.2458 36.7569 69.1821 36.7569C69.1184 36.7569 69.1184 37.0117 69.1184 37.585V38.5406C69.1184 38.9228 69.0547 39.3688 69.0547 39.8147C68.9273 41.7258 68.5451 44.5925 67.3347 47.8413C66.1243 51.0902 64.1495 54.785 61.2191 58.2887C56.8873 63.5124 50.8991 70.265 34.1451 59.8176C29.5584 56.8873 25.5451 52.8739 22.8695 48.2236C15.4162 35.4828 21.2132 20.8947 32.4888 15.9895C35.3554 14.7791 38.2221 14.1421 40.8977 14.0784C43.6369 14.0147 46.1214 14.3332 48.4147 14.9702C57.9065 17.4547 65.1688 23.7613 68.0354 33.4443C68.3539 34.4636 68.5451 35.228 68.6725 35.7376C68.9273 36.7569 69.1184 36.8206 69.3095 36.7569C69.5006 36.7569 69.6917 36.6295 69.6917 35.6102C69.6917 35.1006 69.6917 34.2725 69.5006 33.1258C69.3095 31.9791 68.991 30.5139 68.2265 28.6665C65.1051 20.7673 57.5243 14.9065 49.0517 12.6132C46.5673 11.9762 43.828 11.5302 40.7702 11.5939C37.7762 11.6576 34.5273 12.2947 31.4058 13.6325C22.9969 17.2636 17.9643 25.5451 17.0725 33.3806C16.4354 38.668 17.7732 44.465 20.7673 49.4339C23.7614 54.4028 28.0932 58.6073 33.1258 61.6013ZM60.1362 79.3747C60.0725 79.6932 59.9451 80.0754 59.6902 80.3939C59.4354 80.7124 59.0532 81.031 58.2888 81.1584C57.5243 81.2858 56.5051 81.1584 55.7406 80.9036C55.1036 80.7124 54.5939 80.3939 54.2754 80.0117H54.7851C56.5688 79.948 58.2888 79.5021 59.8177 78.8013C59.9451 78.7376 60.0725 78.6739 60.1999 78.6102C60.1999 78.865 60.1999 79.1199 60.1362 79.3747ZM62.2384 59.4354C62.3021 59.8176 62.3658 60.3273 62.6206 61.0917C62.9391 62.1747 63.4488 63.7673 63.831 66.0606C64.0221 67.2073 64.0858 68.545 63.831 70.0102C63.5762 71.4754 62.8754 73.0043 61.5377 74.4058C60.7732 75.1702 59.8176 75.9347 58.671 76.508C56.2502 77.7184 53.1288 78.0369 50.071 77.2087C48.5421 76.7628 47.1406 76.1258 46.3762 75.1065C45.994 74.5969 45.6754 73.9599 45.4206 73.2591C44.7199 71.6028 42.8088 66.9524 41.8532 65.3599C53.7658 68.7999 56.8236 66.1243 62.2384 59.4354Z" fill="white"/>
<path d="M13.7601 42.2361C13.1867 42.1724 12.2949 42.4272 10.5112 43.0642C9.55561 43.3827 8.09042 44.0198 6.81635 44.5931C5.54228 45.1664 4.52302 45.7398 4.65042 46.0583C4.71413 46.3768 5.9245 46.5042 7.32598 46.3768C8.72746 46.2494 10.3838 45.8672 11.403 45.5487C13.2504 44.9116 14.0786 44.3383 14.4608 43.9561C14.843 43.5738 14.7156 43.2553 14.5882 42.9368C14.3971 42.5546 14.2697 42.2361 13.7601 42.2361Z" fill="white"/>
<path d="M6.24278 22.6793C7.58056 23.6985 9.23686 24.8452 10.3198 25.4185C14.3969 27.5845 14.7791 27.0748 15.0976 26.4378C15.4161 25.8008 15.5435 25.2911 11.5939 23.1252C10.5109 22.5519 8.72723 21.7237 7.19834 21.0867C5.66945 20.4496 4.33167 20.0037 4.14056 20.3222C3.94945 20.6408 4.90501 21.66 6.24278 22.6793Z" fill="white"/>
<path d="M22.7417 10.3845C24.0158 12.0408 24.7165 12.869 25.2262 13.2512C25.7358 13.5697 25.9906 13.4423 26.3091 13.2512C26.6276 13.0601 26.8825 12.869 26.755 12.2319C26.6276 11.6586 26.118 10.5756 24.7802 8.79193C24.0158 7.83637 22.678 6.43489 21.4039 5.41563C20.1299 4.39637 18.9195 3.82304 18.7284 4.07785C18.4736 4.33267 19.238 5.41563 20.1299 6.6897C20.958 7.96378 22.041 9.42896 22.7417 10.3845Z" fill="white"/>
<path d="M38.4767 9.04656C38.8589 8.98286 39.1774 8.98286 39.3685 8.60064C39.5596 8.28212 39.6233 7.70879 39.687 6.56212C39.687 5.92508 39.6233 4.96953 39.4959 4.07767C39.3685 3.24953 39.1774 2.48508 38.8589 2.42138C38.5404 2.35767 38.0307 2.99471 37.6485 3.88656C37.2663 4.77842 37.0752 5.86138 37.0752 6.56212C37.0752 7.83619 37.2663 8.47323 37.5848 8.79175C37.7759 9.11027 38.0945 9.11027 38.4767 9.04656Z" fill="white"/>
<path d="M53.5102 11.9764C54.1472 12.2949 54.7206 12.486 56.4406 9.04604C57.3961 7.13493 58.9887 2.80307 58.3517 2.48456C57.7146 2.16604 55.1028 5.98826 54.1472 7.89937C52.4272 11.3394 52.8732 11.6579 53.5102 11.9764Z" fill="white"/>
<path d="M65.3598 20.1948C65.9968 20.0036 67.0161 19.4303 68.7361 17.9014C69.6916 17.0733 71.0294 15.6081 72.0486 14.2703C73.0679 12.9325 73.7049 11.7222 73.4501 11.4674C73.1953 11.2125 72.0486 11.977 70.7746 12.9962C69.5005 14.0155 67.9716 15.1622 67.0798 15.9903C65.4235 17.4555 64.5953 18.2199 64.2768 18.7933C63.9583 19.3029 64.1494 19.6214 64.3405 19.8762C64.5316 20.1311 64.7864 20.3859 65.3598 20.1948Z" fill="white"/>
<path d="M70.5835 30.8328C70.711 31.5336 70.8384 32.1706 75.0428 31.4699C77.3361 31.0877 82.0502 29.4951 81.9228 28.7943C81.7317 28.0936 76.8902 28.5395 74.5969 28.9217C70.5198 29.5588 70.4561 30.0684 70.5835 30.8328Z" fill="white"/>
</g>
<rect x="4" y="2" width="72" height="82" fill="url(#paint0_radial_1450_7700)"/>
<g clip-path="url(#clip0_1450_7700)">
<path d="M48.32 60.1559L48.7422 59.7827L48.7913 59.7336L48.8208 59.714L48.8306 59.7042L48.8994 59.6256L48.9877 59.5274L49.1645 59.3408L49.8912 58.5846L50.2546 58.2016L50.4313 58.0151L50.6179 57.7892L51.3446 56.8563L51.9142 56.1099C52.091 55.8546 52.2383 55.5993 52.3954 55.3439C52.6998 54.8235 53.0435 54.3226 53.3185 53.7825L54.1041 52.1425C54.3594 51.5926 54.5362 51.0132 54.7424 50.4436C54.8406 50.1588 54.9585 49.874 55.037 49.5893L55.2629 48.7054C55.4004 48.1162 55.587 47.5368 55.6557 46.9378L55.911 45.1407L55.9994 43.3337C56.0093 40.9179 55.695 38.5021 54.9781 36.1944C54.2318 33.9063 53.1417 31.736 51.7767 29.7916C51.3544 29.2613 50.9322 28.7702 50.5295 28.348C50.4313 28.2399 50.3233 28.1417 50.2349 28.0435C50.1269 27.9552 50.0189 27.8668 49.9207 27.7882C49.7144 27.6311 49.5082 27.4838 49.3216 27.3659C48.5655 26.8847 48.0057 26.7669 47.7504 27.1499C47.5245 27.5034 47.5933 28.1123 47.9075 28.8488C48.2512 29.5657 48.6931 30.5183 49.3707 31.5297C51.5803 35.3007 52.6311 39.6904 52.3659 43.9917C52.2383 47.4681 51.1482 50.8659 49.3707 53.8611C49.1743 54.2637 48.8994 54.5681 48.6735 54.9217C48.4182 55.2654 48.2218 55.6091 47.9272 55.9626L47.004 57.0232L46.5916 57.4946L46.1202 57.9463C44.8829 59.1935 43.4491 60.2344 41.9171 61.1085C41.5047 61.2754 41.1119 61.4816 40.6896 61.6093L39.4424 62.0414C38.5881 62.2672 37.7533 62.5226 36.8891 62.6601C35.1804 62.9841 33.4324 63.1413 31.704 63.043C29.9757 62.9547 28.2473 62.719 26.5877 62.2181C24.928 61.7271 23.3371 61.0495 21.8248 60.1952L21.8052 60.1853C21.1374 59.8122 20.283 59.8416 19.6349 60.3425C18.6038 61.1379 17.4646 61.7861 16.2469 62.228C15.6773 62.4342 15.0881 62.5913 14.4989 62.719C15.2059 61.9628 15.7853 61.1281 16.2862 60.3032C16.6397 59.7238 16.7968 58.6043 16.6888 58.2409C16.5906 57.8776 16.3746 57.8285 16.08 57.9856C15.7952 58.1427 15.422 58.5257 15.0095 58.9578C14.3319 59.6845 13.6151 60.4014 12.8196 61.0201C12.417 61.3245 12.0045 61.6093 11.5724 61.845C11.3564 61.9628 11.1403 62.0708 10.9145 62.169C10.8065 62.2181 10.6886 62.2574 10.5806 62.2967L10.4922 62.3262L10.4529 62.3458L10.3744 62.3851L10.3645 62.3949L10.3449 62.4047L10.2467 62.444C10.178 62.4931 10.0994 62.5422 10.0307 62.6011C9.53964 62.9939 9.32359 63.6126 9.38252 64.192C9.44144 64.7714 9.81461 65.3803 10.4038 65.6651C10.5511 65.7436 10.6984 65.7829 10.8457 65.8222L11.1207 65.8811C11.268 65.9106 11.3859 65.94 11.5626 65.9597L12.0635 66.0284L12.5446 66.0677C13.8213 66.1364 15.1077 65.9891 16.3451 65.6651C17.9458 65.2526 19.4778 64.5652 20.8821 63.6715C24.9968 66.0088 29.8775 67.0792 34.6599 66.5882C37.2034 66.3328 39.7174 65.6552 42.0448 64.5652C44.3722 63.4653 46.5032 61.9726 48.32 60.1559Z" fill="#FE6338"/>
<path d="M42.1919 47.026L43.3015 45.9851L43.439 45.8574L43.5078 45.7887L43.5471 45.7592L43.5667 45.7395L43.6354 45.6708L43.9006 45.3958L44.0283 45.2584L44.097 45.1896L44.1756 45.0914L44.4898 44.6986C45.2558 43.6773 45.737 42.5185 45.9628 41.2811C46.1789 40.0536 46.12 38.7573 45.7566 37.5494C45.3933 36.3317 44.7451 35.2024 43.8711 34.2695C42.1329 32.3938 39.4324 31.3921 36.8594 31.7358C35.573 31.8929 34.3062 32.3545 33.2259 33.0812C32.9706 33.2776 32.6858 33.4642 32.4501 33.6901C32.3126 33.8177 32.1653 33.9552 32.0279 34.0829L31.9591 34.0043L31.6841 33.7588C31.5368 33.6213 31.2226 33.3856 30.9476 33.1892C29.8674 32.4429 28.6988 32.001 27.4516 31.834C25.9 31.5394 24.2404 31.6867 22.7477 32.3054C22.4531 32.4331 22.1585 32.5509 21.8835 32.7277C21.5987 32.8848 21.3336 33.0517 21.0782 33.2383C20.8131 33.4151 20.5676 33.6213 20.3319 33.8374L20.1551 33.9945L20.106 34.0338L20.0962 34.0436L20.0176 34.1221L19.998 34.1418L19.9391 34.2105L19.6838 34.4855C18.7901 35.4773 18.1714 36.646 17.8375 37.8833C17.5037 39.1305 17.4546 40.4464 17.7001 41.7132C17.9554 42.9801 18.4955 44.1879 19.2811 45.2093C19.4677 45.4744 19.6936 45.7003 19.9096 45.9458L20.0667 46.1127L20.1944 46.2404L20.4596 46.5055L21.5202 47.5465L23.661 49.6087C25.0947 50.9738 26.5481 52.3191 28.0212 53.6449C29.6906 55.1572 31.3306 56.1589 31.8413 55.4027C31.9886 55.1867 32.018 54.8822 31.9395 54.5189C32.1948 54.4403 32.4894 54.3127 32.8135 54.1359C35.9167 52.4763 39.1476 49.8935 42.1919 47.026ZM31.8905 52.5745C31.7137 52.7414 31.5468 53.0164 31.4093 53.2914C31.0852 52.7316 30.6138 52.1227 30.0344 51.4844C28.6203 49.9623 27.2062 48.4303 25.7921 46.9082L23.6316 44.6495L22.5514 43.5398C22.2862 43.2452 22.0309 42.9506 21.8345 42.6069C21.1765 41.5365 20.9409 40.2107 21.1962 38.9636C21.314 38.3449 21.5792 37.7262 21.9032 37.2155L22.0211 37.0486C22.0604 36.9897 22.08 36.9406 22.1586 36.8522L22.5121 36.4496L22.8656 36.1157L23.2486 35.8211C24.2994 35.0747 25.6644 34.7408 26.9803 34.9471C27.6383 35.0453 28.2766 35.2711 28.8462 35.605C29.0033 35.6836 29.1015 35.772 29.2292 35.8505C29.3372 35.9094 29.514 36.0764 29.6711 36.2041L29.8577 36.371L30.0835 36.587L30.5353 37.0191C30.7022 37.2254 30.879 37.4316 31.0459 37.6378L31.0557 37.6476C31.4878 38.1583 32.2538 38.227 32.7645 37.7851L32.9412 37.6378L33.7858 36.9209L34.2081 36.5576C34.2768 36.4888 34.3455 36.4397 34.3946 36.4005L34.5714 36.2728C35.033 35.9389 35.5338 35.6738 36.0543 35.5068C37.105 35.1729 38.2442 35.1827 39.2557 35.5265C39.5012 35.6247 39.7565 35.713 39.9824 35.8505C40.1002 35.8996 40.2083 35.988 40.3261 36.0567L40.493 36.1648L40.6207 36.263C40.7091 36.3415 40.7582 36.3415 40.9153 36.5085L41.1215 36.6951L41.2197 36.7933L41.2394 36.8129L41.4947 37.1075C41.5831 37.2057 41.642 37.3236 41.7206 37.4218C42.3 38.286 42.6044 39.3465 42.516 40.3875C42.4375 41.4383 42.0447 42.4301 41.2983 43.2354L41.2099 43.3434L41.1608 43.3925L41.151 43.4121L40.9939 43.5693L40.6011 43.9621L39.8154 44.7575L38.2442 46.3386C36.1427 48.4303 34.0313 50.522 31.8905 52.5745Z" fill="white"/>
<path d="M8.04729 44.5909C8.16513 45.5632 8.23387 46.5452 8.47938 47.4978C8.5874 47.9789 8.67578 48.4601 8.81327 48.9217L9.265 50.3162C9.34356 50.542 9.41231 50.7777 9.51051 51.0036L9.80512 51.6714C10.0015 52.1133 10.1979 52.565 10.414 52.9971L11.1407 54.2541L11.5138 54.8826L11.9361 55.4718C12.2602 55.9137 12.5941 56.3262 12.9083 56.6797C13.2619 57.0038 13.6056 57.2788 13.91 57.4752C14.5287 57.868 15.0295 57.9564 15.3143 57.593C15.5696 57.2689 15.5893 56.7288 15.4125 56.0807C15.3241 55.7566 15.1768 55.4129 15.0001 55.0397C14.8429 54.6469 14.6367 54.2345 14.3912 53.8122C14.2832 53.6158 14.1555 53.439 14.0671 53.2328L13.7922 52.6338C13.6154 52.2311 13.4092 51.8383 13.2422 51.4259C12.9574 50.5911 12.6137 49.7761 12.4271 48.9119C11.9361 47.2228 11.7299 45.465 11.6219 43.7268C11.4942 40.928 11.8968 38.0899 12.8494 35.4286C13.311 34.0931 13.9493 32.8164 14.676 31.5987C14.8429 31.2746 15.059 31.0291 15.2554 30.7345L15.8446 29.8802C16.2963 29.3106 16.8266 28.7312 17.3176 28.1616L17.3373 28.142L17.3471 28.1321C17.2685 28.2205 17.3275 28.1518 17.3078 28.1714H17.3176L17.3667 28.1321L17.4649 28.0634L17.6613 27.9259L18.0542 27.6411L18.8201 27.0716C19.3406 26.6984 19.9004 26.394 20.4307 26.0502C21.5305 25.4217 22.6599 24.8423 23.8383 24.3906C26.1755 23.4675 28.6601 22.9274 31.1741 22.8292C33.6881 22.731 36.2217 23.0747 38.5982 23.8996L39.4919 24.204C39.7865 24.3219 40.0614 24.4692 40.3462 24.5968L41.2006 24.9897C41.4854 25.1173 41.7407 25.3039 42.0157 25.461C42.5558 25.7851 43.1155 26.0895 43.5673 26.4725L44.2842 27.0126C44.402 27.1108 44.5198 27.1796 44.6475 27.2876L45.0207 27.6411C45.3742 27.975 46.1795 28.2402 46.5134 28.2205C47.191 28.1911 47.0044 27.4644 46.5134 26.6198C46.3071 26.2761 46.1107 25.9029 45.8652 25.5789C45.6099 25.2548 45.3349 24.9307 45.0403 24.5968C44.4707 23.8996 43.744 23.3595 43.0075 22.7604C42.6442 22.4462 42.2219 22.2302 41.8193 21.9748C41.397 21.7391 40.9845 21.4642 40.5426 21.2579C39.6392 20.875 38.7259 20.4429 37.7438 20.217C36.585 19.8536 35.387 19.6671 34.1791 19.4707L32.3525 19.3233C32.0481 19.2841 31.7436 19.2939 31.4392 19.3037L30.5259 19.3233C28.0905 19.4215 25.6256 19.834 23.308 20.708C20.9904 21.582 18.8103 22.8194 16.8659 24.371L15.4911 25.6083L15.1474 25.9226L15.1081 25.9619L15.0099 26.0699L14.9411 26.1484L14.7938 26.3056L14.2242 26.9537L13.6547 27.6018C13.4681 27.8375 13.2717 28.1125 13.0851 28.3777L12.5253 29.1633C12.3388 29.4284 12.1522 29.6936 12.0147 29.9587L11.013 31.5103C10.7184 32.0504 10.4434 32.6004 10.1685 33.1503C9.93278 33.5824 9.78548 34.044 9.59889 34.4957C9.43195 34.9572 9.22572 35.3992 9.08824 35.8705C8.83291 36.8133 8.51866 37.7462 8.38118 38.7184C7.97854 40.653 7.94908 42.6367 8.04729 44.5909Z" fill="#FE6338"/>
</g>
<defs>
<radialGradient id="paint0_radial_1450_7700" cx="0" cy="0" r="1" gradientUnits="userSpaceOnUse" gradientTransform="translate(6 33) rotate(8.0171) scale(71.7008 62.9568)">
<stop stop-color="#31343C"/>
<stop offset="1" stop-color="#31343C" stop-opacity="0"/>
</radialGradient>
<clipPath id="clip0_1450_7700">
<rect width="48" height="48" fill="white" transform="translate(8 19)"/>
</clipPath>
</defs>
</svg>
